<svg width="17" height="20" viewBox="0 0 17 20" fill="none" xmlns="http://www.w3.org/2000/svg">
<path fill-rule="evenodd" clip-rule="evenodd" d="M11.0837 3.19339C11.7837 2.34837 12.2538 1.17085 12.1254 0C11.1187 0.040834 9.90038 0.670845 9.17954 1.51586C8.53203 2.2642 7.96535 3.46172 8.11869 4.60924C9.24037 4.69675 10.3871 4.03923 11.0854 3.19339H11.0837ZM13.6021 10.6252C13.6304 13.6519 16.2572 14.6594 16.2855 14.6727C16.2647 14.7436 15.8672 16.1078 14.9021 17.517C14.0688 18.7353 13.2038 19.9495 11.8404 19.9745C10.5012 19.9987 10.0712 19.1803 8.53953 19.1803C7.0095 19.1803 6.53116 19.9495 5.2628 19.9987C3.94778 20.0487 2.9461 18.6811 2.10442 17.4678C0.387722 14.9844 -0.9248 10.451 0.83773 7.39096C1.71191 5.87093 3.27694 4.90842 4.9753 4.88425C6.26699 4.85925 7.48618 5.75343 8.27536 5.75343C9.06537 5.75343 10.5471 4.67841 12.1046 4.83591C12.7571 4.86341 14.5871 5.09925 15.763 6.82011C15.668 6.87845 13.5788 8.09514 13.6013 10.6252" fill="white"/>
</svg>
