<svg width="21" height="22" viewBox="0 0 21 22" fill="none" xmlns="http://www.w3.org/2000/svg">
<path d="M10.7845 21.912C8.75253 21.912 6.96853 21.48 5.43253 20.616C3.91253 19.768 2.72853 18.56 1.88053 16.992C1.03253 15.424 0.608531 13.576 0.608531 11.448C0.608531 9.88 0.856531 8.448 1.35253 7.152C1.86453 5.856 2.58453 4.744 3.51253 3.816C4.45653 2.872 5.56853 2.144 6.84853 1.632C8.12853 1.12 9.54453 0.863999 11.0965 0.863999C12.9525 0.863999 14.5765 1.24 15.9685 1.992C17.3605 2.728 18.4405 3.76 19.2085 5.088C19.9925 6.416 20.3845 7.968 20.3845 9.744C20.3845 11.136 20.1925 12.344 19.8085 13.368C19.4405 14.392 18.9125 15.184 18.2245 15.744C17.5365 16.304 16.7365 16.584 15.8245 16.584C15.0405 16.584 14.4085 16.4 13.9285 16.032C13.4485 15.648 13.1605 15.12 13.0645 14.448C12.6165 15.152 12.0725 15.688 11.4325 16.056C10.8085 16.408 10.1445 16.584 9.44053 16.584C8.20853 16.584 7.24853 16.2 6.56053 15.432C5.88853 14.648 5.55253 13.576 5.55253 12.216C5.55253 11.048 5.77653 10.008 6.22453 9.096C6.67253 8.168 7.28853 7.44 8.07253 6.912C8.85653 6.384 9.74453 6.12 10.7365 6.12C12.2725 6.12 13.2885 6.744 13.7845 7.992L14.0725 6.336H15.6565L14.5765 12.552C14.5125 12.968 14.4805 13.344 14.4805 13.68C14.4805 14.752 14.9605 15.288 15.9205 15.288C16.8325 15.288 17.5765 14.784 18.1525 13.776C18.7285 12.752 19.0165 11.408 19.0165 9.744C19.0165 8.224 18.6805 6.904 18.0085 5.784C17.3525 4.664 16.4325 3.792 15.2485 3.168C14.0645 2.544 12.6725 2.232 11.0725 2.232C9.29653 2.232 7.73653 2.616 6.39253 3.384C5.04853 4.152 4.00053 5.232 3.24853 6.624C2.49653 8 2.12053 9.608 2.12053 11.448C2.12053 13.352 2.47253 14.984 3.17653 16.344C3.88053 17.704 4.88053 18.744 6.17653 19.464C7.47253 20.2 9.00853 20.568 10.7845 20.568C12.0805 20.568 13.2485 20.36 14.2885 19.944C15.3445 19.544 16.2165 18.976 16.9045 18.24L17.6965 19.392C16.9125 20.208 15.9205 20.832 14.7205 21.264C13.5365 21.696 12.2245 21.912 10.7845 21.912ZM9.65653 15.192C10.3765 15.192 11.0085 14.984 11.5525 14.568C12.1125 14.136 12.5525 13.544 12.8725 12.792C13.1925 12.04 13.3525 11.176 13.3525 10.2C13.3525 8.408 12.5365 7.512 10.9045 7.512C10.2005 7.512 9.56853 7.72 9.00853 8.136C8.44853 8.536 8.00053 9.088 7.66453 9.792C7.34453 10.496 7.18453 11.304 7.18453 12.216C7.18453 13.176 7.40053 13.912 7.83253 14.424C8.26453 14.936 8.87253 15.192 9.65653 15.192Z" fill="white"/>
</svg>
