<svg width="16" height="20" viewBox="0 0 16 20" fill="none" xmlns="http://www.w3.org/2000/svg">
<g filter="url(#filter0_d_8715_4611)">
<path d="M2 2.5C2 1.83696 2.26339 1.20107 2.73223 0.732233C3.20107 0.263392 3.83696 0 4.5 0H11.5C12.163 0 12.7989 0.263392 13.2678 0.732233C13.7366 1.20107 14 1.83696 14 2.5V15.5C13.9999 15.5922 13.9744 15.6826 13.9261 15.7611C13.8779 15.8397 13.8089 15.9034 13.7267 15.9452C13.6446 15.987 13.5525 16.0053 13.4606 15.998C13.3687 15.9907 13.2806 15.9582 13.206 15.904L8 12.118L2.794 15.904C2.71943 15.9582 2.63133 15.9907 2.53944 15.998C2.44754 16.0053 2.35542 15.987 2.27326 15.9452C2.19109 15.9034 2.12209 15.8397 2.07387 15.7611C2.02564 15.6826 2.00008 15.5922 2 15.5V2.5ZM4.5 1C4.10218 1 3.72064 1.15804 3.43934 1.43934C3.15804 1.72064 3 2.10218 3 2.5V14.518L7.706 11.096C7.79144 11.0339 7.89436 11.0004 8 11.0004C8.10564 11.0004 8.20856 11.0339 8.294 11.096L13 14.518V2.5C13 2.10218 12.842 1.72064 12.5607 1.43934C12.2794 1.15804 11.8978 1 11.5 1H4.5Z" fill="white"/>
</g>
<defs>
<filter id="filter0_d_8715_4611" x="0" y="0" width="16" height="19.9995" filterUnits="userSpaceOnUse" color-interpolation-filters="sRGB">
<feFlood flood-opacity="0" result="BackgroundImageFix"/>
<feColorMatrix in="SourceAlpha" type="matrix" values="0 0 0 0 0 0 0 0 0 0 0 0 0 0 0 0 0 0 127 0" result="hardAlpha"/>
<feOffset dy="2"/>
<feGaussianBlur stdDeviation="1"/>
<feComposite in2="hardAlpha" operator="out"/>
<feColorMatrix type="matrix" values="0 0 0 0 0 0 0 0 0 0 0 0 0 0 0 0 0 0 0.25 0"/>
<feBlend mode="normal" in2="BackgroundImageFix" result="effect1_dropShadow_8715_4611"/>
<feBlend mode="normal" in="SourceGraphic" in2="effect1_dropShadow_8715_4611" result="shape"/>
</filter>
</defs>
</svg>
