<svg width="21" height="19" viewBox="0 0 21 19" fill="none" xmlns="http://www.w3.org/2000/svg">
<path d="M0 1.85294C0 1.36151 0.19522 0.890208 0.542714 0.542714C0.890208 0.19522 1.36151 0 1.85294 0H17.9118C18.4032 0 18.8745 0.19522 19.222 0.542714C19.5695 0.890208 19.7647 1.36151 19.7647 1.85294V7.72924C19.3837 7.41461 18.9695 7.14247 18.5294 6.91765V1.85294C18.5294 1.68913 18.4643 1.53203 18.3485 1.4162C18.2327 1.30037 18.0756 1.23529 17.9118 1.23529H1.85294C1.68913 1.23529 1.53203 1.30037 1.4162 1.4162C1.30037 1.53203 1.23529 1.68913 1.23529 1.85294V12.9706C1.23529 13.1344 1.30037 13.2915 1.4162 13.4073C1.53203 13.5232 1.68913 13.5882 1.85294 13.5882H4.94118V11.7353C4.94118 11.2439 5.1364 10.7726 5.48389 10.4251C5.83138 10.0776 6.30269 9.88235 6.79412 9.88235H9.38824C8.91388 10.8088 8.64706 11.8588 8.64706 12.9706C8.64706 13.6129 8.736 14.2343 8.90277 14.8235H1.85294C1.36151 14.8235 0.890208 14.6283 0.542714 14.2808C0.19522 13.9333 0 13.462 0 12.9706V1.85294Z" fill="url(#paint0_linear_5262_5659)"/>
<path d="M12.9704 5.55882C12.9704 5.97512 12.8877 6.37288 12.7382 6.73482C11.7603 7.16031 10.8959 7.80936 10.2145 8.62977C9.59315 8.69701 8.96605 8.57417 8.41602 8.27746C7.86599 7.98076 7.41891 7.52416 7.13387 6.968C6.84883 6.41184 6.73924 5.78228 6.81957 5.16251C6.89989 4.54274 7.16637 3.96193 7.58378 3.49681C8.00119 3.03169 8.54989 2.70416 9.15738 2.55748C9.76488 2.41081 10.4026 2.4519 10.9862 2.67532C11.5699 2.89874 12.072 3.29398 12.4263 3.80882C12.7806 4.32366 12.9703 4.93387 12.9704 5.55882Z" fill="url(#paint1_linear_5262_5659)"/>
<path d="M21.0005 12.9706C21.0005 14.4449 20.4148 15.8588 19.3723 16.9013C18.3298 17.9438 16.9159 18.5294 15.4416 18.5294C13.9673 18.5294 12.5534 17.9438 11.511 16.9013C10.4685 15.8588 9.88281 14.4449 9.88281 12.9706C9.88281 11.4963 10.4685 10.0824 11.511 9.03992C12.5534 7.99743 13.9673 7.41177 15.4416 7.41177C16.9159 7.41177 18.3298 7.99743 19.3723 9.03992C20.4148 10.0824 21.0005 11.4963 21.0005 12.9706ZM16.0296 9.70942C15.994 9.58089 15.9171 9.46758 15.8109 9.38685C15.7048 9.30612 15.575 9.26241 15.4416 9.26241C15.3082 9.26241 15.1785 9.30612 15.0723 9.38685C14.9661 9.46758 14.8893 9.58089 14.8536 9.70942L14.2644 11.6019H12.3534C11.7555 11.6019 11.506 12.4011 11.9902 12.768L13.5343 13.9378L12.9451 15.8303C12.7598 16.4232 13.412 16.9174 13.8963 16.5505L15.4404 15.3807L16.9845 16.5505C17.4688 16.9174 18.121 16.4232 17.9357 15.8303L17.3465 13.9378L18.8906 12.768C19.3748 12.4011 19.1253 11.6019 18.5274 11.6019H16.6189L16.0284 9.71066L16.0296 9.70942Z" fill="url(#paint2_linear_5262_5659)"/>
<defs>
<linearGradient id="paint0_linear_5262_5659" x1="9.88235" y1="0" x2="9.88235" y2="14.8235" gradientUnits="userSpaceOnUse">
<stop offset="0.145833" stop-color="#7AACFF"/>
<stop offset="0.666667" stop-color="#0060FF"/>
</linearGradient>
<linearGradient id="paint1_linear_5262_5659" x1="9.88218" y1="2.47122" x2="9.88218" y2="8.6477" gradientUnits="userSpaceOnUse">
<stop offset="0.145833" stop-color="#7AACFF"/>
<stop offset="0.666667" stop-color="#0060FF"/>
</linearGradient>
<linearGradient id="paint2_linear_5262_5659" x1="15.4416" y1="7.41177" x2="15.4416" y2="18.5294" gradientUnits="userSpaceOnUse">
<stop offset="0.145833" stop-color="#7AACFF"/>
<stop offset="0.666667" stop-color="#0060FF"/>
</linearGradient>
</defs>
</svg>
