<svg width="15" height="16" viewBox="0 0 15 16" fill="none" xmlns="http://www.w3.org/2000/svg">
<path fill-rule="evenodd" clip-rule="evenodd" d="M15 14.977C15 15.514 14.725 15.951 14.385 15.951H0.615C0.275 15.951 0 15.514 0 14.977C0 14.438 0.275 14.001 0.615 14.001H14.385C14.725 14.001 15 14.438 15 14.977Z" fill="white"/>
<path fill-rule="evenodd" clip-rule="evenodd" d="M3.94677 12.258C3.94677 12.635 3.58077 12.944 3.13077 12.944H1.90777C1.45677 12.944 1.09277 12.635 1.09277 12.258V8.81796C1.09277 8.43996 1.45677 8.13196 1.90777 8.13196H3.13077C3.58077 8.13196 3.94677 8.43996 3.94677 8.81796V12.258Z" fill="white"/>
<path fill-rule="evenodd" clip-rule="evenodd" d="M8.91113 12.259C8.91113 12.637 8.54613 12.944 8.09613 12.944H6.87213C6.42213 12.944 6.05713 12.637 6.05713 12.259V7.77899C6.05713 7.40099 6.42213 7.09399 6.87213 7.09399H8.09613C8.54613 7.09399 8.91113 7.40099 8.91113 7.77899V12.259Z" fill="white"/>
<path fill-rule="evenodd" clip-rule="evenodd" d="M13.9382 12.232C13.9382 12.607 13.5712 12.912 13.1142 12.912H11.8782C11.4222 12.912 11.0542 12.607 11.0542 12.232V5.727C11.0542 5.352 11.4222 5.047 11.8782 5.047H13.1142C13.5712 5.047 13.9382 5.352 13.9382 5.727V12.232Z" fill="white"/>
<path fill-rule="evenodd" clip-rule="evenodd" d="M0.73413 6.92097C0.55242 6.92165 0.377505 6.85195 0.246068 6.72648C0.114631 6.601 0.036883 6.42951 0.0291299 6.24797C0.026335 6.15589 0.0417962 6.06416 0.0746223 5.97808C0.107448 5.892 0.15699 5.81327 0.22039 5.74643C0.28379 5.67959 0.359794 5.62597 0.44402 5.58864C0.528246 5.55132 0.619028 5.53104 0.71113 5.52897C5.71513 5.35197 10.4791 3.42397 13.7851 0.235968C13.9202 0.106613 14.1006 0.0354052 14.2876 0.0376491C14.4746 0.039893 14.6532 0.11541 14.7851 0.247968C14.8499 0.312929 14.901 0.390147 14.9356 0.475107C14.9701 0.560067 14.9874 0.651064 14.9864 0.742777C14.9854 0.83449 14.9661 0.925078 14.9296 1.00925C14.8932 1.09341 14.8403 1.16947 14.7741 1.23297C11.1681 4.70997 6.19113 6.72997 0.76013 6.91997L0.73413 6.92097Z" fill="white"/>
</svg>
