<svg width="18" height="20" viewBox="0 0 18 20" fill="none" xmlns="http://www.w3.org/2000/svg">
<path d="M3.89757 0C3.33874 0 2.84816 0.369412 2.69521 0.905882L0.0481553 10.1694C-0.00504904 10.3555 -0.014313 10.5513 0.0210934 10.7416C0.0564999 10.9318 0.135609 11.1112 0.252185 11.2656C0.368761 11.4201 0.519617 11.5454 0.692862 11.6315C0.866107 11.7177 1.057 11.7625 1.25051 11.7624H2.7411L1.36463 17.2682C1.05521 18.5094 2.58933 19.3588 3.47757 18.4388L6.08816 15.7729C5.99971 15.2397 5.97798 14.6975 6.02345 14.1588L2.63521 17.6176L2.63051 17.6212C2.62275 17.6297 2.6136 17.6369 2.60345 17.6424C2.59984 17.6446 2.59586 17.6462 2.59169 17.6471C2.5744 17.6483 2.55715 17.6442 2.54227 17.6353C2.52723 17.6273 2.51493 17.615 2.50698 17.6C2.50463 17.596 2.50303 17.5916 2.50227 17.5871C2.50227 17.5824 2.50227 17.5706 2.50698 17.5518L4.0658 11.3165C4.08703 11.2298 4.08828 11.1395 4.06946 11.0523C4.05063 10.9651 4.01222 10.8834 3.95714 10.8132C3.90206 10.7431 3.83174 10.6863 3.75151 10.6474C3.67128 10.6084 3.58323 10.5882 3.49404 10.5882H1.25051C1.23905 10.5884 1.22773 10.5858 1.21745 10.5807C1.20718 10.5756 1.19824 10.5682 1.19137 10.5591C1.18449 10.5499 1.17987 10.5392 1.17788 10.528C1.1759 10.5167 1.17659 10.5051 1.17992 10.4941L3.82698 1.23059C3.83113 1.21505 3.8403 1.20131 3.85307 1.19153C3.86584 1.18174 3.88148 1.17644 3.89757 1.17647H10.0729C10.1223 1.17647 10.1564 1.22353 10.1434 1.27059L8.3858 6.27529C8.35457 6.36403 8.34508 6.45896 8.35812 6.55213C8.37116 6.64529 8.40635 6.73397 8.46074 6.81072C8.51514 6.88747 8.58715 6.95006 8.67073 6.99323C8.75431 7.0364 8.84702 7.05889 8.9411 7.05882H12.7882C12.8082 7.05882 12.8176 7.06353 12.8235 7.06824C12.8367 7.07861 12.8469 7.09245 12.8529 7.10824C12.8602 7.12445 12.863 7.14232 12.8611 7.16C12.8587 7.17439 12.8517 7.18761 12.8411 7.19765L11.7905 8.27059C12.3282 8.21442 12.8707 8.22509 13.4058 8.30235L13.6846 8.01765L13.6893 8.01294C14.4423 7.22824 13.9011 5.88235 12.787 5.88235H9.77169L11.2552 1.65412L11.2576 1.64471C11.3202 1.45702 11.3373 1.25716 11.3075 1.06156C11.2778 0.865966 11.202 0.68023 11.0865 0.519641C10.9709 0.359052 10.8189 0.228202 10.6429 0.137861C10.4668 0.0475192 10.2719 0.000269373 10.074 0H3.89757ZM12.4705 20C13.8746 20 15.2212 19.4422 16.214 18.4494C17.2069 17.4565 17.7646 16.11 17.7646 14.7059C17.7646 13.3018 17.2069 11.9552 16.214 10.9624C15.2212 9.96954 13.8746 9.41177 12.4705 9.41177C11.0664 9.41177 9.71984 9.96954 8.727 10.9624C7.73416 11.9552 7.17639 13.3018 7.17639 14.7059C7.17639 16.11 7.73416 17.4565 8.727 18.4494C9.71984 19.4422 11.0664 20 12.4705 20ZM15.2399 13.3576L11.7105 16.8871C11.6002 16.9973 11.4506 17.0593 11.2946 17.0593C11.1386 17.0593 10.9891 16.9973 10.8787 16.8871L9.70227 15.7106C9.59182 15.6003 9.5297 15.4506 9.52959 15.2945C9.52948 15.1384 9.59139 14.9887 9.70168 14.8782C9.81198 14.7678 9.96164 14.7057 10.1177 14.7056C10.2738 14.7054 10.4236 14.7673 10.534 14.8776L11.294 15.6388L14.4082 12.5247C14.5186 12.4144 14.6684 12.3525 14.8245 12.3526C14.9806 12.3527 15.1302 12.4148 15.2405 12.5253C15.3508 12.6357 15.4127 12.7855 15.4126 12.9416C15.4125 13.0977 15.3504 13.2473 15.2399 13.3576Z" fill="white"/>
</svg>
