<svg width="14" height="23" viewBox="0 0 14 23" fill="none" xmlns="http://www.w3.org/2000/svg">
<path d="M0 19.5714C0 19.3441 0.105357 19.1261 0.292893 18.9653C0.48043 18.8046 0.734784 18.7143 1 18.7143H3C3.26522 18.7143 3.51957 18.8046 3.70711 18.9653C3.89464 19.1261 4 19.3441 4 19.5714V22.1429C4 22.3702 3.89464 22.5882 3.70711 22.7489C3.51957 22.9097 3.26522 23 3 23H1C0.734784 23 0.48043 22.9097 0.292893 22.7489C0.105357 22.5882 0 22.3702 0 22.1429V19.5714ZM5 16.1429C5 15.9155 5.10536 15.6975 5.29289 15.5368C5.48043 15.376 5.73478 15.2857 6 15.2857H8C8.26522 15.2857 8.51957 15.376 8.70711 15.5368C8.89464 15.6975 9 15.9155 9 16.1429V22.1429C9 22.3702 8.89464 22.5882 8.70711 22.7489C8.51957 22.9097 8.26522 23 8 23H6C5.73478 23 5.48043 22.9097 5.29289 22.7489C5.10536 22.5882 5 22.3702 5 22.1429V16.1429ZM10 11.8571C10 11.6298 10.1054 11.4118 10.2929 11.2511C10.4804 11.0903 10.7348 11 11 11H13C13.2652 11 13.5196 11.0903 13.7071 11.2511C13.8946 11.4118 14 11.6298 14 11.8571V22.1429C14 22.3702 13.8946 22.5882 13.7071 22.7489C13.5196 22.9097 13.2652 23 13 23H11C10.7348 23 10.4804 22.9097 10.2929 22.7489C10.1054 22.5882 10 22.3702 10 22.1429V11.8571Z" fill="#030C23"/>
<path d="M12 8.33333H3.60524C3.49019 8.33329 3.37754 8.30016 3.28047 8.23783C3.1834 8.1755 3.10594 8.08655 3.05715 7.98139C3.00836 7.87623 2.99026 7.75922 3.00497 7.64405C3.01969 7.52888 3.06661 7.42033 3.14024 7.33111L5.33989 4.66667L3.14024 2.00222C3.06661 1.913 3.01969 1.80445 3.00497 1.68928C2.99026 1.57412 3.00836 1.4571 3.05715 1.35194C3.10594 1.24678 3.1834 1.15783 3.28047 1.0955C3.37754 1.03317 3.49019 1.00004 3.60524 1H12V12" stroke="#030C23" stroke-linecap="round" stroke-linejoin="round"/>
</svg>
