<svg width="16" height="14" viewBox="0 0 16 14" fill="none" xmlns="http://www.w3.org/2000/svg">
<path d="M7.47989 3.3H7.49289L7.7 3.50711L7.90711 3.3H7.9227H8.687H14C14.2387 3.3 14.4676 3.39482 14.6364 3.5636C14.8052 3.73239 14.9 3.96131 14.9 4.2V12.6C14.9 13.0939 14.4939 13.5 14 13.5H1.4C0.906143 13.5 0.5 13.0939 0.5 12.6V4.2C0.5 3.96131 0.594821 3.73239 0.763604 3.5636C0.932387 3.39482 1.16131 3.3 1.4 3.3H6.713H7.47989ZM14 13.1H14.5V12.6V4.2V3.7H14H1.4H0.9V4.2V12.6V13.1H1.4H14ZM6.1 6.46159L9.49222 8.4L6.1 10.3384V6.46159Z" stroke="#0060FF"/>
</svg>
