<svg width="360" height="129" viewBox="0 0 360 129" fill="none" xmlns="http://www.w3.org/2000/svg">
<g filter="url(#filter0_d_9785_9055)">
<line x1="15.25" y1="19" x2="15.25" y2="108" stroke="url(#paint0_linear_9785_9055)" stroke-width="0.5"/>
<path d="M15.0023 124.108C14.0343 124.108 13.2983 123.736 12.7943 122.992C12.2903 122.248 12.0383 121.172 12.0383 119.764C12.0383 118.348 12.2903 117.272 12.7943 116.536C13.2983 115.8 14.0343 115.432 15.0023 115.432C15.9783 115.432 16.7143 115.8 17.2103 116.536C17.7143 117.264 17.9663 118.336 17.9663 119.752C17.9663 121.168 17.7103 122.248 17.1983 122.992C16.6943 123.736 15.9623 124.108 15.0023 124.108ZM15.0023 123.256C15.6743 123.256 16.1703 122.972 16.4903 122.404C16.8183 121.836 16.9823 120.952 16.9823 119.752C16.9823 118.552 16.8223 117.676 16.5023 117.124C16.1823 116.564 15.6823 116.284 15.0023 116.284C14.3303 116.284 13.8303 116.564 13.5023 117.124C13.1823 117.684 13.0223 118.56 13.0223 119.752C13.0223 120.952 13.1823 121.836 13.5023 122.404C13.8303 122.972 14.3303 123.256 15.0023 123.256Z" fill="white"/>
</g>
<g filter="url(#filter1_d_9785_9055)">
<line x1="70.25" y1="19" x2="70.25" y2="108" stroke="url(#paint1_linear_9785_9055)" stroke-width="0.5"/>
<path d="M67.1823 124.108C66.6383 124.108 66.1183 124.02 65.6223 123.844C65.1263 123.668 64.7063 123.42 64.3623 123.1L64.7343 122.32C65.4783 122.928 66.2903 123.232 67.1703 123.232C67.7543 123.232 68.2143 123.068 68.5503 122.74C68.8863 122.412 69.0543 121.98 69.0543 121.444C69.0543 120.892 68.8943 120.44 68.5743 120.088C68.2543 119.736 67.8143 119.56 67.2543 119.56C66.4463 119.56 65.8103 119.896 65.3463 120.568H64.6263V115.54H69.5343V116.38H65.5983V119.404C66.0623 118.94 66.6743 118.708 67.4343 118.708C67.9623 118.708 68.4223 118.82 68.8143 119.044C69.2063 119.268 69.5063 119.584 69.7143 119.992C69.9303 120.392 70.0383 120.86 70.0383 121.396C70.0383 121.924 69.9223 122.392 69.6903 122.8C69.4583 123.208 69.1263 123.528 68.6943 123.76C68.2703 123.992 67.7663 124.108 67.1823 124.108ZM71.5097 124V115.54H72.4817V120.76H72.5057L75.2057 118.168H76.4417L73.5137 120.976L76.6937 124H75.4577L72.5057 121.264H72.4817V124H71.5097Z" fill="white"/>
</g>
<g filter="url(#filter2_d_9785_9055)">
<line x1="125.25" y1="19" x2="125.25" y2="108" stroke="url(#paint2_linear_9785_9055)" stroke-width="0.5"/>
<path d="M119.085 124.108C118.541 124.108 118.021 124.02 117.525 123.844C117.029 123.668 116.609 123.42 116.265 123.1L116.637 122.32C117.381 122.928 118.193 123.232 119.073 123.232C119.657 123.232 120.117 123.068 120.453 122.74C120.789 122.412 120.957 121.98 120.957 121.444C120.957 120.892 120.797 120.44 120.477 120.088C120.157 119.736 119.717 119.56 119.157 119.56C118.349 119.56 117.713 119.896 117.249 120.568H116.529V115.54H121.437V116.38H117.501V119.404C117.965 118.94 118.577 118.708 119.337 118.708C119.865 118.708 120.325 118.82 120.717 119.044C121.109 119.268 121.409 119.584 121.617 119.992C121.833 120.392 121.941 120.86 121.941 121.396C121.941 121.924 121.825 122.392 121.593 122.8C121.361 123.208 121.029 123.528 120.597 123.76C120.173 123.992 119.669 124.108 119.085 124.108ZM126.1 124.108C125.132 124.108 124.396 123.736 123.892 122.992C123.388 122.248 123.136 121.172 123.136 119.764C123.136 118.348 123.388 117.272 123.892 116.536C124.396 115.8 125.132 115.432 126.1 115.432C127.076 115.432 127.812 115.8 128.308 116.536C128.812 117.264 129.064 118.336 129.064 119.752C129.064 121.168 128.808 122.248 128.296 122.992C127.792 123.736 127.06 124.108 126.1 124.108ZM126.1 123.256C126.772 123.256 127.268 122.972 127.588 122.404C127.916 121.836 128.08 120.952 128.08 119.752C128.08 118.552 127.92 117.676 127.6 117.124C127.28 116.564 126.78 116.284 126.1 116.284C125.428 116.284 124.928 116.564 124.6 117.124C124.28 117.684 124.12 118.56 124.12 119.752C124.12 120.952 124.28 121.836 124.6 122.404C124.928 122.972 125.428 123.256 126.1 123.256ZM130.607 124V115.54H131.579V120.76H131.603L134.303 118.168H135.539L132.611 120.976L135.791 124H134.555L131.603 121.264H131.579V124H130.607Z" fill="white"/>
</g>
<g filter="url(#filter3_d_9785_9055)">
<line x1="180.25" y1="19" x2="180.25" y2="108" stroke="url(#paint3_linear_9785_9055)" stroke-width="0.5"/>
<path d="M167.287 124V123.256L170.179 120.136C170.587 119.688 170.879 119.28 171.055 118.912C171.239 118.544 171.331 118.168 171.331 117.784C171.331 116.8 170.759 116.308 169.615 116.308C168.759 116.308 168.003 116.628 167.347 117.268L166.975 116.5C167.287 116.18 167.683 115.924 168.163 115.732C168.651 115.532 169.163 115.432 169.699 115.432C170.547 115.432 171.195 115.632 171.643 116.032C172.099 116.424 172.327 116.984 172.327 117.712C172.327 118.216 172.203 118.712 171.955 119.2C171.707 119.68 171.327 120.192 170.815 120.736L168.547 123.16H172.675V124H167.287ZM177.002 124.108C176.034 124.108 175.298 123.736 174.794 122.992C174.29 122.248 174.038 121.172 174.038 119.764C174.038 118.348 174.29 117.272 174.794 116.536C175.298 115.8 176.034 115.432 177.002 115.432C177.978 115.432 178.714 115.8 179.21 116.536C179.714 117.264 179.966 118.336 179.966 119.752C179.966 121.168 179.71 122.248 179.198 122.992C178.694 123.736 177.962 124.108 177.002 124.108ZM177.002 123.256C177.674 123.256 178.17 122.972 178.49 122.404C178.818 121.836 178.982 120.952 178.982 119.752C178.982 118.552 178.822 117.676 178.502 117.124C178.182 116.564 177.682 116.284 177.002 116.284C176.33 116.284 175.83 116.564 175.502 117.124C175.182 117.684 175.022 118.56 175.022 119.752C175.022 120.952 175.182 121.836 175.502 122.404C175.83 122.972 176.33 123.256 177.002 123.256ZM184.198 124.108C183.23 124.108 182.494 123.736 181.99 122.992C181.486 122.248 181.234 121.172 181.234 119.764C181.234 118.348 181.486 117.272 181.99 116.536C182.494 115.8 183.23 115.432 184.198 115.432C185.174 115.432 185.91 115.8 186.406 116.536C186.91 117.264 187.162 118.336 187.162 119.752C187.162 121.168 186.906 122.248 186.394 122.992C185.89 123.736 185.158 124.108 184.198 124.108ZM184.198 123.256C184.87 123.256 185.366 122.972 185.686 122.404C186.014 121.836 186.178 120.952 186.178 119.752C186.178 118.552 186.018 117.676 185.698 117.124C185.378 116.564 184.878 116.284 184.198 116.284C183.526 116.284 183.026 116.564 182.698 117.124C182.378 117.684 182.218 118.56 182.218 119.752C182.218 120.952 182.378 121.836 182.698 122.404C183.026 122.972 183.526 123.256 184.198 123.256ZM188.705 124V115.54H189.677V120.76H189.701L192.401 118.168H193.637L190.709 120.976L193.889 124H192.653L189.701 121.264H189.677V124H188.705Z" fill="white"/>
</g>
<g filter="url(#filter4_d_9785_9055)">
<line x1="235.25" y1="19" x2="235.25" y2="108" stroke="url(#paint4_linear_9785_9055)" stroke-width="0.5"/>
<path d="M227.758 124V123.16H229.69V116.728L228.166 117.688L227.746 116.956L229.966 115.54H230.674V123.16H232.486V124H227.758ZM234.533 124V115.54H235.361L238.613 121.648L241.841 115.54H242.669V124H241.757V117.388L238.937 122.692H238.289L235.433 117.4V124H234.533Z" fill="white"/>
</g>
<g filter="url(#filter5_d_9785_9055)">
<line x1="290.25" y1="19" x2="290.25" y2="108" stroke="url(#paint5_linear_9785_9055)" stroke-width="0.5"/>
<path d="M285.05 124.108C284.506 124.108 283.986 124.02 283.49 123.844C282.994 123.668 282.574 123.42 282.23 123.1L282.602 122.32C283.346 122.928 284.158 123.232 285.038 123.232C285.622 123.232 286.082 123.068 286.418 122.74C286.754 122.412 286.922 121.98 286.922 121.444C286.922 120.892 286.762 120.44 286.442 120.088C286.122 119.736 285.682 119.56 285.122 119.56C284.314 119.56 283.678 119.896 283.214 120.568H282.494V115.54H287.402V116.38H283.466V119.404C283.93 118.94 284.542 118.708 285.302 118.708C285.83 118.708 286.29 118.82 286.682 119.044C287.074 119.268 287.374 119.584 287.582 119.992C287.798 120.392 287.906 120.86 287.906 121.396C287.906 121.924 287.79 122.392 287.558 122.8C287.326 123.208 286.994 123.528 286.562 123.76C286.138 123.992 285.634 124.108 285.05 124.108ZM289.533 124V115.54H290.361L293.613 121.648L296.841 115.54H297.669V124H296.757V117.388L293.937 122.692H293.289L290.433 117.4V124H289.533Z" fill="white"/>
</g>
<g filter="url(#filter6_d_9785_9055)">
<line x1="345.25" y1="19" x2="345.25" y2="108" stroke="url(#paint6_linear_9785_9055)" stroke-width="0.5"/>
<path d="M336.952 124.108C336.408 124.108 335.888 124.02 335.392 123.844C334.896 123.668 334.476 123.42 334.132 123.1L334.504 122.32C335.248 122.928 336.06 123.232 336.94 123.232C337.524 123.232 337.984 123.068 338.32 122.74C338.656 122.412 338.824 121.98 338.824 121.444C338.824 120.892 338.664 120.44 338.344 120.088C338.024 119.736 337.584 119.56 337.024 119.56C336.216 119.56 335.58 119.896 335.116 120.568H334.396V115.54H339.304V116.38H335.368V119.404C335.832 118.94 336.444 118.708 337.204 118.708C337.732 118.708 338.192 118.82 338.584 119.044C338.976 119.268 339.276 119.584 339.484 119.992C339.7 120.392 339.808 120.86 339.808 121.396C339.808 121.924 339.692 122.392 339.46 122.8C339.228 123.208 338.896 123.528 338.464 123.76C338.04 123.992 337.536 124.108 336.952 124.108ZM341.435 124V115.54H342.263L345.515 121.648L348.743 115.54H349.571V124H348.659V117.388L345.839 122.692H345.191L342.335 117.4V124H341.435ZM353.849 123.52V120.928H351.305V120.184H353.849V117.664H354.617V120.184H357.161V120.928H354.617V123.52H353.849Z" fill="white"/>
</g>
<path d="M358.354 109.354C358.549 109.158 358.549 108.842 358.354 108.646L355.172 105.464C354.976 105.269 354.66 105.269 354.464 105.464C354.269 105.66 354.269 105.976 354.464 106.172L357.293 109L354.464 111.828C354.269 112.024 354.269 112.34 354.464 112.536C354.66 112.731 354.976 112.731 355.172 112.536L358.354 109.354ZM15 109.5H358V108.5H15V109.5Z" fill="url(#paint7_linear_9785_9055)"/>




<defs>
<filter id="filter0_d_9785_9055" x="-2" y="19" width="34" height="110" filterUnits="userSpaceOnUse" color-interpolation-filters="sRGB">
<feFlood flood-opacity="0" result="BackgroundImageFix"/>
<feColorMatrix in="SourceAlpha" type="matrix" values="0 0 0 0 0 0 0 0 0 0 0 0 0 0 0 0 0 0 127 0" result="hardAlpha"/>
<feOffset dy="2"/>
<feGaussianBlur stdDeviation="1"/>
<feComposite in2="hardAlpha" operator="out"/>
<feColorMatrix type="matrix" values="0 0 0 0 0 0 0 0 0 0 0 0 0 0 0 0 0 0 0.25 0"/>
<feBlend mode="normal" in2="BackgroundImageFix" result="effect1_dropShadow_9785_9055"/>
<feBlend mode="normal" in="SourceGraphic" in2="effect1_dropShadow_9785_9055" result="shape"/>
</filter>
<filter id="filter1_d_9785_9055" x="53" y="19" width="34" height="110" filterUnits="userSpaceOnUse" color-interpolation-filters="sRGB">
<feFlood flood-opacity="0" result="BackgroundImageFix"/>
<feColorMatrix in="SourceAlpha" type="matrix" values="0 0 0 0 0 0 0 0 0 0 0 0 0 0 0 0 0 0 127 0" result="hardAlpha"/>
<feOffset dy="2"/>
<feGaussianBlur stdDeviation="1"/>
<feComposite in2="hardAlpha" operator="out"/>
<feColorMatrix type="matrix" values="0 0 0 0 0 0 0 0 0 0 0 0 0 0 0 0 0 0 0.25 0"/>
<feBlend mode="normal" in2="BackgroundImageFix" result="effect1_dropShadow_9785_9055"/>
<feBlend mode="normal" in="SourceGraphic" in2="effect1_dropShadow_9785_9055" result="shape"/>
</filter>
<filter id="filter2_d_9785_9055" x="108" y="19" width="34" height="110" filterUnits="userSpaceOnUse" color-interpolation-filters="sRGB">
<feFlood flood-opacity="0" result="BackgroundImageFix"/>
<feColorMatrix in="SourceAlpha" type="matrix" values="0 0 0 0 0 0 0 0 0 0 0 0 0 0 0 0 0 0 127 0" result="hardAlpha"/>
<feOffset dy="2"/>
<feGaussianBlur stdDeviation="1"/>
<feComposite in2="hardAlpha" operator="out"/>
<feColorMatrix type="matrix" values="0 0 0 0 0 0 0 0 0 0 0 0 0 0 0 0 0 0 0.25 0"/>
<feBlend mode="normal" in2="BackgroundImageFix" result="effect1_dropShadow_9785_9055"/>
<feBlend mode="normal" in="SourceGraphic" in2="effect1_dropShadow_9785_9055" result="shape"/>
</filter>
<filter id="filter3_d_9785_9055" x="163" y="19" width="34" height="110" filterUnits="userSpaceOnUse" color-interpolation-filters="sRGB">
<feFlood flood-opacity="0" result="BackgroundImageFix"/>
<feColorMatrix in="SourceAlpha" type="matrix" values="0 0 0 0 0 0 0 0 0 0 0 0 0 0 0 0 0 0 127 0" result="hardAlpha"/>
<feOffset dy="2"/>
<feGaussianBlur stdDeviation="1"/>
<feComposite in2="hardAlpha" operator="out"/>
<feColorMatrix type="matrix" values="0 0 0 0 0 0 0 0 0 0 0 0 0 0 0 0 0 0 0.25 0"/>
<feBlend mode="normal" in2="BackgroundImageFix" result="effect1_dropShadow_9785_9055"/>
<feBlend mode="normal" in="SourceGraphic" in2="effect1_dropShadow_9785_9055" result="shape"/>
</filter>
<filter id="filter4_d_9785_9055" x="218" y="19" width="34" height="110" filterUnits="userSpaceOnUse" color-interpolation-filters="sRGB">
<feFlood flood-opacity="0" result="BackgroundImageFix"/>
<feColorMatrix in="SourceAlpha" type="matrix" values="0 0 0 0 0 0 0 0 0 0 0 0 0 0 0 0 0 0 127 0" result="hardAlpha"/>
<feOffset dy="2"/>
<feGaussianBlur stdDeviation="1"/>
<feComposite in2="hardAlpha" operator="out"/>
<feColorMatrix type="matrix" values="0 0 0 0 0 0 0 0 0 0 0 0 0 0 0 0 0 0 0.25 0"/>
<feBlend mode="normal" in2="BackgroundImageFix" result="effect1_dropShadow_9785_9055"/>
<feBlend mode="normal" in="SourceGraphic" in2="effect1_dropShadow_9785_9055" result="shape"/>
</filter>
<filter id="filter5_d_9785_9055" x="273" y="19" width="34" height="110" filterUnits="userSpaceOnUse" color-interpolation-filters="sRGB">
<feFlood flood-opacity="0" result="BackgroundImageFix"/>
<feColorMatrix in="SourceAlpha" type="matrix" values="0 0 0 0 0 0 0 0 0 0 0 0 0 0 0 0 0 0 127 0" result="hardAlpha"/>
<feOffset dy="2"/>
<feGaussianBlur stdDeviation="1"/>
<feComposite in2="hardAlpha" operator="out"/>
<feColorMatrix type="matrix" values="0 0 0 0 0 0 0 0 0 0 0 0 0 0 0 0 0 0 0.25 0"/>
<feBlend mode="normal" in2="BackgroundImageFix" result="effect1_dropShadow_9785_9055"/>
<feBlend mode="normal" in="SourceGraphic" in2="effect1_dropShadow_9785_9055" result="shape"/>
</filter>
<filter id="filter6_d_9785_9055" x="328" y="19" width="34" height="110" filterUnits="userSpaceOnUse" color-interpolation-filters="sRGB">
<feFlood flood-opacity="0" result="BackgroundImageFix"/>
<feColorMatrix in="SourceAlpha" type="matrix" values="0 0 0 0 0 0 0 0 0 0 0 0 0 0 0 0 0 0 127 0" result="hardAlpha"/>
<feOffset dy="2"/>
<feGaussianBlur stdDeviation="1"/>
<feComposite in2="hardAlpha" operator="out"/>
<feColorMatrix type="matrix" values="0 0 0 0 0 0 0 0 0 0 0 0 0 0 0 0 0 0 0.25 0"/>
<feBlend mode="normal" in2="BackgroundImageFix" result="effect1_dropShadow_9785_9055"/>
<feBlend mode="normal" in="SourceGraphic" in2="effect1_dropShadow_9785_9055" result="shape"/>
</filter>
<filter id="filter7_d_9785_9055" x="30.3054" y="21.835" width="25.5322" height="13.2822" filterUnits="userSpaceOnUse" color-interpolation-filters="sRGB">
<feFlood flood-opacity="0" result="BackgroundImageFix"/>
<feColorMatrix in="SourceAlpha" type="matrix" values="0 0 0 0 0 0 0 0 0 0 0 0 0 0 0 0 0 0 127 0" result="hardAlpha"/>
<feOffset dy="2"/>
<feGaussianBlur stdDeviation="1"/>
<feComposite in2="hardAlpha" operator="out"/>
<feColorMatrix type="matrix" values="0 0 0 0 0 0 0 0 0 0 0 0 0 0 0 0 0 0 0.25 0"/>
<feBlend mode="normal" in2="BackgroundImageFix" result="effect1_dropShadow_9785_9055"/>
<feBlend mode="normal" in="SourceGraphic" in2="effect1_dropShadow_9785_9055" result="shape"/>
</filter>
<filter id="filter8_d_9785_9055" x="74.9165" y="16.668" width="44.3352" height="17.0059" filterUnits="userSpaceOnUse" color-interpolation-filters="sRGB">
<feFlood flood-opacity="0" result="BackgroundImageFix"/>
<feColorMatrix in="SourceAlpha" type="matrix" values="0 0 0 0 0 0 0 0 0 0 0 0 0 0 0 0 0 0 127 0" result="hardAlpha"/>
<feOffset dy="2"/>
<feGaussianBlur stdDeviation="1"/>
<feComposite in2="hardAlpha" operator="out"/>
<feColorMatrix type="matrix" values="0 0 0 0 0 0 0 0 0 0 0 0 0 0 0 0 0 0 0.25 0"/>
<feBlend mode="normal" in2="BackgroundImageFix" result="effect1_dropShadow_9785_9055"/>
<feBlend mode="normal" in="SourceGraphic" in2="effect1_dropShadow_9785_9055" result="shape"/>
</filter>
<filter id="filter9_d_9785_9055" x="182.015" y="22.4316" width="51.6096" height="14.7285" filterUnits="userSpaceOnUse" color-interpolation-filters="sRGB">
<feFlood flood-opacity="0" result="BackgroundImageFix"/>
<feColorMatrix in="SourceAlpha" type="matrix" values="0 0 0 0 0 0 0 0 0 0 0 0 0 0 0 0 0 0 127 0" result="hardAlpha"/>
<feOffset dy="2"/>
<feGaussianBlur stdDeviation="1"/>
<feComposite in2="hardAlpha" operator="out"/>
<feColorMatrix type="matrix" values="0 0 0 0 0 0 0 0 0 0 0 0 0 0 0 0 0 0 0.25 0"/>
<feBlend mode="normal" in2="BackgroundImageFix" result="effect1_dropShadow_9785_9055"/>
<feBlend mode="normal" in="SourceGraphic" in2="effect1_dropShadow_9785_9055" result="shape"/>
</filter>
<filter id="filter10_d_9785_9055" x="132.147" y="21.835" width="42.8831" height="13.2822" filterUnits="userSpaceOnUse" color-interpolation-filters="sRGB">
<feFlood flood-opacity="0" result="BackgroundImageFix"/>
<feColorMatrix in="SourceAlpha" type="matrix" values="0 0 0 0 0 0 0 0 0 0 0 0 0 0 0 0 0 0 127 0" result="hardAlpha"/>
<feOffset dy="2"/>
<feGaussianBlur stdDeviation="1"/>
<feComposite in2="hardAlpha" operator="out"/>
<feColorMatrix type="matrix" values="0 0 0 0 0 0 0 0 0 0 0 0 0 0 0 0 0 0 0.25 0"/>
<feBlend mode="normal" in2="BackgroundImageFix" result="effect1_dropShadow_9785_9055"/>
<feBlend mode="normal" in="SourceGraphic" in2="effect1_dropShadow_9785_9055" result="shape"/>
</filter>
<filter id="filter11_d_9785_9055" x="249.102" y="21.7178" width="27.3242" height="13.3994" filterUnits="userSpaceOnUse" color-interpolation-filters="sRGB">
<feFlood flood-opacity="0" result="BackgroundImageFix"/>
<feColorMatrix in="SourceAlpha" type="matrix" values="0 0 0 0 0 0 0 0 0 0 0 0 0 0 0 0 0 0 127 0" result="hardAlpha"/>
<feOffset dy="2"/>
<feGaussianBlur stdDeviation="1"/>
<feComposite in2="hardAlpha" operator="out"/>
<feColorMatrix type="matrix" values="0 0 0 0 0 0 0 0 0 0 0 0 0 0 0 0 0 0 0.25 0"/>
<feBlend mode="normal" in2="BackgroundImageFix" result="effect1_dropShadow_9785_9055"/>
<feBlend mode="normal" in="SourceGraphic" in2="effect1_dropShadow_9785_9055" result="shape"/>
</filter>
<filter id="filter12_d_9785_9055" x="297.916" y="3.71777" width="37.6963" height="31.3994" filterUnits="userSpaceOnUse" color-interpolation-filters="sRGB">
<feFlood flood-opacity="0" result="BackgroundImageFix"/>
<feColorMatrix in="SourceAlpha" type="matrix" values="0 0 0 0 0 0 0 0 0 0 0 0 0 0 0 0 0 0 127 0" result="hardAlpha"/>
<feOffset dy="2"/>
<feGaussianBlur stdDeviation="1"/>
<feComposite in2="hardAlpha" operator="out"/>
<feColorMatrix type="matrix" values="0 0 0 0 0 0 0 0 0 0 0 0 0 0 0 0 0 0 0.25 0"/>
<feBlend mode="normal" in2="BackgroundImageFix" result="effect1_dropShadow_9785_9055"/>
<feBlend mode="normal" in="SourceGraphic" in2="effect1_dropShadow_9785_9055" result="shape"/>
</filter>
<filter id="filter13_d_9785_9055" x="290.932" y="56.8604" width="55.6753" height="11.2295" filterUnits="userSpaceOnUse" color-interpolation-filters="sRGB">
<feFlood flood-opacity="0" result="BackgroundImageFix"/>
<feColorMatrix in="SourceAlpha" type="matrix" values="0 0 0 0 0 0 0 0 0 0 0 0 0 0 0 0 0 0 127 0" result="hardAlpha"/>
<feOffset dy="2"/>
<feGaussianBlur stdDeviation="1"/>
<feComposite in2="hardAlpha" operator="out"/>
<feColorMatrix type="matrix" values="0 0 0 0 0 0 0 0 0 0 0 0 0 0 0 0 0 0 0.25 0"/>
<feBlend mode="normal" in2="BackgroundImageFix" result="effect1_dropShadow_9785_9055"/>
<feBlend mode="normal" in="SourceGraphic" in2="effect1_dropShadow_9785_9055" result="shape"/>
</filter>
<filter id="filter14_d_9785_9055" x="241.928" y="56.8604" width="43.6831" height="11.2295" filterUnits="userSpaceOnUse" color-interpolation-filters="sRGB">
<feFlood flood-opacity="0" result="BackgroundImageFix"/>
<feColorMatrix in="SourceAlpha" type="matrix" values="0 0 0 0 0 0 0 0 0 0 0 0 0 0 0 0 0 0 127 0" result="hardAlpha"/>
<feOffset dy="2"/>
<feGaussianBlur stdDeviation="1"/>
<feComposite in2="hardAlpha" operator="out"/>
<feColorMatrix type="matrix" values="0 0 0 0 0 0 0 0 0 0 0 0 0 0 0 0 0 0 0.25 0"/>
<feBlend mode="normal" in2="BackgroundImageFix" result="effect1_dropShadow_9785_9055"/>
<feBlend mode="normal" in="SourceGraphic" in2="effect1_dropShadow_9785_9055" result="shape"/>
</filter>
<filter id="filter15_d_9785_9055" x="186.795" y="56.8604" width="43.6892" height="11.2295" filterUnits="userSpaceOnUse" color-interpolation-filters="sRGB">
<feFlood flood-opacity="0" result="BackgroundImageFix"/>
<feColorMatrix in="SourceAlpha" type="matrix" values="0 0 0 0 0 0 0 0 0 0 0 0 0 0 0 0 0 0 127 0" result="hardAlpha"/>
<feOffset dy="2"/>
<feGaussianBlur stdDeviation="1"/>
<feComposite in2="hardAlpha" operator="out"/>
<feColorMatrix type="matrix" values="0 0 0 0 0 0 0 0 0 0 0 0 0 0 0 0 0 0 0.25 0"/>
<feBlend mode="normal" in2="BackgroundImageFix" result="effect1_dropShadow_9785_9055"/>
<feBlend mode="normal" in="SourceGraphic" in2="effect1_dropShadow_9785_9055" result="shape"/>
</filter>
<filter id="filter16_d_9785_9055" x="132.922" y="56.8604" width="42.4392" height="11.2295" filterUnits="userSpaceOnUse" color-interpolation-filters="sRGB">
<feFlood flood-opacity="0" result="BackgroundImageFix"/>
<feColorMatrix in="SourceAlpha" type="matrix" values="0 0 0 0 0 0 0 0 0 0 0 0 0 0 0 0 0 0 127 0" result="hardAlpha"/>
<feOffset dy="2"/>
<feGaussianBlur stdDeviation="1"/>
<feComposite in2="hardAlpha" operator="out"/>
<feColorMatrix type="matrix" values="0 0 0 0 0 0 0 0 0 0 0 0 0 0 0 0 0 0 0.25 0"/>
<feBlend mode="normal" in2="BackgroundImageFix" result="effect1_dropShadow_9785_9055"/>
<feBlend mode="normal" in="SourceGraphic" in2="effect1_dropShadow_9785_9055" result="shape"/>
</filter>
<filter id="filter17_d_9785_9055" x="75.8823" y="56.8604" width="42.4792" height="11.2295" filterUnits="userSpaceOnUse" color-interpolation-filters="sRGB">
<feFlood flood-opacity="0" result="BackgroundImageFix"/>
<feColorMatrix in="SourceAlpha" type="matrix" values="0 0 0 0 0 0 0 0 0 0 0 0 0 0 0 0 0 0 127 0" result="hardAlpha"/>
<feOffset dy="2"/>
<feGaussianBlur stdDeviation="1"/>
<feComposite in2="hardAlpha" operator="out"/>
<feColorMatrix type="matrix" values="0 0 0 0 0 0 0 0 0 0 0 0 0 0 0 0 0 0 0.25 0"/>
<feBlend mode="normal" in2="BackgroundImageFix" result="effect1_dropShadow_9785_9055"/>
<feBlend mode="normal" in="SourceGraphic" in2="effect1_dropShadow_9785_9055" result="shape"/>
</filter>
<filter id="filter18_d_9785_9055" x="25.1804" y="56.8604" width="36.1831" height="11.2295" filterUnits="userSpaceOnUse" color-interpolation-filters="sRGB">
<feFlood flood-opacity="0" result="BackgroundImageFix"/>
<feColorMatrix in="SourceAlpha" type="matrix" values="0 0 0 0 0 0 0 0 0 0 0 0 0 0 0 0 0 0 127 0" result="hardAlpha"/>
<feOffset dy="2"/>
<feGaussianBlur stdDeviation="1"/>
<feComposite in2="hardAlpha" operator="out"/>
<feColorMatrix type="matrix" values="0 0 0 0 0 0 0 0 0 0 0 0 0 0 0 0 0 0 0.25 0"/>
<feBlend mode="normal" in2="BackgroundImageFix" result="effect1_dropShadow_9785_9055"/>
<feBlend mode="normal" in="SourceGraphic" in2="effect1_dropShadow_9785_9055" result="shape"/>
</filter>
<filter id="filter19_d_9785_9055" x="19.76" y="42.8604" width="46.3008" height="11.2295" filterUnits="userSpaceOnUse" color-interpolation-filters="sRGB">
<feFlood flood-opacity="0" result="BackgroundImageFix"/>
<feColorMatrix in="SourceAlpha" type="matrix" values="0 0 0 0 0 0 0 0 0 0 0 0 0 0 0 0 0 0 127 0" result="hardAlpha"/>
<feOffset dy="2"/>
<feGaussianBlur stdDeviation="1"/>
<feComposite in2="hardAlpha" operator="out"/>
<feColorMatrix type="matrix" values="0 0 0 0 0 0 0 0 0 0 0 0 0 0 0 0 0 0 0.25 0"/>
<feBlend mode="normal" in2="BackgroundImageFix" result="effect1_dropShadow_9785_9055"/>
<feBlend mode="normal" in="SourceGraphic" in2="effect1_dropShadow_9785_9055" result="shape"/>
</filter>
<filter id="filter20_d_9785_9055" x="74" y="35" width="46" height="5" filterUnits="userSpaceOnUse" color-interpolation-filters="sRGB">
<feFlood flood-opacity="0" result="BackgroundImageFix"/>
<feColorMatrix in="SourceAlpha" type="matrix" values="0 0 0 0 0 0 0 0 0 0 0 0 0 0 0 0 0 0 127 0" result="hardAlpha"/>
<feOffset dy="2"/>
<feGaussianBlur stdDeviation="1"/>
<feComposite in2="hardAlpha" operator="out"/>
<feColorMatrix type="matrix" values="0 0 0 0 0 0 0 0 0 0 0 0 0 0 0 0 0 0 0.25 0"/>
<feBlend mode="normal" in2="BackgroundImageFix" result="effect1_dropShadow_9785_9055"/>
<feBlend mode="normal" in="SourceGraphic" in2="effect1_dropShadow_9785_9055" result="shape"/>
</filter>
<linearGradient id="paint0_linear_9785_9055" x1="14.9806" y1="20.6069" x2="13.8359" y2="20.6097" gradientUnits="userSpaceOnUse">
<stop stop-color="white" stop-opacity="0.6"/>
<stop offset="0.307292" stop-color="white" stop-opacity="0.477083"/>
<stop offset="1" stop-color="white" stop-opacity="0.2"/>
<stop offset="1" stop-color="white" stop-opacity="0.2"/>
</linearGradient>
<linearGradient id="paint1_linear_9785_9055" x1="69.9806" y1="20.6069" x2="68.8359" y2="20.6097" gradientUnits="userSpaceOnUse">
<stop stop-color="white" stop-opacity="0.6"/>
<stop offset="0.307292" stop-color="white" stop-opacity="0.477083"/>
<stop offset="1" stop-color="white" stop-opacity="0.2"/>
<stop offset="1" stop-color="white" stop-opacity="0.2"/>
</linearGradient>
<linearGradient id="paint2_linear_9785_9055" x1="124.981" y1="20.6069" x2="123.836" y2="20.6097" gradientUnits="userSpaceOnUse">
<stop stop-color="white" stop-opacity="0.6"/>
<stop offset="0.307292" stop-color="white" stop-opacity="0.477083"/>
<stop offset="1" stop-color="white" stop-opacity="0.2"/>
<stop offset="1" stop-color="white" stop-opacity="0.2"/>
</linearGradient>
<linearGradient id="paint3_linear_9785_9055" x1="179.981" y1="20.6069" x2="178.836" y2="20.6097" gradientUnits="userSpaceOnUse">
<stop stop-color="white" stop-opacity="0.6"/>
<stop offset="0.307292" stop-color="white" stop-opacity="0.477083"/>
<stop offset="1" stop-color="white" stop-opacity="0.2"/>
<stop offset="1" stop-color="white" stop-opacity="0.2"/>
</linearGradient>
<linearGradient id="paint4_linear_9785_9055" x1="234.981" y1="20.6069" x2="233.836" y2="20.6097" gradientUnits="userSpaceOnUse">
<stop stop-color="white" stop-opacity="0.6"/>
<stop offset="0.307292" stop-color="white" stop-opacity="0.477083"/>
<stop offset="1" stop-color="white" stop-opacity="0.2"/>
<stop offset="1" stop-color="white" stop-opacity="0.2"/>
</linearGradient>
<linearGradient id="paint5_linear_9785_9055" x1="289.981" y1="20.6069" x2="288.836" y2="20.6097" gradientUnits="userSpaceOnUse">
<stop stop-color="white" stop-opacity="0.6"/>
<stop offset="0.307292" stop-color="white" stop-opacity="0.477083"/>
<stop offset="1" stop-color="white" stop-opacity="0.2"/>
<stop offset="1" stop-color="white" stop-opacity="0.2"/>
</linearGradient>
<linearGradient id="paint6_linear_9785_9055" x1="344.981" y1="20.6069" x2="343.836" y2="20.6097" gradientUnits="userSpaceOnUse">
<stop stop-color="white" stop-opacity="0.6"/>
<stop offset="0.307292" stop-color="white" stop-opacity="0.477083"/>
<stop offset="1" stop-color="white" stop-opacity="0.2"/>
<stop offset="1" stop-color="white" stop-opacity="0.2"/>
</linearGradient>
<linearGradient id="paint7_linear_9785_9055" x1="186.5" y1="109" x2="186.5" y2="110" gradientUnits="userSpaceOnUse">
<stop offset="0.145833" stop-color="#7AACFF"/>
<stop offset="0.666667" stop-color="#0060FF"/>
</linearGradient>
</defs>
</svg>
