<svg width="360" height="129" viewBox="0 0 360 129" fill="none" xmlns="http://www.w3.org/2000/svg">
    <g filter="url(#filter0_d_9785_9055)">
        <line x1="15.25" y1="19" x2="15.25" y2="108" stroke="url(#paint0_linear_9785_9055)" stroke-width="0.5"/>
        <path d="M15.0023 124.108C14.0343 124.108 13.2983 123.736 12.7943 122.992C12.2903 122.248 12.0383 121.172 12.0383 119.764C12.0383 118.348 12.2903 117.272 12.7943 116.536C13.2983 115.8 14.0343 115.432 15.0023 115.432C15.9783 115.432 16.7143 115.8 17.2103 116.536C17.7143 117.264 17.9663 118.336 17.9663 119.752C17.9663 121.168 17.7103 122.248 17.1983 122.992C16.6943 123.736 15.9623 124.108 15.0023 124.108ZM15.0023 123.256C15.6743 123.256 16.1703 122.972 16.4903 122.404C16.8183 121.836 16.9823 120.952 16.9823 119.752C16.9823 118.552 16.8223 117.676 16.5023 117.124C16.1823 116.564 15.6823 116.284 15.0023 116.284C14.3303 116.284 13.8303 116.564 13.5023 117.124C13.1823 117.684 13.0223 118.56 13.0223 119.752C13.0223 120.952 13.1823 121.836 13.5023 122.404C13.8303 122.972 14.3303 123.256 15.0023 123.256Z" fill="black"/>
    </g>
    <g filter="url(#filter1_d_9785_9055)">
        <line x1="70.25" y1="19" x2="70.25" y2="108" stroke="url(#paint1_linear_9785_9055)" stroke-width="0.5"/>
        <path d="M67.1823 124.108C66.6383 124.108 66.1183 124.02 65.6223 123.844C65.1263 123.668 64.7063 123.42 64.3623 123.1L64.7343 122.32C65.4783 122.928 66.2903 123.232 67.1703 123.232C67.7543 123.232 68.2143 123.068 68.5503 122.74C68.8863 122.412 69.0543 121.98 69.0543 121.444C69.0543 120.892 68.8943 120.44 68.5743 120.088C68.2543 119.736 67.8143 119.56 67.2543 119.56C66.4463 119.56 65.8103 119.896 65.3463 120.568H64.6263V115.54H69.5343V116.38H65.5983V119.404C66.0623 118.94 66.6743 118.708 67.4343 118.708C67.9623 118.708 68.4223 118.82 68.8143 119.044C69.2063 119.268 69.5063 119.584 69.7143 119.992C69.9303 120.392 70.0383 120.86 70.0383 121.396C70.0383 121.924 69.9223 122.392 69.6903 122.8C69.4583 123.208 69.1263 123.528 68.6943 123.76C68.2703 123.992 67.7663 124.108 67.1823 124.108ZM71.5097 124V115.54H72.4817V120.76H72.5057L75.2057 118.168H76.4417L73.5137 120.976L76.6937 124H75.4577L72.5057 121.264H72.4817V124H71.5097Z" fill="black"/>
    </g>
    <g filter="url(#filter2_d_9785_9055)">
        <line x1="125.25" y1="19" x2="125.25" y2="108" stroke="url(#paint2_linear_9785_9055)" stroke-width="0.5"/>
        <path d="M119.085 124.108C118.541 124.108 118.021 124.02 117.525 123.844C117.029 123.668 116.609 123.42 116.265 123.1L116.637 122.32C117.381 122.928 118.193 123.232 119.073 123.232C119.657 123.232 120.117 123.068 120.453 122.74C120.789 122.412 120.957 121.98 120.957 121.444C120.957 120.892 120.797 120.44 120.477 120.088C120.157 119.736 119.717 119.56 119.157 119.56C118.349 119.56 117.713 119.896 117.249 120.568H116.529V115.54H121.437V116.38H117.501V119.404C117.965 118.94 118.577 118.708 119.337 118.708C119.865 118.708 120.325 118.82 120.717 119.044C121.109 119.268 121.409 119.584 121.617 119.992C121.833 120.392 121.941 120.86 121.941 121.396C121.941 121.924 121.825 122.392 121.593 122.8C121.361 123.208 121.029 123.528 120.597 123.76C120.173 123.992 119.669 124.108 119.085 124.108ZM126.1 124.108C125.132 124.108 124.396 123.736 123.892 122.992C123.388 122.248 123.136 121.172 123.136 119.764C123.136 118.348 123.388 117.272 123.892 116.536C124.396 115.8 125.132 115.432 126.1 115.432C127.076 115.432 127.812 115.8 128.308 116.536C128.812 117.264 129.064 118.336 129.064 119.752C129.064 121.168 128.808 122.248 128.296 122.992C127.792 123.736 127.06 124.108 126.1 124.108ZM126.1 123.256C126.772 123.256 127.268 122.972 127.588 122.404C127.916 121.836 128.08 120.952 128.08 119.752C128.08 118.552 127.92 117.676 127.6 117.124C127.28 116.564 126.78 116.284 126.1 116.284C125.428 116.284 124.928 116.564 124.6 117.124C124.28 117.684 124.12 118.56 124.12 119.752C124.12 120.952 124.28 121.836 124.6 122.404C124.928 122.972 125.428 123.256 126.1 123.256ZM130.607 124V115.54H131.579V120.76H131.603L134.303 118.168H135.539L132.611 120.976L135.791 124H134.555L131.603 121.264H131.579V124H130.607Z" fill="black"/>
    </g>
    <g filter="url(#filter3_d_9785_9055)">
        <line x1="180.25" y1="19" x2="180.25" y2="108" stroke="url(#paint3_linear_9785_9055)" stroke-width="0.5"/>
        <path d="M167.287 124V123.256L170.179 120.136C170.587 119.688 170.879 119.28 171.055 118.912C171.239 118.544 171.331 118.168 171.331 117.784C171.331 116.8 170.759 116.308 169.615 116.308C168.759 116.308 168.003 116.628 167.347 117.268L166.975 116.5C167.287 116.18 167.683 115.924 168.163 115.732C168.651 115.532 169.163 115.432 169.699 115.432C170.547 115.432 171.195 115.632 171.643 116.032C172.099 116.424 172.327 116.984 172.327 117.712C172.327 118.216 172.203 118.712 171.955 119.2C171.707 119.68 171.327 120.192 170.815 120.736L168.547 123.16H172.675V124H167.287ZM177.002 124.108C176.034 124.108 175.298 123.736 174.794 122.992C174.29 122.248 174.038 121.172 174.038 119.764C174.038 118.348 174.29 117.272 174.794 116.536C175.298 115.8 176.034 115.432 177.002 115.432C177.978 115.432 178.714 115.8 179.21 116.536C179.714 117.264 179.966 118.336 179.966 119.752C179.966 121.168 179.71 122.248 179.198 122.992C178.694 123.736 177.962 124.108 177.002 124.108ZM177.002 123.256C177.674 123.256 178.17 122.972 178.49 122.404C178.818 121.836 178.982 120.952 178.982 119.752C178.982 118.552 178.822 117.676 178.502 117.124C178.182 116.564 177.682 116.284 177.002 116.284C176.33 116.284 175.83 116.564 175.502 117.124C175.182 117.684 175.022 118.56 175.022 119.752C175.022 120.952 175.182 121.836 175.502 122.404C175.83 122.972 176.33 123.256 177.002 123.256ZM184.198 124.108C183.23 124.108 182.494 123.736 181.99 122.992C181.486 122.248 181.234 121.172 181.234 119.764C181.234 118.348 181.486 117.272 181.99 116.536C182.494 115.8 183.23 115.432 184.198 115.432C185.174 115.432 185.91 115.8 186.406 116.536C186.91 117.264 187.162 118.336 187.162 119.752C187.162 121.168 186.906 122.248 186.394 122.992C185.89 123.736 185.158 124.108 184.198 124.108ZM184.198 123.256C184.87 123.256 185.366 122.972 185.686 122.404C186.014 121.836 186.178 120.952 186.178 119.752C186.178 118.552 186.018 117.676 185.698 117.124C185.378 116.564 184.878 116.284 184.198 116.284C183.526 116.284 183.026 116.564 182.698 117.124C182.378 117.684 182.218 118.56 182.218 119.752C182.218 120.952 182.378 121.836 182.698 122.404C183.026 122.972 183.526 123.256 184.198 123.256ZM188.705 124V115.54H189.677V120.76H189.701L192.401 118.168H193.637L190.709 120.976L193.889 124H192.653L189.701 121.264H189.677V124H188.705Z" fill="black"/>
    </g>
    <g filter="url(#filter4_d_9785_9055)">
        <line x1="235.25" y1="19" x2="235.25" y2="108" stroke="url(#paint4_linear_9785_9055)" stroke-width="0.5"/>
        <path d="M227.758 124V123.16H229.69V116.728L228.166 117.688L227.746 116.956L229.966 115.54H230.674V123.16H232.486V124H227.758ZM234.533 124V115.54H235.361L238.613 121.648L241.841 115.54H242.669V124H241.757V117.388L238.937 122.692H238.289L235.433 117.4V124H234.533Z" fill="black"/>
    </g>
    <g filter="url(#filter5_d_9785_9055)">
        <line x1="290.25" y1="19" x2="290.25" y2="108" stroke="url(#paint5_linear_9785_9055)" stroke-width="0.5"/>
        <path d="M285.05 124.108C284.506 124.108 283.986 124.02 283.49 123.844C282.994 123.668 282.574 123.42 282.23 123.1L282.602 122.32C283.346 122.928 284.158 123.232 285.038 123.232C285.622 123.232 286.082 123.068 286.418 122.74C286.754 122.412 286.922 121.98 286.922 121.444C286.922 120.892 286.762 120.44 286.442 120.088C286.122 119.736 285.682 119.56 285.122 119.56C284.314 119.56 283.678 119.896 283.214 120.568H282.494V115.54H287.402V116.38H283.466V119.404C283.93 118.94 284.542 118.708 285.302 118.708C285.83 118.708 286.29 118.82 286.682 119.044C287.074 119.268 287.374 119.584 287.582 119.992C287.798 120.392 287.906 120.86 287.906 121.396C287.906 121.924 287.79 122.392 287.558 122.8C287.326 123.208 286.994 123.528 286.562 123.76C286.138 123.992 285.634 124.108 285.05 124.108ZM289.533 124V115.54H290.361L293.613 121.648L296.841 115.54H297.669V124H296.757V117.388L293.937 122.692H293.289L290.433 117.4V124H289.533Z" fill="black"/>
    </g>
    <g filter="url(#filter6_d_9785_9055)">
        <line x1="345.25" y1="19" x2="345.25" y2="108" stroke="url(#paint6_linear_9785_9055)" stroke-width="0.5"/>
        <path d="M336.952 124.108C336.408 124.108 335.888 124.02 335.392 123.844C334.896 123.668 334.476 123.42 334.132 123.1L334.504 122.32C335.248 122.928 336.06 123.232 336.94 123.232C337.524 123.232 337.984 123.068 338.32 122.74C338.656 122.412 338.824 121.98 338.824 121.444C338.824 120.892 338.664 120.44 338.344 120.088C338.024 119.736 337.584 119.56 337.024 119.56C336.216 119.56 335.58 119.896 335.116 120.568H334.396V115.54H339.304V116.38H335.368V119.404C335.832 118.94 336.444 118.708 337.204 118.708C337.732 118.708 338.192 118.82 338.584 119.044C338.976 119.268 339.276 119.584 339.484 119.992C339.7 120.392 339.808 120.86 339.808 121.396C339.808 121.924 339.692 122.392 339.46 122.8C339.228 123.208 338.896 123.528 338.464 123.76C338.04 123.992 337.536 124.108 336.952 124.108ZM341.435 124V115.54H342.263L345.515 121.648L348.743 115.54H349.571V124H348.659V117.388L345.839 122.692H345.191L342.335 117.4V124H341.435ZM353.849 123.52V120.928H351.305V120.184H353.849V117.664H354.617V120.184H357.161V120.928H354.617V123.52H353.849Z" fill="black"/>
    </g>
    <path d="M358.354 109.354C358.549 109.158 358.549 108.842 358.354 108.646L355.172 105.464C354.976 105.269 354.66 105.269 354.464 105.464C354.269 105.66 354.269 105.976 354.464 106.172L357.293 109L354.464 111.828C354.269 112.024 354.269 112.34 354.464 112.536C354.66 112.731 354.976 112.731 355.172 112.536L358.354 109.354ZM15 109.5H358V108.5H15V109.5Z" fill="url(#paint7_linear_9785_9055)"/>


    <g opacity="0.9" filter="url(#filter13_d_9785_9055)">
        <path d="M292.932 64L293.042 63.3H294.652L295.492 58L294.142 58.77L293.862 58.13L295.892 56.95H296.482L295.472 63.3H296.982L296.862 64H292.932ZM300.958 64.09C300.232 64.09 299.678 63.87 299.298 63.43C298.925 62.9833 298.738 62.34 298.738 61.5C298.738 60.54 298.852 59.7133 299.078 59.02C299.305 58.3267 299.628 57.7933 300.048 57.42C300.468 57.0467 300.965 56.86 301.538 56.86C302.265 56.86 302.815 57.0833 303.188 57.53C303.562 57.97 303.748 58.6067 303.748 59.44C303.748 60.4067 303.635 61.2367 303.408 61.93C303.182 62.6233 302.858 63.1567 302.438 63.53C302.018 63.9033 301.525 64.09 300.958 64.09ZM300.998 63.38C301.585 63.38 302.052 63.03 302.398 62.33C302.752 61.6233 302.928 60.6 302.928 59.26C302.935 58.1333 302.458 57.57 301.498 57.57C300.905 57.57 300.432 57.9233 300.078 58.63C299.732 59.33 299.558 60.35 299.558 61.69C299.558 62.8167 300.038 63.38 300.998 63.38ZM304.554 64L305.674 56.95H306.494L305.984 60.15H306.004L309.904 56.95H310.994L306.774 60.44L310.084 64H309.084L305.924 60.66H305.904L305.374 64H304.554ZM313.593 61.67L313.703 61H316.503L316.393 61.67H313.593ZM320.549 64L320.659 63.3H322.269L323.109 58L321.759 58.77L321.479 58.13L323.509 56.95H324.099L323.089 63.3H324.599L324.479 64H320.549ZM328.576 64.09C327.849 64.09 327.296 63.87 326.916 63.43C326.542 62.9833 326.356 62.34 326.356 61.5C326.356 60.54 326.469 59.7133 326.696 59.02C326.922 58.3267 327.246 57.7933 327.666 57.42C328.086 57.0467 328.582 56.86 329.156 56.86C329.882 56.86 330.432 57.0833 330.806 57.53C331.179 57.97 331.366 58.6067 331.366 59.44C331.366 60.4067 331.252 61.2367 331.026 61.93C330.799 62.6233 330.476 63.1567 330.056 63.53C329.636 63.9033 329.142 64.09 328.576 64.09ZM328.616 63.38C329.202 63.38 329.669 63.03 330.016 62.33C330.369 61.6233 330.546 60.6 330.546 59.26C330.552 58.1333 330.076 57.57 329.116 57.57C328.522 57.57 328.049 57.9233 327.696 58.63C327.349 59.33 327.176 60.35 327.176 61.69C327.176 62.8167 327.656 63.38 328.616 63.38ZM334.572 64.09C333.845 64.09 333.292 63.87 332.912 63.43C332.538 62.9833 332.352 62.34 332.352 61.5C332.352 60.54 332.465 59.7133 332.692 59.02C332.918 58.3267 333.242 57.7933 333.662 57.42C334.082 57.0467 334.578 56.86 335.152 56.86C335.878 56.86 336.428 57.0833 336.802 57.53C337.175 57.97 337.362 58.6067 337.362 59.44C337.362 60.4067 337.248 61.2367 337.022 61.93C336.795 62.6233 336.472 63.1567 336.052 63.53C335.632 63.9033 335.138 64.09 334.572 64.09ZM334.612 63.38C335.198 63.38 335.665 63.03 336.012 62.33C336.365 61.6233 336.542 60.6 336.542 59.26C336.548 58.1333 336.072 57.57 335.112 57.57C334.518 57.57 334.045 57.9233 333.692 58.63C333.345 59.33 333.172 60.35 333.172 61.69C333.172 62.8167 333.652 63.38 334.612 63.38ZM338.168 64L339.288 56.95H340.108L339.598 60.15H339.618L343.518 56.95H344.608L340.388 60.44L343.698 64H342.698L339.538 60.66H339.518L338.988 64H338.168Z" fill="#0060FF"/>
    </g>
    <g opacity="0.9" filter="url(#filter14_d_9785_9055)">
        <path d="M243.928 64L244.038 63.3H245.648L246.488 58L245.138 58.77L244.858 58.13L246.888 56.95H247.478L246.468 63.3H247.978L247.858 64H243.928ZM249.554 64L250.674 56.95H251.494L250.984 60.15H251.004L254.904 56.95H255.994L251.774 60.44L255.084 64H254.084L250.924 60.66H250.904L250.374 64H249.554ZM258.593 61.67L258.703 61H261.503L261.393 61.67H258.593ZM265.549 64L265.659 63.3H267.269L268.109 58L266.759 58.77L266.479 58.13L268.509 56.95H269.099L268.089 63.3H269.599L269.479 64H265.549ZM273.576 64.09C272.849 64.09 272.296 63.87 271.916 63.43C271.542 62.9833 271.356 62.34 271.356 61.5C271.356 60.54 271.469 59.7133 271.696 59.02C271.922 58.3267 272.246 57.7933 272.666 57.42C273.086 57.0467 273.582 56.86 274.156 56.86C274.882 56.86 275.432 57.0833 275.806 57.53C276.179 57.97 276.366 58.6067 276.366 59.44C276.366 60.4067 276.252 61.2367 276.026 61.93C275.799 62.6233 275.476 63.1567 275.056 63.53C274.636 63.9033 274.142 64.09 273.576 64.09ZM273.616 63.38C274.202 63.38 274.669 63.03 275.016 62.33C275.369 61.6233 275.546 60.6 275.546 59.26C275.552 58.1333 275.076 57.57 274.116 57.57C273.522 57.57 273.049 57.9233 272.696 58.63C272.349 59.33 272.176 60.35 272.176 61.69C272.176 62.8167 272.656 63.38 273.616 63.38ZM277.172 64L278.292 56.95H279.112L278.602 60.15H278.622L282.522 56.95H283.612L279.392 60.44L282.702 64H281.702L278.542 60.66H278.522L277.992 64H277.172Z" fill="#0060FF"/>
    </g>
    <g opacity="0.9" filter="url(#filter15_d_9785_9055)">
        <path d="M191.065 64.09C190.672 64.09 190.272 64.0267 189.865 63.9C189.459 63.7733 189.102 63.55 188.795 63.23L189.145 62.62C189.472 62.9133 189.785 63.11 190.085 63.21C190.385 63.31 190.712 63.36 191.065 63.36C191.399 63.36 191.699 63.2867 191.965 63.14C192.232 62.9933 192.442 62.7933 192.595 62.54C192.749 62.28 192.825 61.9867 192.825 61.66C192.825 61.2533 192.705 60.9267 192.465 60.68C192.232 60.4267 191.912 60.3 191.505 60.3C191.165 60.3 190.859 60.3767 190.585 60.53C190.312 60.6767 190.062 60.88 189.835 61.14H189.235L189.905 56.95H193.985L193.875 57.65H190.605L190.205 60.15C190.412 59.97 190.649 59.8333 190.915 59.74C191.189 59.64 191.462 59.59 191.735 59.59C192.082 59.59 192.399 59.6667 192.685 59.82C192.979 59.9667 193.212 60.19 193.385 60.49C193.559 60.7833 193.645 61.15 193.645 61.59C193.645 62.09 193.525 62.53 193.285 62.91C193.052 63.2833 192.739 63.5733 192.345 63.78C191.959 63.9867 191.532 64.09 191.065 64.09ZM197.081 64.09C196.355 64.09 195.801 63.87 195.421 63.43C195.048 62.9833 194.861 62.34 194.861 61.5C194.861 60.54 194.975 59.7133 195.201 59.02C195.428 58.3267 195.751 57.7933 196.171 57.42C196.591 57.0467 197.088 56.86 197.661 56.86C198.388 56.86 198.938 57.0833 199.311 57.53C199.685 57.97 199.871 58.6067 199.871 59.44C199.871 60.4067 199.758 61.2367 199.531 61.93C199.305 62.6233 198.981 63.1567 198.561 63.53C198.141 63.9033 197.648 64.09 197.081 64.09ZM197.121 63.38C197.708 63.38 198.175 63.03 198.521 62.33C198.875 61.6233 199.051 60.6 199.051 59.26C199.058 58.1333 198.581 57.57 197.621 57.57C197.028 57.57 196.555 57.9233 196.201 58.63C195.855 59.33 195.681 60.35 195.681 61.69C195.681 62.8167 196.161 63.38 197.121 63.38ZM203.078 64.09C202.351 64.09 201.798 63.87 201.418 63.43C201.044 62.9833 200.858 62.34 200.858 61.5C200.858 60.54 200.971 59.7133 201.198 59.02C201.424 58.3267 201.748 57.7933 202.168 57.42C202.588 57.0467 203.084 56.86 203.658 56.86C204.384 56.86 204.934 57.0833 205.308 57.53C205.681 57.97 205.868 58.6067 205.868 59.44C205.868 60.4067 205.754 61.2367 205.528 61.93C205.301 62.6233 204.978 63.1567 204.558 63.53C204.138 63.9033 203.644 64.09 203.078 64.09ZM203.118 63.38C203.704 63.38 204.171 63.03 204.518 62.33C204.871 61.6233 205.048 60.6 205.048 59.26C205.054 58.1333 204.578 57.57 203.618 57.57C203.024 57.57 202.551 57.9233 202.198 58.63C201.851 59.33 201.678 60.35 201.678 61.69C201.678 62.8167 202.158 63.38 203.118 63.38ZM209.462 61.67L209.572 61H212.372L212.262 61.67H209.462ZM216.419 64L216.529 63.3H218.139L218.979 58L217.629 58.77L217.349 58.13L219.379 56.95H219.969L218.959 63.3H220.469L220.349 64H216.419ZM222.045 64L223.165 56.95H223.985L223.475 60.15H223.495L227.395 56.95H228.485L224.265 60.44L227.575 64H226.575L223.415 60.66H223.395L222.865 64H222.045Z" fill="#0060FF"/>
    </g>
    <g opacity="0.9" filter="url(#filter16_d_9785_9055)">
        <path d="M137.192 64.09C136.799 64.09 136.399 64.0267 135.992 63.9C135.586 63.7733 135.229 63.55 134.922 63.23L135.272 62.62C135.599 62.9133 135.912 63.11 136.212 63.21C136.512 63.31 136.839 63.36 137.192 63.36C137.526 63.36 137.826 63.2867 138.092 63.14C138.359 62.9933 138.569 62.7933 138.722 62.54C138.876 62.28 138.952 61.9867 138.952 61.66C138.952 61.2533 138.832 60.9267 138.592 60.68C138.359 60.4267 138.039 60.3 137.632 60.3C137.292 60.3 136.986 60.3767 136.712 60.53C136.439 60.6767 136.189 60.88 135.962 61.14H135.362L136.032 56.95H140.112L140.002 57.65H136.732L136.332 60.15C136.539 59.97 136.776 59.8333 137.042 59.74C137.316 59.64 137.589 59.59 137.862 59.59C138.209 59.59 138.526 59.6667 138.812 59.82C139.106 59.9667 139.339 60.19 139.512 60.49C139.686 60.7833 139.772 61.15 139.772 61.59C139.772 62.09 139.652 62.53 139.412 62.91C139.179 63.2833 138.866 63.5733 138.472 63.78C138.086 63.9867 137.659 64.09 137.192 64.09ZM143.208 64.09C142.482 64.09 141.928 63.87 141.548 63.43C141.175 62.9833 140.988 62.34 140.988 61.5C140.988 60.54 141.102 59.7133 141.328 59.02C141.555 58.3267 141.878 57.7933 142.298 57.42C142.718 57.0467 143.215 56.86 143.788 56.86C144.515 56.86 145.065 57.0833 145.438 57.53C145.812 57.97 145.998 58.6067 145.998 59.44C145.998 60.4067 145.885 61.2367 145.658 61.93C145.432 62.6233 145.108 63.1567 144.688 63.53C144.268 63.9033 143.775 64.09 143.208 64.09ZM143.248 63.38C143.835 63.38 144.302 63.03 144.648 62.33C145.002 61.6233 145.178 60.6 145.178 59.26C145.185 58.1333 144.708 57.57 143.748 57.57C143.155 57.57 142.682 57.9233 142.328 58.63C141.982 59.33 141.808 60.35 141.808 61.69C141.808 62.8167 142.288 63.38 143.248 63.38ZM149.593 61.67L149.703 61H152.503L152.393 61.67H149.593ZM158.559 64.09C158.166 64.09 157.766 64.0267 157.359 63.9C156.953 63.7733 156.596 63.55 156.289 63.23L156.639 62.62C156.966 62.9133 157.279 63.11 157.579 63.21C157.879 63.31 158.206 63.36 158.559 63.36C158.893 63.36 159.193 63.2867 159.459 63.14C159.726 62.9933 159.936 62.7933 160.089 62.54C160.243 62.28 160.319 61.9867 160.319 61.66C160.319 61.2533 160.199 60.9267 159.959 60.68C159.726 60.4267 159.406 60.3 158.999 60.3C158.659 60.3 158.353 60.3767 158.079 60.53C157.806 60.6767 157.556 60.88 157.329 61.14H156.729L157.399 56.95H161.479L161.369 57.65H158.099L157.699 60.15C157.906 59.97 158.143 59.8333 158.409 59.74C158.683 59.64 158.956 59.59 159.229 59.59C159.576 59.59 159.893 59.6667 160.179 59.82C160.473 59.9667 160.706 60.19 160.879 60.49C161.053 60.7833 161.139 61.15 161.139 61.59C161.139 62.09 161.019 62.53 160.779 62.91C160.546 63.2833 160.233 63.5733 159.839 63.78C159.453 63.9867 159.026 64.09 158.559 64.09ZM164.576 64.09C163.849 64.09 163.296 63.87 162.916 63.43C162.542 62.9833 162.356 62.34 162.356 61.5C162.356 60.54 162.469 59.7133 162.696 59.02C162.922 58.3267 163.246 57.7933 163.666 57.42C164.086 57.0467 164.582 56.86 165.156 56.86C165.882 56.86 166.432 57.0833 166.806 57.53C167.179 57.97 167.366 58.6067 167.366 59.44C167.366 60.4067 167.252 61.2367 167.026 61.93C166.799 62.6233 166.476 63.1567 166.056 63.53C165.636 63.9033 165.142 64.09 164.576 64.09ZM164.616 63.38C165.202 63.38 165.669 63.03 166.016 62.33C166.369 61.6233 166.546 60.6 166.546 59.26C166.552 58.1333 166.076 57.57 165.116 57.57C164.522 57.57 164.049 57.9233 163.696 58.63C163.349 59.33 163.176 60.35 163.176 61.69C163.176 62.8167 163.656 63.38 164.616 63.38ZM170.572 64.09C169.845 64.09 169.292 63.87 168.912 63.43C168.538 62.9833 168.352 62.34 168.352 61.5C168.352 60.54 168.465 59.7133 168.692 59.02C168.918 58.3267 169.242 57.7933 169.662 57.42C170.082 57.0467 170.578 56.86 171.152 56.86C171.878 56.86 172.428 57.0833 172.802 57.53C173.175 57.97 173.362 58.6067 173.362 59.44C173.362 60.4067 173.248 61.2367 173.022 61.93C172.795 62.6233 172.472 63.1567 172.052 63.53C171.632 63.9033 171.138 64.09 170.572 64.09ZM170.612 63.38C171.198 63.38 171.665 63.03 172.012 62.33C172.365 61.6233 172.542 60.6 172.542 59.26C172.548 58.1333 172.072 57.57 171.112 57.57C170.518 57.57 170.045 57.9233 169.692 58.63C169.345 59.33 169.172 60.35 169.172 61.69C169.172 62.8167 169.652 63.38 170.612 63.38Z" fill="#0060FF"/>
    </g>
    <g opacity="0.9" filter="url(#filter17_d_9785_9055)">
        <path d="M77.8823 64L77.9823 63.38L80.7323 60.81C81.1189 60.4567 81.4356 60.1033 81.6823 59.75C81.9289 59.3967 82.0523 59.02 82.0523 58.62C82.0523 58.2933 81.9423 58.04 81.7223 57.86C81.5023 57.68 81.1923 57.59 80.7923 57.59C80.4523 57.59 80.1189 57.66 79.7923 57.8C79.4723 57.94 79.1556 58.14 78.8423 58.4L78.5623 57.75C78.8823 57.47 79.2423 57.2533 79.6423 57.1C80.0489 56.94 80.4756 56.86 80.9223 56.86C81.5223 56.86 81.9989 57.0167 82.3523 57.33C82.7056 57.6367 82.8823 58.0333 82.8823 58.52C82.8823 58.8933 82.8089 59.24 82.6623 59.56C82.5156 59.88 82.3156 60.1867 82.0623 60.48C81.8156 60.7667 81.5356 61.05 81.2223 61.33L79.0823 63.3H82.4423L82.3323 64H77.8823ZM86.2084 64.09C85.4817 64.09 84.9284 63.87 84.5484 63.43C84.175 62.9833 83.9884 62.34 83.9884 61.5C83.9884 60.54 84.1017 59.7133 84.3284 59.02C84.555 58.3267 84.8784 57.7933 85.2984 57.42C85.7184 57.0467 86.215 56.86 86.7884 56.86C87.515 56.86 88.065 57.0833 88.4384 57.53C88.8117 57.97 88.9984 58.6067 88.9984 59.44C88.9984 60.4067 88.885 61.2367 88.6584 61.93C88.4317 62.6233 88.1084 63.1567 87.6884 63.53C87.2684 63.9033 86.775 64.09 86.2084 64.09ZM86.2484 63.38C86.835 63.38 87.3017 63.03 87.6484 62.33C88.0017 61.6233 88.1784 60.6 88.1784 59.26C88.185 58.1333 87.7084 57.57 86.7484 57.57C86.155 57.57 85.6817 57.9233 85.3284 58.63C84.9817 59.33 84.8084 60.35 84.8084 61.69C84.8084 62.8167 85.2884 63.38 86.2484 63.38ZM92.5928 61.67L92.7028 61H95.5028L95.3928 61.67H92.5928ZM99.5495 64L99.6595 63.3H101.269L102.109 58L100.759 58.77L100.479 58.13L102.509 56.95H103.099L102.089 63.3H103.599L103.479 64H99.5495ZM107.576 64.09C106.849 64.09 106.296 63.87 105.916 63.43C105.542 62.9833 105.356 62.34 105.356 61.5C105.356 60.54 105.469 59.7133 105.696 59.02C105.922 58.3267 106.246 57.7933 106.666 57.42C107.086 57.0467 107.582 56.86 108.156 56.86C108.882 56.86 109.432 57.0833 109.806 57.53C110.179 57.97 110.366 58.6067 110.366 59.44C110.366 60.4067 110.252 61.2367 110.026 61.93C109.799 62.6233 109.476 63.1567 109.056 63.53C108.636 63.9033 108.142 64.09 107.576 64.09ZM107.616 63.38C108.202 63.38 108.669 63.03 109.016 62.33C109.369 61.6233 109.546 60.6 109.546 59.26C109.552 58.1333 109.076 57.57 108.116 57.57C107.522 57.57 107.049 57.9233 106.696 58.63C106.349 59.33 106.176 60.35 106.176 61.69C106.176 62.8167 106.656 63.38 107.616 63.38ZM113.572 64.09C112.845 64.09 112.292 63.87 111.912 63.43C111.538 62.9833 111.352 62.34 111.352 61.5C111.352 60.54 111.465 59.7133 111.692 59.02C111.918 58.3267 112.242 57.7933 112.662 57.42C113.082 57.0467 113.578 56.86 114.152 56.86C114.878 56.86 115.428 57.0833 115.802 57.53C116.175 57.97 116.362 58.6067 116.362 59.44C116.362 60.4067 116.248 61.2367 116.022 61.93C115.795 62.6233 115.472 63.1567 115.052 63.53C114.632 63.9033 114.138 64.09 113.572 64.09ZM113.612 63.38C114.198 63.38 114.665 63.03 115.012 62.33C115.365 61.6233 115.542 60.6 115.542 59.26C115.548 58.1333 115.072 57.57 114.112 57.57C113.518 57.57 113.045 57.9233 112.692 58.63C112.345 59.33 112.172 60.35 112.172 61.69C112.172 62.8167 112.652 63.38 113.612 63.38Z" fill="#0060FF"/>
    </g>
    <g opacity="0.9" filter="url(#filter18_d_9785_9055)">
        <path d="M27.1803 64L27.2903 63.3H28.9003L29.7403 58L28.3903 58.77L28.1103 58.13L30.1403 56.95H30.7303L29.7203 63.3H31.2303L31.1103 64H27.1803ZM35.2064 64.09C34.4797 64.09 33.9264 63.87 33.5464 63.43C33.1731 62.9833 32.9864 62.34 32.9864 61.5C32.9864 60.54 33.0997 59.7133 33.3264 59.02C33.5531 58.3267 33.8764 57.7933 34.2964 57.42C34.7164 57.0467 35.2131 56.86 35.7864 56.86C36.5131 56.86 37.0631 57.0833 37.4364 57.53C37.8097 57.97 37.9964 58.6067 37.9964 59.44C37.9964 60.4067 37.8831 61.2367 37.6564 61.93C37.4297 62.6233 37.1064 63.1567 36.6864 63.53C36.2664 63.9033 35.7731 64.09 35.2064 64.09ZM35.2464 63.38C35.8331 63.38 36.2997 63.03 36.6464 62.33C36.9997 61.6233 37.1764 60.6 37.1764 59.26C37.1831 58.1333 36.7064 57.57 35.7464 57.57C35.1531 57.57 34.6797 57.9233 34.3264 58.63C33.9797 59.33 33.8064 60.35 33.8064 61.69C33.8064 62.8167 34.2864 63.38 35.2464 63.38ZM41.5909 61.67L41.7009 61H44.5009L44.3909 61.67H41.5909ZM50.5575 64.09C50.1642 64.09 49.7642 64.0267 49.3575 63.9C48.9508 63.7733 48.5942 63.55 48.2875 63.23L48.6375 62.62C48.9642 62.9133 49.2775 63.11 49.5775 63.21C49.8775 63.31 50.2042 63.36 50.5575 63.36C50.8908 63.36 51.1908 63.2867 51.4575 63.14C51.7242 62.9933 51.9342 62.7933 52.0875 62.54C52.2408 62.28 52.3175 61.9867 52.3175 61.66C52.3175 61.2533 52.1975 60.9267 51.9575 60.68C51.7242 60.4267 51.4042 60.3 50.9975 60.3C50.6575 60.3 50.3508 60.3767 50.0775 60.53C49.8042 60.6767 49.5542 60.88 49.3275 61.14H48.7275L49.3975 56.95H53.4775L53.3675 57.65H50.0975L49.6975 60.15C49.9042 59.97 50.1408 59.8333 50.4075 59.74C50.6808 59.64 50.9542 59.59 51.2275 59.59C51.5742 59.59 51.8908 59.6667 52.1775 59.82C52.4708 59.9667 52.7042 60.19 52.8775 60.49C53.0508 60.7833 53.1375 61.15 53.1375 61.59C53.1375 62.09 53.0175 62.53 52.7775 62.91C52.5442 63.2833 52.2308 63.5733 51.8375 63.78C51.4508 63.9867 51.0242 64.09 50.5575 64.09ZM56.5736 64.09C55.8469 64.09 55.2936 63.87 54.9136 63.43C54.5403 62.9833 54.3536 62.34 54.3536 61.5C54.3536 60.54 54.4669 59.7133 54.6936 59.02C54.9203 58.3267 55.2436 57.7933 55.6636 57.42C56.0836 57.0467 56.5803 56.86 57.1536 56.86C57.8803 56.86 58.4303 57.0833 58.8036 57.53C59.1769 57.97 59.3636 58.6067 59.3636 59.44C59.3636 60.4067 59.2503 61.2367 59.0236 61.93C58.7969 62.6233 58.4736 63.1567 58.0536 63.53C57.6336 63.9033 57.1403 64.09 56.5736 64.09ZM56.6136 63.38C57.2003 63.38 57.6669 63.03 58.0136 62.33C58.3669 61.6233 58.5436 60.6 58.5436 59.26C58.5503 58.1333 58.0736 57.57 57.1136 57.57C56.5203 57.57 56.0469 57.9233 55.6936 58.63C55.3469 59.33 55.1736 60.35 55.1736 61.69C55.1736 62.8167 55.6536 63.38 56.6136 63.38Z" fill="#0060FF"/>
    </g>
    <g opacity="0.9" filter="url(#filter19_d_9785_9055)">
        <path d="M24.68 50.09C24.0933 50.09 23.58 49.9733 23.14 49.74C22.7 49.5067 22.36 49.1667 22.12 48.72C21.88 48.2667 21.76 47.7133 21.76 47.06C21.76 46.2667 21.9 45.5533 22.18 44.92C22.46 44.2867 22.8633 43.7867 23.39 43.42C23.9233 43.0467 24.5733 42.86 25.34 42.86C25.9333 42.86 26.4467 42.9767 26.88 43.21C27.32 43.4433 27.66 43.7867 27.9 44.24C28.14 44.6867 28.26 45.2333 28.26 45.88C28.26 46.68 28.12 47.3967 27.84 48.03C27.56 48.6633 27.1533 49.1667 26.62 49.54C26.0933 49.9067 25.4467 50.09 24.68 50.09ZM24.7 49.36C25.28 49.36 25.77 49.21 26.17 48.91C26.57 48.6033 26.8733 48.19 27.08 47.67C27.2867 47.1433 27.39 46.55 27.39 45.89C27.39 45.1167 27.2033 44.54 26.83 44.16C26.4633 43.78 25.9567 43.59 25.31 43.59C24.7367 43.59 24.25 43.7433 23.85 44.05C23.45 44.35 23.1467 44.76 22.94 45.28C22.7333 45.8 22.63 46.39 22.63 47.05C22.63 47.83 22.8133 48.41 23.18 48.79C23.5533 49.17 24.06 49.36 24.7 49.36ZM29.306 50L29.976 45.77H29.026L29.126 45.14H30.066L30.126 44.76C30.2127 44.2133 30.4327 43.78 30.786 43.46C31.1393 43.14 31.6327 42.9667 32.266 42.94L32.766 42.92V43.54L32.286 43.57C31.8793 43.6033 31.566 43.7167 31.346 43.91C31.1327 44.1033 30.996 44.3933 30.936 44.78L30.876 45.14H32.276L32.176 45.77H30.786L30.116 50H29.306ZM32.4798 50L33.1498 45.77H32.1998L32.2998 45.14H33.2398L33.2998 44.76C33.3865 44.2133 33.6065 43.78 33.9598 43.46C34.3132 43.14 34.8065 42.9667 35.4398 42.94L35.9398 42.92V43.54L35.4598 43.57C35.0532 43.6033 34.7398 43.7167 34.5198 43.91C34.3065 44.1033 34.1698 44.3933 34.1098 44.78L34.0498 45.14H35.4498L35.3498 45.77H33.9598L33.2898 50H32.4798ZM37.7332 50.09C37.0399 50.09 36.4899 49.9 36.0832 49.52C35.6765 49.1333 35.4732 48.6067 35.4732 47.94C35.4732 47.4133 35.5799 46.9333 35.7932 46.5C36.0065 46.06 36.3065 45.71 36.6932 45.45C37.0799 45.1833 37.5399 45.05 38.0732 45.05C38.5799 45.05 38.9799 45.1667 39.2732 45.4C39.5732 45.6333 39.7765 45.94 39.8832 46.32C39.9899 46.6933 40.0132 47.0967 39.9532 47.53L39.9232 47.74H36.2632C36.2165 48.26 36.3265 48.6733 36.5932 48.98C36.8599 49.2867 37.2532 49.44 37.7732 49.44C38.0799 49.44 38.3632 49.3967 38.6232 49.31C38.8899 49.2167 39.1332 49.0733 39.3532 48.88L39.6232 49.43C39.3965 49.6433 39.1132 49.8067 38.7732 49.92C38.4332 50.0333 38.0865 50.09 37.7332 50.09ZM38.0632 45.65C37.7099 45.65 37.4165 45.7267 37.1832 45.88C36.9499 46.0267 36.7632 46.22 36.6232 46.46C36.4899 46.7 36.3965 46.95 36.3432 47.21H39.3032C39.3432 46.77 39.2665 46.4 39.0732 46.1C38.8865 45.8 38.5499 45.65 38.0632 45.65ZM40.7255 50L41.5055 45.14H42.2955L42.1655 45.95C42.3121 45.69 42.5155 45.4833 42.7755 45.33C43.0421 45.17 43.3655 45.0733 43.7455 45.04L44.1355 45.01L44.1455 45.71L43.5855 45.76C43.0521 45.8133 42.6655 45.9733 42.4255 46.24C42.1921 46.5067 42.0388 46.8667 41.9655 47.32L41.5455 50H40.7255ZM46.1206 50.09C45.7273 50.09 45.3606 50.0367 45.0206 49.93C44.6806 49.8233 44.404 49.6767 44.1906 49.49L44.4906 48.93C44.7306 49.1167 44.9873 49.2533 45.2606 49.34C45.5406 49.4267 45.8306 49.47 46.1306 49.47C46.4906 49.47 46.7706 49.4 46.9706 49.26C47.1773 49.1133 47.2806 48.91 47.2806 48.65C47.2806 48.3167 47.0673 48.1 46.6406 48L45.6906 47.77C45.3573 47.6967 45.094 47.5533 44.9006 47.34C44.714 47.1267 44.6206 46.8667 44.6206 46.56C44.6206 46.1267 44.7973 45.7667 45.1506 45.48C45.5106 45.1933 45.9973 45.05 46.6106 45.05C46.944 45.05 47.264 45.1067 47.5706 45.22C47.8773 45.3267 48.124 45.4733 48.3106 45.66L48.0306 46.21C47.644 45.85 47.1606 45.67 46.5806 45.67C46.2073 45.67 45.914 45.7467 45.7006 45.9C45.4873 46.0533 45.3806 46.26 45.3806 46.52C45.3806 46.68 45.4273 46.82 45.5206 46.94C45.6206 47.0533 45.774 47.1333 45.9806 47.18L46.9306 47.41C47.284 47.4967 47.5573 47.64 47.7506 47.84C47.9506 48.0333 48.0506 48.2867 48.0506 48.6C48.0506 49.0667 47.8706 49.4333 47.5106 49.7C47.1573 49.96 46.694 50.09 46.1206 50.09ZM51.7634 50L52.8834 42.95H55.3934C56.1534 42.95 56.7234 43.12 57.1034 43.46C57.4901 43.8 57.6834 44.2633 57.6834 44.85C57.6834 45.4633 57.5034 45.9467 57.1434 46.3C56.7834 46.6533 56.3168 46.87 55.7434 46.95C55.8968 47.0233 56.0301 47.1333 56.1434 47.28C56.2634 47.4267 56.3634 47.6067 56.4434 47.82L57.2834 50H56.4434L55.6134 47.81C55.5068 47.5233 55.3634 47.32 55.1834 47.2C55.0101 47.08 54.7601 47.02 54.4334 47.02H53.0534L52.5834 50H51.7634ZM53.1634 46.37H55.1634C55.6968 46.37 56.1134 46.2433 56.4134 45.99C56.7134 45.7367 56.8634 45.3733 56.8634 44.9C56.8634 44.48 56.7368 44.1633 56.4834 43.95C56.2368 43.7367 55.8434 43.63 55.3034 43.63H53.5934L53.1634 46.37ZM60.0952 50.09C59.7019 50.09 59.3352 50.0367 58.9952 49.93C58.6552 49.8233 58.3786 49.6767 58.1652 49.49L58.4652 48.93C58.7052 49.1167 58.9619 49.2533 59.2352 49.34C59.5152 49.4267 59.8052 49.47 60.1052 49.47C60.4652 49.47 60.7452 49.4 60.9452 49.26C61.1519 49.1133 61.2552 48.91 61.2552 48.65C61.2552 48.3167 61.0419 48.1 60.6152 48L59.6652 47.77C59.3319 47.6967 59.0686 47.5533 58.8752 47.34C58.6886 47.1267 58.5952 46.8667 58.5952 46.56C58.5952 46.1267 58.7719 45.7667 59.1252 45.48C59.4852 45.1933 59.9719 45.05 60.5852 45.05C60.9186 45.05 61.2386 45.1067 61.5452 45.22C61.8519 45.3267 62.0986 45.4733 62.2852 45.66L62.0052 46.21C61.6186 45.85 61.1352 45.67 60.5552 45.67C60.1819 45.67 59.8886 45.7467 59.6752 45.9C59.4619 46.0533 59.3552 46.26 59.3552 46.52C59.3552 46.68 59.4019 46.82 59.4952 46.94C59.5952 47.0533 59.7486 47.1333 59.9552 47.18L60.9052 47.41C61.2586 47.4967 61.5319 47.64 61.7252 47.84C61.9252 48.0333 62.0252 48.2867 62.0252 48.6C62.0252 49.0667 61.8452 49.4333 61.4852 49.7C61.1319 49.96 60.6686 50.09 60.0952 50.09ZM62.8809 50L63.0409 48.98H64.0609L63.9009 50H62.8809Z" fill="#0060FF"/>
    </g>

    <defs>
        <filter id="filter0_d_9785_9055" x="-2" y="19" width="34" height="110" filterUnits="userSpaceOnUse" color-interpolation-filters="sRGB">
            <feFlood flood-opacity="0" result="BackgroundImageFix"/>
            <feColorMatrix in="SourceAlpha" type="matrix" values="0 0 0 0 0 0 0 0 0 0 0 0 0 0 0 0 0 0 127 0" result="hardAlpha"/>
            <feOffset dy="2"/>
            <feGaussianBlur stdDeviation="1"/>
            <feComposite in2="hardAlpha" operator="out"/>
            <feColorMatrix type="matrix" values="0 0 0 0 0 0 0 0 0 0 0 0 0 0 0 0 0 0 0.25 0"/>
            <feBlend mode="normal" in2="BackgroundImageFix" result="effect1_dropShadow_9785_9055"/>
            <feBlend mode="normal" in="SourceGraphic" in2="effect1_dropShadow_9785_9055" result="shape"/>
        </filter>
        <filter id="filter1_d_9785_9055" x="53" y="19" width="34" height="110" filterUnits="userSpaceOnUse" color-interpolation-filters="sRGB">
            <feFlood flood-opacity="0" result="BackgroundImageFix"/>
            <feColorMatrix in="SourceAlpha" type="matrix" values="0 0 0 0 0 0 0 0 0 0 0 0 0 0 0 0 0 0 127 0" result="hardAlpha"/>
            <feOffset dy="2"/>
            <feGaussianBlur stdDeviation="1"/>
            <feComposite in2="hardAlpha" operator="out"/>
            <feColorMatrix type="matrix" values="0 0 0 0 0 0 0 0 0 0 0 0 0 0 0 0 0 0 0.25 0"/>
            <feBlend mode="normal" in2="BackgroundImageFix" result="effect1_dropShadow_9785_9055"/>
            <feBlend mode="normal" in="SourceGraphic" in2="effect1_dropShadow_9785_9055" result="shape"/>
        </filter>
        <filter id="filter2_d_9785_9055" x="108" y="19" width="34" height="110" filterUnits="userSpaceOnUse" color-interpolation-filters="sRGB">
            <feFlood flood-opacity="0" result="BackgroundImageFix"/>
            <feColorMatrix in="SourceAlpha" type="matrix" values="0 0 0 0 0 0 0 0 0 0 0 0 0 0 0 0 0 0 127 0" result="hardAlpha"/>
            <feOffset dy="2"/>
            <feGaussianBlur stdDeviation="1"/>
            <feComposite in2="hardAlpha" operator="out"/>
            <feColorMatrix type="matrix" values="0 0 0 0 0 0 0 0 0 0 0 0 0 0 0 0 0 0 0.25 0"/>
            <feBlend mode="normal" in2="BackgroundImageFix" result="effect1_dropShadow_9785_9055"/>
            <feBlend mode="normal" in="SourceGraphic" in2="effect1_dropShadow_9785_9055" result="shape"/>
        </filter>
        <filter id="filter3_d_9785_9055" x="163" y="19" width="34" height="110" filterUnits="userSpaceOnUse" color-interpolation-filters="sRGB">
            <feFlood flood-opacity="0" result="BackgroundImageFix"/>
            <feColorMatrix in="SourceAlpha" type="matrix" values="0 0 0 0 0 0 0 0 0 0 0 0 0 0 0 0 0 0 127 0" result="hardAlpha"/>
            <feOffset dy="2"/>
            <feGaussianBlur stdDeviation="1"/>
            <feComposite in2="hardAlpha" operator="out"/>
            <feColorMatrix type="matrix" values="0 0 0 0 0 0 0 0 0 0 0 0 0 0 0 0 0 0 0.25 0"/>
            <feBlend mode="normal" in2="BackgroundImageFix" result="effect1_dropShadow_9785_9055"/>
            <feBlend mode="normal" in="SourceGraphic" in2="effect1_dropShadow_9785_9055" result="shape"/>
        </filter>
        <filter id="filter4_d_9785_9055" x="218" y="19" width="34" height="110" filterUnits="userSpaceOnUse" color-interpolation-filters="sRGB">
            <feFlood flood-opacity="0" result="BackgroundImageFix"/>
            <feColorMatrix in="SourceAlpha" type="matrix" values="0 0 0 0 0 0 0 0 0 0 0 0 0 0 0 0 0 0 127 0" result="hardAlpha"/>
            <feOffset dy="2"/>
            <feGaussianBlur stdDeviation="1"/>
            <feComposite in2="hardAlpha" operator="out"/>
            <feColorMatrix type="matrix" values="0 0 0 0 0 0 0 0 0 0 0 0 0 0 0 0 0 0 0.25 0"/>
            <feBlend mode="normal" in2="BackgroundImageFix" result="effect1_dropShadow_9785_9055"/>
            <feBlend mode="normal" in="SourceGraphic" in2="effect1_dropShadow_9785_9055" result="shape"/>
        </filter>
        <filter id="filter5_d_9785_9055" x="273" y="19" width="34" height="110" filterUnits="userSpaceOnUse" color-interpolation-filters="sRGB">
            <feFlood flood-opacity="0" result="BackgroundImageFix"/>
            <feColorMatrix in="SourceAlpha" type="matrix" values="0 0 0 0 0 0 0 0 0 0 0 0 0 0 0 0 0 0 127 0" result="hardAlpha"/>
            <feOffset dy="2"/>
            <feGaussianBlur stdDeviation="1"/>
            <feComposite in2="hardAlpha" operator="out"/>
            <feColorMatrix type="matrix" values="0 0 0 0 0 0 0 0 0 0 0 0 0 0 0 0 0 0 0.25 0"/>
            <feBlend mode="normal" in2="BackgroundImageFix" result="effect1_dropShadow_9785_9055"/>
            <feBlend mode="normal" in="SourceGraphic" in2="effect1_dropShadow_9785_9055" result="shape"/>
        </filter>
        <filter id="filter6_d_9785_9055" x="328" y="19" width="34" height="110" filterUnits="userSpaceOnUse" color-interpolation-filters="sRGB">
            <feFlood flood-opacity="0" result="BackgroundImageFix"/>
            <feColorMatrix in="SourceAlpha" type="matrix" values="0 0 0 0 0 0 0 0 0 0 0 0 0 0 0 0 0 0 127 0" result="hardAlpha"/>
            <feOffset dy="2"/>
            <feGaussianBlur stdDeviation="1"/>
            <feComposite in2="hardAlpha" operator="out"/>
            <feColorMatrix type="matrix" values="0 0 0 0 0 0 0 0 0 0 0 0 0 0 0 0 0 0 0.25 0"/>
            <feBlend mode="normal" in2="BackgroundImageFix" result="effect1_dropShadow_9785_9055"/>
            <feBlend mode="normal" in="SourceGraphic" in2="effect1_dropShadow_9785_9055" result="shape"/>
        </filter>
        <filter id="filter7_d_9785_9055" x="30.3054" y="21.835" width="25.5322" height="13.2822" filterUnits="userSpaceOnUse" color-interpolation-filters="sRGB">
            <feFlood flood-opacity="0" result="BackgroundImageFix"/>
            <feColorMatrix in="SourceAlpha" type="matrix" values="0 0 0 0 0 0 0 0 0 0 0 0 0 0 0 0 0 0 127 0" result="hardAlpha"/>
            <feOffset dy="2"/>
            <feGaussianBlur stdDeviation="1"/>
            <feComposite in2="hardAlpha" operator="out"/>
            <feColorMatrix type="matrix" values="0 0 0 0 0 0 0 0 0 0 0 0 0 0 0 0 0 0 0.25 0"/>
            <feBlend mode="normal" in2="BackgroundImageFix" result="effect1_dropShadow_9785_9055"/>
            <feBlend mode="normal" in="SourceGraphic" in2="effect1_dropShadow_9785_9055" result="shape"/>
        </filter>
        <filter id="filter8_d_9785_9055" x="74.9165" y="16.668" width="44.3352" height="17.0059" filterUnits="userSpaceOnUse" color-interpolation-filters="sRGB">
            <feFlood flood-opacity="0" result="BackgroundImageFix"/>
            <feColorMatrix in="SourceAlpha" type="matrix" values="0 0 0 0 0 0 0 0 0 0 0 0 0 0 0 0 0 0 127 0" result="hardAlpha"/>
            <feOffset dy="2"/>
            <feGaussianBlur stdDeviation="1"/>
            <feComposite in2="hardAlpha" operator="out"/>
            <feColorMatrix type="matrix" values="0 0 0 0 0 0 0 0 0 0 0 0 0 0 0 0 0 0 0.25 0"/>
            <feBlend mode="normal" in2="BackgroundImageFix" result="effect1_dropShadow_9785_9055"/>
            <feBlend mode="normal" in="SourceGraphic" in2="effect1_dropShadow_9785_9055" result="shape"/>
        </filter>
        <filter id="filter9_d_9785_9055" x="182.015" y="22.4316" width="51.6096" height="14.7285" filterUnits="userSpaceOnUse" color-interpolation-filters="sRGB">
            <feFlood flood-opacity="0" result="BackgroundImageFix"/>
            <feColorMatrix in="SourceAlpha" type="matrix" values="0 0 0 0 0 0 0 0 0 0 0 0 0 0 0 0 0 0 127 0" result="hardAlpha"/>
            <feOffset dy="2"/>
            <feGaussianBlur stdDeviation="1"/>
            <feComposite in2="hardAlpha" operator="out"/>
            <feColorMatrix type="matrix" values="0 0 0 0 0 0 0 0 0 0 0 0 0 0 0 0 0 0 0.25 0"/>
            <feBlend mode="normal" in2="BackgroundImageFix" result="effect1_dropShadow_9785_9055"/>
            <feBlend mode="normal" in="SourceGraphic" in2="effect1_dropShadow_9785_9055" result="shape"/>
        </filter>
        <filter id="filter10_d_9785_9055" x="132.147" y="21.835" width="42.8831" height="13.2822" filterUnits="userSpaceOnUse" color-interpolation-filters="sRGB">
            <feFlood flood-opacity="0" result="BackgroundImageFix"/>
            <feColorMatrix in="SourceAlpha" type="matrix" values="0 0 0 0 0 0 0 0 0 0 0 0 0 0 0 0 0 0 127 0" result="hardAlpha"/>
            <feOffset dy="2"/>
            <feGaussianBlur stdDeviation="1"/>
            <feComposite in2="hardAlpha" operator="out"/>
            <feColorMatrix type="matrix" values="0 0 0 0 0 0 0 0 0 0 0 0 0 0 0 0 0 0 0.25 0"/>
            <feBlend mode="normal" in2="BackgroundImageFix" result="effect1_dropShadow_9785_9055"/>
            <feBlend mode="normal" in="SourceGraphic" in2="effect1_dropShadow_9785_9055" result="shape"/>
        </filter>
        <filter id="filter11_d_9785_9055" x="249.102" y="21.7178" width="27.3242" height="13.3994" filterUnits="userSpaceOnUse" color-interpolation-filters="sRGB">
            <feFlood flood-opacity="0" result="BackgroundImageFix"/>
            <feColorMatrix in="SourceAlpha" type="matrix" values="0 0 0 0 0 0 0 0 0 0 0 0 0 0 0 0 0 0 127 0" result="hardAlpha"/>
            <feOffset dy="2"/>
            <feGaussianBlur stdDeviation="1"/>
            <feComposite in2="hardAlpha" operator="out"/>
            <feColorMatrix type="matrix" values="0 0 0 0 0 0 0 0 0 0 0 0 0 0 0 0 0 0 0.25 0"/>
            <feBlend mode="normal" in2="BackgroundImageFix" result="effect1_dropShadow_9785_9055"/>
            <feBlend mode="normal" in="SourceGraphic" in2="effect1_dropShadow_9785_9055" result="shape"/>
        </filter>
        <filter id="filter12_d_9785_9055" x="297.916" y="3.71777" width="37.6963" height="31.3994" filterUnits="userSpaceOnUse" color-interpolation-filters="sRGB">
            <feFlood flood-opacity="0" result="BackgroundImageFix"/>
            <feColorMatrix in="SourceAlpha" type="matrix" values="0 0 0 0 0 0 0 0 0 0 0 0 0 0 0 0 0 0 127 0" result="hardAlpha"/>
            <feOffset dy="2"/>
            <feGaussianBlur stdDeviation="1"/>
            <feComposite in2="hardAlpha" operator="out"/>
            <feColorMatrix type="matrix" values="0 0 0 0 0 0 0 0 0 0 0 0 0 0 0 0 0 0 0.25 0"/>
            <feBlend mode="normal" in2="BackgroundImageFix" result="effect1_dropShadow_9785_9055"/>
            <feBlend mode="normal" in="SourceGraphic" in2="effect1_dropShadow_9785_9055" result="shape"/>
        </filter>
        <filter id="filter13_d_9785_9055" x="290.932" y="56.8604" width="55.6753" height="11.2295" filterUnits="userSpaceOnUse" color-interpolation-filters="sRGB">
            <feFlood flood-opacity="0" result="BackgroundImageFix"/>
            <feColorMatrix in="SourceAlpha" type="matrix" values="0 0 0 0 0 0 0 0 0 0 0 0 0 0 0 0 0 0 127 0" result="hardAlpha"/>
            <feOffset dy="2"/>
            <feGaussianBlur stdDeviation="1"/>
            <feComposite in2="hardAlpha" operator="out"/>
            <feColorMatrix type="matrix" values="0 0 0 0 0 0 0 0 0 0 0 0 0 0 0 0 0 0 0.25 0"/>
            <feBlend mode="normal" in2="BackgroundImageFix" result="effect1_dropShadow_9785_9055"/>
            <feBlend mode="normal" in="SourceGraphic" in2="effect1_dropShadow_9785_9055" result="shape"/>
        </filter>
        <filter id="filter14_d_9785_9055" x="241.928" y="56.8604" width="43.6831" height="11.2295" filterUnits="userSpaceOnUse" color-interpolation-filters="sRGB">
            <feFlood flood-opacity="0" result="BackgroundImageFix"/>
            <feColorMatrix in="SourceAlpha" type="matrix" values="0 0 0 0 0 0 0 0 0 0 0 0 0 0 0 0 0 0 127 0" result="hardAlpha"/>
            <feOffset dy="2"/>
            <feGaussianBlur stdDeviation="1"/>
            <feComposite in2="hardAlpha" operator="out"/>
            <feColorMatrix type="matrix" values="0 0 0 0 0 0 0 0 0 0 0 0 0 0 0 0 0 0 0.25 0"/>
            <feBlend mode="normal" in2="BackgroundImageFix" result="effect1_dropShadow_9785_9055"/>
            <feBlend mode="normal" in="SourceGraphic" in2="effect1_dropShadow_9785_9055" result="shape"/>
        </filter>
        <filter id="filter15_d_9785_9055" x="186.795" y="56.8604" width="43.6892" height="11.2295" filterUnits="userSpaceOnUse" color-interpolation-filters="sRGB">
            <feFlood flood-opacity="0" result="BackgroundImageFix"/>
            <feColorMatrix in="SourceAlpha" type="matrix" values="0 0 0 0 0 0 0 0 0 0 0 0 0 0 0 0 0 0 127 0" result="hardAlpha"/>
            <feOffset dy="2"/>
            <feGaussianBlur stdDeviation="1"/>
            <feComposite in2="hardAlpha" operator="out"/>
            <feColorMatrix type="matrix" values="0 0 0 0 0 0 0 0 0 0 0 0 0 0 0 0 0 0 0.25 0"/>
            <feBlend mode="normal" in2="BackgroundImageFix" result="effect1_dropShadow_9785_9055"/>
            <feBlend mode="normal" in="SourceGraphic" in2="effect1_dropShadow_9785_9055" result="shape"/>
        </filter>
        <filter id="filter16_d_9785_9055" x="132.922" y="56.8604" width="42.4392" height="11.2295" filterUnits="userSpaceOnUse" color-interpolation-filters="sRGB">
            <feFlood flood-opacity="0" result="BackgroundImageFix"/>
            <feColorMatrix in="SourceAlpha" type="matrix" values="0 0 0 0 0 0 0 0 0 0 0 0 0 0 0 0 0 0 127 0" result="hardAlpha"/>
            <feOffset dy="2"/>
            <feGaussianBlur stdDeviation="1"/>
            <feComposite in2="hardAlpha" operator="out"/>
            <feColorMatrix type="matrix" values="0 0 0 0 0 0 0 0 0 0 0 0 0 0 0 0 0 0 0.25 0"/>
            <feBlend mode="normal" in2="BackgroundImageFix" result="effect1_dropShadow_9785_9055"/>
            <feBlend mode="normal" in="SourceGraphic" in2="effect1_dropShadow_9785_9055" result="shape"/>
        </filter>
        <filter id="filter17_d_9785_9055" x="75.8823" y="56.8604" width="42.4792" height="11.2295" filterUnits="userSpaceOnUse" color-interpolation-filters="sRGB">
            <feFlood flood-opacity="0" result="BackgroundImageFix"/>
            <feColorMatrix in="SourceAlpha" type="matrix" values="0 0 0 0 0 0 0 0 0 0 0 0 0 0 0 0 0 0 127 0" result="hardAlpha"/>
            <feOffset dy="2"/>
            <feGaussianBlur stdDeviation="1"/>
            <feComposite in2="hardAlpha" operator="out"/>
            <feColorMatrix type="matrix" values="0 0 0 0 0 0 0 0 0 0 0 0 0 0 0 0 0 0 0.25 0"/>
            <feBlend mode="normal" in2="BackgroundImageFix" result="effect1_dropShadow_9785_9055"/>
            <feBlend mode="normal" in="SourceGraphic" in2="effect1_dropShadow_9785_9055" result="shape"/>
        </filter>
        <filter id="filter18_d_9785_9055" x="25.1804" y="56.8604" width="36.1831" height="11.2295" filterUnits="userSpaceOnUse" color-interpolation-filters="sRGB">
            <feFlood flood-opacity="0" result="BackgroundImageFix"/>
            <feColorMatrix in="SourceAlpha" type="matrix" values="0 0 0 0 0 0 0 0 0 0 0 0 0 0 0 0 0 0 127 0" result="hardAlpha"/>
            <feOffset dy="2"/>
            <feGaussianBlur stdDeviation="1"/>
            <feComposite in2="hardAlpha" operator="out"/>
            <feColorMatrix type="matrix" values="0 0 0 0 0 0 0 0 0 0 0 0 0 0 0 0 0 0 0.25 0"/>
            <feBlend mode="normal" in2="BackgroundImageFix" result="effect1_dropShadow_9785_9055"/>
            <feBlend mode="normal" in="SourceGraphic" in2="effect1_dropShadow_9785_9055" result="shape"/>
        </filter>
        <filter id="filter19_d_9785_9055" x="19.76" y="42.8604" width="46.3008" height="11.2295" filterUnits="userSpaceOnUse" color-interpolation-filters="sRGB">
            <feFlood flood-opacity="0" result="BackgroundImageFix"/>
            <feColorMatrix in="SourceAlpha" type="matrix" values="0 0 0 0 0 0 0 0 0 0 0 0 0 0 0 0 0 0 127 0" result="hardAlpha"/>
            <feOffset dy="2"/>
            <feGaussianBlur stdDeviation="1"/>
            <feComposite in2="hardAlpha" operator="out"/>
            <feColorMatrix type="matrix" values="0 0 0 0 0 0 0 0 0 0 0 0 0 0 0 0 0 0 0.25 0"/>
            <feBlend mode="normal" in2="BackgroundImageFix" result="effect1_dropShadow_9785_9055"/>
            <feBlend mode="normal" in="SourceGraphic" in2="effect1_dropShadow_9785_9055" result="shape"/>
        </filter>
        <filter id="filter20_d_9785_9055" x="74" y="35" width="46" height="5" filterUnits="userSpaceOnUse" color-interpolation-filters="sRGB">
            <feFlood flood-opacity="0" result="BackgroundImageFix"/>
            <feColorMatrix in="SourceAlpha" type="matrix" values="0 0 0 0 0 0 0 0 0 0 0 0 0 0 0 0 0 0 127 0" result="hardAlpha"/>
            <feOffset dy="2"/>
            <feGaussianBlur stdDeviation="1"/>
            <feComposite in2="hardAlpha" operator="out"/>
            <feColorMatrix type="matrix" values="0 0 0 0 0 0 0 0 0 0 0 0 0 0 0 0 0 0 0.25 0"/>
            <feBlend mode="normal" in2="BackgroundImageFix" result="effect1_dropShadow_9785_9055"/>
            <feBlend mode="normal" in="SourceGraphic" in2="effect1_dropShadow_9785_9055" result="shape"/>
        </filter>
        <linearGradient id="paint0_linear_9785_9055" x1="14.9806" y1="20.6069" x2="13.8359" y2="20.6097" gradientUnits="userSpaceOnUse">
            <stop stop-color="black" stop-opacity="0.6"/>
            <stop offset="0.307292" stop-color="black" stop-opacity="0.477083"/>
            <stop offset="1" stop-color="black" stop-opacity="0.2"/>
            <stop offset="1" stop-color="black" stop-opacity="0.2"/>
        </linearGradient>
        <linearGradient id="paint1_linear_9785_9055" x1="69.9806" y1="20.6069" x2="68.8359" y2="20.6097" gradientUnits="userSpaceOnUse">
            <stop stop-color="black" stop-opacity="0.6"/>
            <stop offset="0.307292" stop-color="black" stop-opacity="0.477083"/>
            <stop offset="1" stop-color="black" stop-opacity="0.2"/>
            <stop offset="1" stop-color="black" stop-opacity="0.2"/>
        </linearGradient>
        <linearGradient id="paint2_linear_9785_9055" x1="124.981" y1="20.6069" x2="123.836" y2="20.6097" gradientUnits="userSpaceOnUse">
            <stop stop-color="black" stop-opacity="0.6"/>
            <stop offset="0.307292" stop-color="black" stop-opacity="0.477083"/>
            <stop offset="1" stop-color="black" stop-opacity="0.2"/>
            <stop offset="1" stop-color="black" stop-opacity="0.2"/>
        </linearGradient>
        <linearGradient id="paint3_linear_9785_9055" x1="179.981" y1="20.6069" x2="178.836" y2="20.6097" gradientUnits="userSpaceOnUse">
            <stop stop-color="black" stop-opacity="0.6"/>
            <stop offset="0.307292" stop-color="black" stop-opacity="0.477083"/>
            <stop offset="1" stop-color="black" stop-opacity="0.2"/>
            <stop offset="1" stop-color="black" stop-opacity="0.2"/>
        </linearGradient>
        <linearGradient id="paint4_linear_9785_9055" x1="234.981" y1="20.6069" x2="233.836" y2="20.6097" gradientUnits="userSpaceOnUse">
            <stop stop-color="black" stop-opacity="0.6"/>
            <stop offset="0.307292" stop-color="black" stop-opacity="0.477083"/>
            <stop offset="1" stop-color="black" stop-opacity="0.2"/>
            <stop offset="1" stop-color="black" stop-opacity="0.2"/>
        </linearGradient>
        <linearGradient id="paint5_linear_9785_9055" x1="289.981" y1="20.6069" x2="288.836" y2="20.6097" gradientUnits="userSpaceOnUse">
            <stop stop-color="black" stop-opacity="0.6"/>
            <stop offset="0.307292" stop-color="black" stop-opacity="0.477083"/>
            <stop offset="1" stop-color="black" stop-opacity="0.2"/>
            <stop offset="1" stop-color="black" stop-opacity="0.2"/>
        </linearGradient>
        <linearGradient id="paint6_linear_9785_9055" x1="344.981" y1="20.6069" x2="343.836" y2="20.6097" gradientUnits="userSpaceOnUse">
            <stop stop-color="black" stop-opacity="0.6"/>
            <stop offset="0.307292" stop-color="black" stop-opacity="0.477083"/>
            <stop offset="1" stop-color="black" stop-opacity="0.2"/>
            <stop offset="1" stop-color="black" stop-opacity="0.2"/>
        </linearGradient>
        <linearGradient id="paint7_linear_9785_9055" x1="186.5" y1="109" x2="186.5" y2="110" gradientUnits="userSpaceOnUse">
            <stop offset="0.145833" stop-color="#7AACFF"/>
            <stop offset="0.666667" stop-color="#0060FF"/>
        </linearGradient>
    </defs>
</svg>
