<svg width="15" height="14" viewBox="0 0 15 14" fill="none" xmlns="http://www.w3.org/2000/svg">
<path d="M13.9925 3.99786H11.4938V4.99733H13.9925V7.99572H10.4944V8.99519H11.9936V10.0656C11.5225 10.1872 11.112 10.4765 10.8389 10.8792C10.5658 11.2819 10.449 11.7703 10.5103 12.2529C10.5716 12.7356 10.8068 13.1793 11.1719 13.5009C11.537 13.8226 12.0068 14 12.4933 14C12.9798 14 13.4497 13.8226 13.8147 13.5009C14.1798 13.1793 14.415 12.7356 14.4763 12.2529C14.5376 11.7703 14.4208 11.2819 14.1477 10.8792C13.8747 10.4765 13.4641 10.1872 12.993 10.0656V8.99519H13.9925C14.2575 8.99479 14.5115 8.88936 14.6988 8.70201C14.8862 8.51466 14.9916 8.26067 14.992 7.99572V4.99733C14.9917 4.73233 14.8863 4.47827 14.6989 4.29089C14.5116 4.10351 14.2575 3.99813 13.9925 3.99786ZM13.4928 11.9936C13.4928 12.1913 13.4342 12.3845 13.3243 12.5489C13.2145 12.7132 13.0584 12.8413 12.8758 12.917C12.6932 12.9926 12.4922 13.0124 12.2983 12.9738C12.1044 12.9353 11.9264 12.8401 11.7866 12.7003C11.6468 12.5605 11.5516 12.3824 11.5131 12.1886C11.4745 11.9947 11.4943 11.7937 11.5699 11.6111C11.6456 11.4285 11.7737 11.2724 11.938 11.1626C12.1024 11.0527 12.2956 10.9941 12.4933 10.9941C12.7583 10.9945 13.0123 11.0999 13.1996 11.2873C13.387 11.4746 13.4924 11.7286 13.4928 11.9936ZM8.99518 1.99893H6.49652V2.9984H8.99518V5.99679H5.49706V6.99626H6.99625V10.0656C6.52518 10.1872 6.11463 10.4765 5.84157 10.8792C5.56851 11.2819 5.45168 11.7703 5.51299 12.2529C5.57429 12.7356 5.80952 13.1793 6.17458 13.5009C6.53964 13.8226 7.00946 14 7.49599 14C7.98251 14 8.45234 13.8226 8.8174 13.5009C9.18245 13.1793 9.41768 12.7356 9.47898 12.2529C9.54029 11.7703 9.42346 11.2819 9.1504 10.8792C8.87734 10.4765 8.4668 10.1872 7.99572 10.0656V6.99626H8.99518C9.26018 6.99599 9.51424 6.89061 9.70162 6.70323C9.889 6.51585 9.99439 6.26178 9.99465 5.99679V2.9984C9.99439 2.7334 9.889 2.47934 9.70162 2.29196C9.51424 2.10458 9.26018 1.99919 8.99518 1.99893ZM8.49545 11.9936C8.49545 12.1913 8.43683 12.3845 8.32701 12.5489C8.21719 12.7132 8.0611 12.8413 7.87847 12.917C7.69584 12.9926 7.49488 13.0124 7.301 12.9738C7.10712 12.9353 6.92904 12.8401 6.78926 12.7003C6.64948 12.5605 6.55429 12.3824 6.51573 12.1886C6.47716 11.9947 6.49695 11.7937 6.5726 11.6111C6.64825 11.4285 6.77635 11.2724 6.94071 11.1626C7.10508 11.0527 7.29831 10.9941 7.49599 10.9941C7.76094 10.9945 8.01493 11.0999 8.20228 11.2873C8.38963 11.4746 8.49506 11.7286 8.49545 11.9936ZM3.99786 0H0.999465C0.734472 0.000264597 0.480407 0.10565 0.293029 0.293029C0.10565 0.480408 0.000264597 0.734472 0 0.999465V3.99786C0.000264597 4.26285 0.10565 4.51692 0.293029 4.7043C0.480407 4.89168 0.734472 4.99706 0.999465 4.99733H1.99893V10.0656C1.52785 10.1872 1.11731 10.4765 0.844247 10.8792C0.571187 11.2819 0.45436 11.7703 0.515665 12.2529C0.576969 12.7356 0.812196 13.1793 1.17725 13.5009C1.54231 13.8226 2.01214 14 2.49866 14C2.98519 14 3.45501 13.8226 3.82007 13.5009C4.18513 13.1793 4.42036 12.7356 4.48166 12.2529C4.54296 11.7703 4.42614 11.2819 4.15308 10.8792C3.88002 10.4765 3.46947 10.1872 2.99839 10.0656V4.99733H3.99786C4.26285 4.99706 4.51692 4.89168 4.7043 4.7043C4.89167 4.51692 4.99706 4.26285 4.99732 3.99786V0.999465C4.99706 0.734472 4.89167 0.480408 4.7043 0.293029C4.51692 0.10565 4.26285 0.000264597 3.99786 0ZM3.49813 11.9936C3.49813 12.1913 3.43951 12.3845 3.32969 12.5489C3.21986 12.7132 3.06377 12.8413 2.88114 12.917C2.69851 12.9926 2.49755 13.0124 2.30368 12.9738C2.1098 12.9353 1.93171 12.8401 1.79193 12.7003C1.65216 12.5605 1.55697 12.3824 1.5184 12.1886C1.47984 11.9947 1.49963 11.7937 1.57528 11.6111C1.65092 11.4285 1.77903 11.2724 1.94339 11.1626C2.10775 11.0527 2.30099 10.9941 2.49866 10.9941C2.76366 10.9944 3.01772 11.0998 3.2051 11.2871C3.39248 11.4745 3.49786 11.7286 3.49813 11.9936ZM0.999465 3.99786V0.999465H3.99786L3.99886 3.99786H0.999465Z" fill="#FF5C28"/>
</svg>
