<svg width="14" height="14" viewBox="0 0 14 14" fill="none" xmlns="http://www.w3.org/2000/svg">
<path d="M1.55556 3.11111H12.4444C13.3 3.11111 14 3.81111 14 4.66667V9.33333C14 10.1889 13.3 10.8889 12.4444 10.8889H1.55556C0.7 10.8889 0 10.1889 0 9.33333V4.66667C0 3.81111 0.7 3.11111 1.55556 3.11111ZM0.777778 0H13.2222C13.65 0 14 0.35 14 0.777778C14 1.20556 13.65 1.55556 13.2222 1.55556H0.777778C0.35 1.55556 0 1.20556 0 0.777778C0 0.35 0.35 0 0.777778 0ZM0.777778 12.4444H13.2222C13.65 12.4444 14 12.7944 14 13.2222C14 13.65 13.65 14 13.2222 14H0.777778C0.35 14 0 13.65 0 13.2222C0 12.7944 0.35 12.4444 0.777778 12.4444Z" fill="black"/>
</svg>
