<svg width="16" height="16" viewBox="0 0 16 16" fill="none" xmlns="http://www.w3.org/2000/svg">
<path d="M16 5.10613C16 3.03787 14.3232 1.3616 12.2555 1.3616C10.6853 1.3616 9.34293 2.32907 8.7864 3.69947C8.4392 1.6016 6.62187 0 4.42533 0C1.9816 0 0 1.9816 0 4.42533C0 6.79067 1.8568 8.7168 4.1912 8.8392C4.1248 8.94453 4.0848 9.06587 4.0848 9.19147V11.4037L1.70187 10.2125V15.3192L4.10747 14.1163C4.18213 14.4035 4.4488 14.6379 4.76587 14.6379H6.80827V16H9.87227V14.6381H11.5744C11.9477 14.6381 12.2552 14.3125 12.2552 13.9576V10.8936L13.9573 11.2339V8.85093L12.2552 9.1912C12.2552 9.068 12.2163 8.9496 12.1525 8.8456C12.1869 8.84667 12.2203 8.85093 12.2552 8.85093C14.3232 8.85093 16 7.1744 16 5.10613ZM15.2987 5.65147C15.2931 5.87542 15.2002 6.08833 15.0398 6.24476C14.8795 6.40118 14.6643 6.48874 14.4403 6.48874C14.2162 6.48874 14.0011 6.40118 13.8407 6.24476C13.6803 6.08833 13.5875 5.87542 13.5819 5.65147C13.5875 5.42751 13.6803 5.2146 13.8407 5.05818C14.0011 4.90175 14.2162 4.8142 14.4403 4.8142C14.6643 4.8142 14.8795 4.90175 15.0398 5.05818C15.2002 5.2146 15.2931 5.42751 15.2987 5.65147ZM13.5821 2.35413C13.6948 2.35413 13.8064 2.37633 13.9105 2.41944C14.0146 2.46256 14.1092 2.52576 14.1888 2.60544C14.2685 2.68511 14.3317 2.77969 14.3748 2.88379C14.4179 2.98789 14.4401 3.09946 14.4401 3.21213C14.4401 3.32481 14.4179 3.43638 14.3748 3.54048C14.3317 3.64457 14.2685 3.73916 14.1888 3.81883C14.1092 3.8985 14.0146 3.9617 13.9105 4.00482C13.8064 4.04794 13.6948 4.07013 13.5821 4.07013C13.3546 4.07013 13.1364 3.97975 12.9755 3.81887C12.8146 3.65799 12.7243 3.43979 12.7243 3.21227C12.7242 3.09958 12.7463 2.98798 12.7894 2.88385C12.8325 2.77972 12.8957 2.68511 12.9754 2.60541C13.055 2.52572 13.1496 2.4625 13.2537 2.41939C13.3579 2.37627 13.4694 2.3541 13.5821 2.35413ZM13.0229 5.236C13.0229 5.29293 13.0003 5.34753 12.9601 5.38779C12.9198 5.42805 12.8652 5.45067 12.8083 5.45067C12.7513 5.45067 12.6967 5.42805 12.6565 5.38779C12.6162 5.34753 12.5936 5.29293 12.5936 5.236C12.5936 5.17907 12.6162 5.12447 12.6565 5.08421C12.6967 5.04395 12.7513 5.02133 12.8083 5.02133C12.8652 5.02133 12.9198 5.04395 12.9601 5.08421C13.0003 5.12447 13.0229 5.17907 13.0229 5.236ZM12.5939 4.41147C12.6221 4.41148 12.65 4.41705 12.676 4.42786C12.702 4.43866 12.7257 4.45449 12.7456 4.47444C12.7655 4.49438 12.7813 4.51806 12.7921 4.54411C12.8029 4.57016 12.8084 4.59808 12.8084 4.62627C12.8084 4.65446 12.8028 4.68237 12.792 4.70841C12.7812 4.73444 12.7654 4.7581 12.7454 4.77802C12.7255 4.79794 12.7018 4.81374 12.6758 4.82451C12.6497 4.83528 12.6218 4.84082 12.5936 4.8408C12.5367 4.84076 12.4821 4.81811 12.4418 4.77783C12.4016 4.73755 12.379 4.68293 12.3791 4.626C12.3791 4.56907 12.4018 4.51448 12.442 4.47425C12.4823 4.43401 12.5369 4.41143 12.5939 4.41147ZM12.2621 5.45067C12.3047 5.45067 12.3462 5.46329 12.3816 5.48693C12.417 5.51057 12.4445 5.54417 12.4608 5.58347C12.477 5.62278 12.4812 5.66602 12.4729 5.70773C12.4646 5.74944 12.444 5.78773 12.4139 5.81777C12.3838 5.84781 12.3455 5.86824 12.3037 5.87647C12.262 5.8847 12.2188 5.88037 12.1795 5.86402C12.1402 5.84767 12.1067 5.82004 12.0832 5.78462C12.0596 5.74921 12.0471 5.7076 12.0472 5.66507C12.0473 5.60816 12.07 5.55362 12.1103 5.51343C12.1506 5.47324 12.2052 5.45067 12.2621 5.45067ZM12.1451 4.62613C12.1451 4.65429 12.1397 4.68218 12.129 4.70822C12.1182 4.73426 12.1025 4.75794 12.0826 4.77789C12.0628 4.79785 12.0392 4.8137 12.0132 4.82454C11.9872 4.83538 11.9594 4.841 11.9312 4.84107C11.903 4.84114 11.8752 4.83566 11.8491 4.82495C11.8231 4.81424 11.7994 4.79851 11.7794 4.77865C11.7595 4.75879 11.7436 4.73519 11.7328 4.70921C11.722 4.68322 11.7163 4.65536 11.7163 4.6272C11.7161 4.57034 11.7386 4.51575 11.7787 4.47544C11.8188 4.43513 11.8733 4.41241 11.9301 4.41227C11.987 4.41213 12.0416 4.43458 12.0819 4.47469C12.1222 4.51479 12.1449 4.56927 12.1451 4.62613ZM11.9301 5.236C11.9302 5.26417 11.9246 5.29207 11.9139 5.31811C11.9031 5.34414 11.8873 5.3678 11.8674 5.38774C11.8475 5.40767 11.8238 5.42349 11.7978 5.43429C11.7718 5.44508 11.7439 5.45065 11.7157 5.45067C11.6876 5.45068 11.6597 5.44515 11.6336 5.43439C11.6076 5.42362 11.5839 5.40784 11.564 5.38793C11.5441 5.36802 11.5282 5.34438 11.5174 5.31836C11.5067 5.29233 11.5011 5.26444 11.5011 5.23627C11.501 5.17937 11.5236 5.12479 11.5638 5.08453C11.604 5.04427 11.6586 5.02164 11.7155 5.0216C11.7724 5.02156 11.8269 5.04413 11.8672 5.08434C11.9075 5.12455 11.9301 5.1791 11.9301 5.236ZM5.9936 1.1728C6.12916 1.16899 6.2641 1.1924 6.39045 1.24165C6.51681 1.29089 6.632 1.36497 6.72923 1.45951C6.82646 1.55405 6.90375 1.66712 6.95652 1.79204C7.00929 1.91696 7.03648 2.05119 7.03648 2.1868C7.03648 2.32241 7.00929 2.45664 6.95652 2.58156C6.90375 2.70648 6.82646 2.81956 6.72923 2.91409C6.632 3.00863 6.51681 3.08271 6.39045 3.13195C6.2641 3.1812 6.12916 3.20461 5.9936 3.2008C5.7296 3.19338 5.4789 3.0833 5.29479 2.89395C5.11069 2.70459 5.00768 2.4509 5.00768 2.1868C5.00768 1.9227 5.11069 1.66901 5.29479 1.47965C5.4789 1.2903 5.7296 1.18022 5.9936 1.1728ZM5.33253 4.57893C5.32954 4.64418 5.30152 4.70576 5.25428 4.75088C5.20705 4.79599 5.14425 4.82117 5.07893 4.82117C5.01362 4.82117 4.95082 4.79599 4.90358 4.75088C4.85635 4.70576 4.82833 4.64418 4.82533 4.57893C4.82533 4.51167 4.85205 4.44717 4.89961 4.39961C4.94717 4.35205 5.01167 4.32533 5.07893 4.32533C5.14619 4.32533 5.2107 4.35205 5.25826 4.39961C5.30582 4.44717 5.33253 4.51167 5.33253 4.57893ZM4.82533 3.60453C4.89263 3.60464 4.95712 3.63147 5.00463 3.67913C5.05214 3.72679 5.07877 3.79137 5.07867 3.85867C5.07856 3.92596 5.05173 3.99046 5.00407 4.03797C4.95641 4.08548 4.89183 4.11211 4.82453 4.112C4.75724 4.11189 4.69274 4.08506 4.64523 4.0374C4.59773 3.98974 4.57109 3.92516 4.5712 3.85787C4.57131 3.79057 4.59814 3.72608 4.6458 3.67857C4.69346 3.63106 4.75804 3.60443 4.82533 3.60453ZM4.4336 4.83227C4.46689 4.83235 4.49983 4.839 4.53055 4.85182C4.56126 4.86463 4.58916 4.88338 4.61263 4.90698C4.63611 4.93058 4.6547 4.95857 4.66736 4.98935C4.68002 5.02014 4.68649 5.05311 4.6864 5.0864C4.68631 5.11969 4.67967 5.15263 4.66685 5.18335C4.65403 5.21407 4.63529 5.24196 4.61169 5.26543C4.58809 5.28891 4.5601 5.3075 4.52931 5.32016C4.49853 5.33282 4.46555 5.33929 4.43227 5.3392C4.36504 5.33902 4.30064 5.31215 4.25323 5.26449C4.20582 5.21683 4.17929 5.15229 4.17947 5.08507C4.17964 5.01784 4.20652 4.95344 4.25418 4.90603C4.30184 4.85862 4.36638 4.83209 4.4336 4.83227ZM4.29493 3.85813C4.29598 3.89215 4.29018 3.92602 4.27787 3.95775C4.26557 3.98948 4.24701 4.01841 4.2233 4.04282C4.19959 4.06723 4.17122 4.08663 4.13986 4.09985C4.10851 4.11308 4.07482 4.11987 4.04079 4.11982C4.00676 4.11976 3.97309 4.11287 3.94177 4.09954C3.91046 4.08622 3.88215 4.06673 3.85852 4.04224C3.83488 4.01776 3.81642 3.98877 3.80421 3.95701C3.79201 3.92524 3.78631 3.89134 3.78747 3.85733C3.7897 3.79146 3.81747 3.72905 3.86489 3.68328C3.91232 3.63751 3.97568 3.61198 4.04159 3.61208C4.10749 3.61219 4.17078 3.63792 4.21806 3.68384C4.26534 3.72975 4.2929 3.79226 4.29493 3.85813ZM4.0416 4.57893C4.03946 4.6448 4.0118 4.70726 3.96445 4.7531C3.91709 4.79894 3.85377 4.82457 3.78787 4.82457C3.72196 4.82457 3.65864 4.79894 3.61129 4.7531C3.56394 4.70726 3.53627 4.6448 3.53413 4.57893C3.53413 4.51164 3.56087 4.4471 3.60845 4.39952C3.65603 4.35193 3.72057 4.3252 3.78787 4.3252C3.85516 4.3252 3.9197 4.35193 3.96728 4.39952C4.01487 4.4471 4.0416 4.51164 4.0416 4.57893ZM1.8432 6.084C1.57424 6.084 1.31629 5.97715 1.1261 5.78697C0.935913 5.59678 0.829067 5.33883 0.829067 5.06987C0.829067 4.8009 0.935913 4.54295 1.1261 4.35277C1.31629 4.16258 1.57424 4.05573 1.8432 4.05573C2.11216 4.05573 2.37011 4.16258 2.5603 4.35277C2.75049 4.54295 2.85733 4.8009 2.85733 5.06987C2.85733 5.33883 2.75049 5.59678 2.5603 5.78697C2.37011 5.97715 2.11216 6.084 1.8432 6.084ZM1.8432 2.18693C1.8432 1.91793 1.95006 1.65995 2.14027 1.46974C2.33048 1.27953 2.58847 1.17267 2.85747 1.17267C3.12647 1.17267 3.38445 1.27953 3.57466 1.46974C3.76487 1.65995 3.87173 1.91793 3.87173 2.18693C3.87173 2.45593 3.76487 2.71392 3.57466 2.90413C3.38445 3.09434 3.12647 3.2012 2.85747 3.2012C2.58847 3.2012 2.33048 3.09434 2.14027 2.90413C1.95006 2.71392 1.8432 2.45593 1.8432 2.18693ZM4.42533 8.11227C4.29212 8.11223 4.16022 8.08596 4.03716 8.03495C3.9141 7.98394 3.80229 7.90919 3.70812 7.81497C3.61395 7.72075 3.53926 7.6089 3.48831 7.48581C3.43737 7.36273 3.41116 7.23081 3.4112 7.0976C3.41124 6.96439 3.43751 6.83249 3.48852 6.70943C3.53953 6.58637 3.61428 6.47456 3.7085 6.38039C3.80272 6.28622 3.91457 6.21153 4.03765 6.16058C4.16074 6.10964 4.29265 6.08343 4.42587 6.08347C4.6949 6.08354 4.95289 6.19048 5.14308 6.38077C5.33326 6.57105 5.44007 6.8291 5.44 7.09813C5.43993 7.36717 5.33299 7.62516 5.1427 7.81534C4.95241 8.00553 4.69437 8.11234 4.42533 8.11227ZM7.00773 4.05573C7.2767 4.0558 7.53464 4.16266 7.72485 4.35283C7.91506 4.54299 8.02199 4.8009 8.02213 5.06987C8.02213 5.3389 7.91526 5.59692 7.72502 5.78716C7.53479 5.97739 7.27677 6.08427 7.00773 6.08427C6.7387 6.08427 6.48068 5.97739 6.29044 5.78716C6.10021 5.59692 5.99333 5.3389 5.99333 5.06987C5.9934 4.80088 6.10031 4.54293 6.29054 4.35275C6.48077 4.16257 6.73874 4.05573 7.00773 4.05573ZM6.12827 8.5104C6.69922 8.27084 7.21371 7.91442 7.63863 7.46406C8.06354 7.0137 8.38948 6.47937 8.59547 5.89547C8.8464 7.06267 9.64133 8.02533 10.7016 8.5104H6.12827ZM10.0704 6.51013C9.84281 6.51013 9.62454 6.41972 9.46361 6.25879C9.30268 6.09786 9.21227 5.87959 9.21227 5.652C9.21227 5.42441 9.30268 5.20614 9.46361 5.04521C9.62454 4.88428 9.84281 4.79387 10.0704 4.79387C10.298 4.79387 10.5163 4.88428 10.6772 5.04521C10.8381 5.20614 10.9285 5.42441 10.9285 5.652C10.9285 5.87959 10.8381 6.09786 10.6772 6.25879C10.5163 6.41972 10.298 6.51013 10.0704 6.51013ZM10.0704 3.212C10.0704 3.09928 10.0925 2.98765 10.1357 2.8835C10.1788 2.77936 10.242 2.68473 10.3218 2.60504C10.4015 2.52534 10.4961 2.46214 10.6003 2.41904C10.7044 2.37594 10.8161 2.3538 10.9288 2.35387C11.1564 2.35387 11.3746 2.44426 11.5355 2.60517C11.6964 2.76608 11.7868 2.98431 11.7868 3.21187C11.7868 3.43942 11.6964 3.65766 11.5355 3.81856C11.3746 3.97947 11.1564 4.06987 10.9288 4.06987C10.8161 4.07001 10.7044 4.04792 10.6003 4.00486C10.4961 3.96181 10.4014 3.89863 10.3217 3.81895C10.242 3.73927 10.1787 3.64465 10.1356 3.5405C10.0925 3.43635 10.0703 3.32472 10.0704 3.212ZM11.3971 7.368C11.3971 7.2553 11.4193 7.1437 11.4624 7.03959C11.5056 6.93547 11.5688 6.84088 11.6485 6.76121C11.7282 6.68154 11.8229 6.61836 11.927 6.57528C12.0312 6.5322 12.1428 6.51006 12.2555 6.51013C12.4252 6.51019 12.5911 6.56057 12.7322 6.6549C12.8733 6.74924 12.9832 6.8833 13.0481 7.04012C13.113 7.19694 13.13 7.36949 13.0968 7.53594C13.0636 7.70239 12.9819 7.85527 12.8618 7.97525C12.7418 8.09522 12.5888 8.1769 12.4224 8.20996C12.2559 8.24302 12.0833 8.22598 11.9266 8.16098C11.7698 8.09598 11.6358 7.98595 11.5415 7.8448C11.4473 7.70365 11.397 7.53772 11.3971 7.368Z" fill="url(#paint0_linear_10087_11842)"/>
<defs>
<linearGradient id="paint0_linear_10087_11842" x1="8" y1="0" x2="8" y2="16" gradientUnits="userSpaceOnUse">
<stop offset="0.114583" stop-color="#FFA88C"/>
<stop offset="0.671875" stop-color="#FF5C28"/>
</linearGradient>
</defs>
</svg>
