<svg width="20" height="19" viewBox="0 0 20 19" fill="none" xmlns="http://www.w3.org/2000/svg">
<path fill-rule="evenodd" clip-rule="evenodd" d="M2.90356 12.3914C4.0429 13.1917 5.40097 13.6218 6.79328 13.6234C7.22232 14.7917 7.96322 15.8202 8.93556 16.5971C9.90789 17.374 11.0745 17.8697 12.3087 18.0303C13.5428 18.1909 14.7975 18.0104 15.9363 17.5082C17.0751 17.0061 18.0545 16.2016 18.7683 15.182C19.4821 14.1624 19.903 12.9668 19.9851 11.7249C20.0673 10.483 19.8077 9.24239 19.2345 8.13766C18.6612 7.03293 17.7963 6.10635 16.7336 5.45854C15.6709 4.81073 14.451 4.46643 13.2064 4.46305C12.8378 3.45955 12.2381 2.55691 11.4559 1.82813C10.6737 1.09935 9.73103 0.564889 8.70402 0.267982C7.677 -0.028924 6.59452 -0.0799432 5.54413 0.119051C4.49375 0.318046 3.50494 0.761467 2.65769 1.41345C1.81044 2.06543 1.12854 2.90767 0.66713 3.87205C0.205723 4.83642 -0.0222294 5.89585 0.00170809 6.96466C0.0256456 8.03346 0.300801 9.08163 0.80492 10.0244C1.30904 10.9671 2.02797 11.778 2.90356 12.3914ZM4.01977 10.7954C4.71881 11.2866 5.53535 11.584 6.3865 11.6576C6.29869 10.1308 6.72942 8.61915 7.60879 7.36793C8.48403 6.1139 9.75736 5.19243 11.2221 4.75305C10.9065 4.07695 10.4395 3.48252 9.85739 3.0157C9.27528 2.54889 8.59361 2.22221 7.86509 2.06091C7.13656 1.89962 6.3807 1.90803 5.65595 2.0855C4.93119 2.26298 4.25697 2.60476 3.68539 3.08441C3.11382 3.56407 2.66022 4.16876 2.35966 4.85171C2.0591 5.53467 1.91964 6.2776 1.95206 7.02306C1.98447 7.76852 2.1879 8.49655 2.54661 9.15083C2.90532 9.80512 3.4097 10.3681 4.02075 10.7964L4.01977 10.7954ZM15.9799 7.28911C15.2808 6.79834 14.4642 6.50121 13.6132 6.42786C13.701 7.95466 13.2703 9.46634 12.3909 10.7176C11.5157 11.9716 10.2423 12.8931 8.77756 13.3324C9.09325 14.0085 9.5602 14.603 10.1423 15.0698C10.7244 15.5366 11.4061 15.8633 12.1346 16.0246C12.8631 16.1859 13.619 16.1775 14.3437 16C15.0685 15.8225 15.7427 15.4807 16.3143 15.0011C16.8859 14.5214 17.3395 13.9167 17.64 13.2338C17.9406 12.5508 18.0801 11.8079 18.0476 11.0624C18.0152 10.317 17.8118 9.58894 17.4531 8.93465C17.0944 8.28036 16.59 7.71734 15.9789 7.28911H15.9799Z" fill="white"/>
</svg>
