<svg width="18" height="18" viewBox="0 0 18 18" fill="none" xmlns="http://www.w3.org/2000/svg">
<circle cx="12" cy="7" r="1" fill="white"/>
<circle cx="6" cy="7" r="1" fill="white"/>
<circle cx="9" cy="9" r="8.5" stroke="white"/>
<path d="M14 10C14 11.0609 13.4732 12.0783 12.5355 12.8284C11.5979 13.5786 10.3261 14 9 14C7.67392 14 6.40215 13.5786 5.46447 12.8284C4.52678 12.0783 4 11.0609 4 10H5.35999C5.35999 10.7723 5.74349 11.513 6.42613 12.0591C7.10876 12.6052 8.03461 12.912 9 12.912C9.96539 12.912 10.8912 12.6052 11.5739 12.0591C12.2565 11.513 12.64 10.7723 12.64 10H14Z" fill="white"/>
</svg>
