<svg width="19" height="20" viewBox="0 0 19 20" fill="none" xmlns="http://www.w3.org/2000/svg">
<path d="M10.2877 0.42016C10.002 0.15034 9.62386 0 9.23077 0C8.83768 0 8.45949 0.15034 8.17385 0.42016L0.72154 7.4571C0.493357 7.67284 0.311665 7.93285 0.187595 8.22122C0.0635247 8.50958 -0.000310111 8.82022 1.1327e-06 9.1341V17.6959C0.00040898 18.3071 0.24372 18.8932 0.676452 19.3252C1.10918 19.7573 1.69592 20 2.30769 20H4.61539C5.22742 20 5.81439 19.7571 6.24717 19.3247C6.67995 18.8923 6.92308 18.3058 6.92308 17.6943V13.8515C6.92308 13.6477 7.00412 13.4522 7.14838 13.3081C7.29264 13.1639 7.4883 13.083 7.69231 13.083H10.7692C10.9732 13.083 11.1689 13.1639 11.3132 13.3081C11.4574 13.4522 11.5385 13.6477 11.5385 13.8515V17.6943C11.5385 18.3058 11.7816 18.8923 12.2144 19.3247C12.6471 19.7571 13.2341 20 13.8462 20H16.1538C16.7659 20 17.3529 19.7571 17.7856 19.3247C18.2184 18.8923 18.4615 18.3058 18.4615 17.6943V9.13256C18.4614 8.81883 18.3973 8.50842 18.2729 8.22033C18.1486 7.93223 17.9667 7.67253 17.7385 7.4571L14.0131 3.93709L10.2877 0.417086V0.42016Z" fill="#030C23"/>
</svg>
