<svg width="12" height="12" viewBox="0 0 12 12" fill="none" xmlns="http://www.w3.org/2000/svg">
<path d="M6.00007 7.66657e-09C6.57607 -4.35991e-05 7.13016 0.185938 7.5482 0.519634C7.96623 0.853329 8.21637 1.30932 8.2471 1.79368L8.25009 1.89474H11.5501C11.6641 1.89477 11.7739 1.93124 11.8572 1.99679C11.9405 2.06233 11.9912 2.15207 11.999 2.24786C12.0067 2.34364 11.971 2.43835 11.8991 2.51282C11.8271 2.5873 11.7243 2.63601 11.6113 2.64909L11.5501 2.65263H10.9147L10.1827 10.2584C10.137 10.7328 9.88094 11.1755 9.46537 11.4982C9.04979 11.8209 8.50519 12 7.93989 12H4.06025C3.49495 12 2.95035 11.8209 2.53477 11.4982C2.11919 11.1755 1.8631 10.7328 1.81742 10.2584L1.08481 2.65263H0.450005C0.341261 2.65263 0.236198 2.61946 0.154244 2.55928C0.0722894 2.49909 0.0189892 2.41594 0.00420003 2.32522L0 2.27368C4.58579e-06 2.18211 0.0393862 2.09364 0.110862 2.02462C0.182337 1.95561 0.281071 1.91073 0.388804 1.89827L0.450005 1.89474H3.75004C3.75004 1.39222 3.9871 0.910288 4.40906 0.554956C4.83102 0.199623 5.40332 7.66658e-09 6.00007 7.66657e-09ZM10.0123 2.65263H1.98782L2.71443 10.1972C2.74187 10.4819 2.89555 10.7475 3.14492 10.9411C3.39429 11.1347 3.72107 11.2422 4.06025 11.2421H7.93989C8.27907 11.2422 8.60585 11.1347 8.85522 10.9411C9.10458 10.7475 9.25827 10.4819 9.28571 10.1972L10.0117 2.65263H10.0123ZM4.65005 4.54737C4.7588 4.54737 4.86386 4.58053 4.94582 4.64072C5.02777 4.70091 5.08107 4.78406 5.09586 4.87478L5.10006 4.92632V8.96842C5.10002 9.06443 5.05671 9.15685 4.97887 9.22701C4.90104 9.29717 4.79448 9.33983 4.68073 9.34637C4.56698 9.35291 4.45452 9.32285 4.36607 9.26227C4.27763 9.20168 4.21979 9.11507 4.20425 9.01996L4.20005 8.96842V4.92632C4.20005 4.82581 4.24746 4.72943 4.33185 4.65836C4.41624 4.58729 4.5307 4.54737 4.65005 4.54737ZM7.35008 4.54737C7.45883 4.54737 7.56389 4.58053 7.64585 4.64072C7.7278 4.70091 7.7811 4.78406 7.79589 4.87478L7.80009 4.92632V8.96842C7.80005 9.06443 7.75674 9.15685 7.6789 9.22701C7.60107 9.29717 7.49451 9.33983 7.38076 9.34637C7.26701 9.35291 7.15455 9.32285 7.0661 9.26227C6.97766 9.20168 6.91982 9.11507 6.90428 9.01996L6.90008 8.96842V4.92632C6.90008 4.82581 6.94749 4.72943 7.03188 4.65836C7.11628 4.58729 7.23074 4.54737 7.35008 4.54737ZM6.00007 0.757895C5.65799 0.757859 5.32865 0.867181 5.07861 1.06377C4.82856 1.26035 4.67647 1.52954 4.65305 1.81693L4.65005 1.89474H7.35008L7.34708 1.81693C7.32367 1.52954 7.17157 1.26035 6.92153 1.06377C6.67149 0.867181 6.34215 0.757859 6.00007 0.757895Z" fill="#9B9B9B"/>
</svg>
