<svg width="24" height="25" viewBox="0 0 24 25" fill="none" xmlns="http://www.w3.org/2000/svg">
<g id="si-glyph:column-increase" clip-path="url(#clip0_18770_5232)" filter="url(#filter0_d_18770_5232)">
<g id="Group">
<path id="Vector" fill-rule="evenodd" clip-rule="evenodd" d="M19.7243 15.7348C19.7243 16.2903 19.4398 16.7423 19.0881 16.7423H4.84324C4.49151 16.7423 4.20703 16.2903 4.20703 15.7348C4.20703 15.1772 4.49151 14.7251 4.84324 14.7251H19.0881C19.4398 14.7251 19.7243 15.1772 19.7243 15.7348Z" fill="white"/>
<path id="Vector_2" fill-rule="evenodd" clip-rule="evenodd" d="M8.2903 12.9221C8.2903 13.3121 7.91168 13.6317 7.44617 13.6317H6.18099C5.71444 13.6317 5.33789 13.3121 5.33789 12.9221V9.36346C5.33789 8.97243 5.71444 8.65381 6.18099 8.65381H7.44617C7.91168 8.65381 8.2903 8.97243 8.2903 9.36346V12.9221Z" fill="white"/>
<path id="Vector_3" fill-rule="evenodd" clip-rule="evenodd" d="M13.4251 12.9232C13.4251 13.3142 13.0475 13.6318 12.582 13.6318H11.3158C10.8502 13.6318 10.4727 13.3142 10.4727 12.9232V8.2887C10.4727 7.89766 10.8502 7.58008 11.3158 7.58008H12.582C13.0475 7.58008 13.4251 7.89766 13.4251 8.2887V12.9232Z" fill="white"/>
<path id="Vector_4" fill-rule="evenodd" clip-rule="evenodd" d="M18.6255 12.8952C18.6255 13.2831 18.2459 13.5986 17.7731 13.5986H16.4945C16.0228 13.5986 15.6421 13.2831 15.6421 12.8952V6.16585C15.6421 5.77792 16.0228 5.4624 16.4945 5.4624H17.7731C18.2459 5.4624 18.6255 5.77792 18.6255 6.16585V12.8952Z" fill="white"/>
<path id="Vector_5" fill-rule="evenodd" clip-rule="evenodd" d="M4.96646 7.401C4.77848 7.40171 4.59754 7.3296 4.46157 7.1998C4.3256 7.07 4.24517 6.8926 4.23715 6.70479C4.23426 6.60954 4.25025 6.51465 4.28421 6.4256C4.31817 6.33655 4.36942 6.25511 4.435 6.18597C4.50059 6.11682 4.57922 6.06134 4.66635 6.02273C4.75348 5.98412 4.84739 5.96314 4.94267 5.961C10.1192 5.7779 15.0475 3.78341 18.4675 0.485484C18.6072 0.351669 18.7938 0.278005 18.9873 0.280327C19.1807 0.282648 19.3655 0.360769 19.502 0.497898C19.569 0.565099 19.6219 0.64498 19.6576 0.732869C19.6934 0.820759 19.7112 0.914894 19.7102 1.00977C19.7091 1.10464 19.6891 1.19836 19.6514 1.28543C19.6137 1.3725 19.5591 1.45117 19.4906 1.51686C15.7603 5.11376 10.6116 7.20341 4.99336 7.39997L4.96646 7.401Z" fill="white"/>
</g>
</g>
<defs>
<filter id="filter0_d_18770_5232" x="0.207031" y="0.241211" width="23.5171" height="24.5518" filterUnits="userSpaceOnUse" color-interpolation-filters="sRGB">
<feFlood flood-opacity="0" result="BackgroundImageFix"/>
<feColorMatrix in="SourceAlpha" type="matrix" values="0 0 0 0 0 0 0 0 0 0 0 0 0 0 0 0 0 0 127 0" result="hardAlpha"/>
<feOffset dy="4"/>
<feGaussianBlur stdDeviation="2"/>
<feComposite in2="hardAlpha" operator="out"/>
<feColorMatrix type="matrix" values="0 0 0 0 0 0 0 0 0 0 0 0 0 0 0 0 0 0 0.25 0"/>
<feBlend mode="normal" in2="BackgroundImageFix" result="effect1_dropShadow_18770_5232"/>
<feBlend mode="normal" in="SourceGraphic" in2="effect1_dropShadow_18770_5232" result="shape"/>
</filter>
<clipPath id="clip0_18770_5232">
<rect width="15.5172" height="16.5517" fill="white" transform="translate(4.20703 0.241211)"/>
</clipPath>
</defs>
</svg>
