<svg width="20" height="18" viewBox="0 0 20 18" fill="none" xmlns="http://www.w3.org/2000/svg">
<path d="M17.7351 2.41452C17.292 1.96607 16.7659 1.61034 16.1869 1.36763C15.6079 1.12492 14.9873 1 14.3605 1C13.7338 1 13.1132 1.12492 12.5341 1.36763C11.9551 1.61034 11.4291 1.96607 10.986 2.41452L10.0664 3.34476L9.14689 2.41452C8.2519 1.50912 7.03804 1.00047 5.77234 1.00047C4.50663 1.00047 3.29277 1.50912 2.39779 2.41452C1.5028 3.31992 1 4.5479 1 5.82833C1 7.10875 1.5028 8.33674 2.39779 9.24214L3.31733 10.1724L10.0664 17L16.8155 10.1724L17.7351 9.24214C18.1784 8.79391 18.53 8.26171 18.7699 7.67596C19.0098 7.0902 19.1333 6.46237 19.1333 5.82833C19.1333 5.19428 19.0098 4.56645 18.7699 3.9807C18.53 3.39494 18.1784 2.86275 17.7351 2.41452V2.41452Z" stroke="#FF5C28" stroke-linecap="round" stroke-linejoin="round"/>
</svg>
