<svg width="12" height="12" viewBox="0 0 12 12" fill="none" xmlns="http://www.w3.org/2000/svg">
<path d="M5.87811 9.27834C5.91268 9.28986 5.93573 9.31291 5.94725 9.34747C5.95877 9.38204 5.95301 9.41661 5.92997 9.45118L4.4954 10.8857C4.26495 11.1162 3.99993 11.3006 3.70034 11.4388C3.40075 11.5771 3.0954 11.6578 2.78429 11.6808C2.47318 11.7039 2.16207 11.6808 1.85095 11.6117C1.53984 11.5425 1.25754 11.3985 1.00404 11.1796C0.692929 10.9376 0.450954 10.6438 0.278114 10.2981C0.105275 9.95241 0.0130939 9.60673 0.00157127 9.26105C-0.00995137 8.91538 0.0419005 8.56394 0.157127 8.20673C0.272353 7.84953 0.468238 7.53842 0.744781 7.2734L2.97441 5.04377C3.33161 4.68657 3.74643 4.42155 4.21885 4.24871C4.69128 4.07587 5.17523 4.02978 5.67071 4.11044C6.10857 4.17957 6.45425 4.30632 6.70774 4.49068C6.96124 4.67505 7.16289 4.88822 7.31268 5.13019C7.33573 5.1878 7.33285 5.23101 7.30404 5.25982C7.27523 5.28863 7.24355 5.31455 7.20898 5.3376C7.17441 5.36064 7.13408 5.39521 7.08799 5.4413L6.967 5.56229C6.85178 5.68904 6.71351 5.75241 6.55219 5.75241C6.39087 5.75241 6.24396 5.68616 6.11145 5.55365C5.97894 5.42114 5.83202 5.32031 5.67071 5.25118C5.50939 5.18204 5.33079 5.15324 5.1349 5.16476C4.93902 5.17628 4.76618 5.20509 4.61639 5.25118C4.46659 5.29727 4.31104 5.40097 4.14972 5.56229L1.59169 8.12031C1.4419 8.27011 1.33244 8.44295 1.2633 8.63883C1.19416 8.83472 1.17112 9.0306 1.19416 9.22649C1.21721 9.42237 1.27482 9.61826 1.367 9.81414C1.45918 10.01 1.60898 10.1656 1.81639 10.2808C2.10445 10.4767 2.41556 10.5458 2.74972 10.4882C3.08388 10.4306 3.36618 10.2923 3.59663 10.0734L4.70281 8.98451C4.72585 8.94994 4.76042 8.94418 4.80651 8.96723C5.15219 9.11702 5.50939 9.22073 5.87811 9.27834ZM10.6831 0.53266C10.9942 0.774635 11.2361 1.0627 11.409 1.39686C11.5818 1.73101 11.6798 2.07669 11.7028 2.43389C11.7259 2.7911 11.674 3.1483 11.5472 3.5055C11.4205 3.8627 11.2189 4.17381 10.9423 4.43883L8.71268 6.66846C8.35548 7.02566 7.94067 7.28492 7.46824 7.44624C6.99581 7.60756 6.5061 7.65365 5.9991 7.58451C5.56124 7.5269 5.22132 7.40015 4.97935 7.20426C4.73737 7.00838 4.53573 6.79521 4.37441 6.56476C4.35137 6.51867 4.35713 6.47834 4.39169 6.44377L4.70281 6.13266C4.82955 6.01743 4.97359 5.95982 5.1349 5.95982C5.29622 5.95982 5.43449 6.01743 5.54972 6.13266C5.68799 6.27093 5.84355 6.37463 6.01639 6.44377C6.18923 6.51291 6.36783 6.54747 6.55219 6.54747C6.73655 6.54747 6.91515 6.51291 7.08799 6.44377C7.26083 6.37463 7.41062 6.27093 7.53737 6.13266L10.0954 3.59192C10.2452 3.44212 10.3547 3.26352 10.4238 3.05612C10.4929 2.84871 10.516 2.64706 10.4929 2.45118C10.4699 2.25529 10.4065 2.06517 10.3028 1.88081C10.1991 1.69645 10.0493 1.54089 9.85342 1.41414C9.57688 1.22978 9.27153 1.16064 8.93737 1.20673C8.60322 1.25282 8.31515 1.39686 8.07318 1.63883L6.98429 2.72772C6.94972 2.76229 6.91515 2.76805 6.88058 2.74501C6.55795 2.60673 6.20075 2.49727 5.80898 2.41661C5.76289 2.41661 5.73984 2.39357 5.73984 2.34747C5.73984 2.30138 5.7456 2.27258 5.75713 2.26105L7.19169 0.826487C7.42215 0.596034 7.68717 0.411672 7.98676 0.273401C8.28634 0.135129 8.58593 0.0487093 8.88552 0.0141414C9.18511 -0.0204265 9.49622 0.0083801 9.81885 0.100561C10.1415 0.192742 10.4296 0.336775 10.6831 0.53266Z" fill="#9B9B9B"/>
</svg>
