<svg fill="none" height="17" viewBox="0 0 17 17" width="17" xmlns="http://www.w3.org/2000/svg" xmlns:xlink="http://www.w3.org/1999/xlink"><linearGradient id="a" gradientUnits="userSpaceOnUse" x1="3.4" x2="3.4" y1="7.6499" y2="14.4499"><stop offset=".145833" stop-color="#7aacff"/><stop offset=".666667" stop-color="#0060ff"/></linearGradient><linearGradient id="b" gradientUnits="userSpaceOnUse" x1="11.9" x2="11.9" y1="0" y2="10.2"><stop offset=".114583" stop-color="#ffa88c"/><stop offset=".671875" stop-color="#ff5c28"/></linearGradient><clipPath id="c"><path d="m0 0h17v17h-17z"/></clipPath><g clip-path="url(#c)"><path d="m3.4 14.4499c1.87777 0 3.4-1.5222 3.4-3.4 0-1.87777-1.52223-3.4-3.4-3.4s-3.4 1.52223-3.4 3.4c0 1.8778 1.52223 3.4 3.4 3.4z" fill="url(#a)"/><path d="m11.4751 17c1.1736 0 2.125-.9514 2.125-2.125s-.9514-2.125-2.125-2.125-2.125.9514-2.125 2.125.9514 2.125 2.125 2.125z" fill="#fff"/><path d="m11.9 10.2c2.8167 0 5.1-2.28335 5.1-5.1s-2.2833-5.1-5.1-5.1c-2.8166 0-5.09995 2.28335-5.09995 5.1s2.28335 5.1 5.09995 5.1z" fill="url(#b)"/></g></svg>