<svg width="20" height="20" viewBox="0 0 20 20" fill="none" xmlns="http://www.w3.org/2000/svg">
<path d="M7.50552 3.56215e-06C9.11412 -5.84965e-05 10.6801 0.516992 11.9725 1.47485C13.2648 2.43271 14.215 3.78064 14.6828 5.31972C15.9218 5.69639 17.0421 6.38753 17.9346 7.32582C18.8272 8.26411 19.4615 9.41756 19.7758 10.6738C20.0901 11.9301 20.0737 13.2464 19.7282 14.4944C19.3826 15.7424 18.7198 16.8797 17.8041 17.7955C16.8885 18.7112 15.7513 19.3742 14.5033 19.7199C13.2552 20.0655 11.939 20.0821 10.6827 19.7679C9.42639 19.4537 8.27287 18.8195 7.33449 17.9271C6.3961 17.0347 5.70484 15.9144 5.32804 14.6755C3.60583 14.1547 2.12829 13.0321 1.16506 11.5124C0.201831 9.99277 -0.182851 8.17743 0.0812166 6.3977C0.345284 4.61797 1.2405 2.99252 2.60347 1.81802C3.96645 0.643509 5.7063 -0.00174936 7.50552 3.56215e-06ZM15.0017 7.59717L15.0037 7.4982C15.0039 9.46964 14.2276 11.3618 12.843 12.7652C11.4584 14.1685 9.57676 14.9701 7.60549 14.9964C7.99997 15.7689 8.57158 16.437 9.27365 16.9464C9.97571 17.4557 10.7883 17.7917 11.645 17.927C12.5018 18.0623 13.3784 17.9929 14.2032 17.7247C15.028 17.4564 15.7777 16.9968 16.391 16.3835C17.0043 15.7701 17.4637 15.0204 17.7319 14.1955C18 13.3707 18.0692 12.4941 17.9339 11.6373C17.7985 10.7806 17.4623 9.96806 16.9529 9.26606C16.4435 8.56407 15.7752 7.99254 15.0027 7.59817L15.0017 7.59717ZM7.50552 1.99952C6.27015 1.99908 5.07063 2.41465 4.10031 3.17924C3.12999 3.94383 2.44541 5.01289 2.15692 6.2141C1.86842 7.4153 1.99283 8.67866 2.51008 9.80052C3.02734 10.9224 3.9073 11.8374 5.00812 12.398L5.00612 12.497C5.00594 10.5256 5.78219 8.63335 7.16683 7.23001C8.55146 5.82666 10.4331 5.02509 12.4043 4.9988C11.9438 4.09568 11.2425 3.33753 10.378 2.8082C9.51339 2.27887 8.51926 1.999 7.50552 1.99952Z" fill="#9B9B9B"/>
</svg>
