<svg width="13" height="12" viewBox="0 0 13 12" fill="none" xmlns="http://www.w3.org/2000/svg">
<path fill-rule="evenodd" clip-rule="evenodd" d="M6.13475 0.596043C6.17762 0.553062 6.22856 0.518961 6.28463 0.495694C6.3407 0.472426 6.40081 0.460449 6.46152 0.460449C6.52223 0.460449 6.58234 0.472426 6.63841 0.495694C6.69448 0.518961 6.74542 0.553062 6.78829 0.596043L12.3268 6.1345C12.4134 6.22117 12.4621 6.33871 12.4621 6.46127C12.4621 6.58384 12.4134 6.70138 12.3268 6.78804C12.2401 6.87471 12.1225 6.9234 12 6.9234C11.8774 6.9234 11.7599 6.87471 11.6732 6.78804L6.46152 1.57543L1.24983 6.78804C1.16316 6.87471 1.04562 6.9234 0.923059 6.9234C0.800497 6.9234 0.682954 6.87471 0.59629 6.78804C0.509625 6.70138 0.460937 6.58384 0.460938 6.46127C0.460937 6.33871 0.509625 6.22117 0.59629 6.1345L6.13475 0.596043Z" fill="#030C23"/>
<path fill-rule="evenodd" clip-rule="evenodd" d="M6.13475 5.21274C6.17762 5.16976 6.22856 5.13566 6.28463 5.11239C6.3407 5.08912 6.40081 5.07715 6.46152 5.07715C6.52223 5.07715 6.58234 5.08912 6.63841 5.11239C6.69448 5.13566 6.74542 5.16976 6.78829 5.21274L12.3268 10.7512C12.4134 10.8379 12.4621 10.9554 12.4621 11.078C12.4621 11.2005 12.4134 11.3181 12.3268 11.4047C12.2401 11.4914 12.1225 11.5401 12 11.5401C11.8774 11.5401 11.7599 11.4914 11.6732 11.4047L6.46152 6.19213L1.24983 11.4047C1.16316 11.4914 1.04562 11.5401 0.923059 11.5401C0.800497 11.5401 0.682954 11.4914 0.59629 11.4047C0.509625 11.3181 0.460938 11.2005 0.460938 11.078C0.460937 10.9554 0.509625 10.8379 0.59629 10.7512L6.13475 5.21274Z" fill="#030C23"/>
</svg>
