<svg width="17" height="16" viewBox="0 0 17 16" fill="none" xmlns="http://www.w3.org/2000/svg">
<g clip-path="url(#clip0_10087_11848)">
<path d="M10.3912 12.3001C10.8196 11.8783 10.5884 10.9095 9.88855 9.79035C10.1429 9.75062 10.3807 9.68993 10.5606 9.59697C11.2077 9.2629 11.6447 8.65407 11.9754 8.02428C12.331 7.34869 12.5697 6.60607 13.0337 5.9909C13.112 5.8869 13.1903 5.79365 13.2684 5.70593C14.2695 5.82593 15.0687 6.0411 15.0687 6.0411L15.3741 5.2651C14.9886 5.12677 14.5934 5.01732 14.1917 4.93765C14.4378 4.79779 14.5983 4.75421 14.5983 4.75421L14.309 3.97186C13.845 4.168 13.4684 4.45738 13.1531 4.80386C11.9746 4.73793 10.7879 4.97269 9.85159 5.69876C9.14759 6.24497 8.672 7.00221 8.22455 7.75972C7.8281 7.37067 7.4059 7.00875 6.96083 6.67641C7.04524 6.53765 7.13572 6.41297 7.2331 6.31669C7.82152 5.73738 8.59779 5.3669 9.10703 4.704C10.1774 3.312 9.39448 1.12993 8.51393 0C8.35614 0.152 8.09517 0.373517 7.89876 0.548414C8.83476 1.50703 9.48938 3.18538 8.75586 4.43945C8.34593 5.14041 7.58841 5.58014 7.05876 6.18234C6.96717 6.2869 6.88524 6.41931 6.81103 6.56552C5.42593 5.57214 4.15476 5.17241 3.65103 5.66841C3.60102 5.71958 3.55982 5.77868 3.5291 5.84331L3.52717 5.84138L3.51366 5.88083C3.4949 5.92359 3.47779 5.968 3.46621 6.01655L0 16L10.1137 12.464L10.1109 12.4612C10.2196 12.4262 10.3153 12.3746 10.3912 12.3001ZM2.01186 14.7123L1.16772 14.3189L1.73738 12.6775L4.35007 13.8946L2.01186 14.7123ZM6.688 13.0772L2.30759 11.0361L2.87724 9.39503L6.15062 11.0381C4.19669 9.76635 3.4469 7.75338 3.4469 7.75338L3.64166 7.19255C3.98786 8.06841 4.74952 9.15917 5.79614 10.1887C6.85159 11.2276 7.97021 11.9801 8.86428 12.3164L6.688 13.0772ZM8.37048 7.90759C8.82786 7.25186 9.29931 6.59007 9.95476 6.11917C10.5788 5.67062 11.5917 5.58869 12.552 5.64248C12.2276 6.2091 11.9879 6.83779 11.7727 7.44166C11.5126 8.17269 11.1639 8.93076 10.499 9.37903C10.3197 9.49986 10.0684 9.58814 9.8 9.65352C9.43117 9.08828 8.94731 8.49076 8.37048 7.90759Z" fill="url(#paint0_linear_10087_11848)"/>
<path d="M5.80159 5.24126C6.07801 5.24126 5.24932 4.41367 5.3878 3.68788C5.91856 3.64705 7.1318 3.88622 6.42559 2.91629C7.22449 3.05698 7.63828 2.46057 6.88408 1.89532C7.13511 1.91298 7.52518 1.4396 7.24518 1.37974C6.34807 1.18967 5.9969 1.67491 6.56628 2.37477C5.96766 2.26332 5.47966 2.54167 5.92932 3.16677C4.20076 2.95132 5.18421 5.24126 5.80159 5.24126ZM11.7359 4.50581C11.995 4.38884 11.5555 3.61615 11.4126 3.41863C12.5059 3.30167 12.4645 2.97588 11.779 2.27794C13.6427 2.34057 11.8366 1.28125 12.0899 0.861944C12.3092 0.498358 12.982 0.879599 12.9197 0.677116C12.7095 -0.000125021 10.7155 0.457806 11.9773 1.72236C10.8761 1.74388 10.7704 2.10388 11.5911 2.85008C10.1616 2.86581 11.3279 4.68953 11.7359 4.50581ZM16.4675 7.23436C16.0311 7.35657 15.9638 7.31077 16.022 7.74526C15.014 7.28126 13.9475 6.63601 14.5947 8.34553C13.4499 7.66388 13.507 8.26084 13.2929 9.24319C13.0143 9.02608 12.6184 8.45395 12.6184 8.45395L12.1991 8.81008C12.1991 8.81008 12.9674 9.89367 13.3467 9.83215C13.6802 9.77836 13.8617 9.14802 13.8802 8.59243C14.9423 9.0407 15.4507 9.10057 14.9649 7.78967C15.814 8.26664 16.8551 8.68733 16.4675 7.23436ZM1.11635 2.32732L1.89649 3.10774L1.11635 3.88788L0.335938 3.10774L1.11635 2.32732ZM2.98532 5.57174L2.20463 6.35188L1.42421 5.57119L2.2049 4.79077L2.98532 5.57174ZM4.19801 1.10332L4.97814 1.88346L4.19773 2.66415L3.41759 1.88346L4.19801 1.10332ZM12.6921 11.9955L11.9114 11.215L12.6915 10.4344L13.4722 11.2148L12.6921 11.9955ZM10.9525 14.6719L10.1723 13.8917L10.9525 13.1113L11.7329 13.8917L10.9525 14.6719ZM14.3754 15.2882L13.5947 14.5077L14.3746 13.7271L15.1552 14.5075L14.3754 15.2882ZM15.1555 11.7339L14.3754 10.9535L15.1555 10.1734L15.9357 10.9535L15.1555 11.7339ZM13.8532 1.93091L14.6333 2.71105L13.8529 3.49146L13.0728 2.71105L13.8532 1.93091Z" fill="url(#paint1_linear_10087_11848)"/>
</g>
<defs>
<linearGradient id="paint0_linear_10087_11848" x1="7.68703" y1="0" x2="7.68703" y2="16" gradientUnits="userSpaceOnUse">
<stop offset="0.114583" stop-color="#FFA88C"/>
<stop offset="0.671875" stop-color="#FF5C28"/>
</linearGradient>
<linearGradient id="paint1_linear_10087_11848" x1="8.44346" y1="0.364746" x2="8.44346" y2="15.2882" gradientUnits="userSpaceOnUse">
<stop offset="0.114583" stop-color="#FFA88C"/>
<stop offset="0.671875" stop-color="#FF5C28"/>
</linearGradient>
<clipPath id="clip0_10087_11848">
<rect width="16.5517" height="16" fill="white"/>
</clipPath>
</defs>
</svg>
