<svg width="17" height="16" viewBox="0 0 17 16" fill="none" xmlns="http://www.w3.org/2000/svg">
<path d="M0.883717 15.5L0.882545 15.5C0.830076 15.4999 0.778199 15.4889 0.730211 15.4677C0.682229 15.4464 0.639185 15.4155 0.603819 15.3767L0.603851 15.3767L0.599346 15.3719C0.56392 15.334 0.536887 15.2892 0.520021 15.2402L0.0472489 15.4029L0.520021 15.2402C0.503177 15.1912 0.496852 15.1393 0.501461 15.0878C0.501467 15.0877 0.501473 15.0876 0.501479 15.0876L0.700193 12.9025L10.158 3.44808L12.557 5.84638L3.10191 15.2998L0.916311 15.4985L0.915716 15.4986C0.905062 15.4996 0.894383 15.5 0.883717 15.5Z" stroke="#FF5C28"/>
</svg>
