<svg width="25" height="25" viewBox="0 0 25 25" fill="none" xmlns="http://www.w3.org/2000/svg">
<g filter="url(#filter0_d_9441_9292)">
<path d="M9.35563 14.4709L9.35584 14.4709L14.2617 14.4859C14.2618 14.4859 14.2618 14.4859 14.2619 14.4859C14.2721 14.4859 14.2838 14.4896 14.2958 14.502C14.3081 14.5147 14.317 14.5335 14.317 14.5572V17.3172C14.317 17.443 14.2459 17.5496 14.1457 17.5971C14.1456 17.5972 14.1456 17.5972 14.1455 17.5972L9.69545 19.6868C9.69517 19.687 9.6949 19.6871 9.69462 19.6872C9.65742 19.7043 9.61924 19.7123 9.58109 19.7123C9.53192 19.7123 9.48125 19.698 9.43556 19.6677L9.43544 19.6677C9.35516 19.6146 9.30069 19.518 9.30069 19.4084V14.5422C9.30069 14.5177 9.30989 14.4989 9.32201 14.4865C9.33388 14.4743 9.34543 14.4708 9.35563 14.4709ZM21.213 4.99128L21.2126 4.99167L14.6386 11.6415L14.637 11.6431C14.6172 11.6632 14.5928 11.6721 14.5708 11.672L14.5691 11.672L9.06467 11.6548H9.06311C9.04037 11.6548 9.01399 11.6453 8.99146 11.6208C8.99139 11.6207 8.99131 11.6206 8.99124 11.6205L2.95056 4.97682L2.95043 4.97667C2.66237 4.6601 2.5 4.23842 2.5 3.79758V2.21659C2.5 1.25428 3.25282 0.5 4.15077 0.5H20.0615C20.9598 0.5 21.7123 1.25352 21.7123 2.21552V3.76328C21.7123 4.22778 21.5305 4.67079 21.213 4.99128Z" stroke="white" shape-rendering="crispEdges"/>
</g>
<defs>
<filter id="filter0_d_9441_9292" x="0" y="0" width="24.2119" height="24.2124" filterUnits="userSpaceOnUse" color-interpolation-filters="sRGB">
<feFlood flood-opacity="0" result="BackgroundImageFix"/>
<feColorMatrix in="SourceAlpha" type="matrix" values="0 0 0 0 0 0 0 0 0 0 0 0 0 0 0 0 0 0 127 0" result="hardAlpha"/>
<feOffset dy="2"/>
<feGaussianBlur stdDeviation="1"/>
<feComposite in2="hardAlpha" operator="out"/>
<feColorMatrix type="matrix" values="0 0 0 0 0 0 0 0 0 0 0 0 0 0 0 0 0 0 0.25 0"/>
<feBlend mode="normal" in2="BackgroundImageFix" result="effect1_dropShadow_9441_9292"/>
<feBlend mode="normal" in="SourceGraphic" in2="effect1_dropShadow_9441_9292" result="shape"/>
</filter>
</defs>
</svg>
