<svg width="14" height="14" viewBox="0 0 14 14" fill="none" xmlns="http://www.w3.org/2000/svg">
<path d="M7 0C5.14348 0 3.36301 0.737498 2.05025 2.05025C0.737498 3.36301 0 5.14348 0 7C0 8.85652 0.737498 10.637 2.05025 11.9497C3.36301 13.2625 5.14348 14 7 14C8.85652 14 10.637 13.2625 11.9497 11.9497C13.2625 10.637 14 8.85652 14 7C14 5.14348 13.2625 3.36301 11.9497 2.05025C10.637 0.737498 8.85652 0 7 0V0ZM0.863333 7.52889H2.81556C2.84667 8.23667 2.94544 8.93978 3.11111 9.62889H1.43111C1.11783 8.96846 0.925523 8.2572 0.863333 7.52889ZM7.52889 3.32889V0.925556C8.27842 1.2104 8.89432 1.76526 9.25556 2.48111C9.415 2.751 9.55578 3.03178 9.67556 3.32111L7.52889 3.32889ZM10.0333 4.37889C10.2138 5.06567 10.3211 5.76956 10.3522 6.47889H7.52889V4.37889H10.0333ZM6.47111 0.925556V3.32889H4.32444C4.44443 3.03932 4.58478 2.75862 4.74444 2.48889C5.10414 1.77011 5.72024 1.21229 6.47111 0.925556ZM6.47111 4.37889V6.47889H3.65556C3.68667 5.76956 3.794 5.06567 3.97444 4.37889H6.47111ZM2.81556 6.47111H0.863333C0.925523 5.7428 1.11783 5.03154 1.43111 4.37111H3.11111C2.94513 5.05995 2.84615 5.76322 2.81556 6.47111ZM3.65556 7.52889H6.47111V9.62889H3.97444C3.79403 8.94217 3.68713 8.23821 3.65556 7.52889ZM6.47889 10.64V13.0433C5.72936 12.7585 5.11346 12.2036 4.75222 11.4878C4.59256 11.2181 4.4522 10.9373 4.33222 10.6478L6.47889 10.64ZM7.52889 13.0433V10.6789H9.67556C9.55557 10.9685 9.41522 11.2492 9.25556 11.5189C8.89432 12.2347 8.27842 12.7896 7.52889 13.0744V13.0433ZM7.52889 9.59V7.49H10.3444C10.3129 8.19932 10.206 8.90328 10.0256 9.59H7.52889ZM11.1922 7.49H13.1444C13.0823 8.21832 12.89 8.92957 12.5767 9.59H10.8889C11.0522 8.91333 11.151 8.22344 11.1844 7.52889L11.1922 7.49ZM11.1922 6.44C11.1566 5.74491 11.055 5.05477 10.8889 4.37889H12.5689C12.8823 5.04 13.0744 5.75089 13.1367 6.47889L11.1922 6.44ZM11.97 3.32889H10.5778C10.3259 2.62134 9.96075 1.9594 9.49667 1.36889C10.4645 1.80334 11.3052 2.47804 11.9389 3.32889H11.97ZM4.50333 1.36889C4.03925 1.9594 3.67413 2.62134 3.42222 3.32889H2.06111C2.69478 2.47804 3.53548 1.80334 4.50333 1.36889ZM2.05333 10.7022H3.42222C3.67413 11.4098 4.03925 12.0717 4.50333 12.6622C3.5328 12.2212 2.69185 11.5383 2.06111 10.6789L2.05333 10.7022ZM9.48889 12.6622C9.95297 12.0717 10.3181 11.4098 10.57 10.7022H11.9389C11.3013 11.5417 10.461 12.2054 9.49667 12.6311L9.48889 12.6622Z" fill="#4B4E58"/>
</svg>
