<svg width="22" height="16" viewBox="0 0 22 16" fill="none" xmlns="http://www.w3.org/2000/svg">
<path d="M3.13734 0.445325C3.25811 0.32812 3.42049 0.263683 3.58877 0.266183C3.75704 0.268684 3.91744 0.337917 4.03467 0.458658C4.16286 0.59234 4.2332 0.771149 4.23045 0.956336C4.22771 1.14152 4.1521 1.31817 4.02001 1.44799C2.29583 3.19248 1.33025 5.54723 1.33334 7.99999C1.33334 10.6533 2.44001 13.048 4.21867 14.7467C4.28735 14.8101 4.3427 14.8866 4.38149 14.9717C4.42028 15.0568 4.44172 15.1488 4.44458 15.2422C4.44743 15.3357 4.43164 15.4288 4.39812 15.5161C4.3646 15.6034 4.31402 15.6831 4.24934 15.7507C4.13464 15.8691 3.97825 15.9382 3.81342 15.9432C3.64859 15.9482 3.48832 15.8887 3.36667 15.7773C2.30251 14.7809 1.45453 13.5763 0.875381 12.2384C0.296231 10.9005 -0.00172558 9.45785 7.51729e-06 7.99999C7.51729e-06 5.04799 1.20001 2.37599 3.13734 0.445325Z" fill="#9B9B9B"/>
<path d="M17.3134 1.44794C17.1815 1.31794 17.1061 1.14119 17.1036 0.956007C17.1011 0.770822 17.1717 0.592111 17.3 0.458603C17.4172 0.338268 17.5773 0.269293 17.7453 0.266794C17.9132 0.264295 18.0753 0.328475 18.196 0.44527C19.1918 1.43503 19.9818 2.6122 20.5202 3.90884C21.0587 5.20548 21.3351 6.59593 21.3334 7.99994C21.3334 11.0666 20.04 13.8319 17.9667 15.7773C17.8451 15.8886 17.6848 15.9481 17.52 15.9431C17.3551 15.9382 17.1987 15.8691 17.084 15.7506C17.0196 15.6831 16.9692 15.6034 16.9358 15.5163C16.9024 15.4291 16.8866 15.3362 16.8895 15.2429C16.8923 15.1495 16.9137 15.0577 16.9524 14.9728C16.9911 14.8878 17.0462 14.8114 17.1147 14.7479C18.0279 13.8775 18.7546 12.8304 19.2506 11.6704C19.7466 10.5103 20.0016 9.26156 20 7.99994C20 5.44527 18.9747 3.13327 17.3134 1.4466V1.44794Z" fill="#9B9B9B"/>
<path d="M5.5095 2.78669C5.62832 2.67354 5.78722 2.61221 5.95125 2.61621C6.11528 2.62021 6.27101 2.68921 6.38417 2.80803C6.6615 3.08536 6.6335 3.54136 6.36017 3.82136C5.27213 4.93996 4.66445 6.43955 4.66683 8.00003C4.66683 9.72003 5.39083 11.272 6.55217 12.3667C6.8455 12.6427 6.8855 13.1147 6.59883 13.4014C6.48895 13.5156 6.33933 13.5832 6.18097 13.5902C6.0226 13.5971 5.86764 13.5429 5.74817 13.4387C4.98705 12.752 4.37877 11.9129 3.96279 10.976C3.54681 10.0391 3.33241 9.02516 3.3335 8.00003C3.3335 5.96003 4.1655 4.11603 5.5095 2.78669Z" fill="#9B9B9B"/>
<path d="M14.9733 3.82136C14.7 3.54136 14.672 3.08536 14.9493 2.80803C15.0625 2.68921 15.2182 2.62021 15.3822 2.61621C15.5463 2.61221 15.7052 2.67354 15.824 2.78669C16.5144 3.46789 17.0623 4.27965 17.4359 5.17469C17.8095 6.06972 18.0012 7.03015 18 8.00003C18.0014 9.02528 17.7873 10.0394 17.3716 10.9766C16.9558 11.9137 16.3477 12.753 15.5866 13.44C15.4667 13.5447 15.3109 13.5989 15.1519 13.5915C14.9929 13.584 14.843 13.5154 14.7333 13.4C14.448 13.1147 14.488 12.6427 14.7813 12.3667C15.3774 11.8064 15.8523 11.1298 16.1766 10.3788C16.5008 9.6277 16.6676 8.81811 16.6666 8.00003C16.669 6.43955 16.0613 4.93996 14.9733 3.82136Z" fill="#9B9B9B"/>
<path d="M10.6667 6.33331C10.2246 6.33331 9.80072 6.50891 9.48816 6.82147C9.17559 7.13403 9 7.55795 9 7.99998C9 8.44201 9.17559 8.86593 9.48816 9.17849C9.80072 9.49105 10.2246 9.66665 10.6667 9.66665C11.1087 9.66665 11.5326 9.49105 11.8452 9.17849C12.1577 8.86593 12.3333 8.44201 12.3333 7.99998C12.3333 7.55795 12.1577 7.13403 11.8452 6.82147C11.5326 6.50891 11.1087 6.33331 10.6667 6.33331Z" fill="url(#paint0_linear_6031_2131)"/>
<defs>
<linearGradient id="paint0_linear_6031_2131" x1="10.6667" y1="6.33331" x2="10.6667" y2="9.66665" gradientUnits="userSpaceOnUse">
<stop offset="0.145833" stop-color="#7AACFF"/>
<stop offset="0.666667" stop-color="#0060FF"/>
</linearGradient>
</defs>
</svg>
