<svg width="65" height="51" viewBox="0 0 65 51" fill="none" xmlns="http://www.w3.org/2000/svg">
<path d="M40.8934 11.9877C40.897 16.5565 37.1533 20.2763 32.5498 20.2781C27.9934 20.2814 24.2971 16.559 24.2953 11.9689C24.2113 7.48709 28.0231 3.62638 32.7037 3.6894C37.1852 3.75024 40.8887 7.44797 40.8934 11.9877Z" fill="white"/>
<path d="M11.3587 44.8758C15.4081 45.7392 22.5051 46.9662 31.0656 47.2299V50.6962C25.5607 50.6705 19.1967 50.2007 11.9139 49.0516L11.3587 44.8758Z" fill="white"/>
<path d="M53.5917 45.3071L52.9369 49.3634C44.9178 50.6285 39.854 50.7831 34.1238 50.6926V47.2715C43.3058 47.1542 49.2461 46.2267 53.5917 45.3071Z" fill="white"/>
<path d="M65 0L59.9854 16.8524L54.0209 41.9937C47.9665 43.5941 41.4464 44.3956 35.0455 44.5289H34.1238V42.0889H38.9457C39.1767 42.0889 39.2921 41.9735 39.2919 41.7427V39.7146C39.2919 39.4784 39.1765 39.3604 38.9457 39.3604H31.4126C31.1815 39.3604 31.0661 39.4784 31.0664 39.7146V44.5448C24.3112 44.4872 17.3848 43.6883 10.9798 41.9951L5.01457 16.8524L0 0C1.41897 2.56233 5.60056 9.88391 9.11539 13.7334L9.12517 13.7457C14.7873 20.6895 22.7079 27.3357 32.2202 27.2028H32.2731H32.3263C32.3799 27.2028 32.4332 27.2028 32.4864 27.2028H32.5136C32.5668 27.2028 32.6201 27.2028 32.6737 27.2028H32.7269H32.7798C42.2932 27.3357 50.2127 20.6895 55.8748 13.7457L55.8846 13.7334C59.3994 9.88391 63.581 2.56233 65 0Z" fill="white"/>
</svg>
