<svg width="34" height="34" viewBox="0 0 34 34" fill="none" xmlns="http://www.w3.org/2000/svg">
<g filter="url(#filter0_d_8677_4643)">
<path d="M3.15533 0C2.51874 0 2 0.520677 2 1.15964V19.7138C2 20.3528 2.51874 20.8735 3.15533 20.8735H21.6407C22.2772 20.8735 22.796 20.3528 22.796 19.7138V1.15964C22.796 0.520677 22.2772 0 21.6407 0H3.15533ZM4.31067 2.31927H20.4853V16.2349H4.31067V2.31927ZM23.9513 3.36991V5.72513L26.0459 6.0881L23.9513 18.2643V19.7138C23.9513 20.9941 22.915 22.0331 21.6407 22.0331H9.40106L24.0599 24.5704C24.3616 24.6229 24.6716 24.5531 24.9221 24.3764C25.1725 24.1996 25.3427 23.9303 25.3955 23.6276L28.501 5.32737C28.5273 5.17736 28.5238 5.02362 28.4907 4.87496C28.4577 4.7263 28.3958 4.58564 28.3086 4.46102C28.2213 4.3364 28.1105 4.23027 27.9823 4.1487C27.8542 4.06714 27.7112 4.01174 27.5617 3.98567L23.9513 3.37107V3.36991ZM12.398 4.56549C11.0682 4.56549 9.94291 5.48392 9.94291 7.21178C9.94291 8.34127 10.4443 9.4754 11.1341 10.1828C11.4044 10.8902 10.9446 11.1592 10.8452 11.1975C9.4519 11.7031 7.81248 12.6412 7.81248 13.5527V15.0393H16.9835V13.5538C16.9835 12.6145 15.3406 11.6822 13.878 11.1975C13.811 11.1754 13.3962 10.9887 13.6619 10.1828C14.3494 9.4754 14.8889 8.33547 14.8889 7.21178C14.8889 5.48392 13.7278 4.56549 12.398 4.56549ZM29.0417 9.16925L28.6454 11.4514L29.475 11.6323L26.2978 25.1862L25.8287 25.0772C25.5711 25.332 25.2562 25.521 24.9105 25.6281C24.5649 25.7353 24.1987 25.7575 23.8427 25.6929L7.84945 22.9388L7.52249 24.3176C7.45442 24.62 7.50698 24.9371 7.66892 25.2011C7.83087 25.4651 8.08933 25.6549 8.38899 25.73L26.3694 29.9708C26.6707 30.0392 26.9866 29.9864 27.2496 29.8238C27.5126 29.6613 27.7018 29.4019 27.7766 29.1011L31.967 11.0513C32.1137 10.4298 31.7591 9.78618 31.1375 9.63774L29.0429 9.16693L29.0417 9.16925Z" fill="url(#paint0_linear_8677_4643)"/>
</g>
<defs>
<filter id="filter0_d_8677_4643" x="0" y="0" width="34" height="34" filterUnits="userSpaceOnUse" color-interpolation-filters="sRGB">
<feFlood flood-opacity="0" result="BackgroundImageFix"/>
<feColorMatrix in="SourceAlpha" type="matrix" values="0 0 0 0 0 0 0 0 0 0 0 0 0 0 0 0 0 0 127 0" result="hardAlpha"/>
<feOffset dy="2"/>
<feGaussianBlur stdDeviation="1"/>
<feComposite in2="hardAlpha" operator="out"/>
<feColorMatrix type="matrix" values="0 0 0 0 0 0 0 0 0 0 0 0 0 0 0 0 0 0 0.25 0"/>
<feBlend mode="normal" in2="BackgroundImageFix" result="effect1_dropShadow_8677_4643"/>
<feBlend mode="normal" in="SourceGraphic" in2="effect1_dropShadow_8677_4643" result="shape"/>
</filter>
<linearGradient id="paint0_linear_8677_4643" x1="17" y1="0" x2="17" y2="30" gradientUnits="userSpaceOnUse">
<stop offset="0.114583" stop-color="#FFA88C"/>
<stop offset="0.671875" stop-color="#FF5C28"/>
</linearGradient>
</defs>
</svg>
