<svg width="18" height="20" viewBox="0 0 18 20" fill="none" xmlns="http://www.w3.org/2000/svg">
<path d="M8.71426 8.71429C7.69128 8.71429 6.7102 8.30791 5.98685 7.58456C5.26349 6.8612 4.85712 5.88012 4.85712 4.85714C4.85712 3.83416 5.26349 2.85309 5.98685 2.12973C6.7102 1.40638 7.69128 1 8.71426 1C9.73724 1 10.7183 1.40638 11.4417 2.12973C12.165 2.85309 12.5714 3.83416 12.5714 4.85714C12.5714 5.88012 12.165 6.8612 11.4417 7.58456C10.7183 8.30791 9.73724 8.71429 8.71426 8.71429Z" stroke="#030C23" stroke-width="2" stroke-linecap="round"/>
<path d="M1 19V17.7143C1 16.3503 1.54183 15.0422 2.50631 14.0777C3.47078 13.1132 4.77889 12.5714 6.14286 12.5714H11.2857C12.6497 12.5714 13.9578 13.1132 14.9223 14.0777C15.8867 15.0422 16.4286 16.3503 16.4286 17.7143V19" stroke="#030C23" stroke-width="2" stroke-linecap="round"/>
</svg>
