<svg width="16" height="16" viewBox="0 0 16 16" fill="none" xmlns="http://www.w3.org/2000/svg">
<circle cx="8" cy="8" r="7" fill="white"/>
<path d="M11.3533 6.52C11.4416 6.42522 11.4897 6.29985 11.4874 6.17032C11.4851 6.04078 11.4327 5.91719 11.3411 5.82559C11.2495 5.73398 11.1259 5.6815 10.9963 5.67922C10.8668 5.67693 10.7414 5.72501 10.6466 5.81333L6.99998 9.46L5.35331 7.81333C5.25853 7.72501 5.13316 7.67693 5.00363 7.67922C4.8741 7.6815 4.75051 7.73398 4.6589 7.82559C4.56729 7.91719 4.51481 8.04078 4.51253 8.17032C4.51024 8.29985 4.55833 8.42522 4.64665 8.52L6.64665 10.52C6.7404 10.6136 6.86748 10.6662 6.99998 10.6662C7.13248 10.6662 7.25956 10.6136 7.35331 10.52L11.3533 6.52Z" fill="#0060FF"/>
<path fill-rule="evenodd" clip-rule="evenodd" d="M9.42399 0.800006C9.01106 0.496934 8.51221 0.333511 7.99999 0.333511C7.48778 0.333511 6.98892 0.496934 6.57599 0.800006L5.65933 1.47334C5.47652 1.60732 5.26405 1.69515 5.03999 1.72934L3.91599 1.90201C3.40974 1.97963 2.94146 2.21673 2.57925 2.57882C2.21703 2.94091 1.97978 3.40912 1.90199 3.91534L1.72932 5.04001C1.69513 5.26406 1.60731 5.47653 1.47332 5.65934L0.799991 6.57601C0.496918 6.98894 0.333496 7.48779 0.333496 8.00001C0.333496 8.51222 0.496918 9.01108 0.799991 9.42401L1.47332 10.3407C1.60666 10.5233 1.69532 10.736 1.72932 10.96L1.90199 12.084C1.97961 12.5903 2.21671 13.0585 2.57881 13.4208C2.9409 13.783 3.4091 14.0202 3.91532 14.098L5.03999 14.2707C5.26399 14.3047 5.47666 14.3927 5.65933 14.5267L6.57599 15.2C6.98892 15.5031 7.48778 15.6665 7.99999 15.6665C8.51221 15.6665 9.01106 15.5031 9.42399 15.2L10.3407 14.5267C10.5235 14.3927 10.7359 14.3049 10.96 14.2707L12.084 14.098C12.5902 14.0204 13.0585 13.7833 13.4207 13.4212C13.783 13.0591 14.0202 12.5909 14.098 12.0847L14.2707 10.96C14.3049 10.736 14.3927 10.5235 14.5267 10.3407L15.2 9.42401C15.5031 9.01108 15.6665 8.51222 15.6665 8.00001C15.6665 7.48779 15.5031 6.98894 15.2 6.57601L14.5267 5.65934C14.3927 5.47653 14.3049 5.26406 14.2707 5.04001L14.098 3.91601C14.0204 3.40976 13.7833 2.94148 13.4212 2.57926C13.0591 2.21705 12.5909 1.9798 12.0847 1.90201L10.96 1.72934C10.7359 1.69515 10.5235 1.60732 10.3407 1.47334L9.42399 0.800006ZM7.16799 1.60601C7.40929 1.42901 7.70074 1.33357 7.99999 1.33357C8.29924 1.33357 8.5907 1.42901 8.83199 1.60601L9.74933 2.27934C10.0619 2.50877 10.4254 2.65926 10.8087 2.71801L11.9327 2.89001C12.2285 2.9355 12.5022 3.07421 12.7138 3.28595C12.9254 3.49769 13.064 3.77143 13.1093 4.06734L13.2827 5.19134C13.3411 5.57481 13.4914 5.93847 13.7207 6.25134L14.394 7.16801C14.571 7.4093 14.6664 7.70076 14.6664 8.00001C14.6664 8.29926 14.571 8.59071 14.394 8.83201L13.7207 9.74934C13.4912 10.062 13.3407 10.4254 13.282 10.8087L13.11 11.9327C13.0645 12.2286 12.9258 12.5022 12.714 12.7138C12.5023 12.9255 12.2286 13.064 11.9327 13.1093L10.8087 13.2827C10.4252 13.3411 10.0615 13.4914 9.74866 13.7207L8.83199 14.394C8.5907 14.571 8.29924 14.6664 7.99999 14.6664C7.70074 14.6664 7.40929 14.571 7.16799 14.394L6.25066 13.7207C5.93804 13.4912 5.57462 13.3408 5.19132 13.282L4.06732 13.11C3.77132 13.0646 3.49751 12.926 3.28576 12.7142C3.07401 12.5025 2.93536 12.2287 2.88999 11.9327L2.71799 10.8087C2.65935 10.4251 2.50885 10.0615 2.27932 9.74867L1.60599 8.83201C1.42899 8.59071 1.33356 8.29926 1.33356 8.00001C1.33356 7.70076 1.42899 7.4093 1.60599 7.16801L2.27932 6.25067C2.50875 5.93806 2.65925 5.57463 2.71799 5.19134L2.88999 4.06734C2.93536 3.77133 3.07401 3.49753 3.28576 3.28577C3.49751 3.07402 3.77132 2.93537 4.06732 2.89001L5.19132 2.71801C5.57485 2.65936 5.93852 2.50887 6.25133 2.27934L7.16799 1.60601Z" fill="#0060FF"/>
</svg>
