<svg width="28" height="25" viewBox="0 0 28 25" fill="none" xmlns="http://www.w3.org/2000/svg">
<mask id="path-1-inside-1_9441_9330" fill="white">
<path d="M10.9896 12.4998H2.77842L0.0325657 1.57613C0.0149827 1.51264 0.004273 1.44745 0.000621029 1.38168C-0.0299347 0.380286 1.07285 -0.314163 2.02841 0.144173L27.7786 12.4998L2.02841 24.8555C1.08396 25.3096 -0.00493457 24.6346 0.000621029 23.6513C0.00343271 23.5634 0.0188687 23.4764 0.0464547 23.3929L2.08397 16.6665"/>
</mask>
<path d="M3 17L2.32918 16.6646C2.18628 16.9504 2.24015 17.2954 2.4634 17.524C2.68664 17.7526 3.03022 17.8147 3.31935 17.6786L3 17ZM11.5 13L11.8193 13.6786C12.1729 13.5122 12.3395 13.1023 12.2022 12.7364C12.0649 12.3706 11.6697 12.1715 11.294 12.2789L11.5 13ZM8 14L7.79396 13.2789C7.76031 13.2885 7.72738 13.3004 7.6954 13.3146L8 14ZM3.5 16L3.1954 15.3146C3.03643 15.3853 2.90697 15.509 2.82918 15.6646L3.5 16ZM3.31935 17.6786L11.8193 13.6786L11.1807 12.3214L2.68065 16.3214L3.31935 17.6786ZM11.294 12.2789L7.79396 13.2789L8.20604 14.7211L11.706 13.7211L11.294 12.2789ZM7.6954 13.3146L3.1954 15.3146L3.8046 16.6854L8.3046 14.6854L7.6954 13.3146ZM2.82918 15.6646L2.32918 16.6646L3.67082 17.3354L4.17082 16.3354L2.82918 15.6646ZM10.9896 13.9998C11.818 13.9998 12.4896 13.3282 12.4896 12.4998C12.4896 11.6714 11.818 10.9998 10.9896 10.9998V13.9998ZM2.77842 12.4998L1.32367 12.8655C1.4913 13.5323 2.09084 13.9998 2.77842 13.9998V12.4998ZM0.0325657 1.57613L1.48731 1.21045C1.48439 1.19885 1.48134 1.18728 1.47814 1.17575L0.0325657 1.57613ZM0.000621029 1.38168L-1.49868 1.42743C-1.4983 1.43991 -1.49776 1.45238 -1.49707 1.46484L0.000621029 1.38168ZM2.02841 0.144173L2.67732 -1.2082L2.67713 -1.2083L2.02841 0.144173ZM27.7786 12.4998L28.4275 13.8522C28.9477 13.6026 29.2786 13.0768 29.2786 12.4998C29.2786 11.9229 28.9477 11.397 28.4275 11.1474L27.7786 12.4998ZM2.02841 24.8555L1.37951 23.5031L1.37835 23.5036L2.02841 24.8555ZM0.000621029 23.6513L-1.49861 23.6033C-1.49903 23.6165 -1.49928 23.6296 -1.49936 23.6428L0.000621029 23.6513ZM0.0464547 23.3929L1.47069 23.8636C1.47462 23.8517 1.4784 23.8398 1.48204 23.8278L0.0464547 23.3929ZM3.51955 17.1014C3.75972 16.3085 3.31168 15.4711 2.51882 15.2309C1.72597 14.9908 0.888549 15.4388 0.648386 16.2317L3.51955 17.1014ZM10.9896 10.9998H2.77842V13.9998H10.9896V10.9998ZM4.23316 12.1341L1.48731 1.21045L-1.42218 1.9418L1.32367 12.8655L4.23316 12.1341ZM1.47814 1.17575C1.48925 1.21583 1.49601 1.25699 1.49831 1.29852L-1.49707 1.46484C-1.48746 1.63791 -1.45928 1.80945 -1.41301 1.97651L1.47814 1.17575ZM1.49992 1.33593C1.50105 1.37294 1.49024 1.4148 1.47132 1.44778C1.45486 1.47648 1.4386 1.48825 1.43248 1.49202C1.42609 1.49597 1.41828 1.49905 1.40693 1.49983C1.40067 1.50026 1.394 1.49989 1.38772 1.4987C1.38116 1.49747 1.37825 1.49594 1.3797 1.49664L2.67713 -1.2083C0.792099 -2.11245 -1.56634 -0.78984 -1.49868 1.42743L1.49992 1.33593ZM1.37951 1.49655L27.1297 13.8522L28.4275 11.1474L2.67732 -1.2082L1.37951 1.49655ZM27.1297 11.1474L1.37951 23.5031L2.67732 26.2078L28.4275 13.8522L27.1297 11.1474ZM1.37835 23.5036C1.37708 23.5042 1.38014 23.5027 1.38684 23.5014C1.39326 23.5002 1.4001 23.4997 1.40657 23.5002C1.41842 23.5009 1.42649 23.5041 1.43278 23.5079C1.43874 23.5115 1.45423 23.5224 1.47036 23.5494C1.48881 23.5803 1.50082 23.6212 1.5006 23.6598L-1.49936 23.6428C-1.51163 25.8155 0.808574 27.1065 2.67848 26.2073L1.37835 23.5036ZM1.49985 23.6993C1.49806 23.7552 1.48824 23.8105 1.47069 23.8636L-1.37778 22.9222C-1.4505 23.1423 -1.4912 23.3717 -1.49861 23.6033L1.49985 23.6993ZM1.48204 23.8278L3.51955 17.1014L0.648386 16.2317L-1.38913 22.9581L1.48204 23.8278Z" fill="white" mask="url(#path-1-inside-1_9441_9330)"/>
</svg>
