<svg width="23" height="24" viewBox="0 0 23 24" fill="none" xmlns="http://www.w3.org/2000/svg">
<path d="M19.8971 13.0742C19.9439 12.718 19.969 12.3593 19.9723 12C19.969 11.6407 19.9439 11.282 19.8971 10.9258L22.2227 9.10499C22.3278 9.02477 22.3995 8.90865 22.4243 8.77883C22.4491 8.64902 22.4251 8.51463 22.357 8.40137L20.1549 4.58254C20.0911 4.46799 19.9876 4.38073 19.864 4.3372C19.7403 4.29367 19.605 4.29687 19.4835 4.34621L16.7389 5.45265C16.1678 5.01678 15.5432 4.65578 14.8805 4.37844L14.4669 1.46194C14.4487 1.33288 14.3841 1.21487 14.2853 1.12988C14.1865 1.0449 14.0601 0.998743 13.9298 1.00003H9.51477C9.38444 0.998743 9.25809 1.0449 9.15927 1.12988C9.06045 1.21487 8.9959 1.33288 8.97766 1.46194L8.56409 4.37844C7.90049 4.65405 7.27574 5.01518 6.7057 5.45265L3.95033 4.34621C3.82886 4.29687 3.69354 4.29367 3.56987 4.3372C3.44621 4.38073 3.34273 4.46799 3.27895 4.58254L1.0768 8.40137C1.0087 8.51463 0.984749 8.64902 1.00952 8.77883C1.0343 8.90865 1.10606 9.02477 1.21108 9.10499L3.53139 10.9258C3.48478 11.282 3.45967 11.6407 3.45619 12C3.45949 12.3593 3.4846 12.718 3.53139 13.0742L1.21108 14.895C1.10606 14.9752 1.0343 15.0914 1.00952 15.2212C0.984749 15.351 1.0087 15.4854 1.0768 15.5986L3.27895 19.4175C3.34273 19.532 3.44621 19.6193 3.56987 19.6628C3.69354 19.7063 3.82886 19.7031 3.95033 19.6538L6.69495 18.5473C7.26606 18.9832 7.8906 19.3442 8.55335 19.6216L8.96692 22.5381C8.98516 22.6671 9.04971 22.7851 9.14853 22.8701C9.24735 22.9551 9.3737 23.0013 9.50403 23H13.9083C14.0386 23.0013 14.165 22.9551 14.2638 22.8701C14.3626 22.7851 14.4272 22.6671 14.4454 22.5381L14.859 19.6216C15.5226 19.3459 16.1473 18.9848 16.7174 18.5473L19.462 19.6538C19.5835 19.7031 19.7188 19.7063 19.8425 19.6628C19.9661 19.6193 20.0696 19.532 20.1334 19.4175L22.3355 15.5986C22.4036 15.4854 22.4276 15.351 22.4028 15.2212C22.378 15.0914 22.3063 14.9752 22.2013 14.895L19.8971 13.0742ZM11.7169 15.8564C10.954 15.8575 10.2078 15.6322 9.57293 15.2091C8.93804 14.786 8.44291 14.1841 8.1502 13.4795C7.8575 12.7749 7.78036 11.9994 7.92855 11.2509C8.07675 10.5025 8.44361 9.81486 8.98273 9.27499C9.52185 8.73512 10.209 8.3673 10.9572 8.21806C11.7054 8.06882 12.4811 8.14488 13.1861 8.43661C13.8911 8.72833 14.4937 9.22262 14.9177 9.85692C15.3417 10.4912 15.568 11.237 15.568 12C15.5687 12.5062 15.4696 13.0075 15.2764 13.4754C15.0832 13.9432 14.7996 14.3684 14.4419 14.7266C14.0843 15.0848 13.6595 15.3689 13.1919 15.5628C12.7243 15.7566 12.2231 15.8564 11.7169 15.8564V15.8564Z" stroke="#4B4E58" stroke-linecap="round" stroke-linejoin="round"/>
</svg>
