<svg width="14" height="14" viewBox="0 0 14 14" fill="none" xmlns="http://www.w3.org/2000/svg">
<path d="M6.41659 5.83337V8.16671H4.08325V5.83337H6.41659Z" fill="#4B4E58"/>
<path d="M6.41659 11.6667V9.33337H4.08325V11.6667H6.41659Z" fill="#4B4E58"/>
<path d="M9.91658 5.83337V8.16671H7.58325V5.83337H9.91658Z" fill="#4B4E58"/>
<path d="M9.91658 11.6667V9.33337H7.58325V11.6667H9.91658Z" fill="#4B4E58"/>
<path d="M3.5 3.5V1.75C3.5 1.28587 3.68437 0.840752 4.01256 0.512563C4.34075 0.184375 4.78587 0 5.25 0H8.75C9.21413 0 9.65925 0.184375 9.98744 0.512563C10.3156 0.840752 10.5 1.28587 10.5 1.75V3.5H13.4167C13.5714 3.5 13.7197 3.56146 13.8291 3.67085C13.9385 3.78025 14 3.92862 14 4.08333V11.6667C14 12.2855 13.7542 12.879 13.3166 13.3166C12.879 13.7542 12.2855 14 11.6667 14H2.33333C1.71449 14 1.121 13.7542 0.683417 13.3166C0.245833 12.879 0 12.2855 0 11.6667V4.08333C0 3.92862 0.0614583 3.78025 0.170854 3.67085C0.280251 3.56146 0.428624 3.5 0.583333 3.5H3.5ZM4.66667 1.75V3.5H9.33333V1.75C9.33333 1.59529 9.27188 1.44692 9.16248 1.33752C9.05308 1.22812 8.90471 1.16667 8.75 1.16667H5.25C5.09529 1.16667 4.94692 1.22812 4.83752 1.33752C4.72812 1.44692 4.66667 1.59529 4.66667 1.75ZM1.16667 11.6667C1.16667 11.9761 1.28958 12.2728 1.50838 12.4916C1.72717 12.7104 2.02391 12.8333 2.33333 12.8333H11.6667C11.9761 12.8333 12.2728 12.7104 12.4916 12.4916C12.7104 12.2728 12.8333 11.9761 12.8333 11.6667V4.66667H1.16667V11.6667Z" fill="#4B4E58"/>
</svg>
