<svg width="13" height="12" viewBox="0 0 13 12" fill="none" xmlns="http://www.w3.org/2000/svg">
<path d="M12.3809 6C12.3809 7.5913 11.7487 9.11742 10.6235 10.2426C9.49828 11.3679 7.97216 12 6.38086 12C4.78956 12 3.26344 11.3679 2.13822 10.2426C1.013 9.11742 0.380859 7.5913 0.380859 6C0.380859 4.4087 1.013 2.88258 2.13822 1.75736C3.26344 0.632142 4.78956 0 6.38086 0C7.97216 0 9.49828 0.632142 10.6235 1.75736C11.7487 2.88258 12.3809 4.4087 12.3809 6ZM7.01552 2.48C6.97701 2.34126 6.8941 2.21897 6.77948 2.13183C6.66486 2.04469 6.52484 1.99752 6.38086 1.99752C6.23688 1.99752 6.09686 2.04469 5.98224 2.13183C5.86762 2.21897 5.7847 2.34126 5.74619 2.48L5.11019 4.52267H3.04753C2.40219 4.52267 2.13286 5.38533 2.65553 5.78133L4.32219 7.044L3.68619 9.08667C3.48619 9.72667 4.19019 10.26 4.71286 9.864L6.37952 8.60133L8.04619 9.864C8.56886 10.26 9.27286 9.72667 9.07286 9.08667L8.43686 7.044L10.1035 5.78133C10.6262 5.38533 10.3569 4.52267 9.71152 4.52267H7.65152L7.01419 2.48133L7.01552 2.48Z" fill="#4B4E58"/>
</svg>
