<svg width="16" height="14" viewBox="0 0 16 14" fill="none" xmlns="http://www.w3.org/2000/svg">
<g clip-path="url(#clip0_5392_6296)">
<path d="M5.95 5.60001C6.27174 5.60001 6.59033 5.53664 6.88757 5.41352C7.18482 5.29039 7.45491 5.10993 7.68241 4.88242C7.90991 4.65492 8.09038 4.38483 8.2135 4.08759C8.33663 3.79034 8.4 3.47175 8.4 3.15001C8.4 2.82827 8.33663 2.50969 8.2135 2.21244C8.09038 1.91519 7.90991 1.6451 7.68241 1.4176C7.45491 1.1901 7.18482 1.00963 6.88757 0.886507C6.59033 0.763383 6.27174 0.700012 5.95 0.700012C5.30022 0.700012 4.67705 0.958137 4.21759 1.4176C3.75812 1.87706 3.5 2.50023 3.5 3.15001C3.5 3.79979 3.75812 4.42296 4.21759 4.88242C4.67705 5.34189 5.30022 5.60001 5.95 5.60001V5.60001Z" stroke="white" stroke-width="1.5" stroke-linecap="round" stroke-linejoin="round"/>
<path d="M12.6 2.45001L14.7 4.55001L12.6 6.65001" stroke="white" stroke-width="1.5" stroke-linecap="round" stroke-linejoin="round"/>
<path d="M0.700012 12.88V13.3H11.2V12.88C11.2 11.312 11.2 10.528 10.8948 9.92882C10.6264 9.40199 10.198 8.97367 9.67121 8.70522C9.07201 8.40002 8.28801 8.40002 6.72001 8.40002H5.18001C3.61201 8.40002 2.82801 8.40002 2.22881 8.70522C1.70198 8.97367 1.27365 9.40199 1.00521 9.92882C0.700012 10.528 0.700012 11.312 0.700012 12.88Z" stroke="white" stroke-width="1.5" stroke-linecap="round" stroke-linejoin="round"/>
</g>
<defs>
<clipPath id="clip0_5392_6296">
<rect width="15.4" height="14" fill="white"/>
</clipPath>
</defs>
</svg>
