<svg width="20" height="18" viewBox="0 0 20 18" fill="none" xmlns="http://www.w3.org/2000/svg">
<path d="M17.9904 5.14011H14.7778V6.42513H17.9904V10.2802H13.4928V11.5652H15.4203V12.9415C14.8146 13.0979 14.2868 13.4698 13.9357 13.9875C13.5846 14.5052 13.4344 15.1332 13.5133 15.7538C13.5921 16.3743 13.8945 16.9448 14.3639 17.3583C14.8332 17.7719 15.4373 18 16.0628 18C16.6884 18 17.2924 17.7719 17.7618 17.3583C18.2311 16.9448 18.5336 16.3743 18.6124 15.7538C18.6912 15.1332 18.541 14.5052 18.1899 13.9875C17.8389 13.4698 17.311 13.0979 16.7053 12.9415V11.5652H17.9904C18.331 11.5647 18.6576 11.4292 18.8985 11.1883C19.1393 10.9474 19.2749 10.6209 19.2754 10.2802V6.42513C19.2751 6.08443 19.1396 5.75777 18.8986 5.51686C18.6577 5.27594 18.3311 5.14045 17.9904 5.14011ZM17.3479 15.4203C17.3479 15.6745 17.2725 15.9229 17.1313 16.1342C16.9901 16.3456 16.7894 16.5103 16.5546 16.6075C16.3198 16.7048 16.0614 16.7302 15.8121 16.6807C15.5629 16.6311 15.3339 16.5087 15.1542 16.329C14.9745 16.1493 14.8521 15.9203 14.8025 15.671C14.7529 15.4217 14.7784 15.1634 14.8756 14.9286C14.9729 14.6938 15.1376 14.4931 15.3489 14.3519C15.5602 14.2107 15.8087 14.1353 16.0628 14.1353C16.4035 14.1358 16.73 14.2714 16.9709 14.5122C17.2118 14.7531 17.3473 15.0797 17.3479 15.4203ZM11.5652 2.57005H8.35267V3.85508H11.5652V7.71016H7.06765V8.99519H8.99519V12.9415C8.38951 13.0979 7.86167 13.4698 7.51059 13.9875C7.15952 14.5052 7.00931 15.1332 7.08813 15.7538C7.16695 16.3743 7.46938 16.9448 7.93874 17.3583C8.4081 17.7719 9.01217 18 9.6377 18C10.2632 18 10.8673 17.7719 11.3367 17.3583C11.806 16.9448 12.1084 16.3743 12.1873 15.7538C12.2661 15.1332 12.1159 14.5052 11.7648 13.9875C11.4137 13.4698 10.8859 13.0979 10.2802 12.9415V8.99519H11.5652C11.9059 8.99485 12.2326 8.85935 12.4735 8.61843C12.7144 8.37752 12.8499 8.05087 12.8503 7.71016V3.85508C12.8499 3.51437 12.7144 3.18772 12.4735 2.9468C12.2326 2.70589 11.9059 2.57039 11.5652 2.57005ZM10.9227 15.4203C10.9227 15.6745 10.8474 15.9229 10.7062 16.1342C10.565 16.3456 10.3643 16.5103 10.1295 16.6075C9.89465 16.7048 9.63627 16.7302 9.387 16.6807C9.13773 16.6311 8.90876 16.5087 8.72905 16.329C8.54933 16.1493 8.42695 15.9203 8.37736 15.671C8.32778 15.4217 8.35323 15.1634 8.45049 14.9286C8.54775 14.6938 8.71245 14.4931 8.92378 14.3519C9.1351 14.2107 9.38354 14.1353 9.6377 14.1353C9.97835 14.1358 10.3049 14.2714 10.5458 14.5122C10.7867 14.7531 10.9222 15.0797 10.9227 15.4203ZM5.14011 0H1.28503C0.944321 0.000340196 0.617667 0.135836 0.376751 0.376751C0.135836 0.617667 0.000340196 0.944321 0 1.28503V5.14011C0.000340196 5.48081 0.135836 5.80747 0.376751 6.04838C0.617667 6.2893 0.944321 6.42479 1.28503 6.42513H2.57005V12.9415C1.96438 13.0979 1.43654 13.4698 1.08546 13.9875C0.734384 14.5052 0.584177 15.1332 0.662997 15.7538C0.741817 16.3743 1.04425 16.9448 1.51361 17.3583C1.98297 17.7719 2.58703 18 3.21257 18C3.8381 18 4.44216 17.7719 4.91152 17.3583C5.38088 16.9448 5.68332 16.3743 5.76214 15.7538C5.84096 15.1332 5.69075 14.5052 5.33967 13.9875C4.9886 13.4698 4.46075 13.0979 3.85508 12.9415V6.42513H5.14011C5.48081 6.42479 5.80747 6.2893 6.04838 6.04838C6.2893 5.80747 6.42479 5.48081 6.42513 5.14011V1.28503C6.42479 0.944321 6.2893 0.617667 6.04838 0.376751C5.80747 0.135836 5.48081 0.000340196 5.14011 0ZM4.49759 15.4203C4.49759 15.6745 4.42223 15.9229 4.28103 16.1342C4.13983 16.3456 3.93913 16.5103 3.70432 16.6075C3.46952 16.7048 3.21114 16.7302 2.96187 16.6807C2.7126 16.6311 2.48363 16.5087 2.30392 16.329C2.1242 16.1493 2.00181 15.9203 1.95223 15.671C1.90265 15.4217 1.9281 15.1634 2.02536 14.9286C2.12262 14.6938 2.28732 14.4931 2.49864 14.3519C2.70997 14.2107 2.95841 14.1353 3.21257 14.1353C3.55327 14.1356 3.87993 14.2711 4.12084 14.512C4.36176 14.753 4.49725 15.0796 4.49759 15.4203ZM1.28503 5.14011V1.28503H5.14011L5.14139 5.14011H1.28503Z" fill="#4B4E58"/>
</svg>
