<svg width="16" height="16" viewBox="0 0 16 16" fill="none" xmlns="http://www.w3.org/2000/svg">
<path d="M11.3536 6.52C11.4419 6.42522 11.49 6.29985 11.4877 6.17032C11.4854 6.04078 11.4329 5.91719 11.3413 5.82559C11.2497 5.73398 11.1261 5.6815 10.9966 5.67922C10.867 5.67693 10.7417 5.72501 10.6469 5.81333L7.00022 9.46L5.35356 7.81333C5.25877 7.72501 5.13341 7.67693 5.00387 7.67922C4.87434 7.6815 4.75075 7.73398 4.65914 7.82559C4.56753 7.91719 4.51506 8.04078 4.51277 8.17032C4.51049 8.29985 4.55857 8.42522 4.64689 8.52L6.64689 10.52C6.74064 10.6136 6.86772 10.6662 7.00022 10.6662C7.13272 10.6662 7.25981 10.6136 7.35356 10.52L11.3536 6.52Z" fill="#0060FF"/>
<path fill-rule="evenodd" clip-rule="evenodd" d="M9.42448 0.799998C9.01155 0.496926 8.5127 0.333504 8.00048 0.333504C7.48827 0.333504 6.98941 0.496926 6.57648 0.799998L5.65981 1.47333C5.47701 1.60731 5.26453 1.69514 5.04048 1.72933L3.91648 1.902C3.41023 1.97962 2.94195 2.21672 2.57974 2.57881C2.21752 2.94091 1.98027 3.40911 1.90248 3.91533L1.72981 5.04C1.69562 5.26405 1.60779 5.47653 1.47381 5.65933L0.800479 6.576C0.497407 6.98893 0.333984 7.48778 0.333984 8C0.333984 8.51221 0.497407 9.01107 0.800479 9.424L1.47381 10.3407C1.60715 10.5233 1.69581 10.736 1.72981 10.96L1.90248 12.084C1.9801 12.5902 2.2172 13.0585 2.57929 13.4207C2.94139 13.783 3.40959 14.0202 3.91581 14.098L5.04048 14.2707C5.26448 14.3047 5.47715 14.3927 5.65981 14.5267L6.57648 15.2C6.98941 15.5031 7.48827 15.6665 8.00048 15.6665C8.5127 15.6665 9.01155 15.5031 9.42448 15.2L10.3411 14.5267C10.524 14.3927 10.7364 14.3049 10.9605 14.2707L12.0845 14.098C12.5907 14.0204 13.059 13.7833 13.4212 13.4212C13.7834 13.0591 14.0207 12.5909 14.0985 12.0847L14.2711 10.96C14.3053 10.7359 14.3932 10.5235 14.5271 10.3407L15.2005 9.424C15.5036 9.01107 15.667 8.51221 15.667 8C15.667 7.48778 15.5036 6.98893 15.2005 6.576L14.5271 5.65933C14.3932 5.47653 14.3053 5.26405 14.2711 5.04L14.0985 3.916C14.0209 3.40975 13.7838 2.94147 13.4217 2.57926C13.0596 2.21704 12.5914 1.97979 12.0851 1.902L10.9605 1.72933C10.7364 1.69514 10.524 1.60731 10.3411 1.47333L9.42448 0.799998ZM7.16848 1.606C7.40977 1.429 7.70123 1.33357 8.00048 1.33357C8.29973 1.33357 8.59119 1.429 8.83248 1.606L9.74981 2.27933C10.0624 2.50876 10.4259 2.65925 10.8091 2.718L11.9331 2.89C12.229 2.9355 12.5027 3.0742 12.7143 3.28594C12.9259 3.49769 13.0645 3.77142 13.1098 4.06733L13.2831 5.19133C13.3416 5.5748 13.4919 5.93846 13.7211 6.25133L14.3945 7.168C14.5715 7.40929 14.6669 7.70075 14.6669 8C14.6669 8.29925 14.5715 8.5907 14.3945 8.832L13.7211 9.74933C13.4917 10.0619 13.3412 10.4254 13.2825 10.8087L13.1105 11.9327C13.065 12.2286 12.9263 12.5022 12.7145 12.7138C12.5028 12.9255 12.2291 13.064 11.9331 13.1093L10.8091 13.2827C10.4257 13.3411 10.062 13.4914 9.74915 13.7207L8.83248 14.394C8.59119 14.571 8.29973 14.6664 8.00048 14.6664C7.70123 14.6664 7.40977 14.571 7.16848 14.394L6.25115 13.7207C5.93853 13.4912 5.57511 13.3407 5.19181 13.282L4.06781 13.11C3.77181 13.0646 3.498 12.926 3.28625 12.7142C3.07449 12.5025 2.93585 12.2287 2.89048 11.9327L2.71848 10.8087C2.65984 10.4251 2.50934 10.0615 2.27981 9.74867L1.60648 8.832C1.42948 8.5907 1.33405 8.29925 1.33405 8C1.33405 7.70075 1.42948 7.40929 1.60648 7.168L2.27981 6.25067C2.50924 5.93805 2.65973 5.57463 2.71848 5.19133L2.89048 4.06733C2.93585 3.77132 3.07449 3.49752 3.28625 3.28577C3.498 3.07401 3.77181 2.93536 4.06781 2.89L5.19181 2.718C5.57534 2.65936 5.939 2.50886 6.25181 2.27933L7.16848 1.606Z" fill="#0060FF"/>
</svg>
