<svg width="13" height="15" viewBox="0 0 13 15" fill="none" xmlns="http://www.w3.org/2000/svg">
<path d="M0.50013 0C0.632738 0 0.759915 0.0526785 0.853683 0.146447C0.947451 0.240215 1.00013 0.367392 1.00013 0.5C1.00013 4.124 3.87613 7 7.50013 7H8.29313L7.14613 5.854C7.09964 5.80751 7.06277 5.75232 7.03761 5.69158C7.01245 5.63084 6.9995 5.56574 6.9995 5.5C6.9995 5.43426 7.01245 5.36916 7.03761 5.30842C7.06277 5.24768 7.09964 5.19249 7.14613 5.146C7.24002 5.05211 7.36735 4.99937 7.50013 4.99937C7.56587 4.99937 7.63097 5.01232 7.69171 5.03748C7.75245 5.06264 7.80764 5.09951 7.85413 5.146L9.85413 7.146C9.90069 7.19245 9.93764 7.24762 9.96284 7.30837C9.98805 7.36911 10.001 7.43423 10.001 7.5C10.001 7.56577 9.98805 7.63089 9.96284 7.69163C9.93764 7.75238 9.90069 7.80755 9.85413 7.854L7.85413 9.854C7.80764 9.90049 7.75245 9.93736 7.69171 9.96252C7.63097 9.98768 7.56587 10.0006 7.50013 10.0006C7.43439 10.0006 7.36929 9.98768 7.30855 9.96252C7.24781 9.93736 7.19262 9.90049 7.14613 9.854C7.09964 9.80751 7.06277 9.75232 7.03761 9.69158C7.01245 9.63084 6.9995 9.56574 6.9995 9.5C6.9995 9.43426 7.01245 9.36916 7.03761 9.30842C7.06277 9.24768 7.09964 9.19249 7.14613 9.146L8.29313 8H7.50013C6.64494 7.99429 5.79714 8.15851 5.00594 8.48314C4.21475 8.80778 3.49592 9.28635 2.8912 9.89107C2.28647 10.4958 1.80791 11.2146 1.48327 12.0058C1.15864 12.797 0.994415 13.6448 1.00013 14.5C1.00013 14.6326 0.947451 14.7598 0.853683 14.8536C0.759915 14.9473 0.632738 15 0.50013 15C0.367521 15 0.240344 14.9473 0.146576 14.8536C0.052808 14.7598 0.000129525 14.6326 0.000129525 14.5C-0.00879359 12.9861 0.44352 11.5054 1.29688 10.255C2.15023 9.00449 3.36417 8.04354 4.77713 7.5C3.36417 6.95646 2.15023 5.99551 1.29688 4.74504C0.44352 3.49457 -0.00879359 2.01388 0.000129525 0.5C0.000129525 0.367392 0.052808 0.240215 0.146576 0.146447C0.240344 0.0526785 0.367521 0 0.50013 0ZM6.03213 9.193C4.8052 9.52225 3.73239 10.2709 3.00013 11.309V12C3.00013 12.5304 3.21084 13.0391 3.58592 13.4142C3.96099 13.7893 4.4697 14 5.00013 14H11.0001C11.5306 14 12.0393 13.7893 12.4143 13.4142C12.7894 13.0391 13.0001 12.5304 13.0001 12V3C13.0001 2.46957 12.7894 1.96086 12.4143 1.58579C12.0393 1.21071 11.5306 1 11.0001 1H5.00013C4.4697 1 3.96099 1.21071 3.58592 1.58579C3.21084 1.96086 3.00013 2.46957 3.00013 3V3.691C3.73233 4.72912 4.80516 5.47783 6.03213 5.807C5.96572 5.49082 6.00325 5.16164 6.13912 4.86852C6.27499 4.57539 6.50192 4.33401 6.78612 4.18033C7.07031 4.02666 7.39655 3.96891 7.71622 4.01571C8.0359 4.0625 8.3319 4.21132 8.56013 4.44L10.5601 6.44C10.6995 6.5793 10.8101 6.7447 10.8855 6.92675C10.961 7.1088 10.9998 7.30394 10.9998 7.501C10.9998 7.69806 10.961 7.8932 10.8855 8.07525C10.8101 8.2573 10.6995 8.4227 10.5601 8.562L8.56013 10.562C8.33177 10.791 8.03553 10.94 7.71555 10.987C7.39558 11.0339 7.06902 10.9761 6.78455 10.8223C6.50008 10.6685 6.27293 10.4268 6.13698 10.1334C6.00103 9.83997 5.96355 9.51047 6.03013 9.194L6.03213 9.193Z" fill="url(#paint0_linear_9093_5984)"/>
<defs>
<linearGradient id="paint0_linear_9093_5984" x1="6.50006" y1="0" x2="6.50006" y2="15" gradientUnits="userSpaceOnUse">
<stop offset="0.114583" stop-color="#FFA88C"/>
<stop offset="0.671875" stop-color="#FF5C28"/>
</linearGradient>
</defs>
</svg>
