<svg width="31" height="28" viewBox="0 0 31 28" fill="none" xmlns="http://www.w3.org/2000/svg">
<path d="M26.6894 5.1234H21.6255V3.81277C21.6255 2.74043 21.2582 1.83688 20.5234 1.10213C19.7887 0.367376 18.8851 0 17.8128 0H12.6894C11.617 0 10.7135 0.367376 9.97872 1.10213C9.24397 1.83688 8.8766 2.74043 8.8766 3.81277V5.1234H3.81277C2.74043 5.1234 1.83688 5.48085 1.10213 6.19574C0.367376 6.91064 0 7.82411 0 8.93617V14C0 14.834 0.417021 15.2511 1.25106 15.2511V25.4383C1.25106 26.1135 1.50922 26.7092 2.02553 27.2255C2.54184 27.7418 3.13759 28 3.81277 28H26.6894C27.3645 28 27.9603 27.7418 28.4766 27.2255C28.9929 26.7092 29.2511 26.1135 29.2511 25.4383V15.2511C30.0851 15.2511 30.5021 14.834 30.5021 14V8.93617C30.5021 7.82411 30.1348 6.91064 29.4 6.19574C28.6652 5.48085 27.7617 5.1234 26.6894 5.1234ZM11.4383 3.81277C11.4383 3.45532 11.5574 3.15745 11.7957 2.91915C12.034 2.68085 12.3319 2.5617 12.6894 2.5617H17.8128C18.1702 2.5617 18.4681 2.68085 18.7064 2.91915C18.9447 3.15745 19.0638 3.45532 19.0638 3.81277V5.1234H11.4383V3.81277ZM3.81277 25.4383V15.2511H11.4383V19.0638C11.4383 19.7787 11.6865 20.3844 12.183 20.8809C12.6794 21.3773 13.2851 21.6255 14 21.6255H16.5021C17.217 21.6255 17.8227 21.3773 18.3191 20.8809C18.8156 20.3844 19.0638 19.7787 19.0638 19.0638V15.2511H26.6894V25.4383H3.81277ZM14 19.0638V15.2511H16.5021V19.0638H14ZM27.9404 12.7489H2.5617V8.93617C2.5617 8.06241 2.97872 7.62553 3.81277 7.62553H26.6894C27.5234 7.62553 27.9404 8.06241 27.9404 8.93617V12.7489Z" fill="#4B4E58"/>
</svg>
