<svg width="261" height="73" viewBox="0 0 261 73" fill="none" xmlns="http://www.w3.org/2000/svg">
<g filter="url(#filter0_d_12659_15496)">
<path opacity="0.6" d="M54.5 8.5H247C252.247 8.5 256.5 12.7533 256.5 18V46C256.5 51.2467 252.247 55.5 247 55.5H54.5V8.5Z" fill="#030C23" stroke="white"/>
<g filter="url(#filter1_d_12659_15496)">
<path d="M83.156 41V21.26H96.064V24.116H86.74V29.688H95.476V32.544H86.74V41H83.156ZM104.184 41.28C103.194 41.28 102.308 41.0933 101.524 40.72C100.758 40.328 100.152 39.8053 99.7038 39.152C99.2744 38.4987 99.0598 37.7613 99.0598 36.94C99.0598 35.932 99.3211 35.1387 99.8438 34.56C100.366 33.9627 101.216 33.5333 102.392 33.272C103.568 33.0107 105.145 32.88 107.124 32.88H108.104V32.292C108.104 31.3587 107.898 30.6867 107.488 30.276C107.077 29.8653 106.386 29.66 105.416 29.66C104.65 29.66 103.866 29.7813 103.064 30.024C102.261 30.248 101.449 30.6027 100.628 31.088L99.6198 28.708C100.105 28.372 100.674 28.0827 101.328 27.84C102 27.5787 102.7 27.3827 103.428 27.252C104.174 27.1027 104.874 27.028 105.528 27.028C107.525 27.028 109.009 27.4947 109.98 28.428C110.95 29.3427 111.436 30.7707 111.436 32.712V41H108.16V38.816C107.842 39.5813 107.338 40.188 106.648 40.636C105.957 41.0653 105.136 41.28 104.184 41.28ZM104.912 38.872C105.826 38.872 106.582 38.5547 107.18 37.92C107.796 37.2853 108.104 36.4827 108.104 35.512V34.896H107.152C105.397 34.896 104.174 35.036 103.484 35.316C102.812 35.5773 102.476 36.0627 102.476 36.772C102.476 37.388 102.69 37.892 103.12 38.284C103.549 38.676 104.146 38.872 104.912 38.872ZM116.724 41V27.308H120.14V29.408C120.551 28.6613 121.12 28.0827 121.848 27.672C122.576 27.2427 123.416 27.028 124.368 27.028C126.422 27.028 127.766 27.924 128.4 29.716C128.83 28.876 129.446 28.2227 130.248 27.756C131.051 27.2707 131.966 27.028 132.992 27.028C136.072 27.028 137.612 28.904 137.612 32.656V41H134.112V32.796C134.112 31.7507 133.935 30.9853 133.58 30.5C133.244 30.0147 132.666 29.772 131.844 29.772C130.93 29.772 130.211 30.0987 129.688 30.752C129.166 31.3867 128.904 32.2733 128.904 33.412V41H125.404V32.796C125.404 31.7507 125.227 30.9853 124.872 30.5C124.536 30.0147 123.967 29.772 123.164 29.772C122.25 29.772 121.531 30.0987 121.008 30.752C120.486 31.3867 120.224 32.2733 120.224 33.412V41H116.724ZM149.651 41.28C148.102 41.28 146.767 40.9907 145.647 40.412C144.527 39.8333 143.659 39.012 143.043 37.948C142.446 36.884 142.147 35.624 142.147 34.168C142.147 32.7493 142.436 31.508 143.015 30.444C143.612 29.38 144.424 28.5493 145.451 27.952C146.496 27.336 147.682 27.028 149.007 27.028C150.948 27.028 152.479 27.644 153.599 28.876C154.738 30.108 155.307 31.788 155.307 33.916V34.952H145.507C145.768 37.3973 147.168 38.62 149.707 38.62C150.472 38.62 151.238 38.508 152.003 38.284C152.768 38.0413 153.468 37.668 154.103 37.164L155.083 39.516C154.43 40.0573 153.608 40.4867 152.619 40.804C151.63 41.1213 150.64 41.28 149.651 41.28ZM149.147 29.408C148.12 29.408 147.29 29.7253 146.655 30.36C146.02 30.9947 145.638 31.8533 145.507 32.936H152.395C152.32 31.7973 152.003 30.9293 151.443 30.332C150.902 29.716 150.136 29.408 149.147 29.408Z" fill="#FF5C28"/>
<path d="M160.095 41V21.26H163.679V37.948H173.143V41H160.095ZM176.937 24.368V20.952H180.857V24.368H176.937ZM177.161 41V27.308H180.661V41H177.161ZM185.978 41V27.308H189.394V29.436C189.861 28.652 190.486 28.0547 191.27 27.644C192.073 27.2333 192.969 27.028 193.958 27.028C197.187 27.028 198.802 28.904 198.802 32.656V41H195.302V32.824C195.302 31.76 195.097 30.9853 194.686 30.5C194.294 30.0147 193.678 29.772 192.838 29.772C191.811 29.772 190.99 30.0987 190.374 30.752C189.777 31.3867 189.478 32.236 189.478 33.3V41H185.978ZM204.037 41V21.26H207.537V33.132H207.593L213.109 27.308H217.337L211.121 33.86L217.729 41H213.445L207.593 34.896H207.537V41H204.037ZM225.522 41.28C224.365 41.28 223.282 41.14 222.274 40.86C221.266 40.58 220.426 40.1787 219.754 39.656L220.65 37.36C221.341 37.8267 222.115 38.1907 222.974 38.452C223.833 38.6947 224.691 38.816 225.55 38.816C226.446 38.816 227.109 38.6667 227.538 38.368C227.986 38.0507 228.21 37.64 228.21 37.136C228.21 36.352 227.631 35.848 226.474 35.624L223.674 35.092C221.303 34.644 220.118 33.412 220.118 31.396C220.118 30.5 220.361 29.7253 220.846 29.072C221.35 28.4187 222.041 27.9147 222.918 27.56C223.795 27.2053 224.803 27.028 225.942 27.028C226.913 27.028 227.846 27.168 228.742 27.448C229.638 27.7093 230.403 28.1107 231.038 28.652L230.086 30.948C229.545 30.5 228.891 30.1453 228.126 29.884C227.379 29.6227 226.661 29.492 225.97 29.492C225.055 29.492 224.374 29.6507 223.926 29.968C223.497 30.2853 223.282 30.7053 223.282 31.228C223.282 32.0493 223.814 32.5533 224.878 32.74L227.678 33.272C228.891 33.496 229.806 33.9067 230.422 34.504C231.057 35.1013 231.374 35.904 231.374 36.912C231.374 38.2747 230.842 39.348 229.778 40.132C228.714 40.8973 227.295 41.28 225.522 41.28Z" fill="white"/>
</g>
<circle cx="36.5" cy="32.5" r="31.5" fill="#FF5C28" stroke="white" stroke-width="2"/>
<g filter="url(#filter2_d_12659_15496)">
<path d="M41.972 23.7505C41.9742 26.6111 39.6301 28.9402 36.7477 28.9414C33.8947 28.9434 31.5804 26.6127 31.5792 23.7387C31.5266 20.9324 33.9133 18.5151 36.8441 18.5546C39.6501 18.5927 41.969 20.9079 41.972 23.7505Z" fill="white"/>
<path d="M23.4788 44.3414C26.0142 44.882 30.458 45.6503 35.818 45.8154V47.9858C32.3712 47.9697 28.3864 47.6756 23.8264 46.9561L23.4788 44.3414Z" fill="white"/>
<path d="M49.924 44.6146L49.514 47.1544C44.4929 47.9465 41.3223 48.0433 37.7344 47.9866V45.8446C43.4836 45.7711 47.203 45.1904 49.924 44.6146Z" fill="white"/>
<path d="M56.6989 16L53.5591 26.5519L49.8245 42.2939C46.0337 43.2959 41.9512 43.7978 37.9433 43.8812H37.3662V42.3535H40.3853C40.53 42.3535 40.6023 42.2812 40.6021 42.1367V40.8668C40.6021 40.719 40.5299 40.645 40.3853 40.645H35.6686C35.5239 40.645 35.4517 40.719 35.4518 40.8668V43.8912C31.2222 43.8551 26.8853 43.3549 22.8749 42.2948L19.1398 26.5519L16 16C16.8885 17.6044 19.5067 22.1887 21.7075 24.599L21.7136 24.6067C25.2589 28.9545 30.2183 33.1159 36.1743 33.0327H36.2074H36.2407C36.2743 33.0327 36.3076 33.0327 36.341 33.0327H36.358C36.3913 33.0327 36.4246 33.0327 36.4582 33.0327H36.4915H36.5246C42.4814 33.1159 47.4401 28.9545 50.9853 24.6067L50.9915 24.599C53.1922 22.1887 55.8105 17.6044 56.6989 16Z" fill="white"/>
</g>
</g>
<defs>
<filter id="filter0_d_12659_15496" x="0" y="0" width="261" height="73" filterUnits="userSpaceOnUse" color-interpolation-filters="sRGB">
<feFlood flood-opacity="0" result="BackgroundImageFix"/>
<feColorMatrix in="SourceAlpha" type="matrix" values="0 0 0 0 0 0 0 0 0 0 0 0 0 0 0 0 0 0 127 0" result="hardAlpha"/>
<feOffset dy="4"/>
<feGaussianBlur stdDeviation="2"/>
<feComposite in2="hardAlpha" operator="out"/>
<feColorMatrix type="matrix" values="0 0 0 0 0 0 0 0 0 0 0 0 0 0 0 0 0 0 0.25 0"/>
<feBlend mode="normal" in2="BackgroundImageFix" result="effect1_dropShadow_12659_15496"/>
<feBlend mode="normal" in="SourceGraphic" in2="effect1_dropShadow_12659_15496" result="shape"/>
</filter>
<filter id="filter1_d_12659_15496" x="79.156" y="20.952" width="156.218" height="28.328" filterUnits="userSpaceOnUse" color-interpolation-filters="sRGB">
<feFlood flood-opacity="0" result="BackgroundImageFix"/>
<feColorMatrix in="SourceAlpha" type="matrix" values="0 0 0 0 0 0 0 0 0 0 0 0 0 0 0 0 0 0 127 0" result="hardAlpha"/>
<feOffset dy="4"/>
<feGaussianBlur stdDeviation="2"/>
<feComposite in2="hardAlpha" operator="out"/>
<feColorMatrix type="matrix" values="0 0 0 0 0 0 0 0 0 0 0 0 0 0 0 0 0 0 0.25 0"/>
<feBlend mode="normal" in2="BackgroundImageFix" result="effect1_dropShadow_12659_15496"/>
<feBlend mode="normal" in="SourceGraphic" in2="effect1_dropShadow_12659_15496" result="shape"/>
</filter>
<filter id="filter2_d_12659_15496" x="14" y="16" width="44.699" height="36" filterUnits="userSpaceOnUse" color-interpolation-filters="sRGB">
<feFlood flood-opacity="0" result="BackgroundImageFix"/>
<feColorMatrix in="SourceAlpha" type="matrix" values="0 0 0 0 0 0 0 0 0 0 0 0 0 0 0 0 0 0 127 0" result="hardAlpha"/>
<feOffset dy="2"/>
<feGaussianBlur stdDeviation="1"/>
<feComposite in2="hardAlpha" operator="out"/>
<feColorMatrix type="matrix" values="0 0 0 0 0 0 0 0 0 0 0 0 0 0 0 0 0 0 0.25 0"/>
<feBlend mode="normal" in2="BackgroundImageFix" result="effect1_dropShadow_12659_15496"/>
<feBlend mode="normal" in="SourceGraphic" in2="effect1_dropShadow_12659_15496" result="shape"/>
</filter>
</defs>
</svg>
