<svg width="18" height="14" viewBox="0 0 18 14" fill="none" xmlns="http://www.w3.org/2000/svg">
<path d="M3 8.5H1C0.726142 8.5 0.5 8.27386 0.5 8V6C0.5 5.72614 0.726142 5.5 1 5.5H3C3.27386 5.5 3.5 5.72614 3.5 6V8C3.5 8.27386 3.27386 8.5 3 8.5ZM3 13.5H1C0.726142 13.5 0.5 13.2739 0.5 13V11C0.5 10.7261 0.726142 10.5 1 10.5H3C3.27386 10.5 3.5 10.7261 3.5 11V13C3.5 13.2739 3.27386 13.5 3 13.5ZM3 3.5H1C0.726142 3.5 0.5 3.27386 0.5 3V1C0.5 0.726142 0.726142 0.5 1 0.5H3C3.27386 0.5 3.5 0.726142 3.5 1V3C3.5 3.27386 3.27386 3.5 3 3.5ZM17 8.5H6C5.72614 8.5 5.5 8.27386 5.5 8V6C5.5 5.72614 5.72614 5.5 6 5.5H17C17.2739 5.5 17.5 5.72614 17.5 6V8C17.5 8.27386 17.2739 8.5 17 8.5ZM17 13.5H6C5.72614 13.5 5.5 13.2739 5.5 13V11C5.5 10.7261 5.72614 10.5 6 10.5H17C17.2739 10.5 17.5 10.7261 17.5 11V13C17.5 13.2739 17.2739 13.5 17 13.5ZM5.5 3V1C5.5 0.726142 5.72614 0.5 6 0.5H17C17.2739 0.5 17.5 0.726143 17.5 1V3C17.5 3.27386 17.2739 3.5 17 3.5H6C5.72614 3.5 5.5 3.27386 5.5 3Z" stroke="#9B9B9B"/>
</svg>
