<svg width="28" height="28" viewBox="0 0 28 28" fill="none" xmlns="http://www.w3.org/2000/svg">
    <defs>
        <filter id="filter0_d_9718_8531" x="0" y="0" width="28" height="28"
            filterUnits="userSpaceOnUse" color-interpolation-filters="sRGB">
            <feFlood flood-opacity="0" result="BackgroundImageFix" />
            <feColorMatrix in="SourceAlpha" type="matrix"
                values="0 0 0 0 0 0 0 0 0 0 0 0 0 0 0 0 0 0 127 0" result="hardAlpha" />
            <feOffset dy="2" />
            <feGaussianBlur stdDeviation="1" />
            <feComposite in2="hardAlpha" operator="out" />
            <feColorMatrix type="matrix" values="0 0 0 0 0 0 0 0 0 0 0 0 0 0 0 0 0 0 0.25 0" />
            <feBlend mode="normal" in2="BackgroundImageFix" result="effect1_dropShadow_9718_8531" />
            <feBlend mode="normal" in="SourceGraphic" in2="effect1_dropShadow_9718_8531"
                result="shape" />
        </filter>
        <linearGradient id="paint0_linear_9718_8531" x1="21" y1="2" x2="21" y2="12"
            gradientUnits="userSpaceOnUse">
            <stop offset="0.114583" stop-color="#FFA88C" />
            <stop offset="0.671875" stop-color="#FF5C28" />
        </linearGradient>
    </defs>
    <g filter="url(#filter0_d_9718_8531)">
        <path
            d="M10.5745 1.4997C10.7538 1.0566 11.0613 0.67713 11.4576 0.409938C11.854 0.142745 12.3211 0 12.799 0C13.277 0 13.7441 0.142745 14.1405 0.409938C14.5368 0.67713 14.8443 1.0566 15.0236 1.4997C16.7979 1.98766 18.363 3.0446 19.4785 4.50818C20.5939 5.97176 21.1981 7.76105 21.1982 9.60124V15.2371L23.3963 18.5343C23.5169 18.715 23.5861 18.925 23.5967 19.142C23.6072 19.359 23.5587 19.5748 23.4562 19.7663C23.3537 19.9578 23.2011 20.118 23.0148 20.2296C22.8284 20.3412 22.6153 20.4001 22.398 20.4001H16.9566C16.8121 21.3997 16.3124 22.3138 15.5488 22.975C14.7852 23.6361 13.8091 24 12.799 24C11.789 24 10.8128 23.6361 10.0493 22.975C9.28574 22.3138 8.78595 21.3997 8.64148 20.4001H3.20005C2.98283 20.4001 2.76966 20.3412 2.58331 20.2296C2.39695 20.118 2.2444 19.9578 2.14192 19.7663C2.03944 19.5748 1.99087 19.359 2.00141 19.142C2.01195 18.925 2.0812 18.715 2.20176 18.5343L4.39993 15.2371V9.60124C4.39993 5.73285 7.01565 2.47399 10.5745 1.4997ZM11.1024 20.4001C11.2263 20.7513 11.4561 21.0553 11.7601 21.2704C12.0641 21.4855 12.4273 21.601 12.7996 21.601C13.172 21.601 13.5352 21.4855 13.8392 21.2704C14.1432 21.0553 14.3729 20.7513 14.4969 20.4001H11.1012H11.1024ZM12.799 3.60187C11.2079 3.60187 9.68195 4.23395 8.55685 5.35905C7.43175 6.48415 6.79968 8.01011 6.79968 9.60124V15.6006C6.79973 15.8376 6.72959 16.0693 6.5981 16.2665L5.44262 18.0004H20.1543L18.9988 16.2665C18.8677 16.0692 18.798 15.8375 18.7984 15.6006V9.60124C18.7984 8.01011 18.1663 6.48415 17.0412 5.35905C15.9161 4.23395 14.3902 3.60187 12.799 3.60187Z"
            fill="white" />
        <circle cx="21" cy="7" r="4.5" fill="url(#paint0_linear_9718_8531)" stroke="white" />
    </g>
</svg>
