<svg width="154" height="183" viewBox="0 0 154 183" fill="none" xmlns="http://www.w3.org/2000/svg">
<path d="M166.735 151.276C165.358 152.808 163.895 154.298 162.345 155.749C161.704 156.351 161.049 156.942 160.382 157.524C142.649 173.05 115.252 183 84.5337 183C54.5534 183 27.7538 173.521 9.98154 158.631C9.29045 158.058 8.62291 157.473 7.96322 156.88C5.80226 154.957 3.76052 152.905 1.84937 150.734C2.46586 150.483 3.09413 150.232 3.73025 149.988C14.615 145.775 27.1726 142.598 40.5744 140.466C43.0927 140.063 45.6411 139.698 48.2197 139.37C73.6568 136.131 101.473 136.484 126.392 140.427C129.256 140.88 132.076 141.38 134.85 141.927C145.174 143.961 154.857 146.639 163.488 149.992C164.608 150.411 165.691 150.839 166.735 151.276Z" fill="#4B4E58"/>
<path d="M48.2355 136.599V139.347L9.9895 158.62C9.29841 158.046 8.63087 157.461 7.97119 156.868C5.80788 154.95 3.76352 152.902 1.84947 150.735C1.20811 150.012 0.591622 149.282 0 148.544C1.48822 148.021 3.14135 147.464 3.72643 147.232C16.6649 142.218 31.9633 138.68 48.2316 136.61L48.2355 136.599Z" fill="#37474F"/>
<path d="M48.2355 136.599V139.347L9.98951 158.62C9.29841 158.046 8.63088 157.461 7.97119 156.868L40.5824 140.443L48.2316 136.599H48.2355Z" fill="#030C23"/>
<path d="M120.832 136.599V139.347L159.078 158.62C159.769 158.046 160.437 157.461 161.097 156.868C163.26 154.95 165.304 152.902 167.218 150.735C167.857 150.012 168.474 149.282 169.068 148.544C167.58 148.021 165.946 147.464 165.341 147.232C152.383 142.218 137.104 138.68 120.836 136.61L120.832 136.599Z" fill="#37474F"/>
<path d="M120.832 136.599V139.347L159.078 158.62C159.769 158.046 160.437 157.461 161.097 156.868L128.513 140.455L120.836 136.599H120.832Z" fill="#030C23"/>
<path d="M61.1111 162.208C65.1223 163.169 69.0035 164.609 72.6713 166.496C76.7865 168.616 80.6346 171.298 84.954 172.963C90.5731 175.123 96.789 175.461 102.738 174.534C106.107 174.012 109.708 172.893 111.593 170.054C112.114 169.344 112.38 168.479 112.347 167.599C112.225 166.323 111.216 165.326 110.199 164.544C104.768 160.39 97.6882 159.2 90.8951 158.403C84.1019 157.606 79.9278 156.145 73.0522 153.452C70.1111 152.297 67.1975 151.033 64.2446 149.965L64.1739 149.937C62.7088 149.345 61.2132 148.831 59.6936 148.398C57.2155 147.739 54.6701 147.366 52.1072 147.287C49.5333 147.212 46.9825 147.792 44.6936 148.971C44.0917 149.249 43.585 149.699 43.2368 150.263C43.0008 150.773 42.9268 151.343 43.0248 151.897C43.2165 153.025 43.7401 154.071 44.5287 154.901C45.3134 155.725 46.2079 156.437 47.1871 157.017C51.3847 159.656 56.3245 161.062 61.1111 162.208Z" fill="#37474F"/>
<path d="M66.3845 154.932C65.9722 153.22 65.2065 151.818 64.912 150.569C64.52 149.11 64.4503 147.582 64.7078 146.093C65.0221 144.032 65.6414 142.03 66.5455 140.152C67.8648 137.497 69.7654 134.344 76.4682 126.373L65.9368 123.833C64.3858 127.253 61.4604 133.217 60.9499 133.649C60.91 133.687 60.8681 133.722 60.8243 133.755C59.9094 134.486 58.4408 134.882 57.145 136.048C56.753 136.42 56.478 136.899 56.3539 137.425C56.2297 137.95 56.2617 138.501 56.446 139.009C56.5013 139.156 56.5485 139.305 56.5874 139.457C56.9447 140.453 57.1845 141.488 57.302 142.539C57.4041 143.843 56.7287 145.39 56.1986 147.086C55.6685 148.783 55.7549 149.8 56.5913 151.296C57.2471 152.474 59.8151 155.352 62.0533 156.251C65.6148 157.696 66.7968 156.648 66.3845 154.932Z" fill="#FFC4C3"/>
<path d="M56.3557 136.638C55.7476 136.925 55.2598 137.417 54.9775 138.028C54.9491 139.197 55.1519 140.361 55.5743 141.452C56.128 142.983 56.3243 143.612 55.9317 144.786C55.539 145.96 54.9618 147.413 55.1463 149.557C55.3309 151.7 56.2772 154.488 59.4421 156.841C62.0337 158.765 64.2955 158.674 65.1555 158.513C66.0154 158.352 66.2039 157.163 66.2039 157.163L56.3557 136.638Z" fill="#030C23"/>
<path d="M60.9971 133.606C60.4524 134.057 60.0783 134.681 59.9369 135.373C59.7327 137.089 61.5311 139.3 62.0376 139.881C62.2158 139.708 62.4288 139.575 62.6624 139.491C62.896 139.408 63.1449 139.374 63.3923 139.394C64.5115 139.394 66.4552 139.563 66.6476 140.054C66.84 140.545 65.1829 144.075 64.9238 146.694C64.7108 148.785 65.0876 150.893 66.0115 152.78C66.6829 154.123 67.8295 155.953 65.9329 157.595C64.8217 157.921 60.2274 157.328 57.5259 153.444C55.1267 150 56.1986 146.447 56.8034 144.625C57.4081 142.803 56.878 141.707 56.3439 139.465C56.1083 138.487 55.861 137.753 56.3439 136.638C57.9853 134.592 60.9971 133.606 60.9971 133.606Z" fill="#37474F"/>
<path d="M57.5259 153.444C57.8793 152.407 59.5403 150.958 61.6685 150.53C64.2837 150.004 65.2026 150.53 65.7798 151.417C66.2628 152.144 68.8779 156.334 66.0468 157.665C65.128 158.234 60.6633 158.23 57.5259 153.444Z" fill="#FAFAFA"/>
<path d="M62.0379 139.881C62.2097 140.027 62.324 140.229 62.3599 140.451C62.3656 140.674 62.3364 140.896 62.2735 141.11C62.1557 141.527 62.0575 141.931 61.9554 142.347C61.7434 143.172 61.5628 144 61.386 144.829C61.2235 145.658 61.1055 146.496 61.0326 147.338C60.9594 148.185 60.9805 149.037 61.0955 149.879C60.8306 149.055 60.7071 148.192 60.7303 147.326C60.7373 146.463 60.8254 145.602 60.9934 144.754C61.1567 143.91 61.3704 143.076 61.6334 142.257C61.763 141.864 61.9162 141.44 62.0654 141.044C62.1503 140.856 62.2085 140.658 62.2381 140.455C62.2334 140.247 62.1633 140.047 62.0379 139.881Z" fill="#030C23"/>
<path d="M60.5808 149.227C61.6096 148.795 64.4132 148.661 64.9904 149.541L65.0454 149.839C65.1414 149.54 65.1317 149.217 65.0179 148.924C64.8334 148.379 62.925 147.79 60.5494 148.575C60.2981 148.814 60.2666 149.325 60.5808 149.227Z" fill="#FAFAFA"/>
<path d="M60.6831 147.032C61.6844 146.541 64.2564 146.348 64.8846 147.193V147.436C64.9711 147.316 65.0221 147.175 65.0318 147.028C65.0415 146.881 65.0096 146.734 64.9396 146.604C64.7236 146.07 62.9527 145.461 60.6202 146.38C60.3768 146.635 60.3768 147.145 60.6831 147.032Z" fill="#FAFAFA"/>
<path d="M60.9735 144.805C62.0023 144.412 64.6136 144.314 65.1633 145.217L65.1005 145.508C65.1865 145.398 65.2493 145.271 65.285 145.136C65.3208 145.001 65.3288 144.861 65.3086 144.722C65.179 144.141 63.3256 143.446 60.95 144.153C60.7105 144.381 60.6751 144.895 60.9735 144.805Z" fill="#FAFAFA"/>
<path d="M61.3426 142.916C62.3714 142.524 65.1515 142.394 65.7012 143.309L65.6305 143.6C65.806 143.36 65.882 143.062 65.8426 142.767C65.7169 142.186 63.7025 141.562 61.3269 142.269C61.0716 142.488 61.0285 143.007 61.3426 142.916Z" fill="#FAFAFA"/>
<path d="M103.574 164.784C102.675 164.242 101.839 163.606 100.943 163.068C100.027 162.545 99.1728 161.917 98.3988 161.199C97.0284 159.868 96.1488 158.121 95.3792 156.373C95.0229 155.645 94.7793 154.866 94.6567 154.064C94.6541 153.609 94.6935 153.154 94.7745 152.706C94.7744 152.486 94.7587 152.267 94.7274 152.05C94.696 151.551 94.6645 151.057 94.6371 150.558C94.5703 149.301 94.5193 148.041 94.4761 146.784C94.3465 143.05 94.2837 139.324 94.2444 135.585L84.3962 140.918C85.1619 143.635 86.3203 150.766 86.2379 152.282C86.069 155.345 84.4198 159.35 87.302 161.388C87.8714 161.78 88.5232 162.063 89.1201 162.42C91.0834 163.575 92.3831 165.562 94.1462 166.972C95.4654 168.02 96.9907 168.779 98.6227 169.198C99.2816 169.438 99.9721 169.581 100.672 169.622C101.573 169.58 102.468 169.467 103.35 169.284C103.901 169.203 104.433 169.024 104.921 168.754C105.164 168.618 105.373 168.429 105.534 168.202C105.694 167.974 105.801 167.713 105.848 167.439C105.862 167.15 105.813 166.862 105.703 166.594C105.593 166.327 105.425 166.087 105.212 165.892C104.781 165.506 104.303 165.176 103.79 164.91L103.574 164.784Z" fill="#FFC4C3"/>
<path d="M84.9775 159.664C84.8008 159.943 84.7851 160.787 85.0403 161.71C85.433 162.24 86.0534 162.656 87.5691 163.473C89.0848 164.289 89.5717 165.098 90.2432 166.221C90.8747 167.26 91.6582 168.199 92.5678 169.005C94.2641 170.517 96.7811 171.361 100.943 171.181C103.547 171.067 105.683 170.038 106.252 169.312C106.419 169.099 106.538 168.854 106.602 168.592C106.665 168.33 106.672 168.057 106.621 167.792L84.9775 159.664Z" fill="#030C23"/>
<path d="M85.7117 152.792C85.7117 152.399 86.1044 152.007 86.2261 152.128C86.2536 152.549 86.1868 153.68 86.4735 154.092C87.4407 155.335 88.8163 156.196 90.357 156.522C90.357 156.522 90.2195 156.087 91.1855 155.737C92.1515 155.388 94.6057 154.5 95.1122 154.752C95.6187 155.003 96.1174 157.559 97.7549 159.809C99.2053 161.714 101.131 163.203 103.339 164.128C104.811 164.721 106.48 165.939 106.449 167.859C104.909 169.952 100.818 170.168 98.336 169.952C93.9342 169.559 91.9748 166.85 90.7614 165.22C89.5481 163.591 89.1436 163.339 87.1449 161.945C86.2732 161.341 85.3622 160.905 84.9656 159.676C84.5769 156.656 85.7117 156.173 85.7117 152.792Z" fill="#37474F"/>
<path d="M95.9564 169.437C95.7365 167.867 96.5101 165.829 99.0389 164.568C101.568 163.308 102.644 163.594 103.507 163.92C104.371 164.246 107.371 165.738 106.578 167.929C106.252 169.025 100.951 171.291 95.9564 169.437Z" fill="#FAFAFA"/>
<path d="M90.3726 156.522C90.6091 156.516 90.8402 156.594 91.0244 156.742C91.1862 156.913 91.3188 157.11 91.4171 157.323L92.0375 158.525C92.4498 159.31 92.8778 160.096 93.3333 160.881C93.7855 161.652 94.2824 162.395 94.8215 163.107C95.355 163.829 95.9689 164.488 96.6513 165.071C95.8644 164.608 95.1609 164.016 94.5702 163.319C93.9706 162.63 93.4345 161.887 92.9681 161.101C92.5039 160.319 92.0869 159.51 91.7194 158.678C91.5309 158.285 91.3582 157.842 91.2089 157.418C91.1441 157.21 91.0502 157.013 90.9302 156.833C90.7812 156.674 90.5862 156.565 90.3726 156.522Z" fill="#030C23"/>
<path d="M95.4342 164.737C96.2196 163.952 99.7183 162.409 100.881 162.774L101.152 162.947C101.02 162.664 100.794 162.438 100.511 162.306C99.9696 161.996 96.9382 162.57 94.9787 164.27C94.8727 164.568 95.1712 164.961 95.4342 164.737Z" fill="#FAFAFA"/>
<path d="M94.0087 163.017C94.794 162.232 97.8451 160.901 99.0074 161.27L99.2351 161.486C99.1897 161.337 99.113 161.199 99.0101 161.082C98.9071 160.964 98.7804 160.871 98.6383 160.806C98.0964 160.496 95.4969 160.85 93.5532 162.55C93.4472 162.844 93.7456 163.237 94.0087 163.017Z" fill="#FAFAFA"/>
<path d="M93.031 161.203C93.8438 160.418 96.5257 159.275 97.6763 159.676L97.8451 159.919C97.7858 159.654 97.6305 159.421 97.4092 159.263C96.9027 158.894 94.5938 159.083 92.5912 160.728C92.4734 161.019 92.7797 161.415 93.031 161.203Z" fill="#FAFAFA"/>
<path d="M92.0846 159.636C92.8975 158.851 95.5833 157.708 96.7339 158.109L96.8752 158.376C96.8388 158.107 96.6977 157.862 96.4825 157.697C95.976 157.327 93.6671 157.516 91.6606 159.157C91.531 159.452 91.8176 159.848 92.0846 159.636Z" fill="#FAFAFA"/>
<path d="M76.162 86.3681L82.751 75.4676C82.751 75.4676 92.603 68.9689 96.1017 64.677C96.1017 64.677 100.633 73.7948 99.4394 85.5827C98.435 94.807 95.1342 103.632 89.8387 111.252C86.9839 115.276 70.4997 134.062 70.4997 134.062C68.823 133.967 64.217 131.018 63.4316 128.682C63.4316 128.682 67.3583 118.987 69.2157 115.465C71.6227 110.867 72.2588 108.715 77.1751 104.596C76.3701 100.163 76.162 86.3681 76.162 86.3681Z" fill="#37474F"/>
<path d="M65.1869 127.791L64.8296 127.606L65.0063 127.269C69.3257 118.956 74.717 108.613 85.6411 105.232L85.7589 105.625C74.9958 108.954 69.6594 119.219 65.3636 127.465L65.1869 127.791Z" fill="#030C23"/>
<path d="M90.0311 83.5883L76.5272 97.0804C76.6154 99.5972 76.8396 102.107 77.1986 104.6C75.9789 105.595 74.8404 106.687 73.7942 107.863L78.8989 116.188C78.2156 118.936 78.5494 122.356 78.8753 124.457C83.4224 119.18 88.4093 113.305 89.8701 111.256C91.5276 108.893 92.988 106.397 94.2365 103.795L91.8805 84.3304C91.8805 84.3304 95.5834 82.3985 96.6279 79.0137C94.696 81.9901 90.0311 83.5883 90.0311 83.5883Z" fill="#030C23"/>
<path d="M73.8453 97.995C71.6817 91.9244 70.3113 88.0801 69.5692 83.8275C68.4932 77.7726 69.4945 74.3092 70.3545 72.393C72.8754 66.6286 74.2576 64.7399 75.2 62.7451C75.2 62.7451 77.1084 66.715 85.7236 67.4571C95.5835 68.2896 96.7458 64.7085 96.7458 64.7085C96.4317 68.3407 97.5036 72.9859 96.3727 76.0213C94.0835 82.0762 90.0311 83.588 90.0311 83.588L92.8387 100.559C93.9146 109.465 94.4094 107.981 94.4801 125.486C94.5076 133.17 94.5429 145.363 94.5429 145.363C93.3649 146.109 87.7026 146.953 85.6097 146.073C85.6097 146.073 83.5089 138.181 82.2759 132.923C79.9199 122.859 79.6018 120.271 80.3126 115.453C80.3126 115.449 76.327 104.953 73.8453 97.995Z" fill="#37474F"/>
<path d="M87.4001 146.415C86.4224 141.703 84.4669 132.157 83.6187 127.108C83.0466 124.068 82.8921 120.965 83.1593 117.884C83.2448 117.007 83.2723 116.125 83.2418 115.245C83.0925 112.316 80.9329 105.892 78.6475 99.0906C76.6292 93.0789 74.5481 86.8747 73.9355 83.2425H74.1436C74.9592 83.2473 75.7514 82.9698 76.3858 82.4572C78.408 80.8865 79.7902 76.9912 80.4852 70.9363L80.0926 70.8891C79.4172 76.7517 78.0507 80.643 76.1423 82.1391C75.5096 82.6609 74.6978 82.9146 73.8805 82.8459C73.0402 77.0658 74.5284 72.9192 75.8439 69.2635C76.209 68.2465 76.5546 67.3001 76.8452 66.3185L76.4525 66.2046C76.1659 67.1627 75.8203 68.113 75.4591 69.126C74.1122 72.8603 72.5886 77.0972 73.4957 83.0619C74.0454 86.6941 76.1855 93.0632 78.2588 99.2241C80.4342 105.703 82.6802 112.398 82.8295 115.276C82.8593 116.139 82.833 117.002 82.7509 117.86C82.4806 120.972 82.6391 124.106 83.2221 127.174C84.0624 132.185 85.9944 141.628 86.98 146.376L87.4001 146.415Z" fill="#030C23"/>
<path d="M85.3739 146.443C85.3739 146.443 87.0506 147.267 90.5021 146.871C93.9537 146.474 94.5938 145.386 94.5938 145.386V140.337C94.5938 140.337 93.3411 141.515 89.7796 141.907C86.0493 142.3 84.3215 141.597 84.3215 141.597L85.3739 146.443Z" fill="#4B4E58"/>
<path d="M63.2471 128.784C63.2471 128.784 63.3649 131.14 66.196 133.167C69.0272 135.193 70.5154 134.325 70.5154 134.325L73.7156 130.398C73.7156 130.398 71.395 131.093 68.4892 129.004C65.4382 126.813 65.3479 124.1 65.3479 124.1L63.2471 128.784Z" fill="#4B4E58"/>
<path d="M90.2432 39.7313C95.0808 39.3975 96.7065 40.2417 98.6856 43.2182C100.712 46.2731 104.242 51.3582 107.293 56.0427L116.646 52.9603L119.874 58.5283C119.874 58.5283 109.213 64.0611 106.739 64.4773C104.265 64.8935 103.802 64.2338 102.027 62.3961C100.064 60.3582 93.4473 52.3556 93.4473 52.3556L90.2432 39.7313Z" fill="#FFC4C3"/>
<path d="M126.714 43.2142L126.117 42.6566C126.028 42.5915 125.924 42.5489 125.815 42.5325C125.705 42.5161 125.594 42.5263 125.489 42.5623L118.739 44.1095C118.396 44.2068 118.078 44.3773 117.807 44.6091C117.536 44.8409 117.318 45.1285 117.168 45.4524L111.812 59.1173C111.75 59.2279 111.722 59.3549 111.732 59.4817C111.743 59.6085 111.791 59.7292 111.871 59.828L112.484 60.4013C112.574 60.4684 112.679 60.5124 112.79 60.5295C112.901 60.5466 113.014 60.5363 113.12 60.4995L119.87 58.9524C120.214 58.8564 120.533 58.6865 120.804 58.4546C121.075 58.2226 121.293 57.9342 121.441 57.6094L126.797 43.9445C126.864 43.8303 126.892 43.6973 126.877 43.5656C126.862 43.4339 126.805 43.3106 126.714 43.2142Z" fill="#4B4E58"/>
<path d="M118.606 45.0363C118.25 45.2851 117.969 45.6257 117.793 46.0219L112.433 59.6829C112.374 59.7917 112.347 59.9146 112.354 60.0379C112.361 60.1612 112.402 60.2802 112.472 60.3818L111.895 59.8478C111.813 59.7499 111.763 59.6294 111.752 59.5023C111.741 59.3752 111.769 59.2478 111.832 59.1371L117.188 45.4682C117.354 45.0968 117.614 44.7749 117.942 44.5337L118.606 45.0363Z" fill="#030C23"/>
<path d="M112.437 59.6869L117.793 46.022C117.942 45.6981 118.16 45.4104 118.431 45.1786C118.702 44.9468 119.02 44.7764 119.364 44.679L126.098 43.1437C126.722 42.9984 127.04 43.3675 126.805 43.9644L121.445 57.6175C121.297 57.9422 121.079 58.2307 120.808 58.4626C120.537 58.6946 120.218 58.8645 119.874 58.9604L113.124 60.5075C112.519 60.6528 112.201 60.2837 112.437 59.6869Z" fill="#37474F"/>
<path d="M117.687 48.9276L118.688 46.3713C118.715 46.3106 118.755 46.2567 118.805 46.2132C118.856 46.1698 118.915 46.138 118.979 46.12L120.243 45.8294C120.361 45.8019 120.42 45.8726 120.373 45.9826L119.371 48.5389C119.345 48.5998 119.305 48.6541 119.255 48.6976C119.205 48.7411 119.145 48.7727 119.081 48.7902L117.817 49.0807C117.703 49.1082 117.64 49.0336 117.687 48.9276Z" fill="#4B4E58"/>
<path d="M118.724 46.9918C118.797 46.8424 118.901 46.7103 119.029 46.604C119.156 46.4978 119.305 46.4198 119.466 46.3753C119.768 46.3046 119.925 46.4695 119.819 46.7404C119.746 46.8905 119.643 47.0234 119.515 47.1303C119.387 47.2373 119.237 47.3159 119.077 47.3609C118.775 47.4276 118.617 47.2627 118.724 46.9918Z" fill="#030C23"/>
<path d="M118.237 48.2837C118.307 48.1335 118.41 48.0005 118.538 47.894C118.665 47.7876 118.814 47.7102 118.975 47.6672C119.277 47.5966 119.438 47.7615 119.328 48.0324C119.257 48.1827 119.155 48.3157 119.027 48.4221C118.9 48.5286 118.75 48.606 118.59 48.6489C118.303 48.7196 118.127 48.5547 118.237 48.2837Z" fill="#030C23"/>
<path d="M91.7314 39.217C93.4435 39.433 95.4343 39.4448 97.6215 41.4827C99.2982 43.0338 102.023 47.2236 103.637 49.5325C102.534 54.2681 97.3937 58.1712 95.3047 58.7131L93.1254 55.5089L91.7314 39.217Z" fill="#F0F0F0"/>
<path d="M125.371 51.4762C126.125 50.632 126.078 50.5024 125.764 49.9998C125.537 49.5984 125.218 49.2567 124.833 49.0027C124.448 48.7488 124.008 48.5898 123.549 48.539C122.741 48.4762 121.932 48.3702 121.492 48.539C121.052 48.7079 121.311 49.6189 122.332 49.9723C123.946 50.522 123.903 50.9697 123.903 50.9697C123.216 50.7308 122.518 50.5276 121.81 50.361C121.201 50.2629 120.055 50.4317 119.344 50.4631C118.633 50.4945 118.402 51.382 119.548 51.8217L118.248 51.8846C117.341 51.9278 116.984 52.3715 117.624 53.0037C117.834 53.2189 118.111 53.3572 118.409 53.3964C118.409 53.3964 117.455 53.2903 117.404 53.6045C117.247 54.5076 117.797 54.81 119.674 55.5678C121.449 56.3021 121.72 57.3309 121.28 57.9749C121.28 57.9749 122.065 57.6254 122.772 57.2406C123.29 56.9618 123.742 56.6319 123.604 55.8545C123.604 55.8545 124.653 55.9919 124.782 55.3479C124.851 54.8736 124.816 54.39 124.68 53.9304C124.88 53.8457 125.052 53.7059 125.176 53.5272C125.3 53.3485 125.37 53.1384 125.379 52.9212C125.426 52.5107 125.335 52.0962 125.12 51.7432L125.371 51.4762Z" fill="#FFC4C3"/>
<path d="M119.529 51.8216C119.92 51.7821 120.315 51.7821 120.707 51.8216C121.091 51.9223 121.457 52.084 121.79 52.3007C122.461 52.6801 123.098 53.1163 123.695 53.6044C122.977 53.3261 122.283 52.9886 121.621 52.5952C121.311 52.3944 120.984 52.221 120.644 52.0769C120.298 51.9826 119.898 51.9316 119.529 51.8216Z" fill="#F28F8F"/>
<path d="M118.382 53.396C118.802 53.3244 119.234 53.3581 119.638 53.4942C120.038 53.6268 120.425 53.7963 120.793 54.0008C121.526 54.397 122.216 54.8695 122.85 55.4104C122.092 55.0787 121.352 54.7078 120.632 54.2992C119.945 53.8607 119.182 53.5544 118.382 53.396Z" fill="#F28F8F"/>
<path d="M87.9226 38.8794C87.9226 38.8794 76.8651 39.2721 74.6936 39.6647C73.3978 39.9043 71.3795 41.8362 71.2656 49.3558C71.1949 54.0364 70.335 68.5298 70.335 68.5298C76.4488 73.7955 96.7459 71.8911 99.4828 68.6476C99.4828 68.6476 99.2197 61.128 99.1451 57.704C99.1451 57.704 100.382 55.0731 100.358 52.9252C100.319 49.7838 99.7341 48.6058 97.0718 44.9344C95.5354 42.8147 93.7416 40.8943 91.7315 39.2171L87.9226 38.8794Z" fill="#FAFAFA"/>
<path d="M98.7366 47.345C97.8021 47.2154 95.5678 47.0505 91.0835 47.455C87.7178 47.7405 84.3718 48.223 81.0626 48.9C80.6032 51.8568 81.0076 55.811 81.6516 58.1827C81.6516 58.1827 85.7196 57.0047 92.3872 56.4157C94.8094 56.2172 97.2434 56.2067 99.6672 56.3843C100.086 55.2768 100.319 54.1081 100.358 52.9249C100.331 50.5806 99.9971 49.3398 98.7366 47.345Z" fill="url(#paint0_linear_10812_13792)"/>
<path d="M87.2039 52.0336C87.0689 52.072 86.9245 52.0591 86.7984 51.9975C86.6723 51.9359 86.5734 51.8299 86.5206 51.6998C86.5206 51.6252 86.5206 51.3072 86.6463 51.2758C86.6397 51.2935 86.6397 51.313 86.6463 51.3307C86.6463 51.3739 86.7288 51.3739 86.8112 51.3582C87.2314 51.264 88.3191 49.815 88.2562 49.4145C88.2562 49.332 88.1777 49.2928 88.0521 49.3163C87.4277 49.442 86.2379 50.3726 85.4055 51.4957C84.5102 52.6972 83.8348 54.3543 83.9958 55.4223C83.9993 55.517 84.0254 55.6094 84.0719 55.6918C84.1185 55.7743 84.1841 55.8444 84.2633 55.8963C84.3425 55.9482 84.433 55.9804 84.5272 55.9902C84.6214 55.9999 84.7165 55.987 84.8047 55.9524C86.0926 55.6305 87.9225 53.2038 87.9225 53.031C87.9225 53.0035 87.9225 52.9878 87.9617 52.9839C88.001 52.9799 88.0952 53.0349 88.1149 53.1566C88.1428 53.3859 88.1507 53.6171 88.1384 53.8477C88.1384 54.2404 86.8662 56.2705 84.7968 56.7849C84.6054 56.8214 84.4086 56.819 84.2181 56.7777C84.0277 56.7364 83.8475 56.6571 83.6884 56.5446C83.5293 56.432 83.3945 56.2885 83.2921 56.1227C83.1898 55.9569 83.1219 55.7721 83.0926 55.5794C82.6803 53.0781 85.4801 48.9943 88.0913 48.476C88.4604 48.4014 89.1751 48.5388 89.2693 49.0807C89.4068 50.0231 87.8871 51.8883 87.2039 52.0336Z" fill="#FAFAFA"/>
<path d="M93.0861 54.0087C93.1037 54.0836 93.1037 54.1615 93.0861 54.2364C92.9919 54.527 92.344 55.4733 91.6607 55.5754C91.5686 55.5973 91.473 55.6005 91.3796 55.5848C91.2862 55.569 91.197 55.5347 91.1171 55.4838C91.0373 55.4328 90.9685 55.3664 90.9148 55.2884C90.8611 55.2104 90.8237 55.1224 90.8047 55.0296C90.7482 54.7156 90.7739 54.3923 90.8793 54.0911C90.4866 54.8018 89.7916 55.9092 89.1358 56.0309C89.0503 56.046 88.9626 56.0435 88.878 56.0238C88.7933 56.0041 88.7136 55.9674 88.6435 55.9161C88.5735 55.8647 88.5145 55.7997 88.4702 55.725C88.426 55.6502 88.3972 55.5673 88.3858 55.4812C88.268 54.7469 88.806 53.4628 88.9748 53.0034C89.3283 52.0453 89.4578 51.6369 89.7366 51.5859C89.822 51.5873 89.9051 51.6142 89.975 51.6632C90.045 51.7122 90.0987 51.781 90.1293 51.8608C90.1568 52.0375 89.1516 54.472 89.2262 54.9157C89.2262 54.9668 89.2536 54.9903 89.2929 54.9825C89.6581 54.9157 91.1581 52.493 91.2563 52.1278C91.3367 51.8352 91.4697 51.5598 91.6489 51.3149C91.8087 51.1952 91.9943 51.1145 92.1908 51.0793H92.2772C92.3282 51.0793 92.4186 51.2286 92.4303 51.2796C92.128 52.1945 91.9395 52.5793 91.857 52.8503C91.7549 53.1919 91.4644 54.1579 91.5194 54.5741C91.5194 54.7076 91.5979 54.7861 91.7157 54.7665C92.1398 54.6409 92.6659 53.7181 92.7445 53.6199C92.772 53.5886 92.8094 53.5678 92.8505 53.561C92.8779 53.5572 92.9057 53.5634 92.9289 53.5786C92.952 53.5937 92.9688 53.6168 92.9762 53.6435C93.0154 53.7181 93.0625 53.8712 93.0861 54.0087Z" fill="#FAFAFA"/>
<path d="M94.0285 50.2943C94.0285 50.2943 93.2667 50.4788 93.1528 50.4946H93.1096C92.9643 50.5142 92.6737 50.4946 92.6423 50.2982C92.6423 50.2236 92.7484 50.1333 92.7641 50.0234C92.7798 49.9134 93.1764 49.5757 93.3413 49.5404C93.5062 49.505 93.7811 49.4658 94.001 49.4304C94.48 49.3519 94.2523 49.505 94.4604 49.3558C94.6685 49.2066 94.7942 48.6412 95.0062 48.3231C95.0573 48.2367 95.0612 48.2131 95.1711 48.2014C95.2811 48.1896 95.3243 48.1542 95.4067 48.1464C95.4892 48.1385 95.5442 48.1857 95.6266 48.1817C95.7091 48.1778 95.7562 48.2524 95.768 48.3113C95.6564 48.6281 95.5253 48.9376 95.3753 49.238C95.4381 49.238 95.768 49.1713 95.8779 49.1595C95.9719 49.1498 96.0667 49.1498 96.1606 49.1595C96.2942 49.2027 96.3531 49.3401 96.4787 49.4147C96.5075 49.427 96.5328 49.4464 96.552 49.4712C96.5712 49.4959 96.5838 49.5251 96.5887 49.5561C96.6201 49.7642 96.3805 49.8702 96.2274 49.8977C95.7641 49.9841 95.4028 50.0705 94.9355 50.1451C94.6567 50.7576 93.5612 53.5377 93.573 54.0718C93.5683 54.1384 93.5683 54.2054 93.573 54.272C93.6044 54.4762 93.7025 54.5155 93.8635 54.4959C94.3583 54.437 95.0847 53.3178 95.2143 53.3178C95.3439 53.3178 95.4067 53.6791 95.4224 53.7733C95.4381 53.8594 95.432 53.9479 95.4045 54.0309C95.3771 54.114 95.3292 54.1888 95.2654 54.2485C94.9669 54.5822 94.4172 55.2576 93.8282 55.3283H93.6829C93.5602 55.3341 93.4375 55.3151 93.3222 55.2725C93.207 55.2299 93.1015 55.1645 93.0121 55.0802C92.9227 54.9959 92.8511 54.8944 92.8018 54.7819C92.7524 54.6694 92.7262 54.548 92.7248 54.4252C92.6266 53.5927 93.6829 51.0639 94.0285 50.2943Z" fill="#FAFAFA"/>
<path d="M97.3505 51.7077C97.1895 51.7077 97.1542 51.6371 97.1306 51.4879C97.1247 51.4422 97.1247 51.396 97.1306 51.3504C96.9922 51.4156 96.8606 51.4945 96.738 51.586C96.5887 51.692 95.9526 52.2182 95.988 52.4106C95.988 52.4499 96.0744 52.442 96.094 52.442C96.3728 52.4185 96.577 52.2261 96.8361 52.2064C96.8714 52.2025 96.9069 52.2025 96.9422 52.2064C97.0663 52.2846 97.1625 52.4001 97.217 52.5363C97.217 52.6227 97.1306 52.7208 97.0757 52.7797C96.9461 52.9172 96.7733 52.9407 96.628 53.0428C96.4827 53.1449 95.6424 53.7418 95.6817 53.9735C95.7406 54.3386 96.1568 54.3426 96.4278 54.319C97.1778 54.2601 97.7746 53.4983 98.1869 53.1096C98.2175 53.0803 98.2555 53.0599 98.2969 53.0507C98.4304 53.0507 98.4814 53.3609 98.4971 53.4433C98.5127 53.5369 98.5127 53.6325 98.4971 53.7261C98.4643 53.8256 98.4061 53.9149 98.3283 53.9852C97.8262 54.5492 97.1428 54.92 96.3963 55.0337C95.7877 55.0808 94.9552 54.9708 94.8257 54.2091C94.7314 53.6358 95.1791 53.2549 95.6306 53.031C95.3283 52.925 95.2694 52.7287 95.238 52.4538C95.073 51.4329 96.6594 50.5415 97.5312 50.4905C97.7118 50.4905 98.0613 50.5494 98.1005 50.7732C98.1158 50.8843 98.1083 50.9974 98.0785 51.1055C98.0486 51.2136 97.997 51.3145 97.9268 51.402C97.8566 51.4895 97.7693 51.5617 97.6702 51.6143C97.5711 51.6668 97.4623 51.6987 97.3505 51.7077Z" fill="#FAFAFA"/>
<path d="M71.2655 49.3557C71.2655 50.9539 71.2223 52.556 71.1752 54.1541C71.128 55.7523 71.0613 57.3544 70.9945 58.9525L70.7903 63.747L70.5312 68.5415L70.4644 68.3884C71.4407 69.1605 72.5452 69.7546 73.7275 70.1436C74.9146 70.5476 76.1318 70.8574 77.3675 71.0703C79.852 71.4845 82.3687 71.6738 84.8872 71.6358C87.411 71.6249 89.9307 71.4306 92.4264 71.0546C93.6738 70.8659 94.9089 70.6036 96.1254 70.2693C96.4316 70.1868 96.7301 70.0808 97.0285 69.9905C97.3269 69.9002 97.6254 69.7824 97.9081 69.6449C98.4954 69.42 99.0301 69.0765 99.4788 68.6358C99.0368 69.1 98.5014 69.4653 97.9081 69.7078C97.6254 69.857 97.323 69.9551 97.0324 70.0808C96.7418 70.2064 96.4356 70.3007 96.1332 70.391C94.9193 70.7632 93.6824 71.0557 92.4303 71.2667C89.9284 71.6934 87.3974 71.9283 84.8597 71.9695C82.319 72.0232 79.7787 71.8484 77.2694 71.4473C76.0083 71.2418 74.7679 70.9251 73.5626 70.5009C72.3404 70.089 71.2001 69.4657 70.1935 68.6593L70.1228 68.6004V68.5062L70.7118 58.9251C70.916 55.7444 71.1359 52.5677 71.2655 49.3557Z" fill="#9B9B9B"/>
<path d="M96.7065 15.3896C93.0311 10.8425 88.0953 9.85295 83.4932 10.9289C80.7681 11.565 77.9291 13.1749 77.1359 16.0336C74.8663 16.0336 73.3388 18.4406 73.0678 22.7914C72.7969 27.1422 72.7301 34.2652 73.7472 35.7927C74.7642 37.3202 75.6123 37.6579 76.2917 37.8974C75.632 37.2338 75.0155 35.5414 75.0155 35.5414C75.0155 35.5414 75.7341 36.8254 77.7288 37.8071C79.4055 38.6317 80.8702 38.9851 83.4539 39.0715C86.5953 39.1775 89.662 38.7338 91.1228 38.0898C90.7476 37.9297 90.4078 37.6971 90.1227 37.4053C89.8377 37.1135 89.6131 36.7683 89.4618 36.3895C89.4618 36.3895 90.8518 38.1565 93.7811 37.2416C92.4932 36.9668 91.7628 35.4118 91.7353 32.7613C91.7353 31.9406 91.7353 30.0126 91.7353 27.739C93.306 27.0204 94.9788 26.7102 95.9173 24.9197C96.5719 23.5774 96.7238 22.0449 96.3453 20.6003C96.6934 20.8864 96.9739 21.2461 97.1667 21.6534C97.3595 22.0607 97.4599 22.5057 97.4605 22.9563C98.768 20.6396 98.4068 17.4825 96.7065 15.3896Z" fill="#37474F"/>
<path d="M93.7771 37.2731C92.87 37.0807 92.2417 36.2521 91.9394 34.8581C91.2373 34.5401 90.5841 34.1236 89.9996 33.6212C90.1356 34.2745 90.37 34.9034 90.6946 35.4864C89.9921 35.2179 89.3471 34.8181 88.7941 34.3084C88.9237 34.4262 88.959 34.9563 89.0101 35.1291C89.0611 35.3019 89.1711 35.5218 89.1082 35.6788C88.0911 35.1307 87.1124 34.5141 86.1789 33.8333C86.2295 34.531 86.5243 35.1886 87.0114 35.6906C86.0448 35.2891 85.1234 34.7863 84.2627 34.1906C84.4509 34.9697 84.8225 35.6927 85.3465 36.2992C84.1992 35.8783 83.1287 35.2721 82.1776 34.5047C82.4792 35.183 82.8282 35.839 83.2221 36.4681C82.4691 36.1964 81.7539 35.8295 81.0939 35.3765C81.2509 35.7691 81.4119 36.1618 81.5729 36.5545C80.0908 35.9912 78.8725 34.8947 78.1567 33.4799C78.1396 34.4238 78.323 35.3607 78.6947 36.2286C77.187 35.5285 75.9343 34.3773 75.1096 32.9341C74.9823 33.4645 75.0013 34.0196 75.1646 34.5401C74.3574 33.8852 73.8023 32.9707 73.5939 31.9524C73.4849 32.6461 73.5373 33.3556 73.747 34.0257C73.4284 33.6243 73.1922 33.1639 73.052 32.671C73.1816 34.1356 73.4015 35.2822 73.7431 35.8123C74.7601 37.3398 75.6083 37.6775 76.2876 37.917C75.6279 37.2534 75.0114 35.561 75.0114 35.561C75.0114 35.561 75.73 36.8451 77.7248 37.8267C79.4015 38.6513 80.8661 39.0047 83.4499 39.0911C86.5912 39.1971 89.658 38.7534 91.1187 38.1094C90.7436 37.9493 90.4037 37.7167 90.1187 37.4249C89.8336 37.1332 89.609 36.788 89.4577 36.4092C89.4577 36.4092 90.8596 38.188 93.7771 37.2731Z" fill="url(#paint1_linear_10812_13792)"/>
<path opacity="0.3" d="M93.7771 37.2731C92.87 37.0807 92.2417 36.2521 91.9394 34.8581C91.2373 34.5401 90.5841 34.1236 89.9996 33.6212C90.1356 34.2745 90.37 34.9034 90.6946 35.4864C89.9921 35.2179 89.3471 34.8181 88.7941 34.3084C88.9237 34.4262 88.959 34.9563 89.0101 35.1291C89.0611 35.3019 89.1711 35.5218 89.1082 35.6788C88.0911 35.1307 87.1124 34.5141 86.1789 33.8333C86.2295 34.531 86.5243 35.1886 87.0114 35.6906C86.0448 35.2891 85.1234 34.7863 84.2627 34.1906C84.4509 34.9697 84.8225 35.6927 85.3465 36.2992C84.1992 35.8783 83.1287 35.2721 82.1776 34.5047C82.4792 35.183 82.8282 35.839 83.2221 36.4681C82.4691 36.1964 81.7539 35.8295 81.0939 35.3765C81.2509 35.7691 81.4119 36.1618 81.5729 36.5545C80.0908 35.9912 78.8725 34.8947 78.1567 33.4799C78.1396 34.4238 78.323 35.3607 78.6947 36.2286C77.187 35.5285 75.9343 34.3773 75.1096 32.9341C74.9823 33.4645 75.0013 34.0196 75.1646 34.5401C74.3574 33.8852 73.8023 32.9707 73.5939 31.9524C73.4849 32.6461 73.5373 33.3556 73.747 34.0257C73.4284 33.6243 73.1922 33.1639 73.052 32.671C73.1816 34.1356 73.4015 35.2822 73.7431 35.8123C74.7601 37.3398 75.6083 37.6775 76.2876 37.917C75.6279 37.2534 75.0114 35.561 75.0114 35.561C75.0114 35.561 75.73 36.8451 77.7248 37.8267C79.4015 38.6513 80.8661 39.0047 83.4499 39.0911C86.5912 39.1971 89.658 38.7534 91.1187 38.1094C90.7436 37.9493 90.4037 37.7167 90.1187 37.4249C89.8336 37.1332 89.609 36.788 89.4577 36.4092C89.4577 36.4092 90.8596 38.188 93.7771 37.2731Z" fill="white"/>
<path d="M79.763 37.3596C79.763 36.4054 79.5824 31.6188 79.5824 31.6188C79.5431 31.9761 77.8153 32.9656 76.2486 31.1358C74.6818 29.3059 74.5523 27.3426 75.4633 26.0861C76.4803 24.696 78.7695 24.7549 79.7041 27.001C81.2001 27.3387 81.8638 25.0376 80.7015 22.874C80.7839 20.0861 83.6426 20.2117 85.0522 16.5913C88.6609 18.4526 91.9868 16.9329 94.2917 19.6306C94.7708 20.9814 95.1478 23.1018 95.187 26.8832C95.2459 33.052 94.0561 34.5284 92.3834 35.2941C91.386 35.7457 90.1609 35.8792 88.2564 35.7379L88.3585 37.3321C88.4017 38.1174 88.335 38.4708 89.1124 38.7261C89.6347 38.8949 90.6831 39.1187 90.6831 39.1187C90.6831 39.1187 92.9488 41.2313 88.0051 41.9381C80.6269 42.9905 76.5706 39.4447 76.5706 39.4447C76.5706 39.4447 77.0732 39.3583 78.3297 39.1227C79.5863 38.8871 79.763 38.3138 79.763 37.3596Z" fill="#FFC4C3"/>
<path d="M76.3192 26.4943C76.3192 26.539 76.3014 26.582 76.2698 26.6136C76.2381 26.6453 76.1952 26.6631 76.1504 26.6631C76.1056 26.6631 76.0627 26.6453 76.031 26.6136C75.9993 26.582 75.9815 26.539 75.9815 26.4943C75.9824 26.3662 75.9486 26.2403 75.8838 26.1299C75.819 26.0195 75.7255 25.9286 75.6134 25.8669C75.5012 25.8052 75.3744 25.7749 75.2464 25.7793C75.1185 25.7837 74.9941 25.8226 74.8864 25.8918C74.7787 25.9611 74.6917 26.0582 74.6346 26.1728C74.5775 26.2874 74.5525 26.4153 74.5621 26.543C74.5717 26.6707 74.6156 26.7934 74.6892 26.8982C74.7628 27.0029 74.8634 27.0859 74.9802 27.1382C74.9525 27.2494 74.9316 27.3622 74.9174 27.4759C74.7379 27.4106 74.5797 27.2972 74.4601 27.1482C74.3405 26.9992 74.2641 26.8202 74.2392 26.6308C74.2142 26.4413 74.2417 26.2487 74.3187 26.0738C74.3956 25.8989 74.5191 25.7485 74.6756 25.6389C74.8321 25.5293 75.0157 25.4647 75.2063 25.4522C75.397 25.4397 75.5874 25.4797 75.7569 25.5679C75.9264 25.6561 76.0684 25.7891 76.1676 25.9525C76.2667 26.1158 76.3192 26.3032 76.3192 26.4943Z" fill="#FAFAFA"/>
<path d="M75.9421 28.3872C75.9055 28.4116 75.8608 28.4208 75.8175 28.4127C75.7743 28.4046 75.7358 28.38 75.7105 28.344C75.6038 28.1898 75.4413 28.083 75.2574 28.0464C75.0735 28.0098 74.8825 28.0461 74.7249 28.1477C74.6476 28.1994 74.5814 28.2659 74.53 28.3434C74.4787 28.4209 74.4432 28.5078 74.4257 28.5992C74.4082 28.6905 74.4089 28.7843 74.4279 28.8753C74.4469 28.9663 74.4838 29.0527 74.5364 29.1293C74.6403 29.2848 74.801 29.3934 74.984 29.4317C75.0531 29.4415 75.1231 29.4415 75.1921 29.4317C75.2314 29.5377 75.2785 29.6437 75.3296 29.7498C75.2583 29.7729 75.1844 29.7874 75.1097 29.7929C75.0431 29.8005 74.976 29.8005 74.9094 29.7929C74.7742 29.7685 74.6454 29.717 74.5306 29.6414C74.4159 29.5658 74.3177 29.4678 74.2419 29.3532C74.087 29.1222 74.0298 28.8394 74.0828 28.5664C74.1357 28.2935 74.2946 28.0526 74.5246 27.8964C74.6331 27.8242 74.7544 27.7735 74.8819 27.7471C75.0878 27.7002 75.303 27.7167 75.4993 27.7945C75.6956 27.8723 75.8637 28.0077 75.9814 28.183C75.9986 28.2165 76.0041 28.2549 75.9969 28.2919C75.9898 28.3289 75.9705 28.3624 75.9421 28.3872Z" fill="#FAFAFA"/>
<path d="M77.4383 30.5116C77.4454 30.6594 77.496 30.8018 77.5838 30.9209C77.6716 31.04 77.7926 31.1304 77.9317 31.1809C78.0708 31.2313 78.2217 31.2395 78.3654 31.2044C78.5091 31.1693 78.6392 31.0925 78.7394 30.9836C78.8396 30.8747 78.9053 30.7387 78.9283 30.5925C78.9513 30.4464 78.9306 30.2967 78.8688 30.1623C78.8069 30.0279 78.7067 29.9148 78.5807 29.8372C78.4548 29.7596 78.3087 29.721 78.1608 29.7263C78.0615 29.7293 77.9637 29.7521 77.8733 29.7934C77.7828 29.8348 77.7016 29.8937 77.6343 29.9669C77.567 30.0401 77.515 30.1259 77.4813 30.2195C77.4477 30.313 77.433 30.4124 77.4383 30.5116Z" fill="url(#paint2_linear_10812_13792)"/>
<path d="M86.34 29.9968L89.0141 30.8254C88.968 31.0048 88.8861 31.173 88.7733 31.32C88.6605 31.467 88.5192 31.5896 88.3578 31.6806C88.1964 31.7715 88.0183 31.8289 87.8342 31.8493C87.6501 31.8697 87.4637 31.8526 87.2864 31.7992C86.9257 31.6801 86.6254 31.4255 86.4489 31.0893C86.2723 30.753 86.2333 30.3613 86.34 29.9968Z" fill="#B16668"/>
<path d="M86.4971 30.614C86.8551 30.5968 87.2079 30.7051 87.4946 30.9201C87.7814 31.1352 87.9841 31.4435 88.0678 31.7921C87.8118 31.8703 87.5384 31.8703 87.2824 31.7921C87.025 31.7078 86.7966 31.5525 86.6237 31.3441C86.4507 31.1357 86.3401 30.8826 86.3047 30.614C86.3688 30.6104 86.433 30.6104 86.4971 30.614Z" fill="#F28F8F"/>
<path d="M94.0639 21.9158L91.9199 21.6999C91.9266 21.5595 91.9619 21.422 92.0236 21.2958C92.0853 21.1696 92.1721 21.0573 92.2787 20.9657C92.3853 20.8742 92.5095 20.8054 92.6436 20.7635C92.7777 20.7216 92.9189 20.7075 93.0587 20.7221C93.3471 20.7548 93.6121 20.8967 93.799 21.1188C93.986 21.3408 94.0808 21.6261 94.0639 21.9158Z" fill="#37474F"/>
<path d="M83.9134 22.1317L86.0495 21.6919C86.028 21.5514 85.9781 21.4168 85.9027 21.2962C85.8274 21.1757 85.7282 21.0718 85.6113 20.9909C85.4944 20.9101 85.3622 20.8539 85.2229 20.8259C85.0835 20.7979 84.9399 20.7986 84.8008 20.828C84.5147 20.8914 84.2635 21.0616 84.0986 21.3039C83.9337 21.5462 83.8675 21.8423 83.9134 22.1317Z" fill="#37474F"/>
<path d="M91.6648 24.6294C91.6515 24.8683 91.7311 25.103 91.887 25.2846C92.0429 25.4661 92.263 25.5802 92.5011 25.6032C92.6156 25.6157 92.7314 25.6051 92.8417 25.5722C92.952 25.5392 93.0547 25.4846 93.1436 25.4114C93.2325 25.3382 93.3058 25.248 93.3594 25.1461C93.4129 25.0442 93.4455 24.9326 93.4553 24.8179C93.4697 24.5793 93.3909 24.3446 93.2356 24.1629C93.0804 23.9813 92.8607 23.867 92.6229 23.844C92.5083 23.8321 92.3925 23.843 92.2821 23.8761C92.1718 23.9092 92.0691 23.9639 91.98 24.0369C91.8909 24.1099 91.8172 24.1999 91.7631 24.3016C91.709 24.4033 91.6756 24.5147 91.6648 24.6294Z" fill="#030C23"/>
<path d="M85.1621 24.8453C85.1477 25.0839 85.2265 25.3186 85.3818 25.5003C85.537 25.6819 85.7567 25.7962 85.9945 25.8192C86.1091 25.8311 86.2249 25.8202 86.3352 25.7871C86.4456 25.754 86.5483 25.6993 86.6374 25.6263C86.7264 25.5533 86.8002 25.4633 86.8543 25.3616C86.9084 25.2599 86.9418 25.1485 86.9526 25.0338C86.97 24.7904 86.8907 24.55 86.7319 24.3648C86.5731 24.1795 86.3476 24.0644 86.1045 24.0443C85.9897 24.0335 85.874 24.0459 85.764 24.0805C85.6541 24.1152 85.5522 24.1715 85.4644 24.2462C85.3766 24.3208 85.3046 24.4123 85.2527 24.5152C85.2008 24.6181 85.1699 24.7303 85.1621 24.8453Z" fill="#030C23"/>
<path d="M82.5704 22.7246L77.3047 25.1749C77.8874 25.1891 78.4453 25.4137 78.8754 25.8071L82.7432 23.9419L82.5704 22.7246Z" fill="url(#paint3_linear_10812_13792)"/>
<path opacity="0.1" d="M82.5704 22.7246L77.3047 25.1749C77.8874 25.1891 78.4453 25.4137 78.8754 25.8071L82.7432 23.9419L82.5704 22.7246Z" fill="black"/>
<path d="M96.4435 22.3631C95.1045 22.21 93.3022 22.1668 92.1792 22.5202C90.9383 22.9129 90.4907 23.3644 89.8231 23.3802C89.1556 23.3959 88.6451 22.9875 87.3258 22.5948C86.2773 22.3121 84.526 22.3828 83.187 22.5477C82.7276 22.5477 82.3075 22.7008 82.2917 23.3095C82.3428 23.8867 82.7158 23.9731 82.8061 24.4404C83.0182 26.0464 83.3088 28.0961 85.4095 28.1825C89.7289 28.4142 88.3546 24.2087 89.9449 24.4129C90.5182 24.5385 90.4318 25.6459 90.7813 26.4351C90.9146 26.7469 91.0961 27.0358 91.3192 27.2911C92.7289 28.7754 95.4108 27.9351 95.8231 26.4508C96.1805 25.7126 96.1216 24.5307 96.4985 23.8946C96.8166 23.6158 97.0993 22.5241 96.4435 22.3631ZM88.225 25.693C88.1231 26.1309 87.9124 26.5361 87.6124 26.871C87.3803 27.1067 87.1014 27.2914 86.7937 27.4131C86.4861 27.5348 86.1564 27.5909 85.8258 27.5778C84.8912 27.5778 83.9567 27.1458 83.7132 26.2388C83.6818 26.1563 83.6543 26.0739 83.6268 25.9914C83.4423 25.3199 83.1949 23.8946 83.5561 23.4822C84.208 22.7911 87.314 22.8304 88.225 23.8749C88.4606 24.2519 88.382 25.0294 88.225 25.693ZM95.6111 25.3003C95.509 25.7676 95.2773 26.7728 94.382 27.2283C93.204 27.8291 91.5548 27.2283 91.3074 26.0778C90.6006 23.6707 91.5391 23.1092 93.9383 22.8618C95.9213 22.8579 96.0195 23.3684 95.6111 25.3042V25.3003Z" fill="url(#paint4_linear_10812_13792)"/>
<path d="M95.6111 25.3045C95.509 25.7718 95.2774 26.777 94.3821 27.2325C93.2041 27.8333 91.5549 27.2325 91.3075 26.082C90.6007 23.675 91.5392 23.1134 93.9384 22.8661C95.9213 22.8582 96.0195 23.3687 95.6111 25.3045Z" fill="#37474F"/>
<path d="M88.225 25.6932C88.1231 26.1311 87.9124 26.5363 87.6124 26.8712C87.3803 27.1069 87.1014 27.2916 86.7937 27.4133C86.4861 27.535 86.1564 27.5911 85.8258 27.578C84.8912 27.578 83.9567 27.1461 83.7132 26.239C83.6818 26.1566 83.6543 26.0741 83.6268 25.9916C83.4423 25.3202 83.1949 23.8948 83.5561 23.4825C84.208 22.7914 87.314 22.8307 88.225 23.8752C88.4606 24.2521 88.3821 25.0296 88.225 25.6932Z" fill="#37474F"/>
<path d="M86.0417 23.0664C84.9854 22.9682 83.9095 23.1253 83.5561 23.5023C83.2027 23.8792 83.4422 25.34 83.6268 26.0114C83.6268 26.0507 83.6543 26.0939 83.67 26.1332C83.9902 26.1135 84.3068 26.0541 84.6124 25.9565C84.8087 25.8936 85.0561 25.823 85.1975 25.9565C85.2465 26.0326 85.2726 26.1212 85.2726 26.2117C85.2726 26.3022 85.2465 26.3908 85.1975 26.4669C85.0016 26.7462 84.8986 27.08 84.903 27.4211C85.2036 27.525 85.5194 27.5781 85.8375 27.5782C86.1681 27.5913 86.4978 27.5352 86.8055 27.4135C87.1132 27.2918 87.392 27.1071 87.6242 26.8714C87.7236 26.7628 87.8118 26.6444 87.8873 26.518C87.5224 26.7009 87.1171 26.7887 86.7092 26.7732C86.5681 26.7856 86.4276 26.7435 86.3166 26.6554C86.2673 26.5854 86.2362 26.5043 86.2259 26.4194C86.2156 26.3344 86.2265 26.2482 86.2577 26.1685C86.3841 25.7361 86.5994 25.3349 86.8899 24.9905C86.9808 24.8905 87.0527 24.7747 87.1019 24.6489C87.1254 24.5856 87.1282 24.5165 87.1099 24.4516C87.0915 24.3866 87.053 24.3292 86.9998 24.2876C86.9448 24.2633 86.8853 24.2507 86.8251 24.2507C86.7649 24.2507 86.7054 24.2633 86.6503 24.2876C86.3609 24.3626 86.0824 24.4748 85.8218 24.6214C85.6569 24.7156 85.4291 24.8256 85.2878 24.7117C85.2481 24.6774 85.2168 24.6344 85.1963 24.5861C85.1759 24.5377 85.1669 24.4853 85.17 24.4329C85.1995 24.1628 85.32 23.9108 85.5116 23.7182C85.6569 23.5101 85.8454 23.2863 86.0417 23.0664Z" fill="#4B4E58"/>
<path d="M95.1358 26.2585C95.027 26.307 94.9093 26.3321 94.7902 26.3321C94.6712 26.3321 94.5534 26.307 94.4447 26.2585C94.3922 26.2358 94.3491 26.1955 94.323 26.1447C94.3091 26.0972 94.3091 26.0468 94.323 25.9994C94.3938 25.6635 94.527 25.3438 94.7156 25.057C94.807 24.9209 94.8447 24.7559 94.8217 24.5936C94.777 24.4897 94.7004 24.4029 94.6029 24.3456C94.5054 24.2884 94.3922 24.2639 94.2798 24.2755C94.0559 24.2755 93.836 24.3619 93.6122 24.3737C93.4923 24.3872 93.3717 24.355 93.2745 24.2834C93.2199 24.2356 93.1797 24.1736 93.1582 24.1043C93.1367 24.035 93.1348 23.961 93.1528 23.8907C93.1801 23.7573 93.2335 23.6305 93.3099 23.5177C93.4525 23.2894 93.6197 23.0774 93.8086 22.8855C91.7588 23.1172 90.8361 23.6159 91.162 25.4104C91.2259 25.4575 91.2943 25.4983 91.3662 25.5321C91.6872 25.6659 92.0435 25.6894 92.3793 25.5988C92.6676 25.4905 92.9708 25.4269 93.2785 25.4104C93.3901 25.4122 93.4973 25.454 93.5808 25.5282C93.6317 25.5888 93.6668 25.6609 93.6833 25.7383C93.6997 25.8156 93.6969 25.8959 93.6751 25.9719C93.6174 26.1945 93.5274 26.4075 93.408 26.6041C93.2923 26.8024 93.2276 27.0264 93.2196 27.2559C93.2217 27.3285 93.2364 27.4003 93.2628 27.4679C93.6548 27.4916 94.0462 27.4117 94.3976 27.2363C94.8377 26.999 95.1799 26.6137 95.3635 26.1486C95.2915 26.1928 95.2152 26.2296 95.1358 26.2585Z" fill="#4B4E58"/>
<path d="M92.4108 28.0887L89.5129 29.3139L89.2458 24.8021C89.2889 24.6998 89.3573 24.6101 89.4445 24.5414C89.5317 24.4727 89.635 24.4273 89.7445 24.4094L90.4867 25.4736L92.3008 27.9592L92.4108 28.0887Z" fill="#FFA8A7"/>
<path d="M88.2681 35.7498C84.8519 35.4317 81.5927 34.344 80.8074 32.793C80.8074 32.793 80.8074 34.4932 82.2013 35.2943C84.1647 36.4173 88.3584 36.9553 88.3584 36.9553L88.2681 35.7498Z" fill="#FFA8A7"/>
<path d="M62.4305 49.5128C61.1858 51.5547 62.4305 54.6175 65.0457 57.0206C67.7944 59.5534 72.5496 61.6306 73.4959 58.8151C74.4423 55.9997 71.8938 52.2497 70.3546 50.7929C68.8153 49.3361 63.8598 47.1215 62.4305 49.5128Z" fill="#9B9B9B"/>
<path d="M74.6306 39.8257C72.899 40.1359 69.7576 40.2184 67.3191 44.0704C64.6765 48.2681 61.2681 55.3479 59.1281 60.9159C57.8401 64.2576 57.6163 66.0403 59.4422 68.1882C61.0482 70.073 67.8807 76.0887 69.9657 78.0049C71.3519 79.2889 73.2681 81.806 74.6778 82.7915C74.6778 82.7915 77.4932 82.1279 78.9186 77.0272C78.9186 77.0272 79.0246 76.2654 80.8505 76.8858C82.1149 77.3177 83.7209 77.4041 84.4788 76.6698C85.2366 75.9355 83.4578 75.5507 82.5508 74.9971C81.241 74.0847 79.7437 73.4769 78.1686 73.2183C75.9186 72.8492 75.2511 72.6646 73.0639 70.4696C70.8767 68.2746 68.1987 64.2733 68.1987 64.2733L73.9749 52.3126C76.06 47.9422 76.4998 43.7877 74.6306 39.8257Z" fill="#FFC4C3"/>
<path d="M68.2185 64.2689C66.7931 62.4233 63.7656 62.3055 63.7656 62.3055C64.607 62.1195 65.4794 62.1253 66.3182 62.3224C67.157 62.5195 67.9407 62.903 68.6112 63.4443L68.2185 64.2689Z" fill="#FFA8A7"/>
<path d="M74.6935 39.6648C73.06 39.8258 70.9396 40.1399 69.9383 40.9724C68.6935 41.9426 67.5573 43.0445 66.5495 44.259C64.3074 46.9056 62.4304 49.5129 62.4304 49.5129C62.4304 49.5129 65.0574 48.4881 68.3519 50.9972C71.5129 53.4082 73.1817 56.6438 73.4958 58.8153C74.6424 55.6189 75.6005 52.1674 76.1974 50.1766C76.7943 48.1857 77.2183 42.7237 74.6935 39.6648Z" fill="#F0F0F0"/>
<path d="M91.8256 7.68124C91.3662 8.04642 90.5927 8.6315 90.0429 8.30951C89.8176 8.14471 89.639 7.92414 89.5246 7.66946C89.3695 7.40448 89.2306 7.13043 89.1084 6.84878C88.6486 5.68867 88.3078 4.48485 88.0914 3.25586C88.056 3.07916 87.6673 3.01633 87.6123 3.25586C87.3924 4.20612 87.3924 5.17601 87.0311 6.11842C86.8783 6.54314 86.6358 6.92994 86.32 7.25248C86.0043 7.57502 85.6227 7.82573 85.2013 7.98752C84.1921 8.32129 83.4932 7.63019 82.9356 7.10009C82.2736 6.46988 81.692 5.76032 81.2039 4.98753C80.6974 4.17863 80.2498 3.53073 79.594 2.58832C79.5233 2.48623 79.2013 2.52549 79.2249 2.71005C79.4543 4.59171 79.4833 6.49241 79.3113 8.38019C79.3247 8.60445 79.2875 8.82884 79.2025 9.03682C79.1176 9.24479 78.987 9.43102 78.8204 9.58176C78.4643 9.83133 78.024 9.93012 77.5953 9.85663C77.1531 9.77376 76.7256 9.62554 76.327 9.41684C75.9534 9.24366 75.5925 9.04421 75.2471 8.81998C74.4951 8.33817 73.8311 7.73125 73.2838 7.02548C73.1778 6.89198 72.8047 6.93517 72.8911 7.15899C73.3198 8.34709 73.5455 9.59886 73.5587 10.8619C73.5893 11.1319 73.5613 11.4053 73.4766 11.6635C73.3919 11.9217 73.2524 12.1585 73.0678 12.3579C72.6131 12.7041 72.0406 12.8578 71.4736 12.7859C70.7306 12.7289 69.9952 12.5973 69.2786 12.3933C69.1215 12.3501 68.8231 12.5032 68.9605 12.6603C70.626 14.5768 72.1758 16.5909 73.6019 18.6917C73.6413 18.7321 73.6912 18.7608 73.7459 18.7747C73.8006 18.7885 73.8581 18.787 73.9121 18.7702C78.1843 17.3919 82.4566 15.9744 86.8034 14.9849C88.0285 14.7061 89.2537 14.4705 90.4827 14.227C90.6908 14.1878 90.5652 13.9325 90.4002 13.9522C88.1786 14.2738 85.9793 14.7341 83.8152 15.3304C81.6477 15.8959 79.4958 16.5477 77.3558 17.227C76.2301 17.583 75.1032 17.9456 73.9749 18.3147C72.6729 16.4431 71.2771 14.6384 69.793 12.9077C70.2813 13.0234 70.7773 13.1035 71.2773 13.1472C71.904 13.225 72.5397 13.1143 73.1032 12.8291C73.3587 12.6748 73.5732 12.4611 73.7284 12.2061C73.8836 11.9511 73.9749 11.6623 73.9945 11.3645C74.0429 10.6941 74.0099 10.0204 73.8964 9.35794C73.8241 8.88076 73.7218 8.40862 73.5901 7.94433C73.9708 8.32747 74.3862 8.67451 74.8309 8.98098C75.579 9.52231 76.4202 9.92161 77.3126 10.159C78.1293 10.3435 79.2563 10.1276 79.594 9.23228C79.7272 8.76638 79.792 8.28359 79.7864 7.79904C79.8257 7.27287 79.8453 6.75062 79.8532 6.22837C79.8641 5.24104 79.8195 4.25389 79.7196 3.27156C80.0338 3.88806 80.4461 4.5713 80.8309 5.17994C81.3544 6.00253 81.9842 6.75246 82.7039 7.4103C83.3361 7.9993 84.0979 8.61972 85.1935 8.35663C85.6383 8.22747 86.0525 8.01 86.4114 7.7172C86.7704 7.4244 87.0666 7.06227 87.2825 6.65245C87.6057 5.98718 87.8053 5.26869 87.8715 4.53203C88.084 5.52681 88.4136 6.49294 88.8531 7.4103C89.1162 7.93648 89.4304 8.58831 90.1411 8.73359C90.61 8.78723 91.0826 8.67013 91.4722 8.40375C91.0425 9.55034 90.7615 10.7473 90.6359 11.9653C90.5946 12.6112 90.5946 13.2591 90.6359 13.905C90.6633 14.0464 90.9343 14.0778 90.9029 13.905C90.9045 13.2721 90.9583 12.6404 91.0639 12.0163C91.2563 10.9993 91.7314 8.82783 92.1987 7.87757C92.3283 7.66553 91.9945 7.54381 91.8256 7.68124Z" fill="url(#paint5_linear_10812_13792)"/>
<path d="M68.8506 10.5277C68.6291 10.4093 68.3712 10.3784 68.1281 10.4413C67.9939 10.4686 67.8669 10.5234 67.755 10.6023C67.6761 10.6579 67.6136 10.7339 67.5744 10.8222C67.4076 11.0515 67.3108 11.3243 67.2956 11.6075C67.2881 11.7249 67.3057 11.8426 67.3473 11.9528C67.3889 12.0629 67.4534 12.1629 67.5366 12.2461C67.6198 12.3293 67.7198 12.3938 67.8299 12.4354C67.94 12.4769 68.0577 12.4946 68.1752 12.4871C68.4093 12.4606 68.6314 12.3694 68.8166 12.2237C69.0018 12.0781 69.1427 11.8837 69.2236 11.6625C69.3045 11.4596 69.3114 11.2348 69.2432 11.0273C69.175 10.8199 69.036 10.643 68.8506 10.5277ZM68.9448 11.4229C68.9056 11.5941 68.8233 11.7525 68.7058 11.883C68.5883 12.0136 68.4395 12.112 68.2734 12.169C68.1997 12.1968 68.1205 12.207 68.0422 12.1986C67.9639 12.1902 67.8887 12.1635 67.8226 12.1207C67.7565 12.0779 67.7014 12.0202 67.6617 11.9522C67.622 11.8842 67.5988 11.8078 67.5941 11.7292C67.5841 11.5719 67.6068 11.4143 67.6609 11.2663C67.715 11.1183 67.7992 10.9831 67.9082 10.8693C68.006 10.7978 68.1176 10.7476 68.236 10.7219C68.3543 10.6963 68.4767 10.6956 68.5954 10.7201C68.7315 10.7716 68.8432 10.8726 68.908 11.003C68.9728 11.1333 68.9859 11.2833 68.9448 11.4229Z" fill="url(#paint6_linear_10812_13792)"/>
<path d="M79.8219 0.118231C79.6004 -0.000151114 79.3426 -0.0309851 79.0994 0.0318435C78.9589 0.0580718 78.8252 0.112868 78.7068 0.192839C78.6288 0.247928 78.5666 0.322358 78.5261 0.408806C78.3597 0.638083 78.2641 0.911122 78.2513 1.19414C78.2426 1.31171 78.2592 1.42978 78.3001 1.54037C78.3409 1.65096 78.405 1.75151 78.4879 1.83524C78.5709 1.91897 78.6709 1.98394 78.7811 2.02575C78.8914 2.06757 79.0093 2.08527 79.1269 2.07765C79.361 2.05114 79.5831 1.95995 79.7683 1.8143C79.9535 1.66865 80.0944 1.47431 80.1753 1.25305C80.258 1.05236 80.2679 0.829098 80.2034 0.621871C80.1389 0.414645 80.0039 0.236492 79.8219 0.118231ZM79.9162 1.01352C79.8769 1.18471 79.7947 1.34307 79.6772 1.47362C79.5597 1.60416 79.4108 1.70259 79.2447 1.75959C79.171 1.78742 79.0919 1.79755 79.0136 1.78916C78.9353 1.78078 78.86 1.75411 78.7939 1.71132C78.7278 1.66853 78.6727 1.6108 78.633 1.54279C78.5933 1.47478 78.5702 1.3984 78.5654 1.3198C78.5562 1.16227 78.5796 1.00453 78.6344 0.856525C78.6891 0.708522 78.7739 0.573461 78.8835 0.459853C78.9811 0.388189 79.0928 0.337871 79.2112 0.312164C79.3296 0.286457 79.452 0.285938 79.5706 0.310639C79.7059 0.36287 79.8164 0.464426 79.8798 0.59485C79.9431 0.725274 79.9548 0.874874 79.9122 1.01352H79.9162Z" fill="url(#paint7_linear_10812_13792)"/>
<path d="M88.7983 0.860058C88.6983 0.812568 88.5906 0.783314 88.4803 0.773671C88.4713 0.770678 88.4617 0.770678 88.4528 0.773671C88.2258 0.753121 87.9982 0.805172 87.8027 0.92232C87.6072 1.03947 87.454 1.21566 87.3651 1.4255C87.3324 1.52106 87.3195 1.62226 87.3271 1.72296C87.3346 1.82367 87.3626 1.92178 87.4092 2.01136C87.4559 2.10095 87.5202 2.18013 87.5983 2.24412C87.6764 2.3081 87.7668 2.35556 87.8638 2.38362C88.0806 2.44388 88.3109 2.43463 88.5223 2.35714C88.7336 2.27966 88.9153 2.13785 89.0418 1.95168C89.1093 1.86804 89.1571 1.77025 89.1816 1.66559C89.2061 1.56092 89.2067 1.45208 89.1833 1.34717C89.1599 1.24225 89.1131 1.14397 89.0464 1.05963C88.9798 0.975291 88.895 0.907074 88.7983 0.860058ZM88.7983 1.72393C88.7188 1.8577 88.6025 1.96582 88.4632 2.03543C88.324 2.10504 88.1677 2.13321 88.013 2.1166C87.8886 2.0926 87.7786 2.02068 87.7067 1.91634C87.6709 1.86264 87.6478 1.80155 87.6389 1.73763C87.6301 1.67371 87.6358 1.60862 87.6557 1.54723C87.7198 1.36877 87.8431 1.2177 88.0051 1.11922C88.0601 1.09809 88.1165 1.08103 88.174 1.06817C88.3136 1.03676 88.4585 1.03676 88.5981 1.06817C88.6574 1.07814 88.7132 1.10326 88.7599 1.1411C88.8067 1.17893 88.8429 1.2282 88.8651 1.28414C88.89 1.35743 88.897 1.43564 88.8853 1.51218C88.8737 1.58872 88.8439 1.66134 88.7983 1.72393Z" fill="url(#paint8_linear_10812_13792)"/>
<path d="M72.7931 4.97937C72.6931 4.93106 72.5855 4.9005 72.475 4.88906C72.4647 4.88683 72.454 4.88683 72.4436 4.88906C72.2173 4.86937 71.9905 4.92183 71.7958 5.03893C71.6011 5.15602 71.4485 5.33173 71.3598 5.54089C71.3271 5.63619 71.314 5.73714 71.3213 5.83764C71.3286 5.93814 71.3563 6.03612 71.4025 6.12565C71.4487 6.21519 71.5126 6.29443 71.5903 6.3586C71.668 6.42277 71.7579 6.47053 71.8546 6.499C72.0715 6.55867 72.3016 6.54912 72.5128 6.47168C72.724 6.39424 72.9057 6.25279 73.0326 6.06707C73.1002 5.98403 73.1482 5.88678 73.173 5.78258C73.1978 5.67838 73.1987 5.56994 73.1757 5.46534C73.1526 5.36075 73.1062 5.26271 73.04 5.17856C72.9737 5.09441 72.8893 5.02631 72.7931 4.97937ZM72.7931 5.83932C72.7128 5.97242 72.5964 6.07999 72.4573 6.14951C72.3183 6.21902 72.1624 6.24763 72.0077 6.23199C71.8832 6.20585 71.7735 6.13272 71.7015 6.0278C71.6668 5.97436 71.6442 5.91396 71.6354 5.85087C71.6266 5.78778 71.6317 5.72352 71.6504 5.66262C71.714 5.48273 71.8392 5.33113 72.0038 5.23461C72.057 5.21225 72.1122 5.19515 72.1687 5.18356C72.3095 5.15031 72.456 5.15031 72.5967 5.18356C72.6564 5.19426 72.7122 5.2201 72.759 5.25861C72.8057 5.29711 72.8418 5.34699 72.8638 5.40345C72.8872 5.47653 72.8929 5.55411 72.8807 5.62986C72.8684 5.7056 72.8384 5.77737 72.7931 5.83932Z" fill="url(#paint9_linear_10812_13792)"/>
<path d="M93.2157 5.97684C93.0881 5.8203 92.9107 5.7122 92.713 5.67055H92.6856C92.4686 5.60853 92.2368 5.6238 92.0298 5.71375C92.016 5.72135 92.0041 5.73205 91.9952 5.745C91.9862 5.75795 91.9803 5.7728 91.978 5.78839C91.9758 5.80399 91.9771 5.8199 91.982 5.83488C91.9869 5.84986 91.9952 5.8635 92.0062 5.87474C91.9199 5.95808 91.8518 6.05834 91.806 6.16924C91.7354 6.33406 91.732 6.51993 91.7966 6.6872C91.8611 6.85446 91.9885 6.98987 92.1515 7.06453C92.312 7.14634 92.494 7.17593 92.6722 7.14918C92.8503 7.12242 93.0156 7.04066 93.145 6.91532C93.2662 6.79272 93.3399 6.631 93.3529 6.45907C93.3658 6.28714 93.3172 6.11621 93.2157 5.97684ZM92.9565 6.6483C92.882 6.75224 92.7737 6.82716 92.6502 6.86034C92.5476 6.89023 92.4387 6.89023 92.3361 6.86034C92.2854 6.84477 92.2376 6.82088 92.1947 6.78966L92.1633 6.75432L92.1397 6.73076V6.7072C92.1083 6.66335 92.0893 6.61178 92.0848 6.55799C92.073 6.49439 92.073 6.42918 92.0848 6.36558C92.1058 6.28812 92.1424 6.21578 92.1924 6.15298C92.2423 6.09018 92.3046 6.03826 92.3754 6.0004C92.426 5.97244 92.4801 5.95132 92.5363 5.93757H92.6699C92.7874 5.959 92.8963 6.01348 92.984 6.09464C93.0098 6.12618 93.0322 6.16041 93.0507 6.19673C93.0695 6.24421 93.0789 6.29489 93.0782 6.34595C93.0712 6.4572 93.0285 6.56323 92.9565 6.6483Z" fill="url(#paint10_linear_10812_13792)"/>
<path d="M87.7616 12.5148C86.7603 12.5018 85.7599 12.5819 84.7734 12.7543C83.8101 12.8878 82.848 13.058 81.8873 13.2648C79.9874 13.686 78.117 14.2303 76.2878 14.8944C75.7734 15.0789 75.2669 15.287 74.7604 15.4794C74.267 15.6682 73.7857 15.8872 73.3193 16.1352C73.1818 16.2137 73.3467 16.414 73.4724 16.3708C74.3755 16.0685 75.259 15.6758 76.1583 15.3499C77.0575 15.024 77.9606 14.7216 78.8716 14.4546C80.7548 13.8996 82.6691 13.4564 84.6046 13.1274C85.115 13.037 85.6255 12.9585 86.1399 12.8839C86.6543 12.8093 87.2315 12.7583 87.7695 12.6365C87.8009 12.6247 87.8127 12.5148 87.7616 12.5148Z" fill="url(#paint11_linear_10812_13792)"/>
<path d="M58.1897 47.1365C58.1666 47.1367 58.1443 47.1284 58.1269 47.1132C58.1095 47.098 58.0984 47.077 58.0955 47.0541L57.8638 44.4467C57.8543 44.3402 57.8079 44.2404 57.7326 44.1644C57.6573 44.0884 57.5579 44.0411 57.4515 44.0305L55.4096 43.8028C55.3867 43.7999 55.3657 43.7887 55.3505 43.7713C55.3353 43.7539 55.327 43.7316 55.3272 43.7085C55.3278 43.6857 55.3364 43.6637 55.3514 43.6465C55.3665 43.6293 55.387 43.6179 55.4096 43.6143L57.4515 43.3905C57.5576 43.3792 57.6567 43.3316 57.7318 43.2558C57.8069 43.1799 57.8535 43.0805 57.8638 42.9742L58.0955 40.3669C58.0983 40.3436 58.1093 40.3221 58.1266 40.3063C58.1439 40.2904 58.1663 40.2813 58.1897 40.2805C58.2134 40.2804 58.2363 40.2893 58.2537 40.3053C58.2712 40.3213 58.282 40.3433 58.284 40.3669L58.5196 42.9742C58.529 43.0776 58.5728 43.1747 58.644 43.2502C58.7152 43.3257 58.8096 43.3751 58.9122 43.3905L60.9541 43.6143C60.9771 43.6178 60.9982 43.6291 61.0139 43.6462C61.0296 43.6633 61.039 43.6853 61.0405 43.7085C61.0397 43.732 61.0306 43.7543 61.0147 43.7716C60.9989 43.7889 60.9774 43.8 60.9541 43.8028L58.9122 44.0305C58.8093 44.0452 58.7145 44.0944 58.6432 44.17C58.5719 44.2456 58.5283 44.3432 58.5196 44.4467L58.284 47.0541C58.2819 47.0773 58.271 47.0989 58.2534 47.1143C58.2359 47.1296 58.213 47.1376 58.1897 47.1365ZM56.2617 43.7085L57.4593 43.842C57.6083 43.8587 57.7468 43.9266 57.8514 44.034C57.9559 44.1414 58.02 44.2817 58.0326 44.431L58.174 46.0017L58.3154 44.431C58.3289 44.2814 58.3938 44.141 58.499 44.0336C58.6042 43.9263 58.7432 43.8586 58.8926 43.842L60.0706 43.7085L58.8926 43.5789C58.7435 43.5616 58.6049 43.4937 58.4998 43.3865C58.3947 43.2793 58.3296 43.1393 58.3154 42.9899L58.174 41.4193L58.0326 42.9899C58.0192 43.139 57.9549 43.2789 57.8505 43.3862C57.7461 43.4934 57.608 43.5615 57.4593 43.5789L56.2617 43.7085Z" fill="url(#paint12_linear_10812_13792)"/>
<g opacity="0.5">
<path d="M62.7291 41.9648C62.7054 41.9649 62.6825 41.956 62.6651 41.94C62.6476 41.924 62.6368 41.902 62.6348 41.8784L62.4778 40.1075C62.4718 40.0414 62.443 39.9795 62.3965 39.9322C62.35 39.885 62.2885 39.8553 62.2225 39.8483L60.8325 39.6952C60.8096 39.6923 60.7885 39.6811 60.7733 39.6637C60.7581 39.6464 60.7498 39.624 60.75 39.6009C60.7506 39.5781 60.7592 39.5562 60.7743 39.539C60.7893 39.5217 60.8099 39.5103 60.8325 39.5067L62.2225 39.3535C62.2879 39.3467 62.3489 39.3176 62.3954 39.2712C62.4418 39.2247 62.4709 39.1637 62.4778 39.0983L62.6348 37.3234C62.6376 37.3002 62.6487 37.2787 62.6659 37.2628C62.6832 37.247 62.7056 37.2378 62.7291 37.2371C62.7528 37.237 62.7756 37.2458 62.7931 37.2618C62.8105 37.2778 62.8213 37.2998 62.8233 37.3234L62.9843 39.0983C62.9903 39.1633 63.0186 39.2243 63.0644 39.2708C63.1102 39.3173 63.1707 39.3466 63.2356 39.3535L64.6257 39.5067C64.6482 39.5103 64.6688 39.5217 64.6839 39.539C64.6989 39.5562 64.7075 39.5781 64.7081 39.6009C64.7083 39.624 64.7 39.6464 64.6848 39.6637C64.6696 39.6811 64.6486 39.6923 64.6257 39.6952L63.2356 39.8483C63.1701 39.8554 63.1091 39.8852 63.0632 39.9326C63.0173 39.9799 62.9894 40.0418 62.9843 40.1075L62.8233 41.8784C62.8228 41.8903 62.82 41.9019 62.8149 41.9127C62.8099 41.9235 62.8028 41.9331 62.7941 41.9411C62.7853 41.9492 62.7751 41.9554 62.7639 41.9594C62.7528 41.9635 62.7409 41.9653 62.7291 41.9648ZM61.7003 39.6088L62.2461 39.6716C62.3536 39.6838 62.4537 39.7325 62.5295 39.8098C62.6053 39.887 62.6522 39.988 62.6623 40.0957L62.7291 40.83L62.7958 40.0957C62.8061 39.9874 62.8536 39.8859 62.9302 39.8086C63.0068 39.7313 63.1077 39.6829 63.216 39.6716L63.7579 39.6088L63.216 39.5499C63.1071 39.5384 63.0057 39.4895 62.929 39.4114C62.8523 39.3333 62.8052 39.2309 62.7958 39.1219L62.7291 38.3876L62.6623 39.1219C62.653 39.2303 62.6065 39.3322 62.5306 39.4102C62.4548 39.4882 62.3542 39.5376 62.2461 39.5499L61.7003 39.6088Z" fill="url(#paint13_linear_10812_13792)"/>
</g>
<path d="M66.259 24.6558C66.2395 24.6559 66.2206 24.6487 66.2061 24.6356C66.1916 24.6225 66.1824 24.6045 66.1805 24.5851L65.9841 22.4333C65.9736 22.347 65.9347 22.2666 65.8736 22.2048C65.8125 22.143 65.7326 22.1032 65.6464 22.0916L63.9619 21.9032C63.9435 21.9012 63.9265 21.8925 63.9142 21.8787C63.9018 21.8649 63.895 21.847 63.8951 21.8285C63.894 21.8094 63.9003 21.7905 63.9128 21.7759C63.9252 21.7613 63.9428 21.752 63.9619 21.75L65.6464 21.5458C65.7326 21.5343 65.8125 21.4945 65.8736 21.4327C65.9347 21.3708 65.9736 21.2905 65.9841 21.2042L66.1805 19.0524C66.1824 19.0329 66.1916 19.0149 66.2061 19.0018C66.2206 18.9888 66.2395 18.9816 66.259 18.9817C66.2781 18.9817 66.2965 18.989 66.3104 19.0021C66.3243 19.0153 66.3326 19.0333 66.3336 19.0524L66.53 21.2042C66.5403 21.2899 66.5786 21.3698 66.6389 21.4316C66.6993 21.4933 66.7783 21.5335 66.8637 21.5458L68.5483 21.7343C68.5674 21.7363 68.585 21.7456 68.5974 21.7602C68.6098 21.7748 68.6161 21.7937 68.615 21.8128C68.6151 21.8313 68.6084 21.8492 68.596 21.863C68.5837 21.8768 68.5667 21.8855 68.5483 21.8874L66.8637 22.0759C66.7776 22.0875 66.6977 22.1273 66.6365 22.1891C66.5754 22.2509 66.5366 22.3313 66.526 22.4175L66.3297 24.5694C66.3314 24.5798 66.3308 24.5904 66.3281 24.6006C66.3253 24.6108 66.3205 24.6203 66.3138 24.6285C66.3071 24.6366 66.2988 24.6433 66.2893 24.648C66.2799 24.6527 66.2696 24.6553 66.259 24.6558ZM64.6883 21.8285L65.6857 21.9385C65.8089 21.9525 65.9234 22.0086 66.01 22.0973C66.0966 22.186 66.1499 22.3019 66.1608 22.4254L66.2786 23.7173L66.3925 22.4254C66.4033 22.3025 66.456 22.1871 66.5418 22.0984C66.6276 22.0098 66.7413 21.9533 66.8637 21.9385L67.8533 21.8325L66.8637 21.7186C66.7406 21.7046 66.626 21.6485 66.5394 21.5598C66.4528 21.4711 66.3996 21.3552 66.3886 21.2317L66.2747 19.9398L66.1569 21.2317C66.1461 21.3546 66.0934 21.47 66.0076 21.5586C65.9218 21.6473 65.8082 21.7038 65.6857 21.7186L64.6883 21.8285Z" fill="url(#paint14_linear_10812_13792)"/>
<g opacity="0.5">
<path d="M62.3598 25.3785C62.3438 25.3785 62.3284 25.3724 62.3167 25.3615C62.305 25.3505 62.2979 25.3355 62.2969 25.3196L62.187 24.1416C62.1835 24.0976 62.1648 24.0561 62.1339 24.0246C62.103 23.993 62.0621 23.9733 62.0182 23.9688L61.0797 23.8628C61.063 23.8628 61.047 23.8562 61.0352 23.8444C61.0235 23.8326 61.0168 23.8166 61.0168 23.7999C61.0168 23.7833 61.0235 23.7673 61.0352 23.7555C61.047 23.7437 61.063 23.7371 61.0797 23.7371L62.0182 23.635C62.0618 23.6298 62.1024 23.6099 62.1331 23.5784C62.1638 23.547 62.1828 23.506 62.187 23.4622L62.2969 22.2842C62.2979 22.2683 62.305 22.2533 62.3167 22.2423C62.3284 22.2314 62.3438 22.2253 62.3598 22.2253C62.3755 22.2262 62.3905 22.2325 62.402 22.2433C62.4135 22.2541 62.4208 22.2686 62.4226 22.2842L62.5286 23.4622C62.5337 23.5063 62.5535 23.5474 62.5849 23.5788C62.6162 23.6102 62.6573 23.63 62.7014 23.635L63.6359 23.7371C63.6526 23.7371 63.6686 23.7437 63.6804 23.7555C63.6922 23.7673 63.6988 23.7833 63.6988 23.7999C63.6988 23.8166 63.6922 23.8326 63.6804 23.8444C63.6686 23.8562 63.6526 23.8628 63.6359 23.8628L62.7014 23.9688C62.657 23.9731 62.6156 23.9927 62.5841 24.0242C62.5526 24.0557 62.533 24.0972 62.5286 24.1416L62.4226 25.3196C62.4216 25.3355 62.4145 25.3505 62.4029 25.3615C62.3912 25.3724 62.3758 25.3785 62.3598 25.3785ZM61.6647 23.7842L62.0339 23.8274C62.1064 23.8354 62.1739 23.8684 62.2248 23.9207C62.2756 23.973 62.3067 24.0414 62.3127 24.1141L62.3598 24.6088L62.403 24.1141C62.4105 24.0413 62.4426 23.9732 62.494 23.9211C62.5454 23.869 62.613 23.836 62.6857 23.8274L63.0548 23.7842L62.6857 23.745C62.613 23.7364 62.5454 23.7034 62.494 23.6513C62.4426 23.5992 62.4105 23.5311 62.403 23.4583L62.3598 22.9675L62.3127 23.4583C62.3076 23.5317 62.2769 23.6011 62.2259 23.6542C62.175 23.7073 62.107 23.7408 62.0339 23.7489L61.6647 23.7842Z" fill="url(#paint15_linear_10812_13792)"/>
</g>
<path d="M59.8743 82.3865C59.8552 82.3865 59.8368 82.3792 59.8229 82.366C59.8091 82.3529 59.8007 82.3349 59.7997 82.3158L59.6034 80.1679C59.5937 80.0809 59.5552 79.9996 59.494 79.937C59.4328 79.8744 59.3525 79.8341 59.2657 79.8224L57.5812 79.6378C57.5624 79.635 57.5454 79.6254 57.5331 79.611C57.5208 79.5966 57.5142 79.5782 57.5144 79.5593C57.5142 79.5403 57.5208 79.5219 57.5331 79.5075C57.5454 79.4931 57.5624 79.4836 57.5812 79.4807L59.2657 79.2962C59.3525 79.2845 59.4328 79.2441 59.494 79.1815C59.5552 79.1189 59.5937 79.0376 59.6034 78.9506L59.7997 76.8027C59.8007 76.7836 59.8091 76.7656 59.8229 76.7525C59.8368 76.7393 59.8552 76.732 59.8743 76.732C59.8842 76.7315 59.894 76.7329 59.9032 76.7362C59.9125 76.7395 59.921 76.7445 59.9283 76.7511C59.9356 76.7577 59.9415 76.7656 59.9457 76.7745C59.9499 76.7833 59.9524 76.7929 59.9529 76.8027L60.1453 78.9506C60.155 79.0376 60.1935 79.1189 60.2547 79.1815C60.3159 79.2441 60.3962 79.2845 60.483 79.2962L62.1715 79.4807C62.1902 79.4836 62.2073 79.4931 62.2195 79.5075C62.2318 79.5219 62.2384 79.5403 62.2382 79.5593C62.2384 79.5782 62.2318 79.5966 62.2195 79.611C62.2073 79.6254 62.1902 79.635 62.1715 79.6378L60.483 79.8224C60.3962 79.8341 60.3159 79.8744 60.2547 79.937C60.1935 79.9996 60.155 80.0809 60.1453 80.1679L59.9529 82.3158C59.9524 82.3256 59.9499 82.3352 59.9457 82.3441C59.9415 82.3529 59.9356 82.3609 59.9283 82.3674C59.921 82.374 59.9125 82.3791 59.9032 82.3823C59.894 82.3856 59.8842 82.387 59.8743 82.3865ZM58.3037 79.5593L59.2932 79.6692C59.4158 79.683 59.5299 79.7386 59.6163 79.8265C59.7028 79.9144 59.7565 80.0294 59.7683 80.1522L59.8822 81.448L60 80.1522C60.0118 80.0294 60.0655 79.9144 60.152 79.8265C60.2385 79.7386 60.3526 79.683 60.4751 79.6692L61.4607 79.5593L60.4751 79.4493C60.3526 79.4355 60.2385 79.3799 60.152 79.292C60.0655 79.2041 60.0118 79.0891 60 78.9663L59.8822 77.6745L59.7683 78.9663C59.7565 79.0891 59.7028 79.2041 59.6163 79.292C59.5299 79.3799 59.4158 79.4355 59.2932 79.4493L58.3037 79.5593Z" fill="url(#paint16_linear_10812_13792)"/>
<g opacity="0.5">
<path d="M63.2631 86.1131C63.255 86.1136 63.2469 86.1125 63.2393 86.1098C63.2317 86.1071 63.2248 86.1028 63.2189 86.0973C63.213 86.0918 63.2083 86.0851 63.2051 86.0777C63.2019 86.0703 63.2002 86.0623 63.2003 86.0542L63.0903 84.8762C63.0869 84.8322 63.0681 84.7908 63.0372 84.7592C63.0064 84.7276 62.9654 84.7079 62.9215 84.7034L61.983 84.5974C61.9663 84.5974 61.9503 84.5908 61.9386 84.579C61.9268 84.5672 61.9202 84.5512 61.9202 84.5346C61.9202 84.5179 61.9268 84.5019 61.9386 84.4901C61.9503 84.4784 61.9663 84.4717 61.983 84.4717L62.9372 84.3736C62.9812 84.3675 63.0218 84.3468 63.0525 84.3147C63.0831 84.2826 63.102 84.2411 63.106 84.1969L63.216 83.0189C63.217 83.0029 63.224 82.9879 63.2357 82.977C63.2474 82.966 63.2628 82.9599 63.2788 82.96C63.2945 82.9608 63.3095 82.9671 63.321 82.9779C63.3325 82.9887 63.3398 83.0032 63.3416 83.0189L63.4476 84.1969C63.4525 84.2414 63.4722 84.283 63.5035 84.3151C63.5348 84.3471 63.576 84.3677 63.6204 84.3736L64.555 84.4757C64.5716 84.4757 64.5876 84.4823 64.5994 84.4941C64.6112 84.5059 64.6178 84.5218 64.6178 84.5385C64.6178 84.5552 64.6112 84.5711 64.5994 84.5829C64.5876 84.5947 64.5716 84.6013 64.555 84.6013L63.6204 84.7073C63.5761 84.7117 63.5346 84.7313 63.5031 84.7628C63.4716 84.7943 63.452 84.8358 63.4476 84.8801L63.3416 86.0581C63.3408 86.0672 63.338 86.076 63.3334 86.0839C63.3288 86.0918 63.3226 86.0986 63.3151 86.1038C63.3076 86.109 63.2991 86.1126 63.2901 86.1142C63.2811 86.1158 63.2719 86.1154 63.2631 86.1131ZM62.5681 84.5189L62.9333 84.5581C63.0068 84.5661 63.0753 84.5995 63.1269 84.6525C63.1785 84.7056 63.21 84.7749 63.216 84.8487L63.2631 85.3435L63.3063 84.8487C63.3137 84.7755 63.3456 84.7069 63.397 84.6541C63.4483 84.6013 63.516 84.5675 63.589 84.5581L63.9581 84.5189L63.589 84.4796C63.5157 84.4709 63.4476 84.4373 63.3962 84.3844C63.3447 84.3315 63.313 84.2625 63.3063 84.189L63.2631 83.6943L63.216 84.189C63.2108 84.263 63.1795 84.3328 63.1278 84.386C63.076 84.4392 63.0071 84.4724 62.9333 84.4796L62.5681 84.5189Z" fill="url(#paint17_linear_10812_13792)"/>
</g>
<path d="M101.155 110.682C101.136 110.682 101.118 110.675 101.104 110.662C101.09 110.649 101.082 110.631 101.081 110.612L100.885 108.46C100.874 108.373 100.835 108.293 100.774 108.231C100.713 108.169 100.633 108.13 100.547 108.118L98.8623 107.93C98.8439 107.928 98.8269 107.919 98.8145 107.905C98.8022 107.891 98.7954 107.874 98.7955 107.855C98.7944 107.836 98.8007 107.817 98.8132 107.802C98.8256 107.788 98.8432 107.779 98.8623 107.777L100.547 107.588C100.633 107.577 100.713 107.537 100.774 107.475C100.835 107.413 100.874 107.333 100.885 107.246L101.081 105.095C101.082 105.076 101.09 105.058 101.104 105.044C101.118 105.031 101.136 105.024 101.155 105.024C101.175 105.024 101.194 105.031 101.208 105.044C101.223 105.057 101.232 105.075 101.234 105.095L101.426 107.246C101.437 107.333 101.476 107.413 101.537 107.475C101.598 107.537 101.678 107.577 101.764 107.588L103.449 107.777C103.468 107.778 103.486 107.788 103.499 107.802C103.512 107.817 103.519 107.836 103.519 107.855C103.519 107.874 103.512 107.893 103.499 107.906C103.486 107.92 103.468 107.929 103.449 107.93L101.764 108.118C101.678 108.13 101.598 108.169 101.537 108.231C101.476 108.293 101.437 108.373 101.426 108.46L101.234 110.612C101.232 110.631 101.223 110.649 101.208 110.662C101.194 110.675 101.175 110.682 101.155 110.682ZM99.5848 107.855L100.574 107.961C100.697 107.975 100.812 108.031 100.899 108.12C100.985 108.209 101.038 108.325 101.049 108.448L101.163 109.74L101.281 108.448C101.292 108.325 101.345 108.209 101.432 108.12C101.519 108.031 101.633 107.975 101.756 107.961L102.742 107.855L101.756 107.745C101.633 107.731 101.519 107.675 101.432 107.586C101.345 107.498 101.292 107.382 101.281 107.258L101.163 105.966L101.049 107.258C101.038 107.382 100.985 107.498 100.899 107.586C100.812 107.675 100.697 107.731 100.574 107.745L99.5848 107.855Z" fill="url(#paint18_linear_10812_13792)"/>
<path d="M107.78 73.7198C107.774 73.7204 107.767 73.7196 107.761 73.7174C107.755 73.7153 107.749 73.7119 107.744 73.7075C107.739 73.7031 107.736 73.6977 107.733 73.6917C107.73 73.6857 107.729 73.6793 107.729 73.6727L107.595 72.2238C107.591 72.1644 107.566 72.1086 107.524 72.0662C107.482 72.0238 107.427 71.9975 107.368 71.9921L106.233 71.8664C106.22 71.8645 106.208 71.8579 106.199 71.8478C106.19 71.8377 106.186 71.8248 106.186 71.8115C106.187 71.7988 106.192 71.7869 106.2 71.7776C106.209 71.7683 106.22 71.7622 106.233 71.7604L107.368 71.6348C107.427 71.6294 107.482 71.6031 107.524 71.5607C107.566 71.5183 107.591 71.4624 107.595 71.4031L107.729 69.9502C107.729 69.9367 107.734 69.9237 107.744 69.9141C107.753 69.9045 107.766 69.8992 107.78 69.8992C107.794 69.8992 107.807 69.9045 107.816 69.9141C107.826 69.9237 107.831 69.9367 107.831 69.9502L107.965 71.4031C107.969 71.4624 107.994 71.5183 108.036 71.5607C108.078 71.6031 108.133 71.6294 108.192 71.6348L109.327 71.7604C109.34 71.7622 109.351 71.7683 109.36 71.7776C109.368 71.7869 109.373 71.7988 109.374 71.8115C109.374 71.8248 109.37 71.8377 109.361 71.8478C109.352 71.8579 109.34 71.8645 109.327 71.8664L108.192 71.9921C108.133 71.9975 108.078 72.0238 108.036 72.0662C107.994 72.1086 107.969 72.1644 107.965 72.2238L107.831 73.6727C107.831 73.6793 107.83 73.6857 107.827 73.6917C107.825 73.6977 107.821 73.7031 107.816 73.7075C107.811 73.7119 107.805 73.7153 107.799 73.7174C107.793 73.7196 107.787 73.7204 107.78 73.7198ZM106.716 71.8075L107.379 71.8822C107.462 71.8916 107.539 71.929 107.598 71.9883C107.657 72.0476 107.693 72.1252 107.701 72.2081L107.78 73.0837L107.859 72.2081C107.867 72.1252 107.904 72.0476 107.962 71.9883C108.021 71.929 108.098 71.8916 108.181 71.8822L108.844 71.8075L108.181 71.7369C108.097 71.7273 108.02 71.6892 107.961 71.6292C107.902 71.5691 107.866 71.4906 107.859 71.407L107.78 70.5353L107.701 71.4149C107.694 71.4985 107.658 71.5769 107.599 71.637C107.54 71.6971 107.463 71.7351 107.379 71.7447L106.716 71.8075Z" fill="url(#paint19_linear_10812_13792)"/>
<g opacity="0.5">
<path d="M104.167 103.638C104.152 103.637 104.137 103.63 104.125 103.62C104.114 103.609 104.106 103.594 104.105 103.579L103.999 102.381C103.994 102.337 103.974 102.296 103.942 102.265C103.911 102.233 103.87 102.213 103.826 102.208L102.891 102.106C102.875 102.105 102.86 102.098 102.849 102.086C102.838 102.075 102.832 102.059 102.832 102.043C102.832 102.035 102.833 102.027 102.836 102.02C102.838 102.012 102.843 102.005 102.848 101.999C102.854 101.993 102.86 101.989 102.868 101.985C102.875 101.982 102.883 101.981 102.891 101.981L103.826 101.875C103.87 101.87 103.912 101.851 103.943 101.819C103.975 101.788 103.994 101.746 103.999 101.702L104.105 100.504C104.107 100.489 104.114 100.475 104.126 100.465C104.137 100.455 104.152 100.449 104.167 100.449C104.175 100.449 104.183 100.45 104.19 100.452C104.198 100.455 104.204 100.458 104.21 100.464C104.216 100.469 104.221 100.475 104.224 100.482C104.228 100.489 104.23 100.496 104.23 100.504L104.34 101.702C104.344 101.746 104.362 101.787 104.393 101.819C104.424 101.85 104.465 101.87 104.509 101.875L105.448 101.981C105.455 101.981 105.463 101.983 105.47 101.986C105.477 101.99 105.483 101.995 105.488 102.001C105.493 102.006 105.497 102.013 105.5 102.02C105.502 102.028 105.503 102.036 105.503 102.043C105.503 102.059 105.497 102.074 105.487 102.085C105.477 102.097 105.463 102.104 105.448 102.106L104.509 102.208C104.465 102.213 104.425 102.233 104.394 102.265C104.363 102.296 104.344 102.337 104.34 102.381L104.23 103.579C104.229 103.595 104.222 103.61 104.211 103.621C104.199 103.632 104.183 103.638 104.167 103.638ZM103.476 102.043L103.845 102.083C103.918 102.091 103.986 102.124 104.037 102.176C104.089 102.228 104.121 102.296 104.128 102.369L104.171 102.864L104.219 102.369C104.225 102.296 104.256 102.227 104.308 102.175C104.36 102.122 104.428 102.09 104.501 102.083L104.866 102.043L104.501 102C104.428 101.993 104.36 101.96 104.308 101.908C104.256 101.856 104.225 101.787 104.219 101.714L104.167 101.219L104.124 101.714C104.117 101.786 104.085 101.854 104.033 101.906C103.982 101.959 103.914 101.992 103.842 102L103.476 102.043Z" fill="url(#paint20_linear_10812_13792)"/>
</g>
<path d="M104.136 35.6821C104.115 35.6822 104.095 35.6746 104.08 35.6608C104.065 35.647 104.055 35.628 104.053 35.6075L103.849 33.3458C103.842 33.2536 103.803 33.1668 103.738 33.1007C103.674 33.0346 103.588 32.9935 103.496 32.9845L101.725 32.7882C101.704 32.7862 101.685 32.7767 101.671 32.7614C101.658 32.7461 101.65 32.7263 101.65 32.7057C101.651 32.6858 101.659 32.6669 101.673 32.6525C101.686 32.638 101.705 32.629 101.725 32.6272L103.496 32.4308C103.588 32.4217 103.675 32.38 103.739 32.3131C103.804 32.2462 103.843 32.1585 103.849 32.0656L104.053 29.8078C104.053 29.7859 104.062 29.765 104.077 29.7495C104.093 29.734 104.114 29.7253 104.136 29.7253C104.158 29.7253 104.179 29.734 104.194 29.7495C104.21 29.765 104.218 29.7859 104.218 29.8078L104.422 32.0656C104.428 32.1585 104.467 32.2462 104.532 32.3131C104.597 32.38 104.683 32.4217 104.776 32.4308L106.547 32.6272C106.567 32.629 106.585 32.638 106.599 32.6525C106.612 32.6669 106.62 32.6858 106.621 32.7057C106.621 32.7263 106.614 32.7461 106.6 32.7614C106.586 32.7767 106.567 32.7862 106.547 32.7882L104.776 32.9845C104.684 32.9935 104.598 33.0346 104.533 33.1007C104.469 33.1668 104.429 33.2536 104.422 33.3458L104.218 35.6075C104.216 35.628 104.207 35.647 104.191 35.6608C104.176 35.6746 104.156 35.6822 104.136 35.6821ZM102.475 32.7057L103.515 32.8196C103.644 32.8358 103.763 32.8951 103.854 32.9878C103.944 33.0805 104.001 33.2011 104.014 33.33L104.136 34.6887L104.257 33.33C104.271 33.2005 104.328 33.0794 104.419 32.9866C104.511 32.8939 104.631 32.8349 104.76 32.8196L105.797 32.7057L104.76 32.5918C104.631 32.5772 104.51 32.5185 104.418 32.4255C104.327 32.3326 104.27 32.2111 104.257 32.0814L104.136 30.7227L104.014 32.0814C104.002 32.2105 103.945 32.3316 103.855 32.4244C103.764 32.5173 103.644 32.5763 103.515 32.5918L102.475 32.7057Z" fill="url(#paint21_linear_10812_13792)"/>
<g opacity="0.5">
<path d="M100.539 37.5551C100.518 37.5552 100.499 37.5476 100.483 37.5338C100.468 37.52 100.458 37.501 100.456 37.4805L100.319 35.9412C100.314 35.8842 100.289 35.8308 100.249 35.79C100.209 35.7492 100.156 35.7235 100.099 35.7174L98.8937 35.5839C98.8739 35.581 98.8558 35.5711 98.8428 35.5559C98.8298 35.5408 98.8228 35.5214 98.823 35.5014C98.8229 35.4819 98.8301 35.463 98.8432 35.4485C98.8562 35.434 98.8742 35.4249 98.8937 35.4229L100.099 35.2894C100.156 35.2833 100.209 35.2576 100.249 35.2168C100.289 35.176 100.314 35.1226 100.319 35.0656L100.456 33.5263C100.456 33.5044 100.465 33.4835 100.481 33.468C100.496 33.4525 100.517 33.4438 100.539 33.4438C100.561 33.4438 100.582 33.4525 100.597 33.468C100.613 33.4835 100.621 33.5044 100.621 33.5263L100.759 35.0656C100.764 35.1226 100.789 35.176 100.829 35.2168C100.869 35.2576 100.922 35.2833 100.979 35.2894L102.184 35.4229C102.204 35.4248 102.223 35.4338 102.236 35.4482C102.25 35.4626 102.258 35.4815 102.259 35.5014C102.259 35.522 102.251 35.5419 102.238 35.5571C102.224 35.5724 102.205 35.5819 102.184 35.5839L100.979 35.7174C100.922 35.7235 100.869 35.7492 100.829 35.79C100.789 35.8308 100.764 35.8842 100.759 35.9412L100.621 37.4805C100.619 37.501 100.61 37.52 100.595 37.5338C100.579 37.5476 100.56 37.5552 100.539 37.5551ZM99.6476 35.5014L100.119 35.5564C100.213 35.5667 100.3 35.6091 100.367 35.6763C100.433 35.7435 100.475 35.8315 100.484 35.9255L100.539 36.5656L100.598 35.9255C100.603 35.8307 100.643 35.7411 100.709 35.6732C100.776 35.6053 100.864 35.5638 100.959 35.5564L101.434 35.5014L100.959 35.4504C100.864 35.4429 100.776 35.4014 100.709 35.3336C100.643 35.2657 100.603 35.1761 100.598 35.0813L100.539 34.4412L100.484 35.0813C100.475 35.1753 100.433 35.2633 100.367 35.3305C100.3 35.3977 100.213 35.44 100.119 35.4504L99.6476 35.5014Z" fill="url(#paint22_linear_10812_13792)"/>
</g>
<g opacity="0.5">
<path d="M106.563 40.453C106.542 40.4531 106.522 40.4455 106.507 40.4317C106.492 40.4179 106.482 40.3989 106.48 40.3784L106.343 38.8392C106.338 38.7822 106.313 38.7287 106.273 38.6879C106.233 38.6471 106.18 38.6215 106.123 38.6154L104.917 38.4818C104.898 38.479 104.88 38.4691 104.867 38.4539C104.854 38.4387 104.846 38.4194 104.847 38.3994C104.847 38.3798 104.854 38.361 104.867 38.3465C104.88 38.3319 104.898 38.3228 104.917 38.3208L106.123 38.1873C106.18 38.1812 106.233 38.1556 106.273 38.1148C106.313 38.0739 106.338 38.0205 106.343 37.9635L106.48 36.4243C106.48 36.4024 106.489 36.3814 106.504 36.3659C106.52 36.3505 106.541 36.3418 106.563 36.3418C106.585 36.3418 106.605 36.3505 106.621 36.3659C106.636 36.3814 106.645 36.4024 106.645 36.4243L106.783 37.9635C106.788 38.0205 106.812 38.0739 106.852 38.1148C106.893 38.1556 106.946 38.1812 107.002 38.1873L108.208 38.3208C108.228 38.3227 108.246 38.3317 108.26 38.3461C108.274 38.3606 108.282 38.3795 108.283 38.3994C108.283 38.42 108.275 38.4398 108.261 38.4551C108.247 38.4703 108.228 38.4799 108.208 38.4818L107.002 38.6154C106.946 38.6215 106.893 38.6471 106.852 38.6879C106.812 38.7287 106.788 38.7822 106.783 38.8392L106.645 40.3784C106.643 40.3989 106.634 40.4179 106.618 40.4317C106.603 40.4455 106.583 40.4531 106.563 40.453ZM105.671 38.3994L106.142 38.4544C106.237 38.4618 106.326 38.5033 106.392 38.5712C106.459 38.639 106.498 38.7287 106.504 38.8235L106.563 39.4635L106.622 38.8235C106.627 38.7287 106.667 38.639 106.733 38.5712C106.799 38.5033 106.888 38.4618 106.983 38.4544L107.454 38.3994L106.983 38.3483C106.888 38.3409 106.799 38.2994 106.733 38.2315C106.667 38.1637 106.627 38.074 106.622 37.9792L106.563 37.3392L106.504 37.9792C106.498 38.074 106.459 38.1637 106.392 38.2315C106.326 38.2994 106.237 38.3409 106.142 38.3483L105.671 38.3994Z" fill="url(#paint23_linear_10812_13792)"/>
</g>
<g opacity="0.5">
<path d="M103.064 16.4417C103.044 16.4419 103.025 16.4349 103.009 16.4219C102.994 16.4089 102.984 16.3908 102.981 16.371L102.848 14.8711C102.842 14.8154 102.818 14.7633 102.778 14.7234C102.739 14.6834 102.688 14.658 102.632 14.6512L101.454 14.5216C101.435 14.5196 101.417 14.5105 101.403 14.496C101.39 14.4815 101.383 14.4626 101.383 14.443C101.383 14.4235 101.39 14.4046 101.403 14.3901C101.417 14.3756 101.435 14.3665 101.454 14.3645L102.632 14.231C102.687 14.225 102.739 14.2004 102.778 14.1611C102.817 14.1218 102.842 14.0703 102.848 14.015L102.989 12.515C102.991 12.4946 103.001 12.4755 103.016 12.4617C103.031 12.4479 103.051 12.4403 103.072 12.4404C103.092 12.4413 103.111 12.4493 103.125 12.463C103.139 12.4767 103.148 12.4952 103.15 12.515L103.288 14.0229C103.292 14.0781 103.316 14.1299 103.354 14.1694C103.393 14.2089 103.445 14.2335 103.5 14.2389L104.678 14.3724C104.697 14.3743 104.715 14.3834 104.728 14.398C104.741 14.4125 104.749 14.4314 104.748 14.4509C104.749 14.4704 104.741 14.4893 104.728 14.5038C104.715 14.5183 104.697 14.5275 104.678 14.5294L103.5 14.659C103.444 14.6653 103.393 14.6906 103.354 14.7308C103.315 14.7709 103.292 14.8233 103.288 14.8789L103.15 16.3868C103.145 16.4047 103.133 16.4202 103.117 16.4303C103.101 16.4403 103.083 16.4444 103.064 16.4417ZM102.204 14.443L102.667 14.4941C102.759 14.5031 102.845 14.5442 102.91 14.6103C102.975 14.6764 103.014 14.7632 103.021 14.8553L103.08 15.4797L103.135 14.8553C103.142 14.7626 103.182 14.6753 103.247 14.6091C103.312 14.543 103.399 14.5022 103.492 14.4941L103.951 14.443L103.492 14.392C103.399 14.3838 103.311 14.3424 103.246 14.2755C103.18 14.2085 103.141 14.1203 103.135 14.0268L103.08 13.4025L102.989 14.0268C102.983 14.1197 102.944 14.2074 102.88 14.2743C102.815 14.3412 102.729 14.3829 102.636 14.392L102.204 14.443Z" fill="url(#paint24_linear_10812_13792)"/>
</g>
<g opacity="0.5">
<path d="M66.9736 104.957C66.9534 104.957 66.934 104.949 66.9194 104.935C66.9048 104.921 66.8961 104.903 66.8951 104.882L66.7576 103.375C66.7526 103.32 66.7287 103.268 66.6901 103.229C66.6514 103.189 66.6004 103.165 66.5456 103.159L65.3676 103.025C65.3468 103.025 65.3268 103.017 65.3121 103.002C65.2973 102.987 65.2891 102.967 65.2891 102.947C65.2891 102.926 65.2973 102.906 65.3121 102.891C65.3268 102.876 65.3468 102.868 65.3676 102.868L66.5456 102.738C66.6005 102.731 66.6512 102.705 66.6896 102.665C66.7281 102.625 66.752 102.574 66.7576 102.519L66.8951 101.011C66.8951 100.99 66.9034 100.97 66.9181 100.955C66.9328 100.94 66.9528 100.932 66.9736 100.932C66.9944 100.932 67.0144 100.94 67.0291 100.955C67.0439 100.97 67.0521 100.99 67.0521 101.011L67.1896 102.519C67.1952 102.574 67.2192 102.625 67.2576 102.665C67.296 102.705 67.3468 102.731 67.4016 102.738L68.5796 102.868C68.6005 102.868 68.6204 102.876 68.6352 102.891C68.6499 102.906 68.6582 102.926 68.6582 102.947C68.6582 102.967 68.6499 102.987 68.6352 103.002C68.6204 103.017 68.6005 103.025 68.5796 103.025L67.4016 103.159C67.3465 103.164 67.2951 103.188 67.2563 103.228C67.2176 103.267 67.1939 103.319 67.1896 103.375L67.0521 104.882C67.0511 104.903 67.0424 104.921 67.0278 104.935C67.0132 104.949 66.9938 104.957 66.9736 104.957ZM66.098 102.947L66.5613 102.998C66.6546 103.006 66.742 103.047 66.8075 103.114C66.873 103.181 66.9124 103.269 66.9186 103.363L66.9736 103.987L67.0286 103.363C67.0348 103.269 67.0742 103.181 67.1397 103.114C67.2053 103.047 67.2926 103.006 67.3859 102.998L67.8493 102.947L67.3859 102.895C67.2932 102.887 67.2064 102.847 67.1409 102.78C67.0755 102.714 67.0357 102.627 67.0286 102.534L66.9736 101.91L66.9186 102.534C66.9115 102.627 66.8717 102.714 66.8063 102.78C66.7408 102.847 66.654 102.887 66.5613 102.895L66.098 102.947Z" fill="url(#paint25_linear_10812_13792)"/>
</g>
<g opacity="0.5">
<path d="M105.047 80.4469C105.021 80.447 104.996 80.4373 104.977 80.4198C104.958 80.4024 104.947 80.3784 104.945 80.3527L104.768 78.3893C104.762 78.317 104.731 78.2492 104.68 78.1975C104.629 78.1459 104.561 78.1137 104.489 78.1066L102.954 77.9338C102.928 77.9319 102.904 77.9202 102.887 77.9013C102.869 77.8824 102.86 77.8575 102.86 77.8317C102.859 77.8189 102.861 77.806 102.866 77.7939C102.87 77.7818 102.877 77.7706 102.886 77.7612C102.894 77.7517 102.905 77.744 102.917 77.7386C102.928 77.7332 102.941 77.7302 102.954 77.7297L104.489 77.5569C104.561 77.5498 104.629 77.5176 104.68 77.466C104.731 77.4143 104.762 77.3464 104.768 77.2742L104.945 75.3108C104.949 75.2867 104.962 75.2649 104.981 75.2493C105 75.2336 105.024 75.2251 105.049 75.2251C105.073 75.2251 105.097 75.2336 105.116 75.2493C105.135 75.2649 105.148 75.2867 105.153 75.3108L105.33 77.2742C105.336 77.3464 105.367 77.4143 105.418 77.466C105.469 77.5176 105.536 77.5498 105.608 77.5569L107.144 77.7297C107.169 77.7317 107.193 77.7434 107.209 77.7625C107.226 77.7815 107.235 77.8063 107.234 77.8317C107.234 77.8569 107.225 77.8812 107.208 77.9001C107.192 77.9189 107.169 77.9309 107.144 77.9338L105.608 78.1066C105.536 78.1137 105.469 78.1459 105.418 78.1975C105.367 78.2492 105.336 78.317 105.33 78.3893L105.153 80.3527C105.151 80.3791 105.139 80.4036 105.119 80.4212C105.099 80.4388 105.073 80.448 105.047 80.4469ZM103.912 77.8357L104.513 77.9024C104.632 77.9162 104.743 77.9705 104.828 78.0562C104.912 78.1419 104.964 78.254 104.976 78.3736L105.047 79.1865L105.121 78.3736C105.133 78.2537 105.185 78.1413 105.269 78.0554C105.354 77.9695 105.465 77.9155 105.585 77.9024L106.186 77.8357L105.585 77.7689C105.465 77.7558 105.354 77.7018 105.269 77.6159C105.185 77.5301 105.133 77.4176 105.121 77.2977L105.047 76.4849L104.976 77.2977C104.964 77.4174 104.912 77.5294 104.828 77.6151C104.743 77.7009 104.632 77.7551 104.513 77.7689L103.912 77.8357Z" fill="url(#paint26_linear_10812_13792)"/>
</g>
<defs>
<linearGradient id="paint0_linear_10812_13792" x1="90.6119" y1="47.1992" x2="90.6119" y2="58.1827" gradientUnits="userSpaceOnUse">
<stop offset="0.114583" stop-color="#FFA88C"/>
<stop offset="0.671875" stop-color="#FF5C28"/>
</linearGradient>
<linearGradient id="paint1_linear_10812_13792" x1="83.4145" y1="31.9524" x2="83.4145" y2="39.1068" gradientUnits="userSpaceOnUse">
<stop offset="0.114583" stop-color="#FFA88C"/>
<stop offset="0.671875" stop-color="#FF5C28"/>
</linearGradient>
<linearGradient id="paint2_linear_10812_13792" x1="78.1874" y1="29.7258" x2="78.1874" y2="31.2258" gradientUnits="userSpaceOnUse">
<stop offset="0.114583" stop-color="#FFA88C"/>
<stop offset="0.671875" stop-color="#FF5C28"/>
</linearGradient>
<linearGradient id="paint3_linear_10812_13792" x1="80.0239" y1="22.7246" x2="80.0239" y2="25.8071" gradientUnits="userSpaceOnUse">
<stop offset="0.114583" stop-color="#FFA88C"/>
<stop offset="0.671875" stop-color="#FF5C28"/>
</linearGradient>
<linearGradient id="paint4_linear_10812_13792" x1="89.5664" y1="22.2493" x2="89.5664" y2="28.1917" gradientUnits="userSpaceOnUse">
<stop offset="0.114583" stop-color="#FFA88C"/>
<stop offset="0.671875" stop-color="#FF5C28"/>
</linearGradient>
<linearGradient id="paint5_linear_10812_13792" x1="80.5766" y1="2.5332" x2="80.5766" y2="18.7841" gradientUnits="userSpaceOnUse">
<stop offset="0.114583" stop-color="#FFA88C"/>
<stop offset="0.671875" stop-color="#FF5C28"/>
</linearGradient>
<linearGradient id="paint6_linear_10812_13792" x1="68.2919" y1="10.4094" x2="68.2919" y2="12.4888" gradientUnits="userSpaceOnUse">
<stop offset="0.114583" stop-color="#FFA88C"/>
<stop offset="0.671875" stop-color="#FF5C28"/>
</linearGradient>
<linearGradient id="paint7_linear_10812_13792" x1="79.2473" y1="0" x2="79.2473" y2="2.07937" gradientUnits="userSpaceOnUse">
<stop offset="0.114583" stop-color="#FFA88C"/>
<stop offset="0.671875" stop-color="#FF5C28"/>
</linearGradient>
<linearGradient id="paint8_linear_10812_13792" x1="88.2627" y1="0.769287" x2="88.2627" y2="2.4229" gradientUnits="userSpaceOnUse">
<stop offset="0.114583" stop-color="#FFA88C"/>
<stop offset="0.671875" stop-color="#FF5C28"/>
</linearGradient>
<linearGradient id="paint9_linear_10812_13792" x1="72.2558" y1="4.88501" x2="72.2558" y2="6.53768" gradientUnits="userSpaceOnUse">
<stop offset="0.114583" stop-color="#FFA88C"/>
<stop offset="0.671875" stop-color="#FF5C28"/>
</linearGradient>
<linearGradient id="paint10_linear_10812_13792" x1="92.5527" y1="5.63306" x2="92.5527" y2="7.15876" gradientUnits="userSpaceOnUse">
<stop offset="0.114583" stop-color="#FFA88C"/>
<stop offset="0.671875" stop-color="#FF5C28"/>
</linearGradient>
<linearGradient id="paint11_linear_10812_13792" x1="80.5319" y1="12.5134" x2="80.5319" y2="16.3768" gradientUnits="userSpaceOnUse">
<stop offset="0.114583" stop-color="#FFA88C"/>
<stop offset="0.671875" stop-color="#FF5C28"/>
</linearGradient>
<linearGradient id="paint12_linear_10812_13792" x1="58.1838" y1="40.2805" x2="58.1838" y2="47.1366" gradientUnits="userSpaceOnUse">
<stop offset="0.114583" stop-color="#FFA88C"/>
<stop offset="0.671875" stop-color="#FF5C28"/>
</linearGradient>
<linearGradient id="paint13_linear_10812_13792" x1="62.7291" y1="37.2371" x2="62.7291" y2="41.9649" gradientUnits="userSpaceOnUse">
<stop offset="0.114583" stop-color="#FFA88C"/>
<stop offset="0.671875" stop-color="#FF5C28"/>
</linearGradient>
<linearGradient id="paint14_linear_10812_13792" x1="66.2551" y1="18.9817" x2="66.2551" y2="24.6558" gradientUnits="userSpaceOnUse">
<stop offset="0.114583" stop-color="#FFA88C"/>
<stop offset="0.671875" stop-color="#FF5C28"/>
</linearGradient>
<linearGradient id="paint15_linear_10812_13792" x1="62.3578" y1="22.2253" x2="62.3578" y2="25.3785" gradientUnits="userSpaceOnUse">
<stop offset="0.114583" stop-color="#FFA88C"/>
<stop offset="0.671875" stop-color="#FF5C28"/>
</linearGradient>
<linearGradient id="paint16_linear_10812_13792" x1="59.8763" y1="76.7319" x2="59.8763" y2="82.3866" gradientUnits="userSpaceOnUse">
<stop offset="0.114583" stop-color="#FFA88C"/>
<stop offset="0.671875" stop-color="#FF5C28"/>
</linearGradient>
<linearGradient id="paint17_linear_10812_13792" x1="63.269" y1="82.96" x2="63.269" y2="86.1152" gradientUnits="userSpaceOnUse">
<stop offset="0.114583" stop-color="#FFA88C"/>
<stop offset="0.671875" stop-color="#FF5C28"/>
</linearGradient>
<linearGradient id="paint18_linear_10812_13792" x1="101.157" y1="105.024" x2="101.157" y2="110.682" gradientUnits="userSpaceOnUse">
<stop offset="0.114583" stop-color="#FFA88C"/>
<stop offset="0.671875" stop-color="#FF5C28"/>
</linearGradient>
<linearGradient id="paint19_linear_10812_13792" x1="107.78" y1="69.8992" x2="107.78" y2="73.72" gradientUnits="userSpaceOnUse">
<stop offset="0.114583" stop-color="#FFA88C"/>
<stop offset="0.671875" stop-color="#FF5C28"/>
</linearGradient>
<linearGradient id="paint20_linear_10812_13792" x1="104.167" y1="100.449" x2="104.167" y2="103.638" gradientUnits="userSpaceOnUse">
<stop offset="0.114583" stop-color="#FFA88C"/>
<stop offset="0.671875" stop-color="#FF5C28"/>
</linearGradient>
<linearGradient id="paint21_linear_10812_13792" x1="104.136" y1="29.7253" x2="104.136" y2="35.6821" gradientUnits="userSpaceOnUse">
<stop offset="0.114583" stop-color="#FFA88C"/>
<stop offset="0.671875" stop-color="#FF5C28"/>
</linearGradient>
<linearGradient id="paint22_linear_10812_13792" x1="100.541" y1="33.4438" x2="100.541" y2="37.5551" gradientUnits="userSpaceOnUse">
<stop offset="0.114583" stop-color="#FFA88C"/>
<stop offset="0.671875" stop-color="#FF5C28"/>
</linearGradient>
<linearGradient id="paint23_linear_10812_13792" x1="106.565" y1="36.3418" x2="106.565" y2="40.453" gradientUnits="userSpaceOnUse">
<stop offset="0.114583" stop-color="#FFA88C"/>
<stop offset="0.671875" stop-color="#FF5C28"/>
</linearGradient>
<linearGradient id="paint24_linear_10812_13792" x1="103.066" y1="12.4404" x2="103.066" y2="16.4425" gradientUnits="userSpaceOnUse">
<stop offset="0.114583" stop-color="#FFA88C"/>
<stop offset="0.671875" stop-color="#FF5C28"/>
</linearGradient>
<linearGradient id="paint25_linear_10812_13792" x1="66.9736" y1="100.932" x2="66.9736" y2="104.957" gradientUnits="userSpaceOnUse">
<stop offset="0.114583" stop-color="#FFA88C"/>
<stop offset="0.671875" stop-color="#FF5C28"/>
</linearGradient>
<linearGradient id="paint26_linear_10812_13792" x1="105.047" y1="75.2251" x2="105.047" y2="80.447" gradientUnits="userSpaceOnUse">
<stop offset="0.114583" stop-color="#FFA88C"/>
<stop offset="0.671875" stop-color="#FF5C28"/>
</linearGradient>
</defs>
</svg>
