<svg fill="none" height="29" viewBox="0 0 327 29" width="327" xmlns="http://www.w3.org/2000/svg" xmlns:xlink="http://www.w3.org/1999/xlink"><filter id="a" color-interpolation-filters="sRGB" filterUnits="userSpaceOnUse" height="15.6162" width="188.302" x=".580811" y="8.54395"><feFlood flood-opacity="0" result="BackgroundImageFix"/><feColorMatrix in="SourceAlpha" result="hardAlpha" type="matrix" values="0 0 0 0 0 0 0 0 0 0 0 0 0 0 0 0 0 0 127 0"/><feOffset dy="2"/><feGaussianBlur stdDeviation="1"/><feComposite in2="hardAlpha" operator="out"/><feColorMatrix type="matrix" values="0 0 0 0 0 0 0 0 0 0 0 0 0 0 0 0 0 0 0.25 0"/><feBlend in2="BackgroundImageFix" mode="normal" result="effect1_dropShadow_16269_19050"/><feBlend in="SourceGraphic" in2="effect1_dropShadow_16269_19050" mode="normal" result="shape"/></filter><linearGradient id="b" gradientUnits="userSpaceOnUse" x1="258" x2="258" y1="0" y2="29"><stop offset=".114583" stop-color="#ffa88c"/><stop offset=".671875" stop-color="#ff5c28"/></linearGradient><g filter="url(#a)"><path d="m2.58075 20v-11.28h7.37601v1.632h-5.328v3.184h4.992v1.632h-4.992v4.832zm12.38125.16c-1.92 0-2.88-1.0773-2.88-3.232v-4.752h2v4.784c0 .5547.112.9653.336 1.232s.5813.4 1.072.4c.5333 0 .9707-.1813 1.312-.544.3413-.3733.512-.864.512-1.472v-4.4h2v7.824h-1.952v-1.168c-.5227.8853-1.3227 1.328-2.4 1.328zm7.3936-.16v-7.824h1.952v1.216c.2667-.448.624-.7893 1.072-1.024.4587-.2347.9707-.352 1.536-.352 1.8454 0 2.768 1.072 2.768 3.216v4.768h-2v-4.672c0-.608-.1173-1.0507-.352-1.328-.224-.2773-.576-.416-1.056-.416-.5866 0-1.056.1867-1.408.56-.3413.3627-.512.848-.512 1.456v4.4z" fill="#ff5c28"/><path d="m32.867 20v-11.28h2.048v9.536h5.408v1.744zm9.6244-9.504v-1.952h2.24v1.952zm.128 9.504v-7.824h2v7.824zm5.0381 0v-7.824h1.952v1.216c.2667-.448.624-.7893 1.072-1.024.4587-.2347.9707-.352 1.536-.352 1.8453 0 2.768 1.072 2.768 3.216v4.768h-2v-4.672c0-.608-.1173-1.0507-.352-1.328-.224-.2773-.576-.416-1.056-.416-.5867 0-1.056.1867-1.408.56-.3413.3627-.512.848-.512 1.456v4.4zm10.3194 0v-11.28h2v6.784h.032l3.152-3.328h2.416l-3.552 3.744 3.776 4.08h-2.448l-3.344-3.488h-.032v3.488zm12.2771.16c-.6613 0-1.28-.08-1.856-.24s-1.056-.3893-1.44-.688l.512-1.312c.3947.2667.8373.4747 1.328.624.4907.1387.9813.208 1.472.208.512 0 .8907-.0853 1.136-.256.256-.1813.384-.416.384-.704 0-.448-.3307-.736-.992-.864l-1.6-.304c-1.3547-.256-2.032-.96-2.032-2.112 0-.512.1387-.9547.416-1.328.288-.3733.6827-.6613 1.184-.864s1.0773-.304 1.728-.304c.5547 0 1.088.08 1.6.24.512.1493.9493.3787 1.312.688l-.544 1.312c-.3093-.256-.6827-.4587-1.12-.608-.4267-.1493-.8373-.224-1.232-.224-.5227 0-.912.0907-1.168.272-.2453.1813-.368.4213-.368.72 0 .4693.304.7573.912.864l1.6.304c.6933.128 1.216.3627 1.568.704.3627.3413.544.8.544 1.376 0 .7787-.304 1.392-.912 1.84-.608.4373-1.4187.656-2.432.656zm10.2282-8.658v-1.274h1.4v1.274zm.14 8.498v-6.804h1.134v6.804zm6.3899.126c-.532 0-1.036-.0747-1.512-.224s-.868-.3593-1.176-.63l.364-.798c.336.2707.7047.4713 1.106.602.4107.1213.826.182 1.246.182.532 0 .9333-.098 1.204-.294s.406-.462.406-.798c0-.2613-.0887-.4667-.266-.616-.1773-.1587-.4573-.28-.84-.364l-1.274-.28c-1.1573-.252-1.736-.8493-1.736-1.792 0-.616.2427-1.1107.728-1.484.4947-.3733 1.1387-.56 1.932-.56.4667 0 .91.0747 1.33.224.4293.14.784.35 1.064.63l-.378.798c-.2707-.252-.588-.4433-.952-.574-.3547-.14-.7093-.21-1.064-.21-.5227 0-.9193.1027-1.19.308s-.406.476-.406.812c0 .5227.3453.8587 1.036 1.008l1.274.266c.5973.1307 1.05.3407 1.358.63.308.28.462.6627.462 1.148 0 .6253-.2473 1.12-.742 1.484-.4947.3547-1.1527.532-1.974.532zm11.862 0c-.4667 0-.8867-.0887-1.26-.266-.364-.1867-.6534-.4387-.868-.756-.2147-.3173-.322-.672-.322-1.064 0-.4947.126-.8867.378-1.176.2613-.2893.686-.4947 1.274-.616.5973-.1307 1.4093-.196 2.4359-.196h.448v-.434c0-.5787-.121-.994-.364-1.246-.233-.2613-.6113-.392-1.1339-.392-.4107 0-.8074.0607-1.19.182-.3827.112-.7747.2987-1.176.56l-.392-.826c.3546-.252.784-.4527 1.288-.602.5133-.1493 1.0033-.224 1.47-.224.8769 0 1.5259.2147 1.9459.644.429.4293.644 1.0967.644 2.002v4.284h-1.064v-1.176c-.177.4013-.453.7187-.826.952-.3639.2333-.7933.35-1.2879.35zm.182-.854c.56 0 1.0169-.1913 1.3719-.574.355-.392.532-.8867.532-1.484v-.42h-.434c-.7559 0-1.3533.0373-1.7919.112-.4294.0653-.7327.1867-.91.364-.168.168-.252.4013-.252.7 0 .3827.1306.6953.392.938.2706.2427.6346.364 1.092.364zm13.2599.854c-.682 0-1.27-.1447-1.764-.434-.495-.2987-.878-.714-1.148-1.246-.262-.5413-.392-1.1713-.392-1.89 0-1.0827.294-1.932.882-2.548.588-.6253 1.395-.938 2.422-.938.42 0 .835.0747 1.246.224.41.1493.751.3593 1.022.63l-.392.826c-.271-.2613-.57-.4527-.896-.574-.318-.1213-.621-.182-.91-.182-.71 0-1.256.224-1.638.672-.383.4387-.574 1.0733-.574 1.904 0 .812.191 1.456.574 1.932.382.4667.928.7 1.638.7.289 0 .592-.0607.91-.182.326-.1213.625-.3173.896-.588l.392.826c-.271.2707-.616.4853-1.036.644-.411.1493-.822.224-1.232.224zm4.436-.126v-9.87h1.134v4.186c.224-.4107.537-.7187.938-.924.411-.2147.868-.322 1.372-.322 1.615 0 2.422.896 2.422 2.688v4.242h-1.134v-4.172c0-.6347-.126-1.0967-.378-1.386-.243-.2987-.635-.448-1.176-.448-.625 0-1.125.196-1.498.588-.364.3827-.546.896-.546 1.54v3.878zm10.939.126c-.467 0-.887-.0887-1.26-.266-.364-.1867-.653-.4387-.868-.756s-.322-.672-.322-1.064c0-.4947.126-.8867.378-1.176.261-.2893.686-.4947 1.274-.616.597-.1307 1.409-.196 2.436-.196h.448v-.434c0-.5787-.121-.994-.364-1.246-.233-.2613-.611-.392-1.134-.392-.411 0-.807.0607-1.19.182-.383.112-.775.2987-1.176.56l-.392-.826c.355-.252.784-.4527 1.288-.602.513-.1493 1.003-.224 1.47-.224.877 0 1.526.2147 1.946.644.429.4293.644 1.0967.644 2.002v4.284h-1.064v-1.176c-.177.4013-.453.7187-.826.952-.364.2333-.793.35-1.288.35zm.182-.854c.56 0 1.017-.1913 1.372-.574.355-.392.532-.8867.532-1.484v-.42h-.434c-.756 0-1.353.0373-1.792.112-.429.0653-.733.1867-.91.364-.168.168-.252.4013-.252.7 0 .3827.131.6953.392.938.271.2427.635.364 1.092.364zm5.94.728v-6.804h1.106v1.162c.224-.4293.541-.7513.952-.966s.873-.322 1.386-.322c1.615 0 2.422.896 2.422 2.688v4.242h-1.134v-4.172c0-.6347-.126-1.0967-.378-1.386-.243-.2987-.635-.448-1.176-.448-.625 0-1.125.196-1.498.588-.364.3827-.546.896-.546 1.54v3.878zm8.797 0v-6.804h1.106v1.162c.224-.4293.541-.7513.952-.966s.873-.322 1.386-.322c1.615 0 2.422.896 2.422 2.688v4.242h-1.134v-4.172c0-.6347-.126-1.0967-.378-1.386-.243-.2987-.635-.448-1.176-.448-.625 0-1.125.196-1.498.588-.364.3827-.546.896-.546 1.54v3.878zm11.863.126c-1.073 0-1.923-.3127-2.548-.938-.625-.6347-.938-1.4933-.938-2.576 0-.7.14-1.316.42-1.848.28-.5413.663-.9567 1.148-1.246.495-.2987 1.064-.448 1.708-.448.924 0 1.647.2987 2.17.896.523.588.784 1.4.784 2.436v.434h-5.124c.037.7747.261 1.3673.672 1.778.411.4013.98.602 1.708.602.411 0 .803-.0607 1.176-.182.373-.1307.728-.3407 1.064-.63l.392.798c-.308.2893-.7.518-1.176.686-.476.1587-.961.238-1.456.238zm-.182-6.216c-.644 0-1.153.2007-1.526.602s-.593.9287-.658 1.582h4.13c-.028-.6907-.21-1.2273-.546-1.61-.327-.3827-.793-.574-1.4-.574zm7.493 6.216c-.691 0-1.213-.2007-1.568-.602-.345-.4107-.518-1.0033-.518-1.778v-7.616h1.134v7.532c0 .9987.397 1.498 1.19 1.498.233 0 .443-.028.63-.084l-.028.952c-.289.0653-.569.098-.84.098zm7.696-.126v-5.922h-1.344v-.882h1.344v-.238c0-.9053.224-1.5913.672-2.058.458-.4667 1.158-.728 2.1-.784l.546-.028.098.868-.644.042c-.578.0467-.998.2193-1.26.518-.252.2987-.378.7327-.378 1.302v.378h1.96v.882h-1.96v5.922zm7.775.126c-.663 0-1.237-.1447-1.722-.434s-.863-.6953-1.134-1.218c-.261-.532-.392-1.1573-.392-1.876s.131-1.3393.392-1.862c.271-.532.649-.9427 1.134-1.232s1.059-.434 1.722-.434c.653 0 1.223.1447 1.708.434.495.2893.873.7 1.134 1.232.271.5227.406 1.1433.406 1.862s-.135 1.344-.406 1.876c-.261.5227-.639.9287-1.134 1.218-.485.2893-1.055.434-1.708.434zm0-.91c.635 0 1.143-.224 1.526-.672.383-.4573.574-1.106.574-1.946 0-.8493-.191-1.498-.574-1.946s-.891-.672-1.526-.672c-.644 0-1.157.224-1.54.672-.373.448-.56 1.0967-.56 1.946 0 .84.187 1.4887.56 1.946.383.448.896.672 1.54.672zm5.791.784v-6.804h1.106v1.218c.364-.8213 1.111-1.274 2.24-1.358l.406-.042.084.98-.714.084c-.644.056-1.134.2613-1.47.616-.336.3453-.504.8213-.504 1.428v3.878z" fill="#fff"/></g><path d="m189 0h138v29h-138z" fill="url(#b)"/><path d="m197.419 21.2c-1.107 0-2.134-.14-3.08-.42-.947-.2933-1.747-.6867-2.4-1.18l.78-2.02c.653.4667 1.366.8267 2.14 1.08.786.2533 1.64.38 2.56.38 1.053 0 1.82-.1733 2.3-.52.48-.36.72-.82.72-1.38 0-.4667-.174-.8333-.52-1.1-.334-.2667-.914-.4867-1.74-.66l-2.2-.46c-2.507-.5333-3.76-1.82-3.76-3.86 0-.88.233-1.64667.7-2.3.466-.65333 1.113-1.16 1.94-1.52.826-.36 1.78-.54 2.86-.54.96 0 1.86.14667 2.7.44.84.28 1.54.68 2.1 1.2l-.78 1.92c-1.107-.93333-2.454-1.4-4.04-1.4-.92 0-1.64.19333-2.16.58s-.78.8933-.78 1.52c0 .48.16.8667.48 1.16.32.28.866.5 1.64.66l2.18.46c1.32.28 2.3.72 2.94 1.32.653.6.98 1.4.98 2.4 0 .84-.227 1.58-.68 2.22-.454.64-1.1 1.14-1.94 1.5-.827.3467-1.807.52-2.94.52zm8.717-.2v-14.1h2.5v5.74c.333-.5333.78-.9333 1.34-1.2.56-.28 1.18-.42 1.86-.42 2.307 0 3.46 1.34 3.46 4.02v5.96h-2.5v-5.84c0-.76-.147-1.3133-.44-1.66-.28-.3467-.72-.52-1.32-.52-.733 0-1.32.2333-1.76.7-.427.4533-.64 1.06-.64 1.82v5.5zm17.359.2c-1.013 0-1.893-.2067-2.64-.62s-1.327-1-1.74-1.76c-.413-.7733-.62-1.68-.62-2.72s.207-1.94.62-2.7.993-1.3467 1.74-1.76 1.627-.62 2.64-.62 1.893.2067 2.64.62 1.327 1 1.74 1.76.62 1.66.62 2.7-.207 1.9467-.62 2.72c-.413.76-.993 1.3467-1.74 1.76s-1.627.62-2.64.62zm0-1.9c.747 0 1.347-.2667 1.8-.8.453-.5467.68-1.3467.68-2.4 0-1.0667-.227-1.86-.68-2.38-.453-.5333-1.053-.8-1.8-.8s-1.347.2667-1.8.8c-.453.52-.68 1.3133-.68 2.38 0 1.0533.227 1.8533.68 2.4.453.5333 1.053.8 1.8.8zm8.264 1.7v-9.78h2.44v1.72c.48-1.16 1.506-1.8 3.08-1.92l.76-.06.16 2.12-1.44.14c-1.64.16-2.46 1-2.46 2.52v5.26zm14.078.2c-2.587 0-3.88-1.28-3.88-3.84v-4.26h-1.88v-1.88h1.88v-2.92h2.5v2.92h2.96v1.88h-2.96v4.12c0 .64.14 1.12.42 1.44s.733.48 1.36.48c.187 0 .38-.02.58-.06.2-.0533.407-.1067.62-.16l.38 1.84c-.24.1333-.547.24-.92.32-.36.08-.713.12-1.06.12zm15.746-.2-6.28-14.1h2.74l4.66 10.82 4.66-10.82h2.64l-6.28 14.1zm10.538-11.88v-2.44h2.8v2.44zm.16 11.88v-9.78h2.5v9.78zm10.058.2c-.853 0-1.607-.2067-2.26-.62-.64-.4133-1.14-1-1.5-1.76-.36-.7733-.54-1.68-.54-2.72 0-1.0533.18-1.9533.54-2.7.36-.76.86-1.3467 1.5-1.76.653-.4133 1.407-.62 2.26-.62.693 0 1.32.1533 1.88.46s.98.7133 1.26 1.22v-5.8h2.5v14.1h-2.44v-1.62c-.267.56-.687 1.0067-1.26 1.34-.573.32-1.22.48-1.94.48zm.7-1.9c.747 0 1.347-.2667 1.8-.8.453-.5467.68-1.3467.68-2.4 0-1.0667-.227-1.86-.68-2.38-.453-.5333-1.053-.8-1.8-.8s-1.347.2667-1.8.8c-.453.52-.68 1.3133-.68 2.38 0 1.0533.227 1.8533.68 2.4.453.5333 1.053.8 1.8.8zm13.552 1.9c-1.107 0-2.06-.2067-2.86-.62s-1.42-1-1.86-1.76c-.427-.76-.64-1.66-.64-2.7 0-1.0133.207-1.9.62-2.66.427-.76 1.007-1.3533 1.74-1.78.747-.44 1.593-.66 2.54-.66 1.387 0 2.48.44 3.28 1.32.813.88 1.22 2.08 1.22 3.6v.74h-7c.187 1.7467 1.187 2.62 3 2.62.547 0 1.093-.08 1.64-.24.547-.1733 1.047-.44 1.5-.8l.7 1.68c-.467.3867-1.053.6933-1.76.92s-1.413.34-2.12.34zm-.36-8.48c-.733 0-1.327.2267-1.78.68s-.727 1.0667-.82 1.84h4.92c-.053-.8133-.28-1.4333-.68-1.86-.387-.44-.933-.66-1.64-.66zm12.04 8.48c-1.013 0-1.893-.2067-2.64-.62s-1.327-1-1.74-1.76c-.413-.7733-.62-1.68-.62-2.72s.207-1.94.62-2.7.993-1.3467 1.74-1.76 1.627-.62 2.64-.62 1.893.2067 2.64.62 1.327 1 1.74 1.76.62 1.66.62 2.7-.207 1.9467-.62 2.72c-.413.76-.993 1.3467-1.74 1.76s-1.627.62-2.64.62zm0-1.9c.747 0 1.347-.2667 1.8-.8.453-.5467.68-1.3467.68-2.4 0-1.0667-.227-1.86-.68-2.38-.453-.5333-1.053-.8-1.8-.8s-1.347.2667-1.8.8c-.453.52-.68 1.3133-.68 2.38 0 1.0533.227 1.8533.68 2.4.453.5333 1.053.8 1.8.8zm11.843 1.9c-.826 0-1.6-.1-2.32-.3s-1.32-.4867-1.8-.86l.64-1.64c.494.3333 1.047.5933 1.66.78.614.1733 1.227.26 1.84.26.64 0 1.114-.1067 1.42-.32.32-.2267.48-.52.48-.88 0-.56-.413-.92-1.24-1.08l-2-.38c-1.693-.32-2.54-1.2-2.54-2.64 0-.64.174-1.1933.52-1.66.36-.4667.854-.8267 1.48-1.08.627-.2533 1.347-.38 2.16-.38.694 0 1.36.1 2 .3.64.1867 1.187.4733 1.64.86l-.68 1.64c-.386-.32-.853-.5733-1.4-.76-.533-.1867-1.046-.28-1.54-.28-.653 0-1.14.1133-1.46.34-.306.2267-.46.5267-.46.9 0 .5867.38.9467 1.14 1.08l2 .38c.867.16 1.52.4533 1.96.88.454.4267.68 1 .68 1.72 0 .9733-.38 1.74-1.14 2.3-.76.5467-1.773.82-3.04.82z" fill="#fff"/></svg>