<svg width="16" height="14" viewBox="0 0 16 14" fill="none" xmlns="http://www.w3.org/2000/svg">
<g clip-path="url(#clip0_12415_16628)">
<path d="M5.95 5.6002C6.27174 5.6002 6.59033 5.53682 6.88757 5.4137C7.18482 5.29058 7.45491 5.11011 7.68241 4.88261C7.90991 4.6551 8.09038 4.38502 8.2135 4.08777C8.33663 3.79052 8.4 3.47193 8.4 3.1502C8.4 2.82846 8.33663 2.50987 8.2135 2.21262C8.09038 1.91537 7.90991 1.64529 7.68241 1.41778C7.45491 1.19028 7.18482 1.00981 6.88757 0.88669C6.59033 0.763566 6.27174 0.700195 5.95 0.700195C5.30022 0.700195 4.67705 0.95832 4.21759 1.41778C3.75812 1.87725 3.5 2.50041 3.5 3.1502C3.5 3.79998 3.75812 4.42314 4.21759 4.88261C4.67705 5.34207 5.30022 5.6002 5.95 5.6002V5.6002Z" stroke="white" stroke-width="1.5" stroke-linecap="round" stroke-linejoin="round"/>
<path d="M12.6006 2.4502L14.7006 4.5502L12.6006 6.6502" stroke="white" stroke-width="1.5" stroke-linecap="round" stroke-linejoin="round"/>
<path d="M0.700195 12.8804V13.3004H11.2002V12.8804C11.2002 11.3124 11.2002 10.5284 10.895 9.92919C10.6266 9.40236 10.1982 8.97403 9.6714 8.70559C9.0722 8.40039 8.2882 8.40039 6.7202 8.40039H5.18019C3.61219 8.40039 2.8282 8.40039 2.229 8.70559C1.70216 8.97403 1.27384 9.40236 1.0054 9.92919C0.700195 10.5284 0.700195 11.3124 0.700195 12.8804Z" stroke="white" stroke-width="1.5" stroke-linecap="round" stroke-linejoin="round"/>
</g>
<defs>
<clipPath id="clip0_12415_16628">
<rect width="15.4" height="14" fill="white"/>
</clipPath>
</defs>
</svg>
