<svg width="16" height="15" viewBox="0 0 16 15" fill="none" xmlns="http://www.w3.org/2000/svg">
<g clip-path="url(#clip0_12415_16639)">
<path d="M2 2.9668C2 3.09941 2.05268 3.22658 2.14645 3.32035C2.24021 3.41412 2.36739 3.4668 2.5 3.4668H13.5C13.6326 3.4668 13.7598 3.41412 13.8536 3.32035C13.9473 3.22658 14 3.09941 14 2.9668C14 2.83419 13.9473 2.70701 13.8536 2.61324C13.7598 2.51948 13.6326 2.4668 13.5 2.4668H2.5C2.36739 2.4668 2.24021 2.51948 2.14645 2.61324C2.05268 2.70701 2 2.83419 2 2.9668ZM4 0.966797C4 1.09941 4.05268 1.22658 4.14645 1.32035C4.24022 1.41412 4.36739 1.4668 4.5 1.4668H11.5C11.6326 1.4668 11.7598 1.41412 11.8536 1.32035C11.9473 1.22658 12 1.09941 12 0.966797C12 0.834189 11.9473 0.707012 11.8536 0.613243C11.7598 0.519475 11.6326 0.466797 11.5 0.466797H4.5C4.36739 0.466797 4.24022 0.519475 4.14645 0.613243C4.05268 0.707012 4 0.834189 4 0.966797ZM6.765 6.5428C6.68931 6.49549 6.60235 6.46931 6.51312 6.46697C6.4239 6.46463 6.33568 6.48621 6.25762 6.52947C6.17955 6.57274 6.11449 6.63612 6.06919 6.71302C6.02389 6.78992 6 6.87754 6 6.9668V11.9668C6 12.056 6.02389 12.1437 6.06919 12.2206C6.11449 12.2975 6.17955 12.3609 6.25762 12.4041C6.33568 12.4474 6.4239 12.469 6.51312 12.4666C6.60235 12.4643 6.68931 12.4381 6.765 12.3908L10.765 9.8908C10.8369 9.84585 10.8962 9.78335 10.9373 9.70918C10.9784 9.63501 11 9.5516 11 9.4668C11 9.38199 10.9784 9.29858 10.9373 9.22441C10.8962 9.15024 10.8369 9.08774 10.765 9.0428L6.765 6.5428Z" fill="white"/>
<path d="M1.5 14.4668C1.10218 14.4668 0.720644 14.3088 0.43934 14.0275C0.158035 13.7462 0 13.3646 0 12.9668L0 5.9668C0 5.56897 0.158035 5.18744 0.43934 4.90614C0.720644 4.62483 1.10218 4.4668 1.5 4.4668H14.5C14.8978 4.4668 15.2794 4.62483 15.5607 4.90614C15.842 5.18744 16 5.56897 16 5.9668V12.9668C16 13.3646 15.842 13.7462 15.5607 14.0275C15.2794 14.3088 14.8978 14.4668 14.5 14.4668H1.5ZM14.5 13.4668C14.6326 13.4668 14.7598 13.4141 14.8536 13.3203C14.9473 13.2266 15 13.0994 15 12.9668V5.9668C15 5.83419 14.9473 5.70701 14.8536 5.61324C14.7598 5.51948 14.6326 5.4668 14.5 5.4668H1.5C1.36739 5.4668 1.24021 5.51948 1.14645 5.61324C1.05268 5.70701 1 5.83419 1 5.9668V12.9668C1 13.0994 1.05268 13.2266 1.14645 13.3203C1.24021 13.4141 1.36739 13.4668 1.5 13.4668H14.5Z" fill="white"/>
</g>
<defs>
<clipPath id="clip0_12415_16639">
<rect width="16" height="15" fill="white"/>
</clipPath>
</defs>
</svg>
