<svg width="50" height="149" viewBox="0 0 50 149" fill="none" xmlns="http://www.w3.org/2000/svg">
<g filter="url(#filter0_d_8829_6453)">
<rect x="4.5" y="0.5" width="41" height="139.903" rx="20.5" stroke="#030C23"/>
<line opacity="0.25" x1="24.8225" y1="40.6453" x2="24.8225" y2="115.161" stroke="#9B9B9B"/>
<g opacity="0.8">
<path d="M38.3808 114.538C37.246 112.215 34.0701 110.314 30.1744 111.421C29.0957 111.727 28.0899 112.247 27.217 112.95C26.344 113.652 25.6216 114.523 25.093 115.51C24.2358 116.905 23.5989 118.424 23.2044 120.013L27.676 121.99L23.7803 125.682L26.736 129.146L28.0233 128.048L26.1347 125.826L30.7079 121.491L25.3217 119.067C25.7648 117.83 26.3837 116.664 27.1594 115.603C27.9973 114.388 29.2249 113.494 30.6402 113.068C33.4688 112.316 36.0095 113.575 36.8564 115.307C38.1691 117.994 37.5763 120.984 35.044 124.44C32.3504 127.891 29.1993 130.96 25.6774 133.565C22.1537 130.952 19.0026 127.874 16.3106 124.415C13.77 120.951 13.1856 117.96 14.4983 115.282C14.9544 114.499 15.6156 113.855 16.4109 113.419C17.2061 112.983 18.1054 112.771 19.0123 112.806C19.5855 112.809 20.1556 112.892 20.7061 113.051C21.7906 113.358 22.7768 113.94 23.5686 114.741L23.6956 114.487C23.9451 114.068 24.2283 113.67 24.5425 113.296C23.5951 112.416 22.4513 111.773 21.2057 111.421C17.3777 110.331 14.1087 112.215 12.9739 114.538C11.3817 117.791 12.0423 121.449 14.9387 125.412C17.2084 128.512 20.452 131.655 25.1607 135.305C25.3096 135.421 25.4929 135.484 25.6816 135.484C25.8703 135.484 26.0536 135.421 26.2024 135.305C30.9027 131.664 34.1548 128.546 36.4245 125.412C39.3124 121.449 39.973 117.791 38.3808 114.538Z" fill="#9B9B9B"/>
</g>
<g opacity="0.8">
<path d="M25.3083 66.8498V85.0491C30.9952 81.1479 34.1468 77.5664 35.6641 74.5763C37.2374 71.4692 37.0446 69.0376 36.1814 67.3522C34.3461 63.769 29.2621 62.7839 26.4895 65.6339L25.3083 66.8498ZM25.3083 87.0342C0.0480433 70.3423 17.5307 57.3144 25.0183 64.2056C25.1172 64.2962 25.2144 64.3901 25.3083 64.4873C25.4012 64.3902 25.4979 64.2968 25.5982 64.2073C33.0842 57.3111 50.5685 70.3407 25.3083 87.0342Z" fill="#9B9B9B"/>
<mask id="path-5-inside-1_8829_6453" fill="white">
<path d="M44.6451 75.1935C44.6451 72.6137 44.1369 70.0591 43.1497 67.6756C42.1624 65.2922 40.7153 63.1265 38.8911 61.3023C37.0669 59.4781 34.9012 58.031 32.5178 57.0437C30.1343 56.0565 27.5797 55.5483 24.9999 55.5483C22.4201 55.5483 19.8655 56.0565 17.482 57.0437C15.0986 58.031 12.9329 59.4781 11.1087 61.3023C9.28445 63.1265 7.8374 65.2922 6.85013 67.6756C5.86287 70.0591 5.35474 72.6137 5.35474 75.1935H7.18292C7.18292 72.8537 7.64377 70.5369 8.53916 68.3752C9.43455 66.2136 10.7469 64.2495 12.4014 62.595C14.0559 60.9405 16.02 59.6282 18.1816 58.7328C20.3433 57.8374 22.6601 57.3765 24.9999 57.3765C27.3397 57.3765 29.6565 57.8374 31.8182 58.7328C33.9798 59.6282 35.9439 60.9405 37.5984 62.595C39.2529 64.2495 40.5652 66.2136 41.4606 68.3752C42.356 70.5369 42.8169 72.8537 42.8169 75.1935H44.6451Z"/>
</mask>
<path d="M44.6451 75.1935C44.6451 72.6137 44.1369 70.0591 43.1497 67.6756C42.1624 65.2922 40.7153 63.1265 38.8911 61.3023C37.0669 59.4781 34.9012 58.031 32.5178 57.0437C30.1343 56.0565 27.5797 55.5483 24.9999 55.5483C22.4201 55.5483 19.8655 56.0565 17.482 57.0437C15.0986 58.031 12.9329 59.4781 11.1087 61.3023C9.28445 63.1265 7.8374 65.2922 6.85013 67.6756C5.86287 70.0591 5.35474 72.6137 5.35474 75.1935H7.18292C7.18292 72.8537 7.64377 70.5369 8.53916 68.3752C9.43455 66.2136 10.7469 64.2495 12.4014 62.595C14.0559 60.9405 16.02 59.6282 18.1816 58.7328C20.3433 57.8374 22.6601 57.3765 24.9999 57.3765C27.3397 57.3765 29.6565 57.8374 31.8182 58.7328C33.9798 59.6282 35.9439 60.9405 37.5984 62.595C39.2529 64.2495 40.5652 66.2136 41.4606 68.3752C42.356 70.5369 42.8169 72.8537 42.8169 75.1935H44.6451Z" stroke="#9B9B9B" stroke-width="2" mask="url(#path-5-inside-1_8829_6453)"/>
</g>
<g opacity="0.8">
<path fill-rule="evenodd" clip-rule="evenodd" d="M25.0306 11.6031C32.1881 4.24573 50.0832 17.1204 25.0306 33.6753C-0.0219707 17.122 17.8732 4.24573 25.0306 11.6031Z" fill="#FF5C28"/>
<path d="M44.6451 20.9999C44.6451 31.8496 35.8496 40.6451 24.9999 40.6451C14.1502 40.6451 5.35474 31.8496 5.35474 20.9999C5.35474 10.1502 14.1502 1.35474 24.9999 1.35474C35.8496 1.35474 44.6451 10.1502 44.6451 20.9999ZM7.18292 20.9999C7.18292 30.8399 15.1599 38.8169 24.9999 38.8169C34.8399 38.8169 42.8169 30.8399 42.8169 20.9999C42.8169 11.1599 34.8399 3.18292 24.9999 3.18292C15.1599 3.18292 7.18292 11.1599 7.18292 20.9999Z" fill="url(#paint0_linear_8829_6453)"/>
</g>
</g>
<defs>
<filter id="filter0_d_8829_6453" x="0" y="0" width="50" height="148.903" filterUnits="userSpaceOnUse" color-interpolation-filters="sRGB">
<feFlood flood-opacity="0" result="BackgroundImageFix"/>
<feColorMatrix in="SourceAlpha" type="matrix" values="0 0 0 0 0 0 0 0 0 0 0 0 0 0 0 0 0 0 127 0" result="hardAlpha"/>
<feOffset dy="4"/>
<feGaussianBlur stdDeviation="2"/>
<feColorMatrix type="matrix" values="0 0 0 0 0 0 0 0 0 0 0 0 0 0 0 0 0 0 0.25 0"/>
<feBlend mode="normal" in2="BackgroundImageFix" result="effect1_dropShadow_8829_6453"/>
<feBlend mode="normal" in="SourceGraphic" in2="effect1_dropShadow_8829_6453" result="shape"/>
</filter>
<linearGradient id="paint0_linear_8829_6453" x1="24.9999" y1="1.35474" x2="24.9999" y2="40.6451" gradientUnits="userSpaceOnUse">
<stop offset="0.114583" stop-color="#FFA88C"/>
<stop offset="0.671875" stop-color="#FF5C28"/>
</linearGradient>
</defs>
</svg>
