<svg fill="none" height="17" viewBox="0 0 15 17" width="15" xmlns="http://www.w3.org/2000/svg" xmlns:xlink="http://www.w3.org/1999/xlink"><linearGradient id="a" gradientUnits="userSpaceOnUse" x1="7.5" x2="7.5" y1="0" y2="17"><stop offset=".114583" stop-color="#ffa88c"/><stop offset=".671875" stop-color="#ff5c28"/></linearGradient><path d="m.577067 0c.153008 0 .299749.0597023.407942.165973.108191.106271.168971.250404.168971.400694 0 4.107203 3.31843 7.366663 7.49993 7.366663h.91499l-1.32345-1.2988c-.05364-.05268-.09619-.11523-.12522-.18407s-.04397-.14262-.04397-.21713.01494-.14829.04397-.21712c.02903-.06884.07158-.13139.12522-.18408.10833-.1064.25526-.16618.40846-.16618.07586 0 .15097.01468.22106.04319.07008.02851.13376.07031.1874.12299l2.30763 2.26667c.0538.05264.0964.11517.1255.18402.0291.06884.044.14264.044.21718s-.0149.14834-.044.21718c-.0291.06885-.0717.13138-.1255.18402l-2.30763 2.2667c-.05364.0527-.11732.0944-.1874.123-.07009.0285-.1452.0431-.22106.0431s-.15097-.0146-.22106-.0431c-.07008-.0286-.13376-.0703-.1874-.123s-.09619-.1153-.12522-.1841-.04397-.1426-.04397-.2171.01494-.1483.04397-.2172c.02903-.0688.07158-.1313.12522-.184l1.32345-1.29883h-.91499c-.98674-.00648-1.96497.17964-2.87788.54756s-1.74232.91027-2.44007 1.59567c-.69775.6853-1.24994 1.5-1.62451 2.3967s-.56406 1.8575-.55747 2.8267c0 .1503-.06078.2945-.168971.4007-.108193.1063-.254934.166-.407942.166s-.299749-.0597-.407942-.166c-.1081933-.1062-.16897555-.2504-.16897555-.4007-.01029575-1.7157.51159955-3.3938 1.49623055-4.811.98464-1.4172 2.38531-2.50629 4.01564-3.1223-1.63033-.61601-3.031-1.70508-4.01564-3.12228-.984631-1.41721-1.5065263-3.09533-1.49623055-4.811053 0-.15029.06078225-.294423.16897555-.400694.108193-.1062707.254934-.165973.407942-.165973zm6.383013 10.4187c-1.41568.3732-2.65352 1.2217-3.49843 2.3982v.7831c0 .6012.24313 1.1777.6759 1.6028.43278.4251 1.01974.6639 1.63177.6639h6.92298c.6121 0 1.199-.2388 1.6318-.6639s.6759-1.0016.6759-1.6028v-10.2c0-.60116-.2431-1.17769-.6759-1.60278-.4328-.42508-1.0197-.66389-1.6318-.66389h-6.92298c-.61203 0-1.19899.23881-1.63177.66389-.43277.42509-.6759 1.00162-.6759 1.60278v.78313c.84484 1.17653 2.08271 2.02508 3.49843 2.39814-.07662-.35834-.03332-.73141.12345-1.06362s.41862-.60577.74653-.77994.70434-.23961 1.07319-.18658.71039.2217.97373.48087l2.30762 2.26667c.1609.15787.2885.34533.3755.55165.0871.20632.1319.42747.1319.65081s-.0448.44449-.1319.65082c-.087.20632-.2146.39378-.3755.55165l-2.30762 2.2667c-.26349.2595-.60531.4284-.97451.4816-.36919.0531-.74599-.0123-1.07422-.1866-.32824-.1744-.59032-.4482-.74719-.7808-.15686-.3325-.20011-.706-.12329-1.0646z" fill="url(#a)"/></svg>