<svg width="29" height="28" viewBox="0 0 29 28" fill="none" xmlns="http://www.w3.org/2000/svg">
<path d="M17.9237 17.8459C17.8604 17.8372 17.7958 17.8442 17.7358 17.8663C17.6757 17.8883 17.6218 17.9248 17.5789 17.9726C17.5352 18.0195 17.5032 18.0762 17.4855 18.138C17.4677 18.1998 17.4647 18.2649 17.4767 18.3281C17.7006 19.5132 18.4543 21.1397 20.7682 22.1524C21.0424 22.2717 21.4659 22.3649 22.003 22.4818C24.0135 22.9198 27.3756 23.6538 28.2015 26.758C28.2154 26.8099 28.2392 26.8585 28.2717 26.9011C28.3043 26.9437 28.3448 26.9795 28.391 27.0063C28.4372 27.0331 28.4882 27.0505 28.5411 27.0575C28.594 27.0645 28.6478 27.0609 28.6993 27.0469C28.7508 27.033 28.7991 27.0089 28.8414 26.9762C28.8836 26.9434 28.9191 26.9026 28.9458 26.856C28.9724 26.8095 28.9897 26.7581 28.9966 26.7048C29.0035 26.6515 28.9999 26.5974 28.9861 26.5455C28.0311 22.9599 24.222 22.1287 22.175 21.6824C21.7012 21.5786 21.2915 21.4895 21.0911 21.4013C19.7005 20.7932 18.8024 19.8908 18.4129 18.7155C22.2765 19.0049 24.0257 17.4544 24.1027 17.3841C24.1503 17.3408 24.1869 17.2867 24.2097 17.2263C24.2324 17.1659 24.2407 17.101 24.2337 17.0368C24.2267 16.9726 24.2048 16.911 24.1696 16.857C24.1344 16.803 24.087 16.7582 24.0313 16.7262C21.8018 15.443 21.8018 11.009 21.8018 9.33921C21.8018 4.66985 18.6799 0.968197 14.6776 0.910167C14.6395 0.908888 14.6014 0.908071 14.5632 0.907715H14.5624C10.5018 0.9306 7.19807 4.63634 7.19807 9.16921C7.19807 10.839 7.19807 15.2738 4.96856 16.5562C4.91109 16.5898 4.86264 16.6371 4.82742 16.6938C4.79221 16.7506 4.77129 16.8152 4.76649 16.882C4.7617 16.9488 4.77316 17.0157 4.79989 17.077C4.82662 17.1383 4.86781 17.1921 4.91988 17.2337C5.03184 17.3212 7.50637 19.2288 10.5513 18.6493C10.144 19.7756 9.25801 20.642 7.90797 21.2329C7.71244 21.3187 7.32301 21.4127 6.87192 21.5206C4.81116 22.0142 0.97443 22.9337 0.0138267 26.5447C2.92357e-05 26.5966 -0.00348666 26.6507 0.00347973 26.7039C0.0104461 26.7572 0.0277584 26.8086 0.054428 26.8551C0.10829 26.9491 0.196997 27.0176 0.301034 27.0457C0.405071 27.0738 0.515917 27.059 0.609186 27.0048C0.702455 26.9505 0.770508 26.8612 0.798373 26.7563C1.63322 23.6146 5.03103 22.8013 7.06014 22.3142C7.56884 22.1924 7.97044 22.096 8.23169 21.9824C10.5456 20.9697 11.2985 19.3432 11.5232 18.1581C11.5366 18.0887 11.5317 18.017 11.509 17.95C11.4864 17.8831 11.4468 17.8232 11.3942 17.7764C11.342 17.7292 11.2785 17.6965 11.2099 17.6816C11.1413 17.6667 11.07 17.6701 11.0032 17.6914C8.80691 18.3878 6.7778 17.4299 5.89103 16.8986C8.00939 15.112 8.00939 11 8.00939 9.16921C8.00939 5.08505 10.9512 1.74547 14.5973 1.7234L14.6833 1.72831C18.2791 1.7798 20.9905 5.05154 20.9905 9.33921C20.9905 11.1708 20.9905 15.2918 23.1178 17.0784C22.3852 17.5002 20.7147 18.1826 17.9237 17.8459Z" fill="white"/>
</svg>
