<svg width="22" height="20" viewBox="0 0 22 20" fill="none" xmlns="http://www.w3.org/2000/svg">
<g clip-path="url(#clip0_16673_8516)">
<path d="M8.5 8C8.95963 8 9.41475 7.90947 9.83939 7.73358C10.264 7.55769 10.6499 7.29988 10.9749 6.97487C11.2999 6.64987 11.5577 6.26403 11.7336 5.83939C11.9095 5.41475 12 4.95963 12 4.5C12 4.04037 11.9095 3.58525 11.7336 3.16061C11.5577 2.73597 11.2999 2.35013 10.9749 2.02513C10.6499 1.70012 10.264 1.44231 9.83939 1.26642C9.41475 1.09053 8.95963 1 8.5 1C7.57174 1 6.6815 1.36875 6.02513 2.02513C5.36875 2.6815 5 3.57174 5 4.5C5 5.42826 5.36875 6.3185 6.02513 6.97487C6.6815 7.63125 7.57174 8 8.5 8V8Z" stroke="white" stroke-width="1.5" stroke-linecap="round" stroke-linejoin="round"/>
<path d="M18 3.5L21 6.5L18 9.5" stroke="white" stroke-width="1.5" stroke-linecap="round" stroke-linejoin="round"/>
<path d="M1 18.4V19H16V18.4C16 16.16 16 15.04 15.564 14.184C15.1805 13.4314 14.5686 12.8195 13.816 12.436C12.96 12 11.84 12 9.6 12H7.4C5.16 12 4.04 12 3.184 12.436C2.43139 12.8195 1.81949 13.4314 1.436 14.184C1 15.04 1 16.16 1 18.4Z" stroke="white" stroke-width="1.5" stroke-linecap="round" stroke-linejoin="round"/>
</g>
<defs>
<clipPath id="clip0_16673_8516">
<rect width="22" height="20" fill="white"/>
</clipPath>
</defs>
</svg>
