<svg width="26" height="20" viewBox="0 0 26 20" fill="none" xmlns="http://www.w3.org/2000/svg">
<path d="M16.1264 4.72749C16.1278 6.52926 14.6514 7.99624 12.8359 7.99695C11.039 7.99824 9.58133 6.53026 9.58062 4.72007C9.54748 2.95258 11.0507 1.43004 12.8966 1.45489C14.664 1.47888 16.1245 2.93715 16.1264 4.72749Z" fill="white"/>
<path d="M4.48242 17.6992C6.07937 18.0397 8.87822 18.5236 12.2542 18.6276V19.9946C10.0833 19.9845 7.57349 19.7992 4.70138 19.346L4.48242 17.6992Z" fill="white"/>
<path d="M21.1356 17.8677L20.8773 19.4673C17.7148 19.9662 15.7178 20.0272 13.458 19.9915V18.6424C17.0791 18.5961 19.4218 18.2303 21.1356 17.8677Z" fill="white"/>
<path d="M25.6339 0L23.6563 6.64604L21.3041 16.561C18.9165 17.1921 16.3452 17.5082 13.8208 17.5608H13.4573V16.5985H15.3589C15.4501 16.5985 15.4956 16.553 15.4955 16.462V15.6622C15.4955 15.569 15.45 15.5225 15.3589 15.5225H12.3881C12.297 15.5225 12.2515 15.569 12.2516 15.6622V17.5671C9.58757 17.5443 6.856 17.2293 4.3301 16.5615L1.97759 6.64604L0 0C0.559597 1.0105 2.20868 3.8979 3.59482 5.41601L3.59868 5.42087C5.83164 8.1593 8.95527 10.7803 12.7066 10.7279H12.7275H12.7485C12.7696 10.7279 12.7906 10.7279 12.8116 10.7279H12.8223C12.8433 10.7279 12.8643 10.7279 12.8855 10.7279H12.9064H12.9273C16.6791 10.7803 19.8023 8.1593 22.0353 5.42087L22.0391 5.41601C23.4253 3.8979 25.0743 1.0105 25.6339 0Z" fill="white"/>
</svg>
