<svg width="30" height="28" viewBox="0 0 30 28" fill="none" xmlns="http://www.w3.org/2000/svg">
<g clip-path="url(#clip0_16269_19037)">
<g filter="url(#filter0_d_16269_19037)">
<path d="M3.73328 5.53776C3.73328 5.7853 3.83161 6.02269 4.00664 6.19773C4.18168 6.37276 4.41907 6.47109 4.66661 6.47109H25.1999C25.4475 6.47109 25.6849 6.37276 25.8599 6.19773C26.0349 6.02269 26.1333 5.7853 26.1333 5.53776C26.1333 5.29023 26.0349 5.05283 25.8599 4.87779C25.6849 4.70276 25.4475 4.60443 25.1999 4.60443H4.66661C4.41907 4.60443 4.18168 4.70276 4.00664 4.87779C3.83161 5.05283 3.73328 5.29023 3.73328 5.53776ZM7.46661 1.80443C7.46661 2.05196 7.56494 2.28936 7.73998 2.46439C7.91501 2.63943 8.15241 2.73776 8.39994 2.73776H21.4666C21.7141 2.73776 21.9515 2.63943 22.1266 2.46439C22.3016 2.28936 22.3999 2.05196 22.3999 1.80443C22.3999 1.55689 22.3016 1.31949 22.1266 1.14446C21.9515 0.969427 21.7141 0.871094 21.4666 0.871094H8.39994C8.15241 0.871094 7.91501 0.969427 7.73998 1.14446C7.56494 1.31949 7.46661 1.55689 7.46661 1.80443ZM12.6279 12.213C12.4867 12.1247 12.3243 12.0758 12.1578 12.0714C11.9912 12.067 11.8265 12.1073 11.6808 12.1881C11.5351 12.2689 11.4137 12.3872 11.3291 12.5307C11.2445 12.6743 11.1999 12.8378 11.1999 13.0044V22.3378C11.1999 22.5044 11.2445 22.6679 11.3291 22.8115C11.4137 22.955 11.5351 23.0733 11.6808 23.1541C11.8265 23.2349 11.9912 23.2751 12.1578 23.2708C12.3243 23.2664 12.4867 23.2175 12.6279 23.1292L20.0946 18.4626C20.2288 18.3787 20.3395 18.262 20.4163 18.1235C20.493 17.9851 20.5333 17.8294 20.5333 17.6711C20.5333 17.5128 20.493 17.3571 20.4163 17.2186C20.3395 17.0802 20.2288 16.9635 20.0946 16.8796L12.6279 12.213Z" fill="white"/>
<path d="M2.8 27.0046C2.05739 27.0046 1.3452 26.7096 0.820101 26.1845C0.294999 25.6594 0 24.9472 0 24.2046L0 11.1379C0 10.3953 0.294999 9.68309 0.820101 9.15799C1.3452 8.63289 2.05739 8.33789 2.8 8.33789H27.0667C27.8093 8.33789 28.5215 8.63289 29.0466 9.15799C29.5717 9.68309 29.8667 10.3953 29.8667 11.1379V24.2046C29.8667 24.9472 29.5717 25.6594 29.0466 26.1845C28.5215 26.7096 27.8093 27.0046 27.0667 27.0046H2.8ZM27.0667 25.1379C27.3142 25.1379 27.5516 25.0396 27.7266 24.8645C27.9017 24.6895 28 24.4521 28 24.2046V11.1379C28 10.8904 27.9017 10.653 27.7266 10.4779C27.5516 10.3029 27.3142 10.2046 27.0667 10.2046H2.8C2.55246 10.2046 2.31507 10.3029 2.14003 10.4779C1.965 10.653 1.86667 10.8904 1.86667 11.1379V24.2046C1.86667 24.4521 1.965 24.6895 2.14003 24.8645C2.31507 25.0396 2.55246 25.1379 2.8 25.1379H27.0667Z" fill="white"/>
</g>
</g>
<defs>
<filter id="filter0_d_16269_19037" x="-2" y="0.871094" width="33.8667" height="30.1333" filterUnits="userSpaceOnUse" color-interpolation-filters="sRGB">
<feFlood flood-opacity="0" result="BackgroundImageFix"/>
<feColorMatrix in="SourceAlpha" type="matrix" values="0 0 0 0 0 0 0 0 0 0 0 0 0 0 0 0 0 0 127 0" result="hardAlpha"/>
<feOffset dy="2"/>
<feGaussianBlur stdDeviation="1"/>
<feComposite in2="hardAlpha" operator="out"/>
<feColorMatrix type="matrix" values="0 0 0 0 0 0 0 0 0 0 0 0 0 0 0 0 0 0 0.25 0"/>
<feBlend mode="normal" in2="BackgroundImageFix" result="effect1_dropShadow_16269_19037"/>
<feBlend mode="normal" in="SourceGraphic" in2="effect1_dropShadow_16269_19037" result="shape"/>
</filter>
<clipPath id="clip0_16269_19037">
<rect width="29.8667" height="28" fill="white"/>
</clipPath>
</defs>
</svg>
