<svg width="22" height="20" viewBox="0 0 22 20" fill="none" xmlns="http://www.w3.org/2000/svg">
<path d="M19.0638 3.65957H15.4468V2.7234C15.4468 1.95745 15.1844 1.31206 14.6596 0.787234C14.1348 0.262411 13.4894 0 12.7234 0H9.06383C8.29787 0 7.65248 0.262411 7.12766 0.787234C6.60284 1.31206 6.34042 1.95745 6.34042 2.7234V3.65957H2.7234C1.95745 3.65957 1.31206 3.91489 0.787234 4.42553C0.262411 4.93617 0 5.58865 0 6.38298V10C0 10.5957 0.297872 10.8936 0.893617 10.8936V18.1702C0.893617 18.6525 1.07801 19.078 1.44681 19.4468C1.8156 19.8156 2.24113 20 2.7234 20H19.0638C19.5461 20 19.9716 19.8156 20.3404 19.4468C20.7092 19.078 20.8936 18.6525 20.8936 18.1702V10.8936C21.4894 10.8936 21.7872 10.5957 21.7872 10V6.38298C21.7872 5.58865 21.5248 4.93617 21 4.42553C20.4752 3.91489 19.8298 3.65957 19.0638 3.65957ZM8.17021 2.7234C8.17021 2.46809 8.25532 2.25532 8.42553 2.08511C8.59574 1.91489 8.80851 1.82979 9.06383 1.82979H12.7234C12.9787 1.82979 13.1915 1.91489 13.3617 2.08511C13.5319 2.25532 13.617 2.46809 13.617 2.7234V3.65957H8.17021V2.7234ZM2.7234 18.1702V10.8936H8.17021V13.617C8.17021 14.1277 8.34752 14.5603 8.70213 14.9149C9.05674 15.2695 9.48936 15.4468 10 15.4468H11.7872C12.2979 15.4468 12.7305 15.2695 13.0851 14.9149C13.4397 14.5603 13.617 14.1277 13.617 13.617V10.8936H19.0638V18.1702H2.7234ZM10 13.617V10.8936H11.7872V13.617H10ZM19.9574 9.10638H1.82979V6.38298C1.82979 5.75886 2.12766 5.44681 2.7234 5.44681H19.0638C19.6596 5.44681 19.9574 5.75886 19.9574 6.38298V9.10638Z" fill="white"/>
</svg>
