<svg width="19" height="16" viewBox="0 0 19 16" fill="none" xmlns="http://www.w3.org/2000/svg">
<path d="M16.7351 1.41452C16.292 0.966073 15.7659 0.610337 15.1869 0.367629C14.6079 0.124922 13.9873 0 13.3605 0C12.7338 0 12.1132 0.124922 11.5341 0.367629C10.9551 0.610337 10.4291 0.966073 9.98598 1.41452L9.06643 2.34476L8.14689 1.41452C7.2519 0.509117 6.03804 0.0004693 4.77234 0.000469309C3.50663 0.000469319 2.29277 0.509117 1.39779 1.41452C0.502798 2.31992 9.43022e-09 3.5479 0 4.82833C-9.43022e-09 6.10875 0.502798 7.33674 1.39779 8.24214L2.31733 9.17238L9.06643 16L15.8155 9.17238L16.7351 8.24214C17.1784 7.79391 17.53 7.26171 17.7699 6.67596C18.0098 6.0902 18.1333 5.46237 18.1333 4.82833C18.1333 4.19428 18.0098 3.56645 17.7699 2.9807C17.53 2.39494 17.1784 1.86275 16.7351 1.41452Z" fill="#9B9B9B"/>
</svg>
