<svg width="29" height="29" viewBox="0 0 29 29" fill="none" xmlns="http://www.w3.org/2000/svg">
<path d="M8.74027 6.19235L8.38672 5.8388L8.74027 5.48524L11.4111 2.81439C11.407 2.79945 11.3985 2.7758 11.3814 2.74227C11.3132 2.60857 11.2319 2.54838 11.1212 2.52039L0.995333 0.744839L2.72502 10.9293C2.74862 11.0447 2.8029 11.1222 2.92503 11.1866C2.9655 11.2048 2.9931 11.2126 3.00954 11.216L5.67597 8.54954L6.02952 8.19599L6.38308 8.54954L25.7892 27.9557C25.8749 28.0414 25.9333 28.0591 25.9655 28.0633L25.9649 28.0681L25.9656 28.0633C25.9669 28.0635 25.9681 28.0637 25.9692 28.0638L28.2545 25.7785C28.2544 25.7774 28.2542 25.7761 28.2541 25.7748L28.2588 25.7742L28.2541 25.7748C28.2499 25.7426 28.2321 25.6842 28.1464 25.5985L8.74027 6.19235Z" stroke="#0060FF"/>
</svg>
