<svg width="26" height="22" viewBox="0 0 26 22" fill="none" xmlns="http://www.w3.org/2000/svg">
<path d="M23.9952 1.94496C23.3599 1.32835 22.6056 0.839213 21.7754 0.50549C20.9451 0.171768 20.0553 0 19.1566 0C18.258 0 17.3681 0.171768 16.5379 0.50549C15.7077 0.839213 14.9534 1.32835 14.3181 1.94496L12.9997 3.22404L11.6812 1.94496C10.398 0.700036 8.65749 0.000645287 6.84269 0.0006453C5.0279 0.000645313 3.28743 0.700036 2.00418 1.94496C0.720924 3.18988 1.35213e-08 4.87836 0 6.63895C-1.35213e-08 8.39954 0.720924 10.088 2.00418 11.3329L3.32264 12.612L12.9997 22L22.6767 12.612L23.9952 11.3329C24.6308 10.7166 25.1349 9.98485 25.4789 9.17944C25.8229 8.37403 26 7.51076 26 6.63895C26 5.76714 25.8229 4.90387 25.4789 4.09846C25.1349 3.29305 24.6308 2.56128 23.9952 1.94496Z" fill="url(#paint0_linear_12766_15486)"/>
<defs>
<linearGradient id="paint0_linear_12766_15486" x1="13" y1="0" x2="13" y2="22" gradientUnits="userSpaceOnUse">
<stop offset="0.114583" stop-color="#FFA88C"/>
<stop offset="0.671875" stop-color="#FF5C28"/>
</linearGradient>
</defs>
</svg>
