<svg fill="none" height="24" viewBox="0 0 27 24" width="27" xmlns="http://www.w3.org/2000/svg" xmlns:xlink="http://www.w3.org/1999/xlink"><filter id="a" color-interpolation-filters="sRGB" filterUnits="userSpaceOnUse" height="24" width="27" x="0" y="0"><feFlood flood-opacity="0" result="BackgroundImageFix"/><feColorMatrix in="SourceAlpha" result="hardAlpha" type="matrix" values="0 0 0 0 0 0 0 0 0 0 0 0 0 0 0 0 0 0 127 0"/><feOffset dy="2"/><feGaussianBlur stdDeviation="1"/><feComposite in2="hardAlpha" operator="out"/><feColorMatrix type="matrix" values="0 0 0 0 0 0 0 0 0 0 0 0 0 0 0 0 0 0 0.25 0"/><feBlend in2="BackgroundImageFix" mode="normal" result="effect1_dropShadow_10664_14651"/><feBlend in="SourceGraphic" in2="effect1_dropShadow_10664_14651" mode="normal" result="shape"/></filter><linearGradient id="b" gradientUnits="userSpaceOnUse" x1="14" x2="14" y1="0" y2="8"><stop offset=".114583" stop-color="#ffa88c"/><stop offset=".671875" stop-color="#ff5c28"/></linearGradient><mask id="c" fill="#fff"><path d="m10.7917 9.99985c-2.56536 0-6.56896 0-6.56896 0l-2.19669-8.73895c-.01406-.05078-.02263-.10294-.02555-.15555-.02445-.801122.85778-1.356681 1.62223-.990011l20.60017 9.884511-20.60017 9.88455c-.75556.3633-1.62668-.1767-1.62223-.9634.00225-.0703.01459-.1399.03666-.2066l1.63002-5.3812" fill="#fff"/></mask><g filter="url(#a)"><path d="m10.7917 10.9999c.5523 0 1-.4478 1-1.00005 0-.55228-.4477-1-1-1zm-6.56896-1.00005-.96983.24375c.11174.4446.51144.7563.96983.7563zm-2.19669-8.73895.96983-.24378c-.00194-.00774-.00398-.01545-.00611-.023137zm-.02555-.15555-.99954.03049c.00026.00832.00061.01664.00107.02494zm1.62223-.990011.43261-.901584-.00013-.000062zm20.60017 9.884511.4326.90155c.3468-.1664.5674-.5169.5674-.90155 0-.38464-.2206-.73519-.5674-.90158zm-20.60017 9.88455-.4326-.9016-.00078.0004zm-1.62223-.9634-.99949-.032c-.00028.0088-.00045.0176-.0005.0264zm.03666-.2066.94949.3138c.00262-.008.00515-.0159.00757-.0239zm2.58707-5.0913c.16011-.5286-.13858-1.0868-.66715-1.2469-.52857-.1602-1.08685.1385-1.24696.6671zm6.16747-4.62325c-.005 0-.0101 0-.0151 0s-.01 0-.0151 0c-.005 0-.01 0-.0151 0-.005 0-.0101 0-.0151 0-.0051 0-.0101 0-.0152 0s-.0101 0-.0152 0-.0102 0-.0152 0c-.0051 0-.0102 0-.0153 0s-.0102 0-.0153 0-.0102 0-.0153 0c-.0052 0-.0103 0-.0154 0s-.0103 0-.0154 0-.0103 0-.0154 0c-.0052 0-.0103 0-.0155 0-.0051 0-.0103 0-.0155 0-.0051 0-.0103 0-.0155 0-.0051 0-.0103 0-.0155 0s-.0104 0-.0156 0-.0104 0-.0156 0-.0104 0-.0156 0-.0104 0-.0157 0c-.0052 0-.0104 0-.0156 0-.0053 0-.0105 0-.0158 0-.0052 0-.0104 0-.0157 0-.0052 0-.0105 0-.0158 0-.0052 0-.0105 0-.0158 0-.0052 0-.0105 0-.0158 0-.0052 0-.0105 0-.0158 0s-.0106 0-.0159 0-.0106 0-.0159 0-.0106 0-.0159 0-.0106 0-.016 0c-.0053 0-.0106 0-.0159 0-.0054 0-.0107 0-.016 0-.0054 0-.0107 0-.016 0-.0054 0-.0107 0-.0161 0-.0053 0-.0107 0-.0161 0-.0053 0-.0107 0-.0161 0-.0053 0-.0107 0-.0161 0s-.0107 0-.0161 0-.0108 0-.0162 0-.0108 0-.0162 0-.0108 0-.0162 0-.0108 0-.0162 0-.0108 0-.0163 0c-.0054 0-.0108 0-.0162 0-.0055 0-.0109 0-.0163 0-.0055 0-.0109 0-.0164 0-.0054 0-.0109 0-.0163 0-.0055 0-.0109 0-.0164 0-.00543 0-.01089 0-.01635 0-.00547 0-.01094 0-.01641 0s-.01094 0-.01642 0-.01096 0-.01645 0c-.00548 0-.01097 0-.01646 0s-.01099 0-.01648 0c-.0055 0-.011 0-.01651 0-.0055 0-.01101 0-.01652 0s-.01102 0-.01654 0-.01104 0-.01656 0-.01105 0-.01658 0-.01106 0-.01659 0c-.00554 0-.01107 0-.01662 0-.00554 0-.01108 0-.01663 0-.00554 0-.01109 0-.01664 0-.00556 0-.01111 0-.01667 0s-.01112 0-.01668 0c-.00557 0-.01113 0-.0167 0s-.01114 0-.01672 0c-.00557 0-.01115 0-.01673 0s-.01116 0-.01675 0c-.00558 0-.01117 0-.01676 0s-.01118 0-.01678 0c-.00559 0-.01119 0-.01679 0s-.01121 0-.01681 0c-.00561 0-.01121 0-.01682 0s-.01123 0-.01684 0c-.00562 0-.01123 0-.01685 0s-.01125 0-.01687 0-.01125 0-.01688 0-.01126 0-.01689 0c-.00564 0-.01127 0-.01691 0s-.01128 0-.01692 0-.01128 0-.01693 0-.01129 0-.01694 0-.01131 0-.01696 0-.01131 0-.01697 0-.01132 0-.01698 0-.01133 0-.01699 0c-.00567 0-.01134 0-.017 0-.00567 0-.01135 0-.01702 0s-.01135 0-.01702 0c-.00568 0-.01136 0-.01704 0s-.01136 0-.01705 0c-.00568 0-.01136 0-.01705 0s-.01138 0-.01707 0-.01138 0-.01707 0c-.0057 0-.01139 0-.01709 0-.00569 0-.01139 0-.01709 0s-.0114 0-.0171 0c-.00571 0-.01141 0-.01711 0-.00571 0-.01142 0-.01712 0-.00571 0-.01142 0-.01713 0s-.01142 0-.01714 0c-.00571 0-.01142 0-.01714 0s-.01143 0-.01715 0-.01144 0-.01716 0-.01144 0-.01716 0-.01145 0-.01717 0c-.00573 0-.01145 0-.01718 0s-.01145 0-.01718 0-.01146 0-.01719 0-.01147 0-.0172 0-.01146 0-.0172 0c-.00573 0-.01147 0-.01721 0-.00573 0-.01147 0-.01721 0-.00573 0-.01147 0-.01721 0s-.01148 0-.01722 0-.01148 0-.01723 0c-.00574 0-.01148 0-.01722 0-.00575 0-.01149 0-.01724 0-.00574 0-.01149 0-.01723 0-.00575 0-.01149 0-.01724 0s-.01149 0-.01724 0-.0115 0-.01725 0c-.00574 0-.01149 0-.01724 0s-.0115 0-.01725 0-.0115 0-.01725 0-.0115 0-.01726 0c-.00575 0-.0115 0-.01725 0s-.0115 0-.01726 0c-.00575 0-.0115 0-.01725 0s-.01151 0-.01726 0-.01151 0-.01726 0-.0115 0-.01726 0c-.00575 0-.0115 0-.01726 0-.00575 0-.0115 0-.01725 0-.00576 0-.01151 0-.01726 0s-.01151 0-.01726 0-.0115 0-.01726 0c-.00575 0-.0115 0-.01725 0s-.0115 0-.01725 0c-.00576 0-.01151 0-.01726 0s-.0115 0-.01725 0-.0115 0-.01725 0c-.00574 0-.01149 0-.01724 0s-.0115 0-.01724 0c-.00575 0-.0115 0-.01725 0-.00574 0-.01149 0-.01723 0-.00575 0-.01149 0-.01724 0-.00574 0-.01148 0-.01723 0-.00574 0-.01148 0-.01722 0-.00575 0-.01149 0-.01723 0s-.01148 0-.01722 0c-.00573 0-.01147 0-.01721 0s-.01147 0-.01721 0c-.00573 0-.01147 0-.0172 0-.00574 0-.01147 0-.0172 0s-.01146 0-.01719 0-.01146 0-.01719 0-.01146 0-.01718 0c-.00573 0-.01145 0-.01718 0-.00572 0-.01144 0-.01717 0-.00572 0-.01144 0-.01716 0s-.01144 0-.01715 0c-.00572 0-.01144 0-.01715 0-.00572 0-.01143 0-.01714 0s-.01142 0-.01713 0-.01142 0-.01713 0-.01141 0-.01712 0c-.0057 0-.0114 0-.0171 0s-.0114 0-.0171 0-.0114 0-.01709 0c-.0057 0-.01139 0-.01708 0-.0057 0-.01139 0-.01708 0s-.01137 0-.01706 0c-.00568 0-.01137 0-.01705 0s-.01136 0-.01704 0-.01136 0-.01703 0c-.00568 0-.01135 0-.01703 0-.00567 0-.01134 0-.01701 0-.00566 0-.01133 0-.017 0-.00566 0-.01132 0-.01698 0s-.01132 0-.01698 0-.01131 0-.01696 0c-.00566 0-.01131 0-.01696 0-.00564 0-.01129 0-.01694 0-.00564 0-.01128 0-.01692 0s-.01128 0-.01692 0c-.00563 0-.01127 0-.0169 0s-.01126 0-.01689 0c-.00562 0-.01125 0-.01687 0s-.01125 0-.01686 0c-.00562 0-.01124 0-.01685 0s-.01122 0-.01683 0-.01122 0-.01682 0-.01121 0-.0168 0c-.0056 0-.0112 0-.01679 0-.0056 0-.01119 0-.01678 0-.00558 0-.01117 0-.01675 0-.00559 0-.01117 0-.01674 0-.00558 0-.01116 0-.01673 0s-.01114 0-.01671 0-.01113 0-.01669 0c-.00557 0-.01112 0-.01668 0s-.01111 0-.01666 0-.0111 0-.01664 0c-.00555 0-.01109 0-.01663 0-.00553 0-.01107 0-.0166 0-.00554 0-.01107 0-.01659 0-.00553 0-.01105 0-.01657 0s-.01104 0-.01656 0c-.00551 0-.01102 0-.01653 0s-.01101 0-.01652 0c-.0055 0-.011 0-.01649 0-.0055 0-.01099 0-.01648 0s-.01097 0-.01646 0c-.00548 0-.01096 0-.01643 0-.00548 0-.01095 0-.01642 0s-.01093 0-.0164 0c-.00546 0-.01092 0-.01637 0-.00546 0-.01091 0-.01636 0s-.01089 0-.01633 0-.01088 0-.01631 0c-.00544 0-.01087 0-.0163 0-.00542 0-.01085 0-.01626 0-.00542 0-.01084 0-.01625 0s-.01082 0-.01623 0c-.0054 0-.0108 0-.0162 0s-.01079 0-.01618 0-.01077 0-.01616 0c-.00538 0-.01076 0-.01613 0s-.01074 0-.01611 0c-.00536 0-.01073 0-.01609 0-.00535 0-.01071 0-.01606 0s-.01069 0-.01603 0c-.00535 0-.01068 0-.01602 0-.00533 0-.01066 0-.01599 0-.00532 0-.01064 0-.01596 0s-.01063 0-.01594 0-.01061 0-.01591 0-.0106 0-.01589 0-.01058 0-.01586 0-.01056 0-.01584 0c-.00527 0-.01054 0-.0158 0-.00527 0-.01053 0-.01579 0-.00525 0-.0105 0-.01575 0s-.01049 0-.01573 0-.01047 0-.0157 0-.01045 0-.01567 0-.01044 0-.01565 0-.01041 0-.01561 0-.0104 0-.01559 0-.01038 0-.01556 0-.01036 0-.01553 0c-.00518 0-.01034 0-.0155 0-.00517 0-.01032 0-.01548 0-.00515 0-.0103 0-.01544 0s-.01028 0-.01541 0c-.00514 0-.01026 0-.01539 0-.00512 0-.01024 0-.01535 0s-.01022 0-.01532 0-.0102 0-.01529 0-.01018 0-.01526 0-.01016 0-.01523 0-.01014 0-.0152 0-.01011 0-.01516 0-.0101 0-.01514 0-.01007 0-.0151 0-.01005 0-.01507 0c-.00501 0-.01003 0-.01503 0-.00501 0-.01001 0-.015 0-.005 0-.00999 0-.01497 0-.00499 0-.00997 0-.01494 0s-.00994 0-.0149 0-.00992 0-.01487 0-.0099 0-.01484 0c-.00493 0-.00987 0-.0148 0-.00492 0-.00984 0-.01476 0s-.00983 0-.01473 0-.0098 0-.0147 0c-.00489 0-.00977 0-.01465 0-.00489 0-.00976 0-.01463 0s-.00973 0-.01459 0c-.00485 0-.0097 0-.01455 0-.00484 0-.00968 0-.01451 0s-.00966 0-.01448 0-.00964 0-.01444 0c-.00481 0-.00961 0-.01441 0-.00479 0-.00958 0-.01436 0-.00479 0-.00956 0-.01433 0s-.00954 0-.0143 0c-.00475 0-.0095 0-.01425 0-.00474 0-.00948 0-.01421 0-.00474 0-.00946 0-.01418 0s-.00943 0-.01414 0c-.0047 0-.0094 0-.0141 0-.00469 0-.00938 0-.01406 0s-.00935 0-.01402 0c-.00466 0-.00932 0-.01398 0-.00465 0-.0093 0-.01394 0s-.00927 0-.0139 0c-.00462 0-.00924 0-.01385 0-.00462 0-.00922 0-.01382 0s-.00919 0-.01378 0-.00916 0-.01374 0c-.00457 0-.00913 0-.01369 0s-.00911 0-.01365 0c-.00455 0-.00908 0-.01361 0s-.00906 0-.01357 0c-.00452 0-.00903 0-.01353 0s-.00899 0-.01348 0-.00897 0-.01344 0-.00894 0-.0134 0-.00891 0-.01335 0-.00888 0-.01331 0-.00885 0-.01327 0c-.00441 0-.00882 0-.01322 0s-.00879 0-.01317 0c-.00439 0-.00877 0-.01314 0s-.00873 0-.01308 0c-.00436 0-.00871 0-.01305 0s-.00867 0-.01299 0c-.00433 0-.00865 0-.01296 0-.0043 0-.00861 0-.0129 0s-.00858 0-.01286 0-.00855 0-.01281 0c-.00427 0-.00852 0-.01277 0s-.00849 0-.01272 0-.00845 0-.01267 0-.00842 0-.01263 0c-.0042 0-.00839 0-.01257 0-.00419 0-.00836 0-.01253 0s-.00833 0-.01248 0c-.00416 0-.0083 0-.01244 0-.00413 0-.00826 0-.01238 0s-.00823 0-.01234 0c-.0041 0-.0082 0-.01228 0-.00409 0-.00817 0-.01224 0s-.00813 0-.01219 0c-.00405 0-.0081 0-.01214 0-.00403 0-.00806 0-.01208 0s-.00804 0-.01204 0-.008 0-.01199 0-.00796 0-.01193 0-.00794 0-.01189 0-.0079 0-.01183 0c-.00394 0-.00787 0-.01179 0-.00391 0-.00783 0-.01173 0s-.00779 0-.01168 0c-.00388 0-.00776 0-.01162 0-.00387 0-.00773 0-.01158 0s-.00769 0-.01152 0-.00765 0-.01147 0c-.00381 0-.00761 0-.01141 0s-.00758 0-.01136 0-.00755 0-.01131 0-.00751 0-.01126 0c-.00374 0-.00747 0-.0112 0-.00372 0-.00743 0-.01114 0s-.0074 0-.01109 0-.00737 0-.01104 0-.00733 0-.01098 0-.00729 0-.01092 0c-.00364 0-.00726 0-.01087 0-.00362 0-.00722 0-.01082 0-.00359 0-.00718 0-.01076 0-.00357 0-.00714 0-.0107 0s-.0071 0-.01064 0-.00707 0-.01059 0-.00703 0-.01053 0-.00699 0-.01047 0c-.00349 0-.00696 0-.01042 0s-.00692 0-.01036 0-.00688 0-.0103 0-.00684 0-.01024 0c-.00341 0-.0068 0-.01018 0-.00339 0-.00676 0-.01013 0-.00336 0-.00672 0-.01006 0-.00335 0-.00669 0-.01001 0-.00333 0-.00664 0-.00995 0-.0033 0-.0066 0-.00988 0-.00329 0-.00657 0-.00983 0-.00327 0-.00652 0-.00977 0-.00324 0-.00648 0-.0097 0-.00323 0-.00644 0-.00965 0-.0032 0-.0064 0-.00958 0-.00319 0-.00636 0-.00953 0-.00316 0-.00632 0-.00946 0s-.00628 0-.0094 0-.00623 0-.00934 0c-.0031 0-.00619 0-.00927 0s-.00616 0-.00922 0-.00611 0-.00915 0-.00607 0-.00908 0c-.00302 0-.00603 0-.00903 0s-.00598 0-.00896 0-.00594 0-.0089 0c-.00295 0-.0059 0-.00883 0-.00294 0-.00586 0-.00877 0s-.00582 0-.00871 0-.00577 0-.00864 0-.00572 0-.00857 0-.00569 0-.00851 0c-.00283 0-.00564 0-.00845 0-.0028 0-.0056 0-.00838 0s-.00555 0-.00831 0-.00551 0-.00825 0-.00546 0-.00818 0-.00542 0-.00811 0c-.0027 0-.00538 0-.00805 0s-.00533 0-.00798 0-.00529 0-.00792 0c-.00262 0-.00524 0-.00784 0-.00261 0-.0052 0-.00778 0s-.00515 0-.00771 0-.00511 0-.00764 0c-.00254 0-.00506 0-.00758 0-.00251 0-.00501 0-.0075 0s-.00497 0-.00744 0c-.00246 0-.00492 0-.00736 0-.00245 0-.00488 0-.0073 0s-.00483 0-.00723 0c-.00239 0-.00478 0-.00715 0-.00238 0-.00474 0-.00709 0s-.00469 0-.00702 0c-.00232 0-.00464 0-.00694 0-.00231 0-.0046 0-.00688 0s-.00454 0-.0068 0-.0045 0-.00673 0-.00445 0-.00666 0-.00441 0-.00659 0c-.00219 0-.00436 0-.00652 0s-.00431 0-.00644 0c-.00214 0-.00426 0-.00637 0s-.00421 0-.0063 0-.00416 0-.00623 0c-.00206 0-.00411 0-.00615 0s-.00406 0-.00608 0c-.00201 0-.00401 0-.006 0s-.00397 0-.00593 0-.00392 0-.00586 0c-.00193 0-.00386 0-.00578 0-.00191 0-.00381 0-.0057 0s-.00377 0-.00563 0c-.00187 0-.00372 0-.00556 0s-.00367 0-.00548 0-.00362 0-.0054 0c-.00179 0-.00357 0-.00533 0-.00177 0-.00352 0-.00525 0-.00174 0-.00347 0-.00518 0s-.00341 0-.0051 0-.00336 0-.00502 0-.00331 0-.00495 0c-.00163 0-.00325 0-.00486 0s-.00321 0-.00479 0-.00315 0-.00471 0-.0031 0-.00463 0c-.00154 0-.00305 0-.00456 0-.0015 0-.003 0-.00447 0-.00148 0-.00295 0-.0044 0s-.00289 0-.00432 0c-.00142 0-.00284 0-.00424 0s-.00278 0-.00415 0c-.00138 0-.00274 0-.00408 0-.00135 0-.00268 0-.004 0s-.00263 0-.00392 0-.00257 0-.00384 0c-.00126 0-.00251 0-.00375 0s-.00247 0-.00368 0-.00241 0-.00359 0-.00235 0-.00351 0-.0023 0-.00343 0-.00225 0-.00335 0-.00219 0-.00326 0c-.00108 0-.00214 0-.00319 0-.00104 0-.00208 0-.0031 0s-.00202 0-.00301 0-.00197 0-.00294 0c-.00096 0-.00191 0-.00285 0-.00093 0-.00185 0-.00276 0s-.0018 0-.00268 0-.00175 0-.0026 0-.00169 0-.00251 0c-.00083 0-.00164 0-.00243 0-.0008 0-.00158 0-.00234 0-.00077 0-.00152 0-.00226 0s-.00146 0-.00217 0-.00141 0-.00209 0-.00135 0-.002 0-.00129 0-.00191 0c-.00063 0-.00124 0-.00183 0-.0006 0-.00118 0-.00174 0-.00057 0-.00112 0-.00166 0-.00053 0-.00106 0-.00156 0-.00051 0-.001 0-.00148 0s-.00094 0-.00139 0-.00089 0-.00131 0-.00082 0-.00121 0-.00077 0-.00113 0-.0007 0-.00103 0c-.00034 0-.00065 0-.00095 0-.00031 0-.00059 0-.00086 0s-.00053 0-.00077 0c-.00025 0-.00047 0-.00068 0-.00022 0-.00041 0-.00059 0-.00019 0-.00035 0-.0005 0-.00016 0-.00029 0-.00041 0-.00013 0-.00023 0-.00032 0s-.00017 0-.00023 0-.00011 0-.00014 0-.00004 0-.00004 1c0 1.00005.00001 1.00005.00004 1.00005h.00014.00023.00032.00041.0005.00059.00068.00077.00086.00095.00103.00113.00121.00131.00139.00148.00156.00166.00174.00183.00191.002.00209.00217.00226.00234.00243.00251.0026.00268.00276.00285.00294.00301.0031.00319.00326.00335.00343.00351.00359.00368.00375.00384.00392.004.00408.00415.00424.00432.0044.00447.00456.00463.00471.00479.00486.00495.00502.0051.00518.00525.00533.0054.00548.00556.00563.0057.00578.00586.00593.006.00608.00615.00623.0063.00637.00644.00652.00659.00666.00673.0068.00688.00694.00702.00709.00715.00723.0073.00736.00744.0075.00758.00764.00771.00778.00784.00792.00798.00805.00811.00818.00825.00831.00838.00845.00851.00857.00864.00871.00877.00883.0089.00896.00903.00908.00915.00922.00927.00934.0094.00946.00953.00958.00965.0097.00977.00983.00988.00995.01001.01006.01013.01018.01024.0103.01036.01042.01047.01053.01059.01064.0107.01076.01082.01087.01092.01098.01104.01109.01114.0112.01126.01131.01136.01141.01147.01152.01158.01162.01168.01173.01179.01183.01189.01193.01199.01204.01208.01214.01219.01224.01228.01234.01238.01244.01248.01253.01257.01263.01267.01272.01277.01281.01286.0129.01296.01299.01305.01308.01314.01317.01322.01327.01331.01335.0134.01344.01348.01353.01357.01361.01365.01369.01374.01378.01382.01385.0139.01394.01398.01402.01406.0141.01414.01418.01421.01425.0143.01433.01436.01441.01444.01448.01451.01455.01459.01463.01465.0147.01473.01476.0148.01484.01487.0149.01494.01497.015.01503.01507.0151.01514.01516.0152.01523.01526.01529.01532.01535.01539.01541.01544.01548.0155.01553.01556.01559.01561.01565.01567.0157.01573.01575.01579.0158.01584.01586.01589.01591.01594.01596.01599.01602.01603.01606.01609.01611.01613.01616.01618.0162.01623.01625.01626.0163.01631.01633.01636.01637.0164.01642.01643.01646.01648.01649.01652.01653.01656.01657.01659.0166.01663.01664.01666.01668.01669.01671.01673.01674.01675.01678.01679.0168.01682.01683.01685.01686.01687.01689.0169.01692.01692.01694.01696.01696.01698.01698.017.01701.01703.01703.01704.01705.01706.01708.01708.01709.0171.0171.01712.01713.01713.01714.01715.01715.01716.01717.01718.01718.01719.01719.0172.0172.01721.01721.01722.01723.01722.01723.01724.01723.01725.01724.01724.01725.01725.01726.01725.01725.01726.01726.01726.01725.01726.01726.01726.01726.01725.01726.01725.01726.01725.01725.01724.01725.01724.01724.01723.01724.01722.01723.01722.01721.01721.01721.0172.0172.01719.01718.01718.01717.01716.01716.01715.01714.01714.01713.01712.01711.0171.01709.01709.01707.01707.01705.01705.01704.01702.01702.017.01699.01698.01697.01696.01694.01693.01692.01691.01689.01688.01687.01685.01684.01682.01681.01679.01678.01676.01675.01673.01672.0167.01668.01667.01664.01663.01662.01659.01658.01656.01654.01652.01651.01648.01646.01645.01642.01641.01635.0164.0163.0164.0163.0162.0163.0162.0162.0162.0162.0161.0161.0161.0161.0161.016.016.0159.016.0159.0159.0159.0158.0158.0158.0158.0157.0158.0156.0157.0156.0156.0156.0155.0155.0155.0155.0154.0154.0154.0153.0153.0153.0152.0152.0152.0151.0151.0151.0151zm-5.59914.75622-2.19668-8.73895-1.93966.48757 2.19669 8.73891zm-2.20279-8.762087c.00506.018257.00814.037007.00919.055927l-1.99693.11087c.0069.12416.02711.24721.0603.36704zm.01026.080867c-.00026-.00871.00095-.01163.00354-.01614.00423-.00737.01537-.02171.03738-.03529.02183-.01347.04682-.02144.07089-.02309.02142-.00147.04684.00151.07842.01665l.86495-1.803287c-1.3841-.663883-3.103426.310452-3.05425 1.922147zm.1901-.05793 20.60017 9.88448.8652-1.80313-20.60016-9.884515zm20.60017 8.08135-20.60017 9.88453.86521 1.8031 20.60016-9.8845zm-20.60095 9.88493c-.03099.0149-.05583.0178-.07666.0165-.02341-.0014-.04796-.009-.06973-.0221-.022-.0133-.03369-.0276-.03842-.0356-.00317-.0053-.0041-.0083-.00406-.0153l-1.99997-.0113c-.008921 1.5796 1.68307 2.5302 3.0556 1.8702zm-.18936-.0302c-.00082.0256-.00531.0509-.01334.0752l-1.89897-.6276c-.05217.1578-.08135.3223-.08667.4884zm-.00577.0513 1.63001-5.3812-1.91411-.5798-1.63001 5.3812z" fill="#fff" mask="url(#c)"/><circle cx="14" cy="4" fill="url(#b)" r="3.5" stroke="#fff"/></g></svg>