<svg width="28" height="28" viewBox="0 0 28 28" fill="none" xmlns="http://www.w3.org/2000/svg">
<path d="M0.290571 27.0477C0.390898 27.0749 0.497485 27.0599 0.58723 27.0057C0.676975 26.9515 0.742645 26.8626 0.770006 26.7583C1.5769 23.6171 4.85617 22.803 6.81621 22.3158C7.30739 22.194 7.69517 22.0976 7.94742 21.984C10.1801 20.9729 10.9079 19.3463 11.1256 18.1594C11.1386 18.0888 11.1335 18.0159 11.1108 17.948C11.0881 17.8801 11.0486 17.8197 10.9964 17.7728C9.83383 16.7257 8.85302 15.1539 8.23414 13.3458C8.21668 13.294 8.18922 13.2464 8.15345 13.2061C7.33481 12.2775 6.86478 11.2958 6.86478 10.5136C6.86478 10.0567 7.03007 9.75018 7.40218 9.51886C7.45792 9.48409 7.5045 9.43541 7.53773 9.37719C7.57096 9.31898 7.5898 9.25306 7.59255 9.18536C7.76568 5.02161 10.6078 1.7439 14.0939 1.72265L14.1777 1.72837C17.681 1.77905 20.5052 5.12705 20.6062 9.34966C20.6076 9.40737 20.6208 9.46412 20.6448 9.51612C20.6689 9.56812 20.7032 9.61419 20.7457 9.65127C20.9909 9.86788 21.1052 10.1425 21.1052 10.5152C21.1052 11.17 20.7707 11.9751 20.1644 12.781C20.1355 12.8198 20.1132 12.8635 20.0986 12.9102C19.4719 14.9831 18.3469 16.8132 17.0136 17.933C16.9584 17.9796 16.9162 18.0408 16.8917 18.1103C16.8671 18.1798 16.8611 18.255 16.8742 18.3278C17.0919 19.5138 17.8197 21.1396 20.0524 22.1523C20.3164 22.2717 20.7261 22.3649 21.2455 22.4817C23.1859 22.9199 26.4331 23.6547 27.2298 26.7583C27.2432 26.8101 27.2662 26.8587 27.2976 26.9013C27.3289 26.9439 27.368 26.9796 27.4126 27.0063C27.4572 27.0331 27.5064 27.0505 27.5574 27.0575C27.6085 27.0644 27.6603 27.0608 27.71 27.0468C27.7597 27.0329 27.8063 27.0089 27.847 26.9761C27.8878 26.9434 27.922 26.9026 27.9477 26.8561C27.9734 26.8095 27.99 26.7582 27.9967 26.705C28.0034 26.6517 27.9999 26.5976 27.9865 26.5458C27.0661 22.9599 23.3873 22.1286 21.4115 21.6823C20.9533 21.5785 20.5576 21.4894 20.3649 21.4012C18.9078 20.7407 18.0101 19.7345 17.6928 18.4055C19.0457 17.1933 20.1777 15.3231 20.8248 13.2257C21.5118 12.2939 21.8894 11.3343 21.8894 10.5144C21.8894 9.9676 21.7202 9.5115 21.3849 9.15512C21.1985 4.5745 18.0657 0.967384 14.1777 0.90935L14.061 0.907715C10.2435 0.928967 7.09745 4.44127 6.82248 8.9426C6.33207 9.3186 6.08296 9.84581 6.08296 10.5152C6.08296 11.4822 6.60704 12.6388 7.52439 13.6998C8.15816 15.5168 9.14053 17.1132 10.3101 18.2305C9.99442 19.5645 9.09587 20.574 7.63563 21.2352C7.44684 21.3211 7.07081 21.4151 6.63525 21.523C4.64465 22.0167 0.940785 22.9362 0.0132515 26.5474C-0.0135354 26.6521 0.000631649 26.7636 0.052637 26.8575C0.104642 26.9513 0.190228 27.0197 0.290571 27.0477Z" fill="#4B4E58"/>
</svg>
