<svg fill="none" height="49" viewBox="0 0 52 49" width="52" xmlns="http://www.w3.org/2000/svg" xmlns:xlink="http://www.w3.org/1999/xlink"><linearGradient id="a"><stop offset=".114583" stop-color="#ffa88c"/><stop offset=".671875" stop-color="#ff5c28"/></linearGradient><linearGradient id="b" gradientUnits="userSpaceOnUse" x1="26" x2="26" xlink:href="#a" y1="27" y2="49"/><linearGradient id="c" gradientUnits="userSpaceOnUse" x1="2.05817" x2="4.77831" xlink:href="#a" y1="11.2969" y2="14.78"/><linearGradient id="d" gradientUnits="userSpaceOnUse" x1="49.9399" x2="47.2197" xlink:href="#a" y1="11.2969" y2="14.78"/><linearGradient id="e" gradientUnits="userSpaceOnUse" x1="13.5416" x2="14.5572" xlink:href="#a" y1="3.60007" y2="7.90116"/><linearGradient id="f" gradientUnits="userSpaceOnUse" x1="38.4584" x2="37.4428" xlink:href="#a" y1="3.60007" y2="7.90116"/><linearGradient id="g" gradientUnits="userSpaceOnUse" x1="25.6112" x2="25.6112" xlink:href="#a" y1="0" y2="4.41938"/><path d="m36.9952 28.945c-.6353-.6166-1.3896-1.1058-2.2198-1.4395-.8303-.3337-1.7201-.5055-2.6188-.5055-.8986 0-1.7885.1718-2.6187.5055s-1.5845.8229-2.2198 1.4395l-1.3184 1.279-1.3185-1.279c-1.2832-1.245-3.0237-1.9444-4.8385-1.9444s-3.5553.6994-4.8385 1.9444c-1.2833 1.2449-2.0042 2.9334-2.0042 4.6939 0 1.7606.7209 3.4491 2.0042 4.694l1.3184 1.2791 9.6771 9.388 9.677-9.388 1.3185-1.2791c.6356-.6163 1.1397-1.348 1.4837-2.1535.344-.8054.5211-1.6686.5211-2.5405 0-.8718-.1771-1.735-.5211-2.5404-.344-.8055-.8481-1.5372-1.4837-2.1535z" fill="url(#b)"/><path d="m4.03942 10.2454c-.17682-.0191-.35672-.0033-.52942.0466-.17271.0498-.33483.1326-.4771.2437-.14228.1111-.26192.2483-.3521.4038s-.14912.3262-.17346.5024l-.05059.3655-.36689-.0395c-.35709-.0384-.71912.0661-1.00644.2905-.287319.2243-.476396.5503-.525636.906-.049241.3558.04539.7122.263074.991.217682.2787.540592.4569.897682.4953l.36689.0395 2.69283.2898.37132-2.6828.05059-.3655c.02443-.1762.01377-.3543-.03135-.5244-.04512-.17-.12382-.3286-.23162-.4666-.10779-.1381-.24256-.2528-.3966-.3378-.15405-.085-.32435-.1385-.50118-.1575z" fill="url(#c)"/><path d="m47.9586 10.2454c.1768-.0191.3567-.0033.5295.0466.1727.0498.3348.1326.477.2437.1423.1111.262.2483.3521.4038.0902.1555.1492.3262.1735.5024l.0506.3655.3669-.0395c.3571-.0384.7191.0661 1.0064.2905.2873.2243.4764.5503.5257.906.0492.3558-.0454.7122-.2631.991-.2177.2787-.5406.4569-.8977.4953l-.3669.0395-2.6928.2898-.3713-2.6828-.0506-.3655c-.0244-.1762-.0138-.3543.0313-.5244.0451-.17.1239-.3286.2316-.4666.1078-.1381.2426-.2528.3967-.3378.154-.085.3243-.1385.5011-.1575z" stroke="url(#d)" stroke-linecap="round" stroke-linejoin="round" stroke-width=".5"/><path d="m15.7809 3.47274c-.1526-.09122-.3227-.15203-.5004-.17895s-.3596-.01942-.5353.02206c-.1757.04149-.3417.11615-.4886.21972s-.2718.23402-.3676.3839l-.1987.31093-.3168-.1892c-.3083-.18415-.6809-.24054-1.0357-.15676s-.6628.30086-.8562.60348c-.1934.30263-.2564.66602-.1751 1.01022s.3001.64103.6085.82517l.3168.18921 2.3253 1.38866 1.4585-2.28212.1987-.31093c.0958-.14984.1606-.31617.1907-.48952.0301-.17334.0248-.35028-.0154-.52073-.0403-.17044-.1147-.33104-.2192-.47262-.1044-.14158-.2367-.26137-.3895-.35252z" fill="url(#e)"/><path d="m36.2191 3.47274c.1526-.09122.3227-.15203.5004-.17895s.3596-.01942.5353.02206c.1757.04149.3417.11615.4886.21972s.2718.23402.3676.3839l.1987.31093.3168-.1892c.3083-.18415.6809-.24054 1.0357-.15676s.6628.30086.8562.60348c.1934.30263.2564.66602.1751 1.01022s-.3001.64103-.6085.82517l-.3168.18921-2.3253 1.38866-1.4585-2.28212-.1987-.31093c-.0958-.14984-.1606-.31617-.1907-.48952-.0301-.17334-.0248-.35028.0154-.52073.0403-.17044.1147-.33104.2192-.47262.1044-.14158.2367-.26137.3895-.35252z" fill="url(#f)"/><path d="m23.4025.390705c.1276-.123865.2791-.222123.4459-.289162.1668-.0670382.3455-.101543.5261-.101543.1805 0 .3592.0345048.526.101543.1668.067039.3183.165297.4459.289162l.2649.256943.2648-.256943c.2578-.250081.6074-.39057537.972-.39057537.3645 0 .7142.14049437.972.39057537.2577.250081.4026.589264.4026.942935 0 .35366-.1449.69285-.4026.94293l-.2649.25694-1.9439 1.88587-1.944-1.88587-.2648-.25694c-.1277-.12381-.229-.27081-.2981-.4326s-.1046-.3352-.1046-.51033.0355-.348548.1046-.510339.1704-.308789.2981-.432596z" fill="url(#g)"/></svg>