<svg width="29" height="29" viewBox="0 0 29 29" fill="none" xmlns="http://www.w3.org/2000/svg">
<path d="M22.6465 8.74027L23.0001 8.38672L23.3536 8.74027L26.0245 11.4111C26.0394 11.407 26.0631 11.3985 26.0966 11.3814C26.2303 11.3132 26.2905 11.2319 26.3185 11.1212L28.094 0.995333L17.9096 2.72502C17.7942 2.74862 17.7167 2.8029 17.6523 2.92503C17.6341 2.9655 17.6263 2.9931 17.6229 3.00954L20.2893 5.67597L20.6429 6.02952L20.2893 6.38308L0.883172 25.7892C0.797486 25.8749 0.779719 25.9333 0.775527 25.9655L0.770789 25.9649L0.775524 25.9656C0.775354 25.9669 0.77521 25.9681 0.77509 25.9692L3.06037 28.2545C3.0615 28.2544 3.06273 28.2542 3.06404 28.2541L3.06466 28.2588L3.06405 28.2541C3.0963 28.2499 3.15468 28.2321 3.24037 28.1464L22.6465 8.74027Z" stroke="#FF5C28"/>
</svg>
