<svg width="18" height="18" viewBox="0 0 18 18" fill="none" xmlns="http://www.w3.org/2000/svg">
<g id="Store" clip-path="url(#clip0_18873_5254)" filter="url(#filter0_d_18873_5254)">
<g id="Group">
<path id="Vector" d="M8.41683 5.8335V8.16683H6.0835V5.8335H8.41683Z" fill="white"/>
<path id="Vector_2" d="M8.41683 11.6668V9.3335H6.0835V11.6668H8.41683Z" fill="white"/>
<path id="Vector_3" d="M11.9168 5.8335V8.16683H9.5835V5.8335H11.9168Z" fill="white"/>
<path id="Vector_4" d="M11.9168 11.6668V9.3335H9.5835V11.6668H11.9168Z" fill="white"/>
<path id="Vector_5" d="M5.5 3.5V1.75C5.5 1.28587 5.68437 0.840752 6.01256 0.512563C6.34075 0.184375 6.78587 0 7.25 0H10.75C11.2141 0 11.6592 0.184375 11.9874 0.512563C12.3156 0.840752 12.5 1.28587 12.5 1.75V3.5H15.4167C15.5714 3.5 15.7197 3.56146 15.8291 3.67085C15.9385 3.78025 16 3.92862 16 4.08333V11.6667C16 12.2855 15.7542 12.879 15.3166 13.3166C14.879 13.7542 14.2855 14 13.6667 14H4.33333C3.71449 14 3.121 13.7542 2.68342 13.3166C2.24583 12.879 2 12.2855 2 11.6667V4.08333C2 3.92862 2.06146 3.78025 2.17085 3.67085C2.28025 3.56146 2.42862 3.5 2.58333 3.5H5.5ZM6.66667 1.75V3.5H11.3333V1.75C11.3333 1.59529 11.2719 1.44692 11.1625 1.33752C11.0531 1.22812 10.9047 1.16667 10.75 1.16667H7.25C7.09529 1.16667 6.94692 1.22812 6.83752 1.33752C6.72812 1.44692 6.66667 1.59529 6.66667 1.75ZM3.16667 11.6667C3.16667 11.9761 3.28958 12.2728 3.50838 12.4916C3.72717 12.7104 4.02391 12.8333 4.33333 12.8333H13.6667C13.9761 12.8333 14.2728 12.7104 14.4916 12.4916C14.7104 12.2728 14.8333 11.9761 14.8333 11.6667V4.66667H3.16667V11.6667Z" fill="white"/>
</g>
</g>
<defs>
<filter id="filter0_d_18873_5254" x="0" y="0" width="18" height="18" filterUnits="userSpaceOnUse" color-interpolation-filters="sRGB">
<feFlood flood-opacity="0" result="BackgroundImageFix"/>
<feColorMatrix in="SourceAlpha" type="matrix" values="0 0 0 0 0 0 0 0 0 0 0 0 0 0 0 0 0 0 127 0" result="hardAlpha"/>
<feOffset dy="2"/>
<feGaussianBlur stdDeviation="1"/>
<feComposite in2="hardAlpha" operator="out"/>
<feColorMatrix type="matrix" values="0 0 0 0 0 0 0 0 0 0 0 0 0 0 0 0 0 0 0.25 0"/>
<feBlend mode="normal" in2="BackgroundImageFix" result="effect1_dropShadow_18873_5254"/>
<feBlend mode="normal" in="SourceGraphic" in2="effect1_dropShadow_18873_5254" result="shape"/>
</filter>
<clipPath id="clip0_18873_5254">
<rect width="14" height="14" fill="white" transform="translate(2)"/>
</clipPath>
</defs>
</svg>
