<svg width="18" height="18" viewBox="0 0 18 18" fill="none" xmlns="http://www.w3.org/2000/svg">
<circle cx="9" cy="9" r="8.5" fill="white" stroke="url(#paint0_linear_9164_21115)"/>
<path d="M14.6441 6.32163C14.7961 6.15856 14.8788 5.94289 14.8749 5.72003C14.8709 5.49718 14.7807 5.28456 14.6231 5.12695C14.4654 4.96935 14.2528 4.87907 14.03 4.87513C13.8071 4.8712 13.5914 4.95392 13.4284 5.10587L7.15458 11.3797L4.32163 8.5467C4.15856 8.39476 3.94289 8.31203 3.72003 8.31597C3.49718 8.3199 3.28455 8.41018 3.12695 8.56778C2.96934 8.72539 2.87907 8.93801 2.87513 9.16087C2.8712 9.38372 2.95392 9.5994 3.10587 9.76246L6.5467 13.2033C6.70799 13.3644 6.92663 13.4549 7.15458 13.4549C7.38254 13.4549 7.60117 13.3644 7.76246 13.2033L14.6441 6.32163Z" fill="#0060FF"/>
<defs>
<linearGradient id="paint0_linear_9164_21115" x1="9" y1="0" x2="9" y2="18" gradientUnits="userSpaceOnUse">
<stop offset="0.145833" stop-color="#7AACFF"/>
<stop offset="0.666667" stop-color="#0060FF"/>
</linearGradient>
</defs>
</svg>
