<svg width="22" height="18" viewBox="0 0 22 18" fill="none" xmlns="http://www.w3.org/2000/svg">
<g filter="url(#filter0_d_12415_16602)">
<path d="M13.2885 3.30911C13.2895 4.57035 12.256 5.59724 10.9852 5.59774C9.72732 5.59864 8.70693 4.57105 8.70643 3.30391C8.68324 2.06666 9.73552 1.00088 11.0277 1.01828C12.2648 1.03507 13.2872 2.05586 13.2885 3.30911Z" fill="white"/>
<path d="M5.13574 12.3882C6.25361 12.6265 8.21281 12.9653 10.576 13.0381V13.995C9.05634 13.9879 7.2995 13.8582 5.28901 13.5409L5.13574 12.3882Z" fill="white"/>
<path d="M16.7942 12.5073L16.6135 13.6271C14.3997 13.9763 13.0018 14.019 11.4199 13.994V13.0496C13.9547 13.0172 15.5946 12.7612 16.7942 12.5073Z" fill="white"/>
<path d="M19.9438 0L18.5595 4.65225L16.9129 11.5927C15.2416 12.0345 13.4417 12.2558 11.6746 12.2926H11.4202V11.619H12.7513C12.8151 11.619 12.8469 11.5872 12.8469 11.5234V10.9635C12.8469 10.8984 12.815 10.8658 12.7513 10.8658H10.6717C10.6079 10.8658 10.5761 10.8984 10.5761 10.9635V12.297C8.71132 12.2811 6.79921 12.0605 5.03108 11.5931L3.38432 4.65225L2 0C2.39172 0.707355 3.54608 2.72854 4.51638 3.79122L4.51908 3.79462C6.08216 5.71153 8.26871 7.54625 10.8947 7.50956H10.9093H10.924C10.9388 7.50956 10.9535 7.50956 10.9682 7.50956H10.9757C10.9904 7.50956 11.0051 7.50956 11.0198 7.50956H11.0345H11.0491C13.6754 7.54625 15.8617 5.71153 17.4247 3.79462L17.4274 3.79122C18.3977 2.72854 19.5521 0.707355 19.9438 0Z" fill="white"/>
</g>
<defs>
<filter id="filter0_d_12415_16602" x="0" y="0" width="21.9434" height="18" filterUnits="userSpaceOnUse" color-interpolation-filters="sRGB">
<feFlood flood-opacity="0" result="BackgroundImageFix"/>
<feColorMatrix in="SourceAlpha" type="matrix" values="0 0 0 0 0 0 0 0 0 0 0 0 0 0 0 0 0 0 127 0" result="hardAlpha"/>
<feOffset dy="2"/>
<feGaussianBlur stdDeviation="1"/>
<feComposite in2="hardAlpha" operator="out"/>
<feColorMatrix type="matrix" values="0 0 0 0 0 0 0 0 0 0 0 0 0 0 0 0 0 0 0.25 0"/>
<feBlend mode="normal" in2="BackgroundImageFix" result="effect1_dropShadow_12415_16602"/>
<feBlend mode="normal" in="SourceGraphic" in2="effect1_dropShadow_12415_16602" result="shape"/>
</filter>
</defs>
</svg>
