<svg width="164" height="34" viewBox="0 0 164 34" fill="none" xmlns="http://www.w3.org/2000/svg">
<rect x="0.5" y="0.5" width="163" height="33" rx="7.5" fill="url(#paint0_linear_15676_11328)"/>
<path d="M52.2789 22V10.72H57.1749C58.4122 10.72 59.3669 11.0187 60.0389 11.616C60.7109 12.2027 61.0469 13.0293 61.0469 14.096C61.0469 14.9387 60.8282 15.6373 60.3909 16.192C59.9535 16.736 59.3242 17.104 58.5029 17.296C59.0469 17.4667 59.4949 17.8773 59.8469 18.528L61.7349 22H59.4789L57.5269 18.4C57.3349 18.048 57.1055 17.808 56.8389 17.68C56.5829 17.552 56.2522 17.488 55.8469 17.488H54.3269V22H52.2789ZM54.3269 15.968H56.8229C58.3162 15.968 59.0629 15.36 59.0629 14.144C59.0629 12.9387 58.3162 12.336 56.8229 12.336H54.3269V15.968ZM66.7085 22.16C65.8232 22.16 65.0605 21.9947 64.4205 21.664C63.7805 21.3333 63.2845 20.864 62.9325 20.256C62.5912 19.648 62.4205 18.928 62.4205 18.096C62.4205 17.2853 62.5858 16.576 62.9165 15.968C63.2578 15.36 63.7218 14.8853 64.3085 14.544C64.9058 14.192 65.5832 14.016 66.3405 14.016C67.4498 14.016 68.3245 14.368 68.9645 15.072C69.6152 15.776 69.9405 16.736 69.9405 17.952V18.544H64.3405C64.4898 19.9413 65.2898 20.64 66.7405 20.64C67.1778 20.64 67.6152 20.576 68.0525 20.448C68.4898 20.3093 68.8898 20.096 69.2525 19.808L69.8125 21.152C69.4392 21.4613 68.9698 21.7067 68.4045 21.888C67.8392 22.0693 67.2738 22.16 66.7085 22.16ZM66.4205 15.376C65.8338 15.376 65.3592 15.5573 64.9965 15.92C64.6338 16.2827 64.4152 16.7733 64.3405 17.392H68.2765C68.2338 16.7413 68.0525 16.2453 67.7325 15.904C67.4232 15.552 66.9858 15.376 66.4205 15.376ZM75.1724 25.04C74.447 25.04 73.7644 24.9547 73.1244 24.784C72.495 24.624 71.9404 24.3733 71.4604 24.032L72.0364 22.64C72.4844 22.9387 72.9644 23.1573 73.4764 23.296C73.9884 23.4453 74.5004 23.52 75.0124 23.52C76.4417 23.52 77.1564 22.832 77.1564 21.456V20.384C76.9324 20.8213 76.5857 21.168 76.1164 21.424C75.6577 21.68 75.1457 21.808 74.5804 21.808C73.8764 21.808 73.263 21.648 72.7404 21.328C72.2177 20.9973 71.8124 20.5387 71.5244 19.952C71.2364 19.3653 71.0924 18.6827 71.0924 17.904C71.0924 17.1253 71.2364 16.448 71.5244 15.872C71.8124 15.2853 72.2177 14.832 72.7404 14.512C73.263 14.1813 73.8764 14.016 74.5804 14.016C75.167 14.016 75.6897 14.1493 76.1484 14.416C76.607 14.672 76.943 15.0187 77.1564 15.456V14.176H79.1084V21.216C79.1084 22.4853 78.7724 23.44 78.1004 24.08C77.4284 24.72 76.4524 25.04 75.1724 25.04ZM75.1244 20.288C75.743 20.288 76.2337 20.0747 76.5964 19.648C76.959 19.2213 77.1404 18.64 77.1404 17.904C77.1404 17.168 76.959 16.592 76.5964 16.176C76.2337 15.7493 75.743 15.536 75.1244 15.536C74.5057 15.536 74.015 15.7493 73.6524 16.176C73.2897 16.592 73.1084 17.168 73.1084 17.904C73.1084 18.64 73.2897 19.2213 73.6524 19.648C74.015 20.0747 74.5057 20.288 75.1244 20.288ZM81.0526 12.496V10.544H83.2926V12.496H81.0526ZM81.1806 22V14.176H83.1806V22H81.1806ZM88.1228 22.16C87.4614 22.16 86.8428 22.08 86.2668 21.92C85.6908 21.76 85.2108 21.5307 84.8268 21.232L85.3388 19.92C85.7334 20.1867 86.1761 20.3947 86.6668 20.544C87.1574 20.6827 87.6481 20.752 88.1388 20.752C88.6508 20.752 89.0294 20.6667 89.2748 20.496C89.5308 20.3147 89.6588 20.08 89.6588 19.792C89.6588 19.344 89.3281 19.056 88.6668 18.928L87.0668 18.624C85.7121 18.368 85.0348 17.664 85.0348 16.512C85.0348 16 85.1734 15.5573 85.4508 15.184C85.7388 14.8107 86.1334 14.5227 86.6348 14.32C87.1361 14.1173 87.7121 14.016 88.3628 14.016C88.9174 14.016 89.4508 14.096 89.9628 14.256C90.4748 14.4053 90.9121 14.6347 91.2748 14.944L90.7308 16.256C90.4214 16 90.0481 15.7973 89.6108 15.648C89.1841 15.4987 88.7734 15.424 88.3788 15.424C87.8561 15.424 87.4668 15.5147 87.2108 15.696C86.9654 15.8773 86.8428 16.1173 86.8428 16.416C86.8428 16.8853 87.1468 17.1733 87.7548 17.28L89.3548 17.584C90.0481 17.712 90.5708 17.9467 90.9228 18.288C91.2854 18.6293 91.4668 19.088 91.4668 19.664C91.4668 20.4427 91.1628 21.056 90.5548 21.504C89.9468 21.9413 89.1361 22.16 88.1228 22.16ZM96.5771 22.16C94.5078 22.16 93.4731 21.136 93.4731 19.088V15.68H91.9691V14.176H93.4731V11.84H95.4731V14.176H97.8411V15.68H95.4731V18.976C95.4731 19.488 95.5851 19.872 95.8091 20.128C96.0331 20.384 96.3958 20.512 96.8971 20.512C97.0465 20.512 97.2011 20.496 97.3611 20.464C97.5211 20.4213 97.6865 20.3787 97.8571 20.336L98.1611 21.808C97.9691 21.9147 97.7238 22 97.4251 22.064C97.1371 22.128 96.8545 22.16 96.5771 22.16ZM102.912 22.16C102.026 22.16 101.264 21.9947 100.624 21.664C99.9836 21.3333 99.4876 20.864 99.1356 20.256C98.7943 19.648 98.6236 18.928 98.6236 18.096C98.6236 17.2853 98.789 16.576 99.1196 15.968C99.461 15.36 99.925 14.8853 100.512 14.544C101.109 14.192 101.786 14.016 102.544 14.016C103.653 14.016 104.528 14.368 105.168 15.072C105.818 15.776 106.144 16.736 106.144 17.952V18.544H100.544C100.693 19.9413 101.493 20.64 102.944 20.64C103.381 20.64 103.818 20.576 104.256 20.448C104.693 20.3093 105.093 20.096 105.456 19.808L106.016 21.152C105.642 21.4613 105.173 21.7067 104.608 21.888C104.042 22.0693 103.477 22.16 102.912 22.16ZM102.624 15.376C102.037 15.376 101.562 15.5573 101.2 15.92C100.837 16.2827 100.618 16.7733 100.544 17.392H104.48C104.437 16.7413 104.256 16.2453 103.936 15.904C103.626 15.552 103.189 15.376 102.624 15.376ZM107.728 22V14.176H109.68V15.552C110.064 14.624 110.885 14.112 112.144 14.016L112.752 13.968L112.88 15.664L111.728 15.776C110.416 15.904 109.76 16.576 109.76 17.792V22H107.728Z" fill="white"/>
<path d="M154.707 17.7071C155.098 17.3166 155.098 16.6834 154.707 16.2929L148.343 9.92893C147.953 9.53841 147.319 9.53841 146.929 9.92893C146.538 10.3195 146.538 10.9526 146.929 11.3431L152.586 17L146.929 22.6569C146.538 23.0474 146.538 23.6805 146.929 24.0711C147.319 24.4616 147.953 24.4616 148.343 24.0711L154.707 17.7071ZM138 18H154V16H138V18Z" fill="white"/>
<rect x="0.5" y="0.5" width="163" height="33" rx="7.5" stroke="url(#paint1_linear_15676_11328)"/>
<defs>
<linearGradient id="paint0_linear_15676_11328" x1="2.96111" y1="0.661112" x2="4.71634" y2="39.5011" gradientUnits="userSpaceOnUse">
<stop stop-color="white" stop-opacity="0.6"/>
<stop offset="0.307292" stop-color="white" stop-opacity="0.477083"/>
<stop offset="1" stop-color="white" stop-opacity="0.2"/>
<stop offset="1" stop-color="white" stop-opacity="0.2"/>
</linearGradient>
<linearGradient id="paint1_linear_15676_11328" x1="82" y1="0" x2="82" y2="34" gradientUnits="userSpaceOnUse">
<stop offset="0.114583" stop-color="#FFA88C"/>
<stop offset="0.671875" stop-color="#FF5C28"/>
</linearGradient>
</defs>
</svg>
