<svg width="192" height="38" viewBox="0 0 192 38" fill="none" xmlns="http://www.w3.org/2000/svg">
<rect x="82" y="1" width="61" height="17" fill="#0060FF"/>
<rect x="52" y="20" width="48" height="16" fill="#FF5C28"/>
<path d="M1.218 14V4.13H2.366V8.498H8.288V4.13H9.436V14H8.288V9.492H2.366V14H1.218ZM14.5424 14.126C13.8797 14.126 13.3057 13.9813 12.8204 13.692C12.3351 13.4027 11.9571 12.9967 11.6864 12.474C11.4251 11.942 11.2944 11.3167 11.2944 10.598C11.2944 9.87933 11.4251 9.25867 11.6864 8.736C11.9571 8.204 12.3351 7.79333 12.8204 7.504C13.3057 7.21467 13.8797 7.07 14.5424 7.07C15.1957 7.07 15.7651 7.21467 16.2504 7.504C16.7451 7.79333 17.1231 8.204 17.3844 8.736C17.6551 9.25867 17.7904 9.87933 17.7904 10.598C17.7904 11.3167 17.6551 11.942 17.3844 12.474C17.1231 12.9967 16.7451 13.4027 16.2504 13.692C15.7651 13.9813 15.1957 14.126 14.5424 14.126ZM14.5424 13.216C15.1771 13.216 15.6857 12.992 16.0684 12.544C16.4511 12.0867 16.6424 11.438 16.6424 10.598C16.6424 9.74867 16.4511 9.1 16.0684 8.652C15.6857 8.204 15.1771 7.98 14.5424 7.98C13.8984 7.98 13.3851 8.204 13.0024 8.652C12.6291 9.1 12.4424 9.74867 12.4424 10.598C12.4424 11.438 12.6291 12.0867 13.0024 12.544C13.3851 12.992 13.8984 13.216 14.5424 13.216ZM21.204 14L18.67 7.196H19.86L21.778 12.67L23.766 7.196H24.732L26.692 12.684L28.638 7.196H29.772L27.224 14H26.146L24.228 8.722L22.296 14H21.204ZM148.243 14.126C147.253 14.126 146.479 13.8973 145.919 13.44C145.368 12.9827 145.093 12.3807 145.093 11.634C145.093 10.9993 145.265 10.4533 145.611 9.996C145.956 9.53867 146.474 9.08133 147.165 8.624L147.375 8.484C146.955 8.02667 146.661 7.62067 146.493 7.266C146.325 6.91133 146.241 6.552 146.241 6.188C146.241 5.53467 146.46 5.00733 146.899 4.606C147.337 4.20467 147.925 4.004 148.663 4.004C149.307 4.004 149.834 4.186 150.245 4.55C150.665 4.90467 150.875 5.39 150.875 6.006C150.875 6.49133 150.735 6.93933 150.455 7.35C150.175 7.75133 149.661 8.18533 148.915 8.652L151.211 11.242C151.407 10.85 151.565 10.3927 151.687 9.87C151.808 9.34733 151.878 8.79667 151.897 8.218H152.877C152.858 8.946 152.76 9.632 152.583 10.276C152.415 10.9107 152.191 11.4707 151.911 11.956L153.801 14H152.415L151.309 12.754C150.917 13.1927 150.459 13.5333 149.937 13.776C149.414 14.0093 148.849 14.126 148.243 14.126ZM148.663 4.886C148.261 4.886 147.935 5.00267 147.683 5.236C147.431 5.46933 147.305 5.77733 147.305 6.16C147.305 6.356 147.333 6.538 147.389 6.706C147.445 6.86467 147.543 7.04667 147.683 7.252C147.832 7.448 148.033 7.69067 148.285 7.98C148.873 7.60667 149.283 7.27533 149.517 6.986C149.759 6.69667 149.881 6.38867 149.881 6.062C149.881 5.698 149.769 5.41333 149.545 5.208C149.321 4.99333 149.027 4.886 148.663 4.886ZM148.299 13.188C149.26 13.188 150.044 12.8147 150.651 12.068L148.005 9.184L147.837 9.296C147.239 9.688 146.819 10.0473 146.577 10.374C146.334 10.7007 146.213 11.0927 146.213 11.55C146.213 12.0633 146.39 12.4647 146.745 12.754C147.099 13.0433 147.617 13.188 148.299 13.188ZM104.624 33.126C104.157 33.126 103.737 33.0373 103.364 32.86C103 32.6733 102.711 32.4213 102.496 32.104C102.281 31.7867 102.174 31.432 102.174 31.04C102.174 30.5453 102.3 30.1533 102.552 29.864C102.813 29.5747 103.238 29.3693 103.826 29.248C104.423 29.1173 105.235 29.052 106.262 29.052H106.71V28.618C106.71 28.0393 106.589 27.624 106.346 27.372C106.113 27.1107 105.735 26.98 105.212 26.98C104.801 26.98 104.405 27.0407 104.022 27.162C103.639 27.274 103.247 27.4607 102.846 27.722L102.454 26.896C102.809 26.644 103.238 26.4433 103.742 26.294C104.255 26.1447 104.745 26.07 105.212 26.07C106.089 26.07 106.738 26.2847 107.158 26.714C107.587 27.1433 107.802 27.8107 107.802 28.716V33H106.738V31.824C106.561 32.2253 106.285 32.5427 105.912 32.776C105.548 33.0093 105.119 33.126 104.624 33.126ZM104.806 32.272C105.366 32.272 105.823 32.0807 106.178 31.698C106.533 31.306 106.71 30.8113 106.71 30.214V29.794H106.276C105.52 29.794 104.923 29.8313 104.484 29.906C104.055 29.9713 103.751 30.0927 103.574 30.27C103.406 30.438 103.322 30.6713 103.322 30.97C103.322 31.3527 103.453 31.6653 103.714 31.908C103.985 32.1507 104.349 32.272 104.806 32.272ZM111.992 33.126C111.301 33.126 110.778 32.9253 110.424 32.524C110.078 32.1133 109.906 31.5207 109.906 30.746V23.13H111.04V30.662C111.04 31.6607 111.436 32.16 112.23 32.16C112.463 32.16 112.673 32.132 112.86 32.076L112.832 33.028C112.542 33.0933 112.262 33.126 111.992 33.126ZM113.908 24.502V23.228H115.308V24.502H113.908ZM114.048 33V26.196H115.182V33H114.048ZM120.312 35.646C119.724 35.646 119.169 35.5667 118.646 35.408C118.133 35.2587 117.676 35.03 117.274 34.722L117.652 33.896C118.072 34.1947 118.488 34.4093 118.898 34.54C119.318 34.6707 119.771 34.736 120.256 34.736C121.6 34.736 122.272 34.0453 122.272 32.664V31.46C122.076 31.8893 121.768 32.23 121.348 32.482C120.938 32.7247 120.466 32.846 119.934 32.846C119.309 32.846 118.768 32.7013 118.31 32.412C117.853 32.1227 117.498 31.726 117.246 31.222C117.004 30.7087 116.882 30.116 116.882 29.444C116.882 28.772 117.004 28.184 117.246 27.68C117.498 27.1667 117.853 26.77 118.31 26.49C118.768 26.21 119.309 26.07 119.934 26.07C120.466 26.07 120.938 26.1913 121.348 26.434C121.768 26.6767 122.076 27.008 122.272 27.428V26.196H123.378V32.51C123.378 33.5553 123.117 34.3393 122.594 34.862C122.081 35.3847 121.32 35.646 120.312 35.646ZM120.144 31.922C120.798 31.922 121.316 31.698 121.698 31.25C122.081 30.802 122.272 30.2 122.272 29.444C122.272 28.688 122.081 28.0907 121.698 27.652C121.316 27.204 120.798 26.98 120.144 26.98C119.5 26.98 118.987 27.204 118.604 27.652C118.222 28.0907 118.03 28.688 118.03 29.444C118.03 30.2 118.222 30.802 118.604 31.25C118.987 31.698 119.5 31.922 120.144 31.922ZM125.505 33V26.196H126.611V27.358C126.835 26.9287 127.153 26.6067 127.563 26.392C127.974 26.1773 128.436 26.07 128.949 26.07C130.564 26.07 131.371 26.966 131.371 28.758V33H130.237V28.828C130.237 28.1933 130.111 27.7313 129.859 27.442C129.617 27.1433 129.225 26.994 128.683 26.994C128.058 26.994 127.559 27.19 127.185 27.582C126.821 27.9647 126.639 28.478 126.639 29.122V33H125.505ZM139.788 33.126C138.985 33.126 138.383 32.916 137.982 32.496C137.581 32.0667 137.38 31.4507 137.38 30.648V27.078H136.05V26.196H137.38V24.11H138.514V26.196H140.67V27.078H138.514V30.536C138.514 31.068 138.626 31.474 138.85 31.754C139.074 32.0247 139.438 32.16 139.942 32.16C140.091 32.16 140.241 32.1413 140.39 32.104C140.539 32.0667 140.675 32.0293 140.796 31.992L140.992 32.86C140.871 32.9253 140.693 32.986 140.46 33.042C140.227 33.098 140.003 33.126 139.788 33.126ZM144.712 33.126C144.05 33.126 143.476 32.9813 142.99 32.692C142.505 32.4027 142.127 31.9967 141.856 31.474C141.595 30.942 141.464 30.3167 141.464 29.598C141.464 28.8793 141.595 28.2587 141.856 27.736C142.127 27.204 142.505 26.7933 142.99 26.504C143.476 26.2147 144.05 26.07 144.712 26.07C145.366 26.07 145.935 26.2147 146.42 26.504C146.915 26.7933 147.293 27.204 147.554 27.736C147.825 28.2587 147.96 28.8793 147.96 29.598C147.96 30.3167 147.825 30.942 147.554 31.474C147.293 31.9967 146.915 32.4027 146.42 32.692C145.935 32.9813 145.366 33.126 144.712 33.126ZM144.712 32.216C145.347 32.216 145.856 31.992 146.238 31.544C146.621 31.0867 146.812 30.438 146.812 29.598C146.812 28.7487 146.621 28.1 146.238 27.652C145.856 27.204 145.347 26.98 144.712 26.98C144.068 26.98 143.555 27.204 143.172 27.652C142.799 28.1 142.612 28.7487 142.612 29.598C142.612 30.438 142.799 31.0867 143.172 31.544C143.555 31.992 144.068 32.216 144.712 32.216ZM152.674 35.646C152.086 35.646 151.53 35.5667 151.008 35.408C150.494 35.2587 150.037 35.03 149.636 34.722L150.014 33.896C150.434 34.1947 150.849 34.4093 151.26 34.54C151.68 34.6707 152.132 34.736 152.618 34.736C153.962 34.736 154.634 34.0453 154.634 32.664V31.46C154.438 31.8893 154.13 32.23 153.71 32.482C153.299 32.7247 152.828 32.846 152.296 32.846C151.67 32.846 151.129 32.7013 150.672 32.412C150.214 32.1227 149.86 31.726 149.608 31.222C149.365 30.7087 149.244 30.116 149.244 29.444C149.244 28.772 149.365 28.184 149.608 27.68C149.86 27.1667 150.214 26.77 150.672 26.49C151.129 26.21 151.67 26.07 152.296 26.07C152.828 26.07 153.299 26.1913 153.71 26.434C154.13 26.6767 154.438 27.008 154.634 27.428V26.196H155.74V32.51C155.74 33.5553 155.478 34.3393 154.956 34.862C154.442 35.3847 153.682 35.646 152.674 35.646ZM152.506 31.922C153.159 31.922 153.677 31.698 154.06 31.25C154.442 30.802 154.634 30.2 154.634 29.444C154.634 28.688 154.442 28.0907 154.06 27.652C153.677 27.204 153.159 26.98 152.506 26.98C151.862 26.98 151.348 27.204 150.966 27.652C150.583 28.0907 150.392 28.688 150.392 29.444C150.392 30.2 150.583 30.802 150.966 31.25C151.348 31.698 151.862 31.922 152.506 31.922ZM160.933 33.126C159.859 33.126 159.01 32.8133 158.385 32.188C157.759 31.5533 157.447 30.6947 157.447 29.612C157.447 28.912 157.587 28.296 157.867 27.764C158.147 27.2227 158.529 26.8073 159.015 26.518C159.509 26.2193 160.079 26.07 160.723 26.07C161.647 26.07 162.37 26.3687 162.893 26.966C163.415 27.554 163.677 28.366 163.677 29.402V29.836H158.553C158.59 30.6107 158.814 31.2033 159.225 31.614C159.635 32.0153 160.205 32.216 160.933 32.216C161.343 32.216 161.735 32.1553 162.109 32.034C162.482 31.9033 162.837 31.6933 163.173 31.404L163.565 32.202C163.257 32.4913 162.865 32.72 162.389 32.888C161.913 33.0467 161.427 33.126 160.933 33.126ZM160.751 26.91C160.107 26.91 159.598 27.1107 159.225 27.512C158.851 27.9133 158.632 28.4407 158.567 29.094H162.697C162.669 28.4033 162.487 27.8667 162.151 27.484C161.824 27.1013 161.357 26.91 160.751 26.91ZM168.048 33.126C167.245 33.126 166.643 32.916 166.242 32.496C165.841 32.0667 165.64 31.4507 165.64 30.648V27.078H164.31V26.196H165.64V24.11H166.774V26.196H168.93V27.078H166.774V30.536C166.774 31.068 166.886 31.474 167.11 31.754C167.334 32.0247 167.698 32.16 168.202 32.16C168.351 32.16 168.501 32.1413 168.65 32.104C168.799 32.0667 168.935 32.0293 169.056 31.992L169.252 32.86C169.131 32.9253 168.953 32.986 168.72 33.042C168.487 33.098 168.263 33.126 168.048 33.126ZM170.212 33V23.13H171.346V27.316C171.57 26.9053 171.883 26.5973 172.284 26.392C172.695 26.1773 173.152 26.07 173.656 26.07C175.271 26.07 176.078 26.966 176.078 28.758V33H174.944V28.828C174.944 28.1933 174.818 27.7313 174.566 27.442C174.324 27.1433 173.932 26.994 173.39 26.994C172.765 26.994 172.266 27.19 171.892 27.582C171.528 27.9647 171.346 28.478 171.346 29.122V33H170.212ZM181.235 33.126C180.162 33.126 179.313 32.8133 178.687 32.188C178.062 31.5533 177.749 30.6947 177.749 29.612C177.749 28.912 177.889 28.296 178.169 27.764C178.449 27.2227 178.832 26.8073 179.317 26.518C179.812 26.2193 180.381 26.07 181.025 26.07C181.949 26.07 182.673 26.3687 183.195 26.966C183.718 27.554 183.979 28.366 183.979 29.402V29.836H178.855C178.893 30.6107 179.117 31.2033 179.527 31.614C179.938 32.0153 180.507 32.216 181.235 32.216C181.646 32.216 182.038 32.1553 182.411 32.034C182.785 31.9033 183.139 31.6933 183.475 31.404L183.867 32.202C183.559 32.4913 183.167 32.72 182.691 32.888C182.215 33.0467 181.73 33.126 181.235 33.126ZM181.053 26.91C180.409 26.91 179.901 27.1107 179.527 27.512C179.154 27.9133 178.935 28.4407 178.869 29.094H182.999C182.971 28.4033 182.789 27.8667 182.453 27.484C182.127 27.1013 181.66 26.91 181.053 26.91ZM185.621 33V26.196H186.727V27.414C187.091 26.5927 187.837 26.14 188.967 26.056L189.373 26.014L189.457 26.994L188.743 27.078C188.099 27.134 187.609 27.3393 187.273 27.694C186.937 28.0393 186.769 28.5153 186.769 29.122V33H185.621Z" fill="#030C23"/>
<path d="M34.7792 14V4.13H39.0912C40.1272 4.13 40.9298 4.35867 41.4992 4.816C42.0685 5.264 42.3532 5.88933 42.3532 6.692C42.3532 7.224 42.2178 7.68133 41.9472 8.064C41.6765 8.44667 41.3032 8.72667 40.8272 8.904C41.3872 9.06267 41.8212 9.34267 42.1292 9.744C42.4465 10.136 42.6052 10.6353 42.6052 11.242C42.6052 12.1193 42.3065 12.8007 41.7092 13.286C41.1212 13.762 40.2998 14 39.2452 14H34.7792ZM36.5012 8.316H38.7832C40.0058 8.316 40.6172 7.84467 40.6172 6.902C40.6172 5.95933 40.0058 5.488 38.7832 5.488H36.5012V8.316ZM36.5012 12.642H39.0212C40.2532 12.642 40.8692 12.1473 40.8692 11.158C40.8692 10.1687 40.2532 9.674 39.0212 9.674H36.5012V12.642ZM47.6238 14.14C46.8492 14.14 46.1818 13.9953 45.6218 13.706C45.0618 13.4167 44.6278 13.006 44.3198 12.474C44.0212 11.942 43.8718 11.312 43.8718 10.584C43.8718 9.87467 44.0165 9.254 44.3058 8.722C44.6045 8.19 45.0105 7.77467 45.5238 7.476C46.0465 7.168 46.6392 7.014 47.3018 7.014C48.2725 7.014 49.0378 7.322 49.5978 7.938C50.1672 8.554 50.4518 9.394 50.4518 10.458V10.976H45.5518C45.6825 12.1987 46.3825 12.81 47.6518 12.81C48.0345 12.81 48.4172 12.754 48.7998 12.642C49.1825 12.5207 49.5325 12.334 49.8498 12.082L50.3398 13.258C50.0132 13.5287 49.6025 13.7433 49.1078 13.902C48.6132 14.0607 48.1185 14.14 47.6238 14.14ZM47.3718 8.204C46.8585 8.204 46.4432 8.36267 46.1258 8.68C45.8085 8.99733 45.6172 9.42667 45.5518 9.968H48.9958C48.9585 9.39867 48.7998 8.96467 48.5198 8.666C48.2492 8.358 47.8665 8.204 47.3718 8.204ZM54.0917 14.14C53.5971 14.14 53.1537 14.0467 52.7617 13.86C52.3791 13.664 52.0757 13.4027 51.8517 13.076C51.6371 12.7493 51.5297 12.3807 51.5297 11.97C51.5297 11.466 51.6604 11.0693 51.9217 10.78C52.1831 10.4813 52.6077 10.2667 53.1957 10.136C53.7837 10.0053 54.5724 9.94 55.5617 9.94H56.0517V9.646C56.0517 9.17933 55.9491 8.84333 55.7437 8.638C55.5384 8.43267 55.1931 8.33 54.7077 8.33C54.3251 8.33 53.9331 8.39067 53.5317 8.512C53.1304 8.624 52.7244 8.80133 52.3137 9.044L51.8097 7.854C52.0524 7.686 52.3371 7.54133 52.6637 7.42C52.9997 7.28933 53.3497 7.19133 53.7137 7.126C54.0871 7.05133 54.4371 7.014 54.7637 7.014C55.7624 7.014 56.5044 7.24733 56.9897 7.714C57.4751 8.17133 57.7177 8.88533 57.7177 9.856V14H56.0797V12.908C55.9211 13.2907 55.6691 13.594 55.3237 13.818C54.9784 14.0327 54.5677 14.14 54.0917 14.14ZM54.4557 12.936C54.9131 12.936 55.2911 12.7773 55.5897 12.46C55.8977 12.1427 56.0517 11.7413 56.0517 11.256V10.948H55.5757C54.6984 10.948 54.0871 11.018 53.7417 11.158C53.4057 11.2887 53.2377 11.5313 53.2377 11.886C53.2377 12.194 53.3451 12.446 53.5597 12.642C53.7744 12.838 54.0731 12.936 54.4557 12.936ZM61.972 14.14C60.292 14.14 59.452 13.1973 59.452 11.312V7.154H61.202V11.34C61.202 11.8253 61.3 12.1847 61.496 12.418C61.692 12.6513 62.0047 12.768 62.434 12.768C62.9007 12.768 63.2833 12.6093 63.582 12.292C63.8807 11.9653 64.03 11.536 64.03 11.004V7.154H65.78V14H64.072V12.978C63.6147 13.7527 62.9147 14.14 61.972 14.14ZM70.7374 14.14C68.9267 14.14 68.0214 13.244 68.0214 11.452V8.47H66.7054V7.154H68.0214V5.11H69.7714V7.154H71.8434V8.47H69.7714V11.354C69.7714 11.802 69.8694 12.138 70.0654 12.362C70.2614 12.586 70.5787 12.698 71.0174 12.698C71.1481 12.698 71.2834 12.684 71.4234 12.656C71.5634 12.6187 71.7081 12.5813 71.8574 12.544L72.1234 13.832C71.9554 13.9253 71.7407 14 71.4794 14.056C71.2274 14.112 70.9801 14.14 70.7374 14.14ZM73.6998 16.52L74.9598 13.72L72.1178 7.154H73.9798L75.8978 11.942L77.8578 7.154H79.6218L75.5058 16.52H73.6998Z" fill="#0060FF"/>
<path d="M88.9864 14.14C87.9597 14.14 87.0777 13.9347 86.3404 13.524C85.6124 13.104 85.0524 12.516 84.6604 11.76C84.2684 10.9947 84.0724 10.094 84.0724 9.058C84.0724 8.022 84.2684 7.126 84.6604 6.37C85.0524 5.614 85.6124 5.03067 86.3404 4.62C87.0777 4.2 87.9597 3.99 88.9864 3.99C89.6491 3.99 90.2744 4.09267 90.8624 4.298C91.4597 4.50333 91.9497 4.79733 92.3324 5.18L91.7444 6.608C91.3244 6.25333 90.8951 5.99667 90.4564 5.838C90.0177 5.67 89.5464 5.586 89.0424 5.586C88.0437 5.586 87.2831 5.88933 86.7604 6.496C86.2377 7.09333 85.9764 7.94733 85.9764 9.058C85.9764 10.1687 86.2377 11.0273 86.7604 11.634C87.2831 12.2407 88.0437 12.544 89.0424 12.544C89.5464 12.544 90.0177 12.4647 90.4564 12.306C90.8951 12.138 91.3244 11.8767 91.7444 11.522L92.3324 12.95C91.9497 13.3233 91.4597 13.6173 90.8624 13.832C90.2744 14.0373 89.6491 14.14 88.9864 14.14ZM96.3582 14.14C95.6488 14.14 95.0328 13.9953 94.5102 13.706C93.9875 13.4167 93.5815 13.006 93.2922 12.474C93.0028 11.9327 92.8582 11.298 92.8582 10.57C92.8582 9.842 93.0028 9.212 93.2922 8.68C93.5815 8.148 93.9875 7.73733 94.5102 7.448C95.0328 7.15867 95.6488 7.014 96.3582 7.014C97.0675 7.014 97.6835 7.15867 98.2062 7.448C98.7288 7.73733 99.1348 8.148 99.4242 8.68C99.7135 9.212 99.8582 9.842 99.8582 10.57C99.8582 11.298 99.7135 11.9327 99.4242 12.474C99.1348 13.006 98.7288 13.4167 98.2062 13.706C97.6835 13.9953 97.0675 14.14 96.3582 14.14ZM96.3582 12.81C96.8808 12.81 97.3008 12.6233 97.6182 12.25C97.9355 11.8673 98.0942 11.3073 98.0942 10.57C98.0942 9.82333 97.9355 9.268 97.6182 8.904C97.3008 8.53067 96.8808 8.344 96.3582 8.344C95.8355 8.344 95.4155 8.53067 95.0982 8.904C94.7808 9.268 94.6222 9.82333 94.6222 10.57C94.6222 11.3073 94.7808 11.8673 95.0982 12.25C95.4155 12.6233 95.8355 12.81 96.3582 12.81ZM101.303 14V7.154H103.011V8.218C103.244 7.826 103.557 7.52733 103.949 7.322C104.35 7.11667 104.798 7.014 105.293 7.014C106.907 7.014 107.715 7.952 107.715 9.828V14H105.965V9.912C105.965 9.38 105.862 8.99267 105.657 8.75C105.461 8.50733 105.153 8.386 104.733 8.386C104.219 8.386 103.809 8.54933 103.501 8.876C103.202 9.19333 103.053 9.618 103.053 10.15V14H101.303ZM112.628 14.14C110.817 14.14 109.912 13.244 109.912 11.452V8.47H108.596V7.154H109.912V5.11H111.662V7.154H113.734V8.47H111.662V11.354C111.662 11.802 111.76 12.138 111.956 12.362C112.152 12.586 112.469 12.698 112.908 12.698C113.039 12.698 113.174 12.684 113.314 12.656C113.454 12.6187 113.599 12.5813 113.748 12.544L114.014 13.832C113.846 13.9253 113.631 14 113.37 14.056C113.118 14.112 112.871 14.14 112.628 14.14ZM118.171 14.14C117.396 14.14 116.729 13.9953 116.169 13.706C115.609 13.4167 115.175 13.006 114.867 12.474C114.568 11.942 114.419 11.312 114.419 10.584C114.419 9.87467 114.563 9.254 114.853 8.722C115.151 8.19 115.557 7.77467 116.071 7.476C116.593 7.168 117.186 7.014 117.849 7.014C118.819 7.014 119.585 7.322 120.145 7.938C120.714 8.554 120.999 9.394 120.999 10.458V10.976H116.099C116.229 12.1987 116.929 12.81 118.199 12.81C118.581 12.81 118.964 12.754 119.347 12.642C119.729 12.5207 120.079 12.334 120.397 12.082L120.887 13.258C120.56 13.5287 120.149 13.7433 119.655 13.902C119.16 14.0607 118.665 14.14 118.171 14.14ZM117.919 8.204C117.405 8.204 116.99 8.36267 116.673 8.68C116.355 8.99733 116.164 9.42667 116.099 9.968H119.543C119.505 9.39867 119.347 8.96467 119.067 8.666C118.796 8.358 118.413 8.204 117.919 8.204ZM124.891 14.14C124.312 14.14 123.771 14.07 123.267 13.93C122.763 13.79 122.343 13.5893 122.007 13.328L122.455 12.18C122.8 12.4133 123.187 12.5953 123.617 12.726C124.046 12.8473 124.475 12.908 124.905 12.908C125.353 12.908 125.684 12.8333 125.899 12.684C126.123 12.5253 126.235 12.32 126.235 12.068C126.235 11.676 125.945 11.424 125.367 11.312L123.967 11.046C122.781 10.822 122.189 10.206 122.189 9.198C122.189 8.75 122.31 8.36267 122.553 8.036C122.805 7.70933 123.15 7.45733 123.589 7.28C124.027 7.10267 124.531 7.014 125.101 7.014C125.586 7.014 126.053 7.084 126.501 7.224C126.949 7.35467 127.331 7.55533 127.649 7.826L127.173 8.974C126.902 8.75 126.575 8.57267 126.193 8.442C125.819 8.31133 125.46 8.246 125.115 8.246C124.657 8.246 124.317 8.32533 124.093 8.484C123.878 8.64267 123.771 8.85267 123.771 9.114C123.771 9.52467 124.037 9.77667 124.569 9.87L125.969 10.136C126.575 10.248 127.033 10.4533 127.341 10.752C127.658 11.0507 127.817 11.452 127.817 11.956C127.817 12.6373 127.551 13.174 127.019 13.566C126.487 13.9487 125.777 14.14 124.891 14.14ZM132.288 14.14C130.478 14.14 129.572 13.244 129.572 11.452V8.47H128.256V7.154H129.572V5.11H131.322V7.154H133.394V8.47H131.322V11.354C131.322 11.802 131.42 12.138 131.616 12.362C131.812 12.586 132.13 12.698 132.568 12.698C132.699 12.698 132.834 12.684 132.974 12.656C133.114 12.6187 133.259 12.5813 133.408 12.544L133.674 13.832C133.506 13.9253 133.292 14 133.03 14.056C132.778 14.112 132.531 14.14 132.288 14.14ZM137.031 14.14C136.453 14.14 135.911 14.07 135.407 13.93C134.903 13.79 134.483 13.5893 134.147 13.328L134.595 12.18C134.941 12.4133 135.328 12.5953 135.757 12.726C136.187 12.8473 136.616 12.908 137.045 12.908C137.493 12.908 137.825 12.8333 138.039 12.684C138.263 12.5253 138.375 12.32 138.375 12.068C138.375 11.676 138.086 11.424 137.507 11.312L136.107 11.046C134.922 10.822 134.329 10.206 134.329 9.198C134.329 8.75 134.451 8.36267 134.693 8.036C134.945 7.70933 135.291 7.45733 135.729 7.28C136.168 7.10267 136.672 7.014 137.241 7.014C137.727 7.014 138.193 7.084 138.641 7.224C139.089 7.35467 139.472 7.55533 139.789 7.826L139.313 8.974C139.043 8.75 138.716 8.57267 138.333 8.442C137.96 8.31133 137.601 8.246 137.255 8.246C136.798 8.246 136.457 8.32533 136.233 8.484C136.019 8.64267 135.911 8.85267 135.911 9.114C135.911 9.52467 136.177 9.77667 136.709 9.87L138.109 10.136C138.716 10.248 139.173 10.4533 139.481 10.752C139.799 11.0507 139.957 11.452 139.957 11.956C139.957 12.6373 139.691 13.174 139.159 13.566C138.627 13.9487 137.918 14.14 137.031 14.14ZM57.3252 33V24.628H53.9372V23.13H62.5052V24.628H59.1172V33H57.3252ZM62.3788 33V26.154H64.0868V27.358C64.4228 26.546 65.1414 26.098 66.2428 26.014L66.7748 25.972L66.8868 27.456L65.8788 27.554C64.7308 27.666 64.1568 28.254 64.1568 29.318V33H62.3788ZM71.1258 33.14C70.3511 33.14 69.6838 32.9953 69.1238 32.706C68.5638 32.4167 68.1298 32.006 67.8218 31.474C67.5231 30.942 67.3738 30.312 67.3738 29.584C67.3738 28.8747 67.5185 28.254 67.8078 27.722C68.1065 27.19 68.5125 26.7747 69.0258 26.476C69.5485 26.168 70.1411 26.014 70.8038 26.014C71.7745 26.014 72.5398 26.322 73.0998 26.938C73.6691 27.554 73.9538 28.394 73.9538 29.458V29.976H69.0538C69.1845 31.1987 69.8845 31.81 71.1538 31.81C71.5365 31.81 71.9191 31.754 72.3018 31.642C72.6845 31.5207 73.0345 31.334 73.3518 31.082L73.8418 32.258C73.5151 32.5287 73.1045 32.7433 72.6098 32.902C72.1151 33.0607 71.6205 33.14 71.1258 33.14ZM70.8738 27.204C70.3605 27.204 69.9451 27.3627 69.6278 27.68C69.3105 27.9973 69.1191 28.4267 69.0538 28.968H72.4978C72.4605 28.3987 72.3018 27.9647 72.0218 27.666C71.7511 27.358 71.3685 27.204 70.8738 27.204ZM75.3397 33V26.154H77.0477V27.218C77.281 26.826 77.5937 26.5273 77.9857 26.322C78.387 26.1167 78.835 26.014 79.3297 26.014C80.9444 26.014 81.7517 26.952 81.7517 28.828V33H80.0017V28.912C80.0017 28.38 79.899 27.9927 79.6937 27.75C79.4977 27.5073 79.1897 27.386 78.7697 27.386C78.2564 27.386 77.8457 27.5493 77.5377 27.876C77.239 28.1933 77.0897 28.618 77.0897 29.15V33H75.3397ZM86.1611 33.14C85.5638 33.14 85.0365 32.9953 84.5791 32.706C84.1311 32.4167 83.7811 32.006 83.5291 31.474C83.2771 30.9327 83.1511 30.298 83.1511 29.57C83.1511 28.8327 83.2771 28.2027 83.5291 27.68C83.7811 27.148 84.1311 26.7373 84.5791 26.448C85.0365 26.1587 85.5638 26.014 86.1611 26.014C86.6465 26.014 87.0851 26.1213 87.4771 26.336C87.8691 26.5507 88.1631 26.8353 88.3591 27.19V23.13H90.1091V33H88.4011V31.866C88.2145 32.258 87.9205 32.5707 87.5191 32.804C87.1178 33.028 86.6651 33.14 86.1611 33.14ZM86.6511 31.81C87.1738 31.81 87.5938 31.6233 87.9111 31.25C88.2285 30.8673 88.3871 30.3073 88.3871 29.57C88.3871 28.8233 88.2285 28.268 87.9111 27.904C87.5938 27.5307 87.1738 27.344 86.6511 27.344C86.1285 27.344 85.7085 27.5307 85.3911 27.904C85.0738 28.268 84.9151 28.8233 84.9151 29.57C84.9151 30.3073 85.0738 30.8673 85.3911 31.25C85.7085 31.6233 86.1285 31.81 86.6511 31.81ZM91.6997 33V31.866L95.2277 27.47H91.6997V26.154H97.1317V27.288L93.6037 31.684H97.2857V33H91.6997Z" fill="white"/>
<path d="M1.078 33V23.13H7.532V24.558H2.87V27.344H7.238V28.772H2.87V33H1.078ZM10.7519 33.14C10.2572 33.14 9.81389 33.0467 9.42189 32.86C9.03922 32.664 8.73589 32.4027 8.51189 32.076C8.29722 31.7493 8.18989 31.3807 8.18989 30.97C8.18989 30.466 8.32056 30.0693 8.58189 29.78C8.84322 29.4813 9.26789 29.2667 9.85589 29.136C10.4439 29.0053 11.2326 28.94 12.2219 28.94H12.7119V28.646C12.7119 28.1793 12.6092 27.8433 12.4039 27.638C12.1986 27.4327 11.8532 27.33 11.3679 27.33C10.9852 27.33 10.5932 27.3907 10.1919 27.512C9.79056 27.624 9.38456 27.8013 8.97389 28.044L8.46989 26.854C8.71256 26.686 8.99722 26.5413 9.32389 26.42C9.65989 26.2893 10.0099 26.1913 10.3739 26.126C10.7472 26.0513 11.0972 26.014 11.4239 26.014C12.4226 26.014 13.1646 26.2473 13.6499 26.714C14.1352 27.1713 14.3779 27.8853 14.3779 28.856V33H12.7399V31.908C12.5812 32.2907 12.3292 32.594 11.9839 32.818C11.6386 33.0327 11.2279 33.14 10.7519 33.14ZM11.1159 31.936C11.5732 31.936 11.9512 31.7773 12.2499 31.46C12.5579 31.1427 12.7119 30.7413 12.7119 30.256V29.948H12.2359C11.3586 29.948 10.7472 30.018 10.4019 30.158C10.0659 30.2887 9.89789 30.5313 9.89789 30.886C9.89789 31.194 10.0052 31.446 10.2199 31.642C10.4346 31.838 10.7332 31.936 11.1159 31.936ZM18.6601 33.14C18.0815 33.14 17.5401 33.07 17.0361 32.93C16.5321 32.79 16.1121 32.5893 15.7761 32.328L16.2241 31.18C16.5695 31.4133 16.9568 31.5953 17.3861 31.726C17.8155 31.8473 18.2448 31.908 18.6741 31.908C19.1221 31.908 19.4535 31.8333 19.6681 31.684C19.8921 31.5253 20.0041 31.32 20.0041 31.068C20.0041 30.676 19.7148 30.424 19.1361 30.312L17.7361 30.046C16.5508 29.822 15.9581 29.206 15.9581 28.198C15.9581 27.75 16.0795 27.3627 16.3221 27.036C16.5741 26.7093 16.9195 26.4573 17.3581 26.28C17.7968 26.1027 18.3008 26.014 18.8701 26.014C19.3555 26.014 19.8221 26.084 20.2701 26.224C20.7181 26.3547 21.1008 26.5553 21.4181 26.826L20.9421 27.974C20.6715 27.75 20.3448 27.5727 19.9621 27.442C19.5888 27.3113 19.2295 27.246 18.8841 27.246C18.4268 27.246 18.0861 27.3253 17.8621 27.484C17.6475 27.6427 17.5401 27.8527 17.5401 28.114C17.5401 28.5247 17.8061 28.7767 18.3381 28.87L19.7381 29.136C20.3448 29.248 20.8021 29.4533 21.1101 29.752C21.4275 30.0507 21.5861 30.452 21.5861 30.956C21.5861 31.6373 21.3201 32.174 20.7881 32.566C20.2561 32.9487 19.5468 33.14 18.6601 33.14ZM22.9901 33V23.13H24.7401V27.148C24.9734 26.7747 25.2861 26.4947 25.6781 26.308C26.0701 26.112 26.5041 26.014 26.9801 26.014C28.5947 26.014 29.4021 26.952 29.4021 28.828V33H27.6521V28.912C27.6521 28.38 27.5494 27.9927 27.3441 27.75C27.1481 27.5073 26.8401 27.386 26.4201 27.386C25.9067 27.386 25.4961 27.5493 25.1881 27.876C24.8894 28.1933 24.7401 28.618 24.7401 29.15V33H22.9901ZM31.0675 24.684V22.976H33.0275V24.684H31.0675ZM31.1795 33V26.154H32.9295V33H31.1795ZM37.8699 33.14C37.1606 33.14 36.5446 32.9953 36.0219 32.706C35.4992 32.4167 35.0932 32.006 34.8039 31.474C34.5146 30.9327 34.3699 30.298 34.3699 29.57C34.3699 28.842 34.5146 28.212 34.8039 27.68C35.0932 27.148 35.4992 26.7373 36.0219 26.448C36.5446 26.1587 37.1606 26.014 37.8699 26.014C38.5792 26.014 39.1952 26.1587 39.7179 26.448C40.2406 26.7373 40.6466 27.148 40.9359 27.68C41.2252 28.212 41.3699 28.842 41.3699 29.57C41.3699 30.298 41.2252 30.9327 40.9359 31.474C40.6466 32.006 40.2406 32.4167 39.7179 32.706C39.1952 32.9953 38.5792 33.14 37.8699 33.14ZM37.8699 31.81C38.3926 31.81 38.8126 31.6233 39.1299 31.25C39.4472 30.8673 39.6059 30.3073 39.6059 29.57C39.6059 28.8233 39.4472 28.268 39.1299 27.904C38.8126 27.5307 38.3926 27.344 37.8699 27.344C37.3472 27.344 36.9272 27.5307 36.6099 27.904C36.2926 28.268 36.1339 28.8233 36.1339 29.57C36.1339 30.3073 36.2926 30.8673 36.6099 31.25C36.9272 31.6233 37.3472 31.81 37.8699 31.81ZM42.8143 33V26.154H44.5223V27.218C44.7556 26.826 45.0683 26.5273 45.4603 26.322C45.8616 26.1167 46.3096 26.014 46.8043 26.014C48.419 26.014 49.2263 26.952 49.2263 28.828V33H47.4763V28.912C47.4763 28.38 47.3736 27.9927 47.1683 27.75C46.9723 27.5073 46.6643 27.386 46.2443 27.386C45.731 27.386 45.3203 27.5493 45.0123 27.876C44.7136 28.1933 44.5643 28.618 44.5643 29.15V33H42.8143Z" fill="#FF5C28"/>
</svg>
