<svg width="22" height="24" viewBox="0 0 22 24" fill="none" xmlns="http://www.w3.org/2000/svg">
<path d="M8.57448 1.4997C8.75375 1.0566 9.06127 0.67713 9.45761 0.409938C9.85395 0.142745 10.3211 0 10.799 0C11.277 0 11.7441 0.142745 12.1405 0.409938C12.5368 0.67713 12.8443 1.0566 13.0236 1.4997C14.7979 1.98766 16.363 3.0446 17.4785 4.50818C18.5939 5.97176 19.1981 7.76105 19.1982 9.60124V15.2371L21.3963 18.5343C21.5169 18.715 21.5861 18.925 21.5967 19.142C21.6072 19.359 21.5587 19.5748 21.4562 19.7663C21.3537 19.9578 21.2011 20.118 21.0148 20.2296C20.8284 20.3412 20.6153 20.4001 20.398 20.4001H14.9566C14.8121 21.3997 14.3124 22.3138 13.5488 22.975C12.7852 23.6361 11.8091 24 10.799 24C9.78904 24 8.81285 23.6361 8.04929 22.975C7.28574 22.3138 6.78595 21.3997 6.64148 20.4001H1.20005C0.982825 20.4001 0.769663 20.3412 0.583308 20.2296C0.396953 20.118 0.244397 19.9578 0.141916 19.7663C0.0394351 19.5748 -0.00912594 19.359 0.00141327 19.142C0.0119525 18.925 0.0811966 18.715 0.201759 18.5343L2.39993 15.2371V9.60124C2.39993 5.73285 5.01565 2.47399 8.57448 1.4997ZM9.10242 20.4001C9.22635 20.7513 9.45613 21.0553 9.7601 21.2704C10.0641 21.4855 10.4273 21.601 10.7996 21.601C11.172 21.601 11.5352 21.4855 11.8392 21.2704C12.1432 21.0553 12.3729 20.7513 12.4969 20.4001H9.10122H9.10242ZM10.799 3.60187C9.20791 3.60187 7.68195 4.23395 6.55685 5.35905C5.43175 6.48415 4.79968 8.01011 4.79968 9.60124V15.6006C4.79973 15.8376 4.72959 16.0693 4.5981 16.2665L3.44262 18.0004H18.1543L16.9988 16.2665C16.8677 16.0692 16.798 15.8375 16.7984 15.6006V9.60124C16.7984 8.01011 16.1663 6.48415 15.0412 5.35905C13.9161 4.23395 12.3902 3.60187 10.799 3.60187Z" fill="white"/>
</svg>
